<svg xmlns="http://www.w3.org/2000/svg" fill="none" viewBox="0 0 153 22">
  <g fill="#231F20">
    <path d="M49.858 5.96c.218-.726.753-1.357 1.208-1.435.272-.046.495.117.65.566.048.143.2.619.136 1.195l-.049.173.5.172c-.017.075-.052.18-.102.33-.106.314-.06.294-.26.24-.12-.032-.22-.065-.333-.09-.366.707-1.186 1.507-2.853 2.261-.448.202-.513-.026-.154-.234.306-.177 1.958-1.29 2.472-2.152-.443-.114-.815-.24-1.072-.402-.177-.108-.24-.297-.143-.624ZM41.52 7.438c.798-.305 2.278-.837 3.19-1.18.073 0 .111 0 .073.076-.037.153-.152.42-.188.533 0 .076-.077.076-.115.115-.834.304-2.123.798-2.77 1.026-.113.038-.266.115-.378.153-.077.037-.152.037-.114-.038.037-.19.152-.496.188-.571.038-.077.077-.077.114-.114Zm2.05.646c.796-.304 2.276-.836 3.186-1.179.077 0 .115 0 .077.077-.04.151-.151.417-.19.532 0 .076-.077.076-.113.113-.835.305-2.125.8-2.771 1.028-.114.039-.266.114-.379.152-.075.038-.152.038-.114-.038a3.31 3.31 0 0 1 .19-.57c.037-.076.075-.076.114-.115Zm-5.843 3.613c.379-.494.91-.95 1.63-1.293.646-.266 1.366.304 1.556.876.04.151-.113.76-.19 1.026-.075.266-.075.19-.226 0-.343-.456-.76-.837-1.329-.647v.077c-.493.19-1.138.722-1.518 1.216-.417.457-.72 1.028-.265 1.484.76.722 2.05.494 2.92.609.723.113.723 1.368.267 1.902-1.024 1.33-3.983 2.509-6.032 2.166-1.33-.266-2.504-1.254-2.428-3.042.037-.76.265-2.13.834-2.853.153-.19.341-.228.19.19-.266.8-.646 1.637-.456 2.55.38 1.596 2.012 2.167 3.795 1.901 1.139-.152 2.809-.913 3.642-1.674-.342-.456-2.011.19-3.187-.723-.871-.722 0-2.775.797-3.765Zm7.513.228a3.637 3.637 0 0 1 .036-1.103c.04-.228.152-.303.191-.114.456 1.445.568 2.967 1.327 4.374.609 1.18 1.556 1.331 2.733.798h.038c-.532-.873.113-2.471.607-3.27-.228-.114-.417-1.37 0-1.484.114-.038.266 0 .493.077.91.38 2.618 1.902 3.226 2.89.53.876.53 2.32-.04 2.89-.075.077-.304.077-.568-.037-.721-.229-1.328-.57-2.048-.533-1.215.685-2.618 1.256-3.49.989-.799-.304-1.292-1.064-1.633-2.244-.114.456-.228.876-.684 1.218-.607.418-1.67.799-2.693.646-.835-.152-.455-1.18-.342-1.408.152-.303.152 0 .38.077.493.19 2.655-.038 3.11-1.178-.226-.838-.492-1.713-.643-2.588ZM58.226.242h.037c.076-.113.114-.113.228-.038.304.19.76.458 1.025.648.113.076.075.151 0 .227-.152.267-.418.685-.57.951-.077.115-.15.115-.265.038-.304-.152-.722-.418-.986-.533-.114-.075-.152-.151-.077-.266.152-.266.418-.722.608-1.027Zm1.782 2.169h.038c.077-.115.115-.115.23-.039.302.192.757.457 1.023.648.075.075.075.151 0 .228-.153.266-.418.684-.569.95-.078.114-.152.114-.266.038-.303-.151-.72-.418-.987-.532-.113-.077-.152-.152-.076-.267.152-.266.418-.722.607-1.026Zm-3.452 1.255c.152-.266.417-.723.606-1.027.078-.115.116-.115.229-.038.304.19.758.455 1.023.647.115.038.077.152.04.227-.152.266-.418.685-.57.951-.076.115-.153.115-.266.038-.304-.152-.721-.418-.987-.532-.113-.075-.113-.152-.075-.266Zm8.68 4.532c.114-.228.303-.57.454-.799.037-.075.076-.075.19-.037.228.113.607.342.834.495.076.036.076.113 0 .189a7.6 7.6 0 0 1-.455.761c-.037.076-.114.076-.19.04a15.125 15.125 0 0 1-.76-.42c-.112-.038-.112-.115-.037-.19l-.036-.039Zm.378 5.249c-.568-.989-.038-2.623.797-3.194l.003-.001a.534.534 0 0 1 .263-.076c.113 0 .265.077.417.191.645.493 1.403 1.52 1.518 2.699.075.837-.115 2.396-.606 2.929-.23.267-.494.38-.799.38-.34 0-.72-.19-1.138-.342-.152-.076-.265-.115-.416-.19-.077-.037-.152-.037-.229-.037h-.114c-.796.798-2.125 1.33-3.338 1.33-.379 0-.76-.037-1.025-.153-1.063-.38-1.593-1.521-1.783-2.357l-.038-.114-.038.114c-.607 1.218-1.707 1.331-2.162 1.331-.455 0-.758-.113-.873-.228-.19-.267.151-1.521.645-2.054.34-.419.948-.76 1.441-1.064.228-.153.419-.266.57-.343v-.075c0-.23 0-.8.075-1.37.04-.19.115-.267.115-.267s.037 0 .075.268l.077.532c.19 1.33.455 3.004 1.062 3.726.53.571 1.215.875 2.086.875.912 0 1.973-.38 2.959-1.065.078-.038.114-.075.192-.075.074 0 .189.037.416.075l.342.115c.341.114.645.227.986.227.189 0 .38-.038.569-.113a.856.856 0 0 0 .53-.61c.152-.456.039-.989-.264-1.52l-.039-.076-.037.114c-.152.685-.53 1.064-1.1 1.064-.456 0-.911-.266-1.139-.646Zm-9.637 5.971c.038-.075.076-.075.114-.113.796-.344 2.922-1.18 3.832-1.56.076 0 .113 0 .076.075a9.76 9.76 0 0 1-.152.533c0 .076-.075.076-.115.115-.833.341-2.768 1.14-3.413 1.408l-.038-.04a1.818 1.818 0 0 1-.38.19c-.077.039-.114.039-.114-.038.076-.151.152-.456.19-.57Zm7.74-.266c.19-.266.38-.609.532-.876.037-.075.075-.075.19 0 .227.153.682.419.833.533.115.077.152.115.078.266-.114.19-.343.571-.495.762-.037.075-.113.075-.189.039-.266-.153-.57-.305-.911-.534-.19.342-.341.608-.492.76-.04.077-.114.114-.191.077a10.4 10.4 0 0 1-.873-.495c-.15-.076-.15-.152-.113-.266.15-.266.34-.57.493-.798l.036.037c.077-.114.116-.114.267-.037.229.152.57.34.835.532Zm2.505.913c.797-.342 2.845-1.179 3.755-1.56.077 0 .077 0 .077.076a9.79 9.79 0 0 1-.152.532c0 .077-.076.077-.115.115-.796.304-2.73 1.104-3.338 1.37h-.038a1.805 1.805 0 0 1-.38.189c-.075.038-.114.038-.114-.038.077-.151.152-.456.191-.57.037-.076.076-.076.114-.114Zm5.51-18.681c.151-.266.416-.722.606-1.027.076-.114.115-.114.228-.038.303.19.758.456 1.025.646.114.077.076.153.036.23-.15.266-.416.684-.567.95-.077.114-.152.114-.267.038-.303-.153-.72-.419-.987-.532-.113-.077-.15-.152-.074-.267Zm1.518 1.94c.15-.266.417-.723.606-1.028.075-.113.114-.113.228-.037.303.19.758.456 1.024.646.115.077.077.153.038.228-.152.267-.416.685-.568.95-.04.077-.153.115-.267.04-.303-.153-.72-.419-.987-.534-.113-.076-.15-.15-.074-.265Zm-1.861-.684h.039c.038-.076.113-.116.229-.039.302.19.757.457 1.023.647.113.076.077.152 0 .228-.152.266-.417.684-.57.95-.075.115-.151.115-.266.038-.303-.151-.72-.418-.986-.532-.113-.075-.152-.152-.074-.267.15-.265.416-.722.605-1.026Zm1.694 6.908c.04-.076.077-.076.115-.114.796-.343 3.87-1.483 4.78-1.864.076 0 .076 0 .076.077-.038.151-.115.417-.151.532 0 .077-.076.077-.115.113h-.037c-.798.305-3.72 1.408-4.365 1.674a1.67 1.67 0 0 1-.378.19c-.077.038-.151.038-.114-.037.076-.153.151-.495.19-.571Zm6.147.007c.036-.076.073-.19.114-.266.303-.647.872-.912 1.44-.875.38.038.759.228 1.1.304.114.04.494.077.494.153 0 .152-.151.533-.303.684-.038.039-.115.039-.153.039-.114.038-.265.342-.833.57v.075c-.419.19-.609.153-1.102.343-.114.038-.227.038-.227-.077-.038-.113.075-.188.189-.265.19-.114 1.518-.76 1.518-.836 0-.04-.568-.228-.872-.267a1.424 1.424 0 0 0-.948.228 1.14 1.14 0 0 0-.303.303c-.078.115-.152 0-.115-.113Zm4.235 2.325c.798-.302 2.276-.836 3.187-1.178.077 0 .114 0 .077.075-.038.153-.153.419-.19.533 0 .077-.077.077-.114.115-.836.304-2.124.8-2.77 1.026-.114.04-.265.115-.38.153-.075.037-.151.037-.112-.038a3.2 3.2 0 0 1 .19-.57c.037-.077.075-.077.112-.116Zm-1.877 1.263.303-.8c.039-.114.076-.15.114-.15.077 0 .115.113.152.189l-.037-.076c.34 1.027.303 2.243-.038 3.157-.265.76-.76.76-1.406.647-.455-.077-.947-.268-1.364-.457-1.215 1.254-3.415 1.56-5.124 1.635-3.035.114-5.349-1.33-3.3-4.83.228-.342.455-.265.265.114-1.441 2.891 1.367 3.46 3.074 3.46 1.631 0 3.452-.379 4.476-.95.305-.19.532-.342.722-.533.19-.189.34-.417.493-.722.114-.228.342-.19.265.153a2.503 2.503 0 0 1-.226.76c.645.152 1.479.19 1.86.076.074-.228-.078-.989-.23-1.407-.037-.115-.037-.19 0-.266Zm4.97 2.887c-.304-.645-.834-1.103-1.25-1.482-.078-.266 0-1.37.15-1.294.38.191.91.648 1.213 1.332.532 1.103.305 2.547-.113 3.499-.607 1.255-1.328 1.977-2.2 2.32-1.214.456-3.794-.039-4.478-.38-.455-.229-.455-.457.077-.343 2.048.457 5.273.303 6.563-3.69l.038.038Z"/>
    <path d="M81.063 17.935c.191-.266.38-.61.53-.875.039-.077.079-.077.19 0 .23.152.685.418.836.532.114.077.152.115.076.267-.114.19-.342.57-.494.76-.075.077-.113.077-.188.038-.267-.151-.57-.304-.91-.532-.19.343-.343.609-.495.76-.075.077-.113.115-.19.077a10.528 10.528 0 0 1-.872-.494c-.151-.077-.151-.153-.114-.267.151-.266.341-.57.493-.8l.038.04c.077-.115.113-.115.265-.04.23.153.57.343.835.534Zm-6.153 1.711c.114-.228.303-.57.455-.799.039-.075.077-.075.191-.039.227.154.605.344.834.495.075.04.075.115 0 .19a8.01 8.01 0 0 1-.455.762c-.038.076-.114.076-.19.038-.228-.114-.57-.304-.758-.419-.115-.037-.115-.113-.04-.19l-.037-.038ZM90.58 4.053c.798-.343 3.87-1.483 4.781-1.864.075 0 .114 0 .075.077a8.808 8.808 0 0 1-.152.532c0 .075-.074.075-.113.114h-.038c-.797.304-3.755 1.407-4.363 1.673a1.76 1.76 0 0 1-.38.191c-.076.037-.114.037-.114-.039.078-.152.152-.456.19-.57.039-.076.077-.076.115-.114Zm2.39 1.977c.038-.229.266-.684.494-1.064.037-.038.076-.076.114-.076l.038.038c.076 0 .113.077.15.228.038.494.912 1.178.837 1.369-.077.229-.267.457-.455.76.378 2.74.15 5.211-.532 6.923.417.646.72 1.977.417 2.7-.455.152-2.201.533-3.415.684-.037 0-.075 0-.075-.038-.077-.227.037-1.14.152-1.178.265-.038.568-.114.758-.153.948-.798 1.328-1.33 1.593-1.938-.986-1.864-3.035-3.159-4.363-4.3-.228.343-.342.343-.53.306-.456-.115-1.33-.532-1.48-.875-.305-.609-.305-2.283-.115-2.168 2.2 1.179 5.617 4.108 6.791 6.427.647-2.244.418-4.678.04-6.732-.19-.341-.38-.684-.418-.912Zm39.31-1.938c.227-.42.683-1.104 1.025-1.447.188-.19.455-.38.72-.38.267 0 .531.228.57.456.152.648-.266 1.255-.798 1.636-.682.495-1.632.646-2.352.228v.039c-.113-.077-.303.494-.494.722-.112.114-.151.076-.151-.077l.113-.303c.114-.304.267-.61.419-.874.074-.154.188-.344.378-.23.151.076.418.23.57.23Zm-5.085-.382c.039-.075.077-.19.114-.266.303-.646.873-.912 1.443-.874.378.037.758.228 1.1.303.113.038.493.076.493.153 0 .152-.152.533-.305.684-.037.038-.113.038-.152.038-.112.04-.264.344-.833.571l.037.077c-.417.189-.607.151-1.1.341-.114.038-.227.038-.265-.075-.037-.114.074-.189.185-.264l.004-.002c.191-.115 1.517-.761 1.517-.837 0-.039-.568-.228-.871-.267a1.43 1.43 0 0 0-.95.228c-.113.077-.227.19-.303.305-.075.113-.153 0-.114-.115Zm-20.111 3.233c.037-.076.075-.076.113-.113.797-.343 3.871-1.484 4.781-1.864.076 0 .076 0 .076.075-.038.153-.115.419-.152.533 0 .076-.076.076-.115.114h-.037c-.796.305-3.718 1.408-4.363 1.674a1.809 1.809 0 0 1-.38.19c-.076.039-.115.039-.115-.038.077-.152.153-.495.192-.57Zm21.856-.494c0-.19.19-.723.419-1.103.036-.038.036-.077.074-.077.039 0 .039.04.039.04.113.34.38.645.568.874.19.228.342.38.342.532-.075.266-.265.532-.455.722v.038c.113.99.342 2.207.608 3.349.265 1.254.53 2.547.607 3.536.038.304.075 1.331-.191 1.71-.493.762-1.366 1.029-2.048 1.029-.114 0-.266 0-.38-.039-1.138-.19-.948-1.521-.796-2.434v-.077h-.076c-.417.077-.912.19-1.442.305-3.073.647-8.158 1.75-11.839 1.75-2.466 0-3.946-.494-4.324-1.445l-.039-.114-.038.114c-.226.798-1.632 1.482-2.997 1.482-.987 0-1.709-.379-2.012-.988l-.038-.039-.038.04.076.037c-1.024.798-3.073 1.75-5.426 1.75-.264 0-.53 0-.833-.038-2.051-.19-2.77-1.065-3.037-1.75-.34-.951.267-1.94.455-2.244.115-.153.191-.228.228-.228.039.037.039.152 0 .341-.416 1.104-.074 1.826 1.025 2.283.607.266 1.329.38 2.201.38 1.251 0 2.617-.266 4.02-.76.798-.305 1.329-.609 1.861-1.408.038-.037.038-.037.075-.037.038 0 .038 0 .038.037.038.038.038.076.038.19-.038.191-.076.229-.113.342a3.76 3.76 0 0 0-.153.419v.039h.038c.381.341 1.025.532 1.784.532 1.176 0 2.619-.494 3.15-1.597.038-.04.038-.077.076-.077.037 0 .037 0 .075.038.039.039.077.152.039.418.834.952 2.732 1.065 4.098 1.065h.796c3.794-.152 7.931-.988 12.749-1.902h.038v-.037c-.075-.494-.645-.76-1.632-.76-.303 0-.645.037-.948.075-.91.115-1.858.266-2.77.419-2.163.341-4.44.722-6.792.722-.341 0-.72 0-1.101-.038-1.062-.076-2.199-.304-2.238-.8.039-.987.911-2.205 1.746-2.89.948-.797 2.884-2.167 4.022-2.357 0 0 .038 0 .038.038.037.228-.153.874-.456 1.065-1.404.342-4.4 2.358-4.667 3.195.419.418 1.367.608 2.922.608 3.073 0 7.36-.723 8.612-.951.455-.076 1.252-.228 2.012-.228 1.024 0 1.632.267 1.784.8.226.798-.191 2.053-.455 2.281-.077 0-.152 0-.229.038h-.114v.114c-.038.267-.038.647.191.875.152.19.416.266.796.266.492 0 1.442-.228 1.859-.722-.074-.64-.299-1.799-.56-3.148l-.009-.048c-.305-1.596-.683-3.384-.911-4.792a3.396 3.396 0 0 1-.342-.76Zm3.188 1.026.152-1.064c0-.114.036-.19.076-.19.037 0 .112.038.112.152.305 2.396 1.329 5.78 1.368 8.063 0 .646-.039 1.255-.191 1.826-.037.153-.152.153-.152-.039-.151-2.739-.759-5.363-1.365-8.177-.038-.228-.038-.266 0-.571Zm-31.524.892c.217-.726.752-1.356 1.209-1.434.271-.046.495.117.649.565.049.144.198.619.134 1.196l-.048.173.499.17a3.4 3.4 0 0 1-.1.33c-.107.316-.061.295-.261.242-.119-.032-.217-.066-.332-.09-.366.706-1.188 1.507-2.855 2.261-.448.201-.512-.027-.153-.235.305-.176 1.96-1.29 2.473-2.152-.443-.114-.816-.24-1.073-.4-.177-.109-.241-.3-.142-.626Z"/>
    <path d="M109.588 9.263c.189-.266.379-.608.531-.874.038-.077.076-.077.19 0 .227.152.682.418.835.532.113.076.15.114.075.267-.113.19-.342.57-.494.76-.074.075-.112.075-.189.038-.265-.152-.569-.304-.91-.532-.189.341-.342.608-.493.76-.077.077-.114.114-.191.077a9.895 9.895 0 0 1-.871-.496c-.153-.075-.153-.151-.115-.266.152-.266.341-.57.493-.799l.038.04c.076-.115.114-.115.265-.04.229.153.57.343.836.533Zm-4.174-.113c0-.115.152-.495.227-.648.038-.113.076-.075.151 0 .608.761 1.1 1.712 1.1 2.891 0 .494-.152 1.445-.416 1.445-.076 0-.038-.076 0-.19.19-1.255-.152-2.168-.721-3.004-.189-.266-.341-.456-.341-.494Zm8.882 10.649c.036-.076.074-.076.113-.115.797-.341 3.87-1.483 4.78-1.864.039 0 .077 0 .077.077a9.826 9.826 0 0 1-.152.532c0 .077-.077.077-.114.114h-.038c-.796.304-3.756 1.408-4.363 1.674a1.9 1.9 0 0 1-.38.19c-.075.038-.113.038-.113-.039.074-.15.152-.455.19-.57Zm-14.533-.153c.113-.228.303-.57.455-.799.039-.075.074-.075.189-.038.229.152.607.343.835.494.075.04.075.115 0 .19-.115.23-.303.534-.454.762-.039.077-.115.077-.191.038a13.926 13.926 0 0 1-.76-.419c-.113-.037-.113-.113-.036-.19l-.038-.038Zm48.224-13.084c.797-.303 2.922-1.14 3.834-1.482.074 0 .114 0 .074.076-.038.152-.151.418-.189.532 0 .077-.075.077-.114.114-.834.268-2.77 1.103-3.414 1.331-.114.038-.265.114-.381.153-.074.038-.151.038-.113-.04a3.26 3.26 0 0 1 .191-.569c.038-.075.074-.075.112-.115Zm-11.723.762c.038-.077.038-.115.112-.115.799-.342 3.872-1.483 4.782-1.863.077 0 .077 0 .077.076-.039.152-.115.418-.152.532-.039.077-.077.077-.115.116-.796.303-3.718 1.405-4.363 1.672h-.038c-.113.038-.265.153-.379.19-.038.038-.115.038-.076-.037.038-.153.113-.496.152-.571Zm7.74-.344a8.77 8.77 0 0 1 .569-.91c.076-.077.152-.153.226.036.305.875.951 1.14.951 1.408-.039.266-.38.609-.57.837.266 1.863.873 3.955 1.101 5.819.076.837.076 1.787-.115 2.51-.113.531-.645.989-1.367.684-.833-.38-1.364-1.369-1.554-2.244-.228 1.787-5.273 3.309-7.399 1.94-1.176-.761-1.1-2.777 0-4.032.266-.304.342-.113.19.19-.303.61-.911 1.674.189 2.587 1.632 1.255 6.072-.038 6.868-1.445-.152-1.37-.872-5.25-.987-6.695.039-.57.265-1.52.381-1.14.721 2.853.721 7.416 1.631 8.709l.038.039c.684 1.026 1.632 1.142 1.784.341-.152-1.406-1.215-4.982-1.481-7.568a4.04 4.04 0 0 1-.455-.837.243.243 0 0 1 0-.228Zm2.58 1.903c0-.114.152-.494.228-.647.037-.075.114-.075.151.038.605.758 1.096 1.704 1.099 2.875-.003.5-.153 1.423-.416 1.423-.038 0-.038-.115 0-.19.189-1.255-.151-2.168-.72-3.004-.19-.267-.342-.457-.342-.495Zm2.428.684c.114-.228.304-.57.456-.798.038-.077.075-.077.19-.039.226.116.607.343.834.496.076.037.076.113 0 .19a8.036 8.036 0 0 1-.456.76c-.037.077-.114.077-.188.038-.229-.114-.57-.304-.76-.419-.114-.038-.114-.113-.037-.189l-.039-.039Z"/>
    <path d="M138.578 11.393c0-.646.532-1.598.948-2.092.114-.114.304-.343.455-.343.077 0 .152.077.229.115.038.038.113.077.152.114.113.114.113.191.037.342l-.303.685v.039c-.038.113-.115.113-.19 0-.038-.077-.113-.115-.152-.153-.114-.077-.151-.037-.228 0l-.303.304c-.113.152-.19.343-.113.495.113.19.304.19.493.229.455.037.872.037 1.062.341.303.456-.114 1.369-.455 1.712-.684.722-1.86.57-2.657.228-.378-.153-.265-.494.077-.419.986.228 1.784.038 2.466-.57.076-.075.076-.075 0-.152-.151-.115-.493-.115-.76-.152-.188-.038-.417-.038-.569-.153-.112-.113-.189-.341-.189-.57Zm11.383.304h.038c.037 0 .075 0 .152.038 1.1.418 2.2 1.56 2.2 3.12 0 .57-.075 1.483-.265 1.673-.38.342-1.632.683-2.656.722-.721.038-.759-.343-.684-1.102.038-.304.115-.457.228-.457.114 0 .038.266.532.266.455 0 1.593-.113 2.429-.495-.114-1.064-.836-1.9-2.051-2.396-.226-.076-.188-.114-.114-.76.078-.494.078-.609.191-.609Zm-5.617 7.721c.039-.075.078-.075.115-.115.797-.303 2.277-.836 3.187-1.178.077 0 .115 0 .077.076-.039.152-.152.418-.191.532 0 .076-.075.076-.113.114-.835.305-2.125.8-2.77 1.027-.114.04-.266.114-.379.153-.077.038-.152.038-.114-.04.037-.188.151-.493.188-.569Z"/>
  </g>
  <g fill="#231F20">
    <path d="M15.2 5.978c.037-.076.074-.076.112-.115C16.11 5.52 19.183 4.38 20.093 4c.077 0 .077 0 .077.076-.039.152-.114.418-.152.533 0 .075-.077.075-.114.113h-.038c-.797.304-3.718 1.407-4.363 1.674a1.843 1.843 0 0 1-.38.19c-.077.038-.114.038-.114-.039.076-.151.152-.494.19-.57ZM30.122 4.51l.225-.423c.017-.043.066-.09.091-.004.156.517.152.952.038 1.277-.118.338-.212.532-.626.64-.327.085-.686-.002-.864-.295-.232.582-.689.8-1.072.743-.467-.07-.747-.583-.288-1.504.135-.27.227-.13.182 0-.214.611.011.829.32.808.49-.036.763-.321.841-.958.012-.102-.047-.084.175-.266.17-.138.148-.063.138.13-.012.27.037.478.17.588.208.172.493.128.76-.127.003-.115-.051-.308-.116-.477-.02-.052.002-.086.026-.132Zm-6.609.665c.038-.077.076-.192.113-.267.305-.647.873-.913 1.443-.874.38.037.758.227 1.1.304.114.038.493.076.493.151 0 .153-.152.533-.304.686-.037.038-.113.038-.151.038-.114.037-.266.341-.835.57l.037.037c-.417.19-.607.153-1.099.343-.114.038-.228.038-.266-.076-.037-.113.073-.188.185-.264l.005-.003c.19-.113 1.517-.76 1.517-.837 0-.036-.568-.228-.871-.264a1.404 1.404 0 0 0-.95.228.91.91 0 0 0-.303.341c-.076.115-.151 0-.114-.113Zm-4.815 2.526.225-.422c.017-.043.065-.089.09-.005.157.519.152.953.039 1.279-.12.338-.21.532-.626.64-.327.084-.685-.002-.865-.296-.23.583-.687.8-1.071.743-.469-.069-.749-.583-.287-1.503.133-.27.226-.13.18 0-.214.61.01.827.32.806.491-.034.764-.32.842-.957.012-.103-.048-.085.175-.265.17-.138.147-.064.138.13-.014.27.036.476.171.586.207.172.492.128.757-.127.006-.113-.048-.307-.114-.477-.022-.05 0-.085.026-.132Zm9.706.52c-.036-.076-.036-.151 0-.266.19-.456.42-.875.495-.912.303.646.53.988.645 1.14.113.153.113.19.113.228l-.416.609a60.21 60.21 0 0 0 .645 3.499c.188.951.34 1.674.455 2.434.038.418.15 1.75-.419 2.434-.188.229-.493.342-.796.342-.19 0-.38-.038-.607-.113-1.29-.457-1.403-1.256-1.706-2.967-.04-.267-.077-.532-.152-.837l-.04-.151-.037.15c-.265.762-.72 1.218-1.403 1.447h-.04v.037c.266.647-.037 1.864-.151 1.94a2.284 2.284 0 0 1-.569.076c-.683 0-1.897-.266-2.086-1.33v-.115l-.076.115c-.608.988-.949 1.558-1.404 1.558-.266 0-.646-.19-1.252-.685a.467.467 0 0 0-.342-.15.41.41 0 0 0-.265.113c-.608.494-1.631 1.142-3.036 1.142-.76 0-1.594-.19-2.467-.572-.872.457-1.744.723-2.503.723-.645 0-1.215-.19-1.63-.571-.685-.647-.875-1.786-1.026-2.813-.037-.153-.037-.305-.076-.458-.04-.228-.04-.266-.113-.266-.04 0-.077.038-.115.19-.152.342-.493 1.141-1.518 1.332h-.037v.037c.113 1.446.488 2.893-.46 3.882l-.148.188c-.645.722-1.897 1.218-3.11 1.218-.722 0-1.367-.19-1.822-.496-1.29-.837-1.1-2.966-.303-4.487.075-.113.152-.19.188-.19.077.038.077.152.04.266-.495 1.445-.569 2.054-.266 2.586.455.724 1.289 1.103 2.351 1.103 1.518 0 3.301-.875 3.415-2.13-.036-1.254-.417-2.13-.872-2.967-.038-.075.076-.873.19-1.216v-.076s0 .038.037.076c.04.075.077.152.115.227.075.153.15.305.265.495.151.228.189.266.417.305.986 0 1.518-.8 1.67-1.446.115-.38.189-.418.227-.418.114 0 .304.304.456 1.14.19 1.218.34 1.865.606 2.36.343.57.987.911 1.86.911.418 0 .874-.075 1.252-.227h.038v-.039c-.53-1.103.114-2.32.494-2.814.493-.608.948-.913 1.326-.913.495 0 .874.495 1.102 1.407.226 1.104-.38 1.864-.645 2.131l-.038.037.038.039c.38.19.911.304 1.442.304.987 0 1.934-.343 2.731-.913l.077-.075c.152-.115.303-.229.455-.229.113 0 .189.037.303.114.152.075.265.19.38.267.38.266.682.493.949.493.264 0 .493-.19.72-.608.38-.684.91-1.711 1.821-1.711.115 0 .228 0 .38.038.34.113.607.152.873.152.645 0 1.176-.305 1.555-.99l-.114-.722c-.304-2.092-.456-2.929-.607-4.07.076-.721.266-1.179.303-1.217.19 1.065.303 2.055.456 3.12.19 1.368.417 2.776.759 4.449.228 1.14 1.061 1.674 1.707 1.674.341 0 .646-.115.834-.381-.53-2.586-1.062-5.286-1.25-7.301-.153-.343-.23-.534-.268-.686ZM.746 9.286C.784 9.21.82 9.21.86 9.173c.796-.343 3.301-1.37 4.211-1.75.076 0 .076 0 .076.076a8.596 8.596 0 0 1-.151.532c0 .077-.077.077-.115.114-.795.305-3.148 1.293-3.793 1.56H1.05a1.763 1.763 0 0 1-.38.19c-.075.038-.114.038-.114-.038.077-.153.152-.494.191-.571Z"/>
    <path d="M22.313 9.639c.218-.726.752-1.357 1.208-1.435.273-.046.497.117.652.566.049.143.197.618.134 1.195l-.049.174.5.17a3.47 3.47 0 0 1-.1.33c-.107.316-.062.295-.261.241-.12-.031-.22-.066-.332-.09-.368.707-1.188 1.508-2.856 2.26-.446.203-.512-.025-.153-.234.307-.176 1.96-1.29 2.472-2.152-.442-.113-.816-.239-1.072-.4-.177-.11-.24-.297-.143-.625Zm-9.123.674c.189-.267.38-.609.532-.875.038-.075.075-.075.189 0 .227.153.683.419.835.534.114.074.152.113.076.266l-.004.007c-.116.193-.34.565-.489.753-.038.076-.115.076-.19.037-.265-.152-.569-.303-.912-.531-.189.342-.34.608-.492.76-.039.076-.114.114-.19.076a10.208 10.208 0 0 1-.872-.494c-.152-.077-.152-.152-.115-.267.151-.266.342-.57.494-.799l.038.04c.076-.116.115-.116.267-.04.226.153.567.343.833.533Zm4.968 1.75c.189-.266.38-.61.532-.875.038-.076.076-.076.189 0 .227.152.684.418.836.532.112.077.15.114.074.267-.113.19-.34.57-.493.761-.075.076-.113.076-.19.037-.265-.152-.568-.304-.91-.532-.19.343-.342.609-.493.76-.075.077-.114.114-.19.077a10 10 0 0 1-.872-.494c-.152-.077-.152-.153-.115-.268.152-.265.342-.57.494-.797l.038.037c.076-.114.114-.114.265-.037.228.152.569.341.835.531Zm-15.743.266a8.2 8.2 0 0 1 .456-.798c.037-.077.074-.077.189-.04.227.153.607.343.797.496.075.038.075.113 0 .19-.116.19-.304.532-.456.76-.038.076-.114.076-.19.038-.228-.113-.57-.304-.759-.418-.113-.038-.113-.114-.037-.19v-.039Zm25.572 7.34c.04-.076.077-.076.115-.115.797-.341 2.845-1.178 3.756-1.558.076 0 .076 0 .076.076a9.52 9.52 0 0 1-.151.532c0 .077-.077.077-.114.114a115.58 115.58 0 0 0-3.339 1.37h-.04a1.698 1.698 0 0 1-.378.19c-.076.037-.113.037-.113-.038.076-.153.15-.494.188-.571Zm-15.669.912c.039-.075.075-.075.113-.113.796-.343 2.847-1.14 3.756-1.521.078 0 .078 0 .078.075a10.63 10.63 0 0 1-.152.532c0 .077-.077.077-.115.115-.797.304-2.73 1.104-3.338 1.37 0 0-.303.113-.418.152-.076.037-.114.037-.114-.039.077-.151.15-.494.19-.57Zm-3.605-.379c.19-.266.38-.609.532-.875.037-.075.074-.075.188 0 .23.153.684.419.837.532.113.077.15.114.075.266-.113.19-.342.571-.493.761-.077.076-.114.076-.19.038-.266-.151-.57-.304-.91-.533-.191.343-.343.61-.494.761-.04.076-.113.115-.19.076a10.057 10.057 0 0 1-.873-.494c-.152-.076-.152-.153-.113-.266.152-.266.34-.571.493-.8 0 0 .152-.075.303 0 .228.153.57.344.835.534Z"/>
  </g>
</svg>
