<svg xmlns="http://www.w3.org/2000/svg" fill="none" viewBox="0 0 634 146">
    <path fill="#000" d="M313.06 76.744c-3.455-.911-6.61-2.143-10.317-.738-.373.142-1.085.154-1.506.046-5.441-1.394-11.379-1.538-17.039-2.277.068-4.208 4.937-7.023 11.782-6.928 9.511.13 18.005 2.315 26.544 4.462 10.618 2.67 21.423 5.018 32.845 6.259 1.871.203 3.961-.125 5.954.823-1.589 1.848-3.154 3.73-4.825 5.578-.622.688-1.733.428-2.761.314-16.448-1.825-32.342.076-48.152 2.506-.456.07-.852.278-1.532.508 2.354 1.665 4.572 3.239 5.747 5.218 2.064 3.477.285 7.299-4.333 9.108-2.599 1.018-5.155 1.26-8.113.399-6.288-1.83-10.723-4.623-13.417-8.612-1.658.782-1.969 1.792-2.463 2.738-2.189 4.195-7.452 6.704-14.867 6.875-2.367.054-2.972.579-2.933 1.861.101 3.278-.494 6.524-1.73 9.728-.494 1.28-1.461 2.393-3.013 3.32-17.638 10.533-38.557 17.496-63.517 19.909-9.305.899-18.502.746-26.823-2.449-4.742-1.82-8.099-4.336-10.131-7.378-.997-1.491-2.325-1.872-4.844-1.714-10.242.641-20.509 1.1-30.816 1.148-.734.003-1.634.322-2.419-.439 5.825-.928 11.533-1.811 17.215-2.749 4.956-.819 9.878-1.706 14.822-2.548 1.611-.274 2.9-.657 2.616-1.853-1.542-6.498 1.787-12.587 4.557-18.723.128-.283.247-.568.438-1.009-2.616-.019-4.357 1.298-6.9 1.234-.622-1.29-.746-2.424 1.672-3.073 16.495-4.428 32.997-8.846 49.503-13.26.261-.07.595-.047 1.18-.086-.179 1.638-.962 2.845-3.696 3.576-12.288 3.282-24.509 6.65-36.785 9.946-1.901.51-3.204 1.114-3.661 2.423-1.997 5.727-3.105 11.469-1.608 17.304.154.602.217 1.204 1.269 1.918 3.874-.786 7.948-1.568 11.966-2.439 12.19-2.644 24.244-5.468 35.506-9.337 3.48-1.195 6.693-2.606 9.937-4.003 2.725-1.174 3.319-2.61 2.6-4.446-1.253-3.198-3.098-6.275-5.094-9.33-1.833-2.805.074-5.377 1.431-8.462 1.375 1.158 2.226 1.964 3.227 2.699 2.354 1.729 5.16 3.028 9.227 2.564 5.724-.654 6.7-1.32 6.284-4.716-.776-6.336-2.352-12.624-3.883-18.907-2.507-10.294-4.895-20.606-8.085-30.83-1.116-3.576.584-6.29 3.653-9.544 5.277 5.782 8.225 11.611 9.992 17.757-1.482.066-1.834-.489-2.529-.711-.608-.195-1.106-.57-2.109-.365.402 4.204 1.892 8.338 3.018 12.496 2.361 8.714 5.137 17.409 6.089 26.214.483 4.476-1.375 8.925-5.578 12.835-1.885 1.753-4.609 2.972-8.255 3.172-2.339.129-2.973.713-2.946 2.096a19.134 19.134 0 0 1-.522 4.882c-1.035 4.29-4.567 7.655-10.446 10.108-14.286 5.961-29.465 10.878-46.714 13.25-.698.096-1.391.21-2.072.341-.168.032-.281.164-.684.414 3.807 3.057 9.073 4.598 15.34 4.965 12.251.717 23.953-.968 35.431-3.191 15.286-2.961 28.792-7.735 40.641-14.165 2.47-1.34 2.959-2.771 2.368-4.55-1.11-3.349-2.743-6.618-5.565-9.589-1.85-1.947-2.289-3.777-1.167-5.872.665-1.241.934-2.556 1.987-3.886 1.4.553 1.495 1.396 2.064 2.05 2.083 2.397 4.867 4.108 9.84 4.329 5.91.262 10.612-.738 13.465-3.92 1.629-1.818 2.908-3.743 4.492-5.577 1.91-2.21 4.799-3.63 9.095-4.236 8.213-1.157 16.5-2.077 24.779-3.034.699-.08 1.38-.216 2.446-.385-2.288-.992-4.734-1.362-7.172-2.042Zm-16.825 17.363c1.726.405 3.423.934 5.734.575-2.985-2.32-6.73-3.343-11.456-4.046 1.319 1.687 3.246 2.557 5.722 3.471Zm245.196 16.82c-.174 1.81-.76 3.406-1.982 4.893-1.774 2.16-4.852 3.029-8.897 2.569-7.663-.871-11.678-3.98-14.229-8.003-.446-.701-.352-1.596-1.935-2.029-1.79.591-2.266 1.717-2.604 2.718-1.316 3.897-5.709 6.343-11 8.39-12.848 4.969-27.091 8.179-41.438 11.231-8.506 1.81-16.935 3.841-26.08 4.323-13.237.697-26.497 1.155-39.795 1.143-1.809-.002-3.618 0-6.199 0 1.673-.786 3.018-.79 4.214-.942 34.108-4.347 67.261-10.468 99.387-18.493 5.046-1.261 9.734-2.902 13.983-4.962 3.068-1.487 5.4-3.189 6.791-5.479 2.111-3.476 5.925-5.919 12.693-6.617 8.933-.92 14.626-4.419 18.588-9.022 1.114-1.294 2.009-2.654 3.625-3.792 1.115-.785.771-1.727.368-2.608-1.552-3.39-3.19-6.765-4.729-10.156-2.354-5.19-1.61-6.343 5.783-9.24-1.334-.683-1.334-.683-4.487-.439-.624-.626-.238-1.299.463-1.657 2.031-1.037 1.451-2.177.579-3.29-1.617-2.063-2.163-4.606-7.239-5.105-1.521-.149-2.576-1.214-2.91-2.207-.388-1.156-.518-2.459 1.489-3.099 1.844-.587 2.961.518 4.06 1.167 2.582 1.527 4.198 3.424 5.774 5.662.704-2.06 1.097-3.924 2.321-5.643.689-.97.972-2.269 3.269-2.39 1.6-.084 3.122.417 3.87 1.257 1.049 1.179-.084 2.187-1.106 3.108-1.306.151-1.891-.619-3.353-.584-2.771 2.791-3.153 5.943-3.02 9.155.024.583.757.791 1.608.945 1.823.328 3.268.998 4.561 1.804 1.23.767 1.249 1.596.58 2.518-.643.886-1.454 1.613-3.311 1.631-.309.003-.617.025-.925.044-5.957.388-7.684 1.952-5.797 5.329 1.867 3.339 3.508 6.706 4.164 10.214.25 1.342-.104 2.81 2.845 3.434.549.117.818.802 1.07 1.253.187.337.038.737.212 1.078 1.344 2.643 2.687 5.454 7.871 6.244 4.703.717 7.89-1.206 10.85-3.013 1.135-.693 2.057-1.509 3.041-2.283.753-.593 1.482-1.176 2.957-.981.672.427.151.818-.04 1.202-.643 1.29-1.508 2.61.751 3.666 1.888.882 5.999.786 8.171-.148 2.949-1.268 4.028-3.154 4.839-5.125.381-.925.567-1.91 2.28-2.582.893.586.952 1.307 1.203 1.977 1.292 3.445 5.033 4.892 10.873 4.257 2.572-.28 3.424-.994 2.693-2.549-1.65-3.512-4.124-6.849-6.073-10.296-2.048-3.62-2.513-7.45-4.516-11.099-.941-1.712 1.642-3.475 2.712-5.103 1.512-.075 2.031.431 2.59.837 2.696 1.955 4.612 4.161 5.746 6.582.315.673 1.112 1.496-.868 1.967-1.185.282-.431.96-.212 1.45 1.624 3.624 3.411 7.225 4.898 10.868 1.931 4.73.094 9.157-4.153 13.194-2.487 2.364-7.857 2.49-11.999.597-2.089-.955-3.333-2.283-4.744-3.715-1.357 1.365-2.486 2.694-3.912 3.901-4.7 3.978-10.984 3.832-15.19-.303-.25-.246-.525-.482-.96-.88-1.682 1.419-3.424 2.584-5.744 3.416-7.511 2.693-15.327.517-16.636-4.635-.196-.772-.434-1.567-.944-2.28-.857-1.198-2.325-1.305-3.33-.184-2.51 2.8-5.613 5.362-8.706 7.934-.629.524-.652.965.23 1.424 3.774 1.962 4.555 4.645 5.061 7.551Zm-10.289-1.889c-2.447-1.069-4.963-1.994-9.07-1.4 4.07 1.63 6.368 4.19 12.288 3.81-1.206-.932-2.05-1.585-3.218-2.41Z"/>
    <path fill="#000" d="M133.49 103.063c-9.085-.49-14.483-3.682-18.454-7.987-.489-.531-.869-1.096-1.31-1.643-.039-.05-.148-.08-.387-.202-.895.525-1.055 1.224-1.319 1.89-1.664 4.18-5.332 7.417-11.568 9.876-13.102 5.166-26.912 9.481-42.049 12.045-12.577 2.13-25.562 1.979-38.582 1.202.284-.831 1.228-.769 1.984-.89 22.9-3.671 45.274-8.175 66.441-14.575 4.676-1.414 9.26-2.93 13.614-4.664 5.771-2.299 9.821-5.251 10.656-9.53.549-2.809 2.757-4.647 8.209-5.206 8.242-.845 13.798-4.09 17.854-8.27 1.327-1.368 2.579-2.77 4.098-4.06 2.595-2.208 5.267-2.15 7.535.208 1.308 1.36 2.163 2.873 3.203 4.323 2.447 3.412 5.656 4.436 11.721 3.451 8.484-1.377 16.231-3.777 23.945-6.143-.083-.697-.926-.696-1.571-.798-5.165-.82-10.333-1.633-15.508-2.43-.588-.09-1.338-.21-1.824-.077-4.658 1.273-8.965-.498-13.468-.496-1.534 0-3.069-.218-4.603-.218-2.304 0-2.822-.593-2.306-1.842 1.868-4.522 7.673-6.484 16.43-5.513 8.832.979 17.254 2.808 25.814 4.337 9.866 1.762 19.961 2.27 30.172 2.435 1.812.03 3.709-.152 5.776.54-1.127 2.17-2.732 4.235-4.476 6.26-.6.699-1.778.401-2.781.37-7.327-.225-14.613-.237-21.734 1.08-4.288.792-8.016 2.161-11.75 3.577-7.036 2.668-14.384 4.992-22.568 6.21-6.119.912-10.932-.382-13.98-3.655-1.544-1.658-2.425-3.462-3.188-5.291-.283-.68-.385-1.59-1.87-1.719-1.405-.121-2.175.63-2.812 1.236-3.299 3.138-6.098 6.469-10.607 9.306 1.34.754 2.649 1.493 3.961 2.229 6.508 3.65 5.324 9.268 2.054 12.968-.902 1.02-2.428 1.632-4.752 1.666Zm-2.027-7.2c.87-.046 1.715.43 2.625.068-2.867-2.942-8.638-4.826-13.749-4.412 2.453 2.475 6.423 3.503 11.124 4.344Zm145.069 39.541c-7.427.23-14.565.456-21.854.687.381-1.215 1.855-.959 2.788-1.101 21.856-3.314 43.456-7.094 64.298-12.234 9.988-2.463 19.776-5.181 28.49-9.041 5.481-2.428 5.681-2.846 4.017-6.689-1.197-2.764-2.91-5.424-4.587-8.093-1.727-2.75.248-5.249 1.336-8.36 1.679 1.322 2.685 2.206 3.847 3.012 2.567 1.781 5.677 2.787 9.803 2.153 5.187-.797 5.732-1.437 5.297-4.572-1.412-10.189-3.69-20.319-5.897-30.451-2.05-9.414-3.757-18.86-6.617-28.206-.89-2.907 2.544-4.803 4.109-7.237 5.177 5.57 8.441 11.44 10.109 17.863-1.944-.353-2.473-1.491-4.382-1.552-.964 1.828.078 3.661.448 5.45 1.628 7.856 3.552 15.69 5.256 23.542 1.172 5.395 2.586 10.79 3.098 16.21.431 4.571-1.345 9.03-5.323 13.073-1.92 1.952-4.843 3.195-8.631 3.443-2.266.148-2.732.752-2.602 1.889.202 1.766-.358 3.504-.804 5.235-1.072 4.157-4.504 7.502-10.401 9.917-16.01 6.556-32.787 12.134-52.497 13.8-6.309.533-12.673.845-19.301 1.262Zm191.062-42.706c3.408-6.186 1.557-12.171-1.313-17.995-1.684-3.42.102-6.288 1.777-9.313.109-.197.487-.343.87-.601 1.94 1.154 2.502 2.573 3.173 3.932 2.856 5.775 4.098 11.712 5.025 17.679.399 2.564 1.464 5.018 3.817 7.216 2.766 2.585 6.998 3.594 11.638 2.85 4.203-.673 5.497-1.826 4.326-4.285a124.497 124.497 0 0 0-4.867-9.192c-2.72-4.664-3.199-9.603-5.261-14.353-.975-2.244 1.769-4.101 3.407-6.034 3.808 1.225 10.045 8.824 8.808 10.545-1.506.035-1.976-1.02-3.54-1.136-.757.71.091 1.388.407 1.995 2.898 5.562 5.11 11.21 6.461 16.974.931 3.969-1.155 7.462-5.32 10.491-3.943 2.868-11.558 2.798-16.88-.006-3.397-1.79-5.316-4.136-6.922-6.586-.356-.544-.668-1.1-1.23-2.03-1.359 2.737-2.484 5.11-4.567 7.265-4.43 4.583-11.653 6.224-19.293 4.349-4.092-1.004-6.415-2.936-7.957-5.282-1.612-2.452-1.879-5.027-2.283-7.652-.342.596-.693 1.192-1.026 1.79-2.538 4.57-10.374 5.677-15.863 5.248-4.697-.367-6.857-2.616-5.572-5.333 2.744-5.805 9.264-9.606 18.417-11.965 2.234-.575 3.379-1.08 2.874-2.779-.861-2.898 2.21-5.12 4.838-7.728 1.885 2.43 1.289 4.733 1.801 7.094 2.671-.518 4.071-2 7.025-2.563-.867 2.146-2.796 3.674-5.065 5.017-1.584.938-2.288 1.9-2.191 3.216.185 2.536-.165 5.072.559 7.61 1.164 4.077 4.91 6.957 9.849 7.286 5.986.399 11.144-1.661 14.078-5.724Zm-29.899-7.848c-.641-.671-1.262-.099-1.744.063a635.534 635.534 0 0 0-11.168 3.829c-.95.337-1.834.781-2.578 1.267-1.096.715-.921 1.288.812 1.571 7.754 1.264 14.861-1.866 14.678-6.73Zm-39.76-38.655c.914 5.944 1.817 11.72 2.729 17.497.531 3.37 1.115 6.737 1.587 10.109.143 1.02.229 2.025 1.105 3.268 8.207-3.45 15.903-6.979 23.498-10.992-3.309-1.025-4.115-2.393-3.26-4.118.88-1.776 2.514-3.386 2.941-5.282.26-1.16 2.078-1.4 3.903-1.111 5.824.923 10.329 6.084 8.209 9.377-1.187 1.843-2.309 2.16-5.55 1.58-1.51-.27-2.966-.5-4.17.442-6.173 4.833-14.245 8.372-22.946 11.445-2.126.75-2.83 1.539-2.639 3.05.668 5.309 1.162 10.645-1.215 15.876-.916 2.016-1.944 4.038-5.168 5.42.939-6.983.986-13.918-.052-20.994-4.073.474-7.155 2.069-11.304 2.455.607-1.206 2.148-1.523 3.481-1.841 5.674-1.352 8.619-3.2 7.433-7.343-1.873-6.543-2.4-13.217-3.571-19.831-1.098-6.193-2.29-12.38-3.447-18.569-.112-.6-.11-1.227-.429-1.79-1.957-3.448.99-6.14 4.021-9.314 5.136 5.95 7.662 11.932 9.233 18.23-2.146-.18-2.578-1.509-4.635-1.567-.89 1.28.383 2.56.246 4.003Zm34.731 16.53c.801.662 1.803.818 3.214.474-.58-.956-1.548-1.586-3.027-2.3-.097.676-.163 1.137-.187 1.825Zm-3.803-1.825c-.943-.073-1.75.144-1.676.706.089.685.988.95 2.155.851.575-.522.608-1-.479-1.556ZM94.53 53.79C82.712 56.94 71.082 60 59.96 64.126c2.289 1.934 8.079 3.103 3.362 6.246-3.13-1.408-6.559-2.584-6.657-5.384-.096-2.737 1.547-4.744 5.747-6.12 17.616-5.765 36.364-10.007 55.128-14.218 28.771-6.458 57.9-12.32 87.213-17.867 1.066-.202 2.163-.348 3.26-.522.638 2.238-.555 3.346-4.246 4.033-32.206 5.995-64.113 12.482-95.375 20.029-4.572 1.104-9.101 2.27-13.862 3.466Zm425.344 42.663c-1.757.213-1.135-.476-1.078-.845 1.834-11.939.285-23.818-1.729-35.693-1.337-7.883-2.565-15.773-3.854-23.66-.088-.54-.172-1.092-.431-1.61-1.688-3.371 1.053-6.026 4.206-9.08 4.951 5.9 7.548 11.828 9.146 18.201-2.095-.34-2.694-1.529-4.973-1.62.235 2.39.396 4.756.714 7.114.927 6.87 1.918 13.739 2.881 20.608.667 4.764 1.596 9.529 1.16 14.314-.392 4.303-1.139 8.594-6.042 12.271ZM271.1 82.156c-1.196 2.59-1.872 5.174-6.174 7.258.339-2.209.679-3.92.853-5.637 1.576-15.52-3.016-30.625-8.847-45.65-.891-2.296-1.456-4.636-2.174-6.954-.868-2.804 2.779-4.626 4.355-6.986 5.127 5.63 7.905 11.6 9.354 17.98-1.935-.147-2.382-1.498-4.385-1.447-.899.927.105 1.868.426 2.718 2.428 6.434 4.962 12.855 6.303 19.406 1.304 6.374 2.484 12.76.289 19.312Z"/>
    <path fill="#000" d="M426.466 47.48a16850 16850 0 0 1-15.703 3.732c.211-2.007 1.58-3.17 4.13-3.957 8.127-2.507 16.63-4.518 25.097-6.57 20.458-4.958 41.132-9.593 61.81-14.22 1.034-.23 2.044-.567 3.572-.338-.731 2.174-3.247 3.237-6.357 3.98-12.104 2.898-24.212 5.787-36.316 8.685a54824.091 54824.091 0 0 0-36.233 8.689ZM337.717 31.6c4.756-1.092 9.292-2.13 13.828-3.17-.283 2.257-2.228 3.383-5.138 4.108-19.252 4.798-38.484 9.625-57.726 14.44-5.1 1.276-10.21 2.54-15.73 3.913.302-2.205 2.116-3.38 4.896-4.232 7.867-2.41 15.996-4.486 24.176-6.487 11.793-2.886 23.646-5.684 35.694-8.573Zm-13.569-3.194c-5.927.894-11.404 2.192-17.208 2.783-7.349.75-14.702 1.001-22.111-.14-1.374 1.123-.103 2.455-1.03 3.552-1.372-.158-1.097-.816-1.186-1.295-.32-1.739-1.318-3.233-3.472-4.528-1.743-1.048-1.355-2.422-.786-3.672.882-.256 1.344.044 1.795.263 5.469 2.66 11.799 3.092 18.621 2.745 9.18-.467 18.148-1.416 26.821-3.264.29-.061.59-.13.892-.144 2.458-.115 5.272-.484 6.711 1.047 1.414 1.506-.208 2.808-2.01 3.873-2.03 1.2-3.813 2.642-7.336 3.09 1.4-1.794 4.844-2.413 5.425-4.357-1.728-.417-3.302-.278-5.126.047Zm85.372 89.122c-20.984 5.619-41.754 11.183-62.709 16.797-.846-1.667-.687-2.755 1.858-3.433 23.273-6.2 46.53-12.421 69.797-18.629.446-.119.954-.157 1.779-.287-.228 1.658-.891 2.929-3.487 3.607-2.353.615-4.684 1.259-7.238 1.945Zm-289.785-5.69c1.288-.97 2.331-.321 3.363-.004 2.714.832 5.241 1.89 8.329 2.417 1.696-1.241 2.234-2.757 3.335-4.103.869-1.063 1.818-1.296 3.599-.707 2.857.943 5.809 1.787 9.191 2.816-1.912 1.925-3.672 3.737-5.508 5.523-.657.639-1.603.363-2.44.097-1.902-.604-3.871-1.151-5.666-1.85-2.141-.834-3.308-.425-4.243.818-.664.883-1.561 1.704-2.309 2.566-.809.933-1.843 1.174-3.475.611-2.396-.826-4.862-1.582-7.322-2.341-1.612-.497-1.962-1.092-.883-2.027 1.386-1.2 2.61-2.466 4.029-3.816Zm447.243 9.927c-5.646-.684-9.216.569-12.543 3.166-7.654 5.973-18.459 9.335-30.398 11.51-2.385.435-4.767 1.026-7.465 1.002.334-.962 1.676-.947 2.618-1.215 8.821-2.504 17.466-5.19 25.497-8.51 4.767-1.971 8.797-4.372 12.091-7.203 2.232-1.918 4.993-3.002 9.181-2.14 2.008.413 3.638-.061 4.624-1.194.739-.85 1.449-1.71 2.345-2.77 1.075.937 1.221 2.328 3.443 2.125 2.574-.235 1.25-1.838 2.264-2.668 1.981 1.142 1.851 3.349-.168 5.038-1.889 1.581-3.935 1.074-6.016.101-1.92.885-2.471 2.57-5.473 2.758ZM98.88 66.612c1.448-2.612 4.311-3.69 8.75-3.463 2.948.15 5.966-.25 8.863.36 3.146.66 4.08 1.876 2.286 3.514-3.958 3.613-8.456 6.861-16.425 7.53-1.68.14-3.26.703-4.884 1.073-.92.21-1.846.635-3.14-.338l14.978-5.498c-4.214-1.06-7.758-.515-11.406.151-.719-1.241.536-2.178.979-3.329Zm103.477-20.585c.534-.793.703-1.555 2.351-2.022 3.267 3.589 5.725 7.202 4.053 11.375-.476 1.187-1.365 2.207-3.582 2.462-2.364.272-4.197-.353-5.621-1.432-.372-.283-.674-.597-1.038-.924-1.064.27-.905.903-1.254 1.354-.755.977-1.656 1.896-3.668 1.966-2.216.077-4.003-.51-5.153-1.642-.859-.846-1.246-1.786-1.19-2.779.077-1.346-.264-2.613-1.245-3.873-.959-1.23-.085-2.433.972-3.713 1.981 1.238 2.036 2.71 2.5 4.092.376 1.123.662 2.259 1.158 3.363.35.779 1.49 1.152 2.796 1.225 1.471.082 2.218-.523 2.776-1.205 1.555-1.898.125-3.667-.806-5.432-.629-1.192-1.181-2.32.474-3.454 1.789.27 1.749 1.264 2.108 1.998.679 1.39 1.019 2.838 1.656 4.237.656 1.437 2.179 2.494 4.742 2.803 1.781.216 2.977-.141 2.115-1.378a94.56 94.56 0 0 0-3.351-4.48c-.608-.771-1.377-1.502-.793-2.54Zm61.654-28.428c-5.212 3.531-11.808 4.55-17.627 2.702-1.602 1.678-3.995 1.63-6.76 1-1.985-.453-3.756.23-5.526.84.071-2.478 3.303-3.985 7.437-3.6.994.093 2.108.472 2.855-.141.797-.655.535-1.425-.222-2.04-1.437-1.165-1.595-2.304-.139-3.586 3.63 1.052 2.582 4.106 6.531 5.16 1.898-1.41 3.583-2.934 6.087-4.013 2.059-.887 4.2-1.458 6.441-.348 2.176 1.076 2.465 2.441.923 4.026Zm-5.203-.093c.617-.204 1.437-.379 1.145-.91-.284-.515-1.1-.502-1.802-.335-1.353.322-2.894.538-3.455 1.584 1.48.404 2.561-.119 4.112-.339Zm111.267 1.779c1.881-.791 3.714-1.046 5.736-.669 1.05.196 2.052.231 2.763-.376.717-.612.233-1.225-.366-1.686-1.551-1.193-1.6-2.398-.528-3.817 3.799 1.1 2.723 4.221 6.682 5.31 1.733-1.472 3.467-2.889 5.792-3.991 2.885-1.367 5.521-1.433 7.382-.184 2.032 1.364 1.762 2.99-.856 4.512-2.795 1.625-6.17 2.602-10.089 2.854-2.303.148-4.558.09-6.281-1.315-1.418 1.842-3.595 2.162-6.376 1.449-2.369-.607-4.265.255-6.552.986.071-1.419 1.177-2.234 2.693-3.073Zm20.774-2.807c-1.086.368-2.359.625-2.818 1.596 2.487-.083 4.605-.266 6.261-1.285-.889-.909-1.973-.644-3.443-.31Zm131.203 1.196c1.845-1.614 3.724-3.042 6.362-4.074 2.034-.796 4.084-.95 5.932.075 1.857 1.03 2.127 2.321.928 3.651-3.079 3.416-12.59 4.911-18.098 2.767-1.129 1.785-3.32 1.922-5.977 1.276-2.265-.55-4.162.158-6.116.745.008-2.397 3.325-3.976 7.387-3.57 1.208.122 2.495.516 3.327-.314.744-.741-.088-1.386-.705-2.01-1.47-1.49-1.475-1.537-.131-3.462 2.394.61 2.543 2.072 3.61 3.161.784.801.748 2.163 3.481 1.755Zm6.831-1.402c-1.365.378-2.816.693-3.708 1.722 2.565.088 4.57-.202 6.188-1.163-.416-.746-1.251-.69-2.48-.559ZM93.77 121.298c4.934-1.21 9.651-2.363 14.765-3.614-.171 1.826-.837 3.1-3.467 3.752-12.994 3.22-25.985 6.444-38.978 9.666-.844.209-1.666.502-2.793.268-.793-1.521-.175-2.55 2.622-3.219 9.249-2.213 18.43-4.525 27.852-6.853Zm391.893 15.538c-1.652.317-2.895.977-4.73.784-.405-1.316-.457-2.464 2.151-3.104 13.77-3.377 27.52-6.78 41.286-10.163.531-.13 1.129-.331 1.924.005-.461 1.548-1.342 2.784-4.281 3.492-12.091 2.91-24.093 5.948-36.35 8.986Zm-181.728-20.652c-13.466 3.335-26.715 6.62-40.086 9.935-1.087-1.819-.526-2.839 2.296-3.524 13.615-3.303 27.173-6.687 40.757-10.036.457-.112.965-.154 1.809-.284-.139 2.004-1.417 3.297-4.776 3.909ZM78.394 37.946c.662.737 1.215 1.359 2.056 2.306.766-2.3 1.281-4.265 2.553-6.096.752-1.083 1.195-2.472 3.775-2.563 1.596-.056 3.232.447 3.915 1.237 1.11 1.285.401 2.564-1.003 3.624-1.573.218-2.23-.733-3.806-.726-3.555 3.564-3.097 7.731-3.816 11.83-1.948-.503-1.897-1.264-2.246-1.857-1.046-1.776-2.105-3.543-3.82-5.143-.84-.783-1.78-1.318-3.6-1.456-3.712-.283-6.11-3.328-4.338-5.252.993-1.08 2.213-1.52 4.152-.558 2.57 1.276 4.458 2.836 6.178 4.654Zm504.505 89.097c10.835-3.222 21.468-6.378 32.588-9.679-.245 1.654-.714 2.958-2.9 3.604-15.251 4.507-30.549 8.959-45.839 13.421-.242.071-.571.039-1.319.081 1.258-1.629 2.585-2.951 5.183-3.724 4.038-1.201 8.057-2.424 12.287-3.703Zm-243.878-73.21c-.395-1.512-2.684-2.91.162-4.351 2.012 1.227 1.867 2.81 2.496 4.217.631 1.41 1.023 2.887 3.615 3.6.91.25 1.882.657 2.858.148.91-.475.276-1.026-.069-1.504-.845-1.17-1.628-2.366-2.7-3.462-1.509-1.545-1.024-2.857 1.161-4.457 2.439 2.253 3.8 4.521 4.323 6.954.216 1.007.102 2.067-.179 3.073-.343 1.227-1.17 2.408-3.6 2.646-2.266.221-3.935-.49-5.269-1.502-.286-.217-.525-.456-.85-.741-.189.238-.344.392-.438.557-.732 1.295-1.465 2.682-4.414 2.519-2.975-.166-4.808-1.322-4.758-3.023.071-2.407-2.695-4.622-1.206-7.086.099-.165.24-.32.443-.588 2 .608 1.86 1.794 2.289 2.748.444.986.468 2.036.825 3.04.356.999 1.095 1.9 3.21 1.81 1.976-.085 2.379-.99 2.573-1.94.174-.853.026-1.691-.472-2.658Zm143.006-9.582c1.952-2.054 2.577-2.133 5.358-.705 3.345 1.717 5.139 4.047 7.268 6.702.714-1.815 1.245-3.294 1.892-4.756a9.896 9.896 0 0 1 1.349-2.216c.943-1.165 1.871-2.42 4.812-1.637 2.847.757 3.492 1.668 2.326 3.517-.243.386-.624.743-.891 1.053-1.595.3-2.278-.63-3.729-.715-4.182 3.526-2.831 7.837-4.194 11.838-1.774-.46-1.725-1.285-2.11-1.929-1.026-1.714-1.989-3.442-3.65-4.991-.713-.666-1.484-1.29-2.95-1.49-4.103-.556-5.854-2.008-5.481-4.67Zm-30.288 7.683c.316-.992-.065-1.98 1.338-2.688 1.483.67 1.567 1.659 1.859 2.59.205.653.364 1.31.546 1.965.381 1.376.482 2.958 3.677 3.051 1.955.058 3.095-1.914 2.332-3.811-.354-.882-.834-1.747-1.211-2.626-.384-.892-.655-1.787.827-2.57 2.011.766 1.798 2.087 2.328 3.185.697 1.44.748 3.03 2.748 4.154 1.076.604 2.498 1.133 3.861.54 1.239-.538.313-1.344-.17-1.987-.747-.996-1.481-2.007-2.43-2.938-1.586-1.556-.797-2.85.86-4.149 3.55 1.601 6.23 8.095 3.855 11.006-1.312 1.608-4.918 1.898-7.251.547-.635-.368-1.077-.852-1.611-1.286-.651.103-.564.467-.727.72-.795 1.23-1.675 2.498-4.423 2.284-2.925-.228-4.454-1.418-4.847-3.085-.225-.955-.148-1.936-.416-2.885-.182-.644-.726-1.253-1.145-2.017Zm129.726 21.949c-1.546 2.817-1.279 5.67-2.102 8.669-2.165-1.023-2.064-2.34-2.847-3.387-1.438-1.924-2.26-3.982-6.688-4.467-1.798-.196-2.836-1.378-3.257-2.48-.43-1.122-.186-2.282 1.615-2.909 1.784-.62 2.813.434 3.83 1.021 2.605 1.504 4.325 3.364 5.878 5.749 1.16-2.546 1.507-4.877 3.449-6.893.751-.78 1.711-1.425 3.466-.977 1.518.387 3.148.754 2.999 2.004-.101.854-.446 1.662-1.476 2.265-1.231.18-1.855-.586-3.014-.523-1.102.394-1.36 1.122-1.853 1.928Zm-257.144 33.893c-1.455 1.12-3.871 2.015-2.608 3.5 1.233 1.448 3.908.998 6.129 1.028 3.37.046 6.255-.94 9.597-1.664-.259 1.166-1.668 1.536-2.695 2.035-3.257 1.583-7 2.567-11.238 2.698-4.914.152-7.399-1.998-5.528-4.665.913-1.303 2.2-2.447 3.95-3.43 1.16-.652 2.572-1.22 3.018-2.214-1.385-.555-1.385-.555-6.489-.571-.166-1.292.152-2.475 2.608-2.847 2.679-.405 5.54-.778 7.864.533 1.194.673.867 1.551.173 2.364-1.09 1.279-2.967 2.154-4.781 3.233Zm-91.2-2.989c.8-1.592 2.191-1.926 4.343-1.004.164.07.366.109.548.165 8.436 2.599 8.526 2.866 3.187 7.564-.904.796-1.744.845-3.046.397-2.039-.7-4.116-1.368-6.235-1.98-1.658-.478-1.951-1.092-1.133-2.04.834-.968 1.506-1.985 2.336-3.102Zm363.022 1.831c1.912.614 3.586 1.203 5.34 1.695 1.728.485 2.29 1.045 1.153 2.101-1.202 1.116-2.23 2.303-3.218 3.492-.824.991-1.874 1.179-3.394.545-.331-.139-.717-.232-1.08-.344-7.172-2.22-7.035-2.186-3.9-6.647 1.201-1.709 2.526-1.972 5.099-.842ZM313.528 49.235c.386.036.794.207.789.21-2.1 1.794.329 2.621 2.125 3.66 3.521 2.036 3.838 4.185 1.142 6.51-1.721 1.483-4.843 2.19-7.188 1.626-2.436-.586-4.151-2.537-3.523-4.229 1.07-2.88 3.65-5.342 6.655-7.777Zm.531 8.698c.795-.228 1.85-.232 2.202-.904-.413-.944-1.775-1.406-3.045-1.89-.95-.36-2.062-.757-2.87.108-.703.753-1.315 1.554.129 2.282.915.462 1.985.596 3.584.404Zm259.243-4.295c-.405-3.948 3.697-6.573 6.522-9.674.582.339.849.463.826.485-1.582 1.545-.447 2.48 1.691 3.54 3.714 1.844 4.161 3.589 2.265 5.945-1.242 1.543-3.151 2.53-6.17 2.531-3 0-4.234-1.229-5.134-2.827Zm3.126-3.183c-.527.905-.804 1.894.928 2.356a7.573 7.573 0 0 0 5.328-.524c-1.646-1.943-3.969-2.706-6.256-1.832ZM189.765 98.774c.861 1.574-.503 2.553-2.02 3.504-1.265.793-2.679 1.528-3.726 2.412-1.544 1.302-.625 2.337 2.091 2.513 3.677.238 7.089-.346 10.565-1.537.075 1.072-.945 1.44-1.748 1.814-2.623 1.222-5.588 2.037-8.906 2.364-2.04.201-3.963.023-5.364-.941-1.463-1.007-1.067-2.136-.294-3.252.756-1.09 2.006-1.958 3.427-2.766.946-.537 2.02-1.035 2.347-1.885-1.503-1.073-3.528-.041-5.331-.475-.453-.884-.095-1.78 1.284-2.137 2.483-.642 5.139-.892 7.675.386Zm103.498-35.841c-1.286-2.944-3.685-5.396-7.811-6.915-3.354-1.235-3.623-2.657-2.525-4.544 7.228.249 14.368 9.104 11.796 14.938-1.424-1.087-.739-2.32-1.46-3.48Zm133.801-35.021c.133-.904.271-1.673.407-2.431 6.01.23 13.688 8.16 10.721 13.47-.877-.289-.792-.817-.857-1.274-.52-3.621-3.44-6.4-8.473-8.456-.748-.306-1.638-.55-1.798-1.31ZM124.013 35.71c-2.604 1.255-4.309 1.124-5.588-.303-2.111-2.354.508-8.596 4.598-10.411-.905 1.925-1.871 3.677-2.532 5.468-.741 2.008.539 2.685 3.951 2.186.92 1.015.205 1.976-.429 3.06ZM150.6 47.75c-1.035 1.571-1.801 3.068-2.228 4.62-.584 2.119.593 2.788 4.018 2.215.966 1.091.351 2.138-.534 3.067-1.284 1.347-3.978 1.21-5.411-.211-1.294-1.283-1.047-2.677-.63-4.043.669-2.196 1.514-4.367 4.128-6.113.071-.048.412-.022.525.037.123.064.126.207.132.428Z"/>
</svg>
