<svg xmlns="http://www.w3.org/2000/svg" xml:space="preserve" viewBox="0 0 100 100">

	<path fill="#FE3E02" d="M34.239 82.943s-.154-.431-.136-1.12c.081-16.38.143-32.073.566-47.712 4.631.45 8.903.844 13.563 1.104a14614.74 14614.74 0 0 1 32.74-9.146c2.813-.401 3.407 1.259 3.404 3.58-.02 15.83.096 31.663-.195 47.489-.032 1.706-2.06 4.287-3.734 4.903-10.122 3.72-20.307 7.364-30.69 10.247-5.078 1.41-10.596.99-14.767-4.17-.266-2.22-.509-3.697-.751-5.175m33.136-26.094c1.586-.484 3.168-.985 4.76-1.448 8.285-2.41 8.292-2.406 7.902-10.9-.02-.442-.296-.872-.559-1.602l-28.126 8.047v10.382c5.37-1.526 10.298-2.925 16.023-4.48z"/>
	<path fill="#805AC2" d="M34.309 34.057c-.063 15.693-.125 31.386-.269 47.547-2.892.42-5.726.581-8.51.284-6.092-.649-8.397-3.237-8.408-9.417-.028-16.22.035-32.44.526-49.038 3.724 2.175 7.282 3.077 11.677 1.528 10.867-2.62 21.331-5.195 31.795-7.77 2.142.338 4.853-2.89 6.17 1.649-9.084 2.882-17.92 5.127-26.745 7.41-4.004 1.035-7.326 2.675-6.236 7.807z"/>
	<path fill="#FCD7AB" d="M80.578 26.01c-10.39 3.062-21.174 6.065-32.733 9.152-3.197-.706-5.618-1.494-8.04-2.283l.243-1.677c9.961-2.646 19.918-5.309 29.895-7.892.527-.137 1.227.394 1.846.614 2.799.675 5.598 1.35 8.79 2.085z"/>
	<path fill="#5032A4" d="M28.923 25.007c-3.993 1.503-7.551.601-11.142-2.032-.841-4.23 1.535-6.124 5.147-6.952 9.453-2.166 18.941-4.186 28.363-6.48 3.589-.875 3.988.975 3.45 4.034-11.207 1.512-21.34 4.873-31.684 7.438l.133 1.457 5.733 2.535z"/>
	<path fill="#C53E1E" d="M71.849 23.536c-.68.168-1.379-.363-1.906-.226-9.977 2.583-19.934 5.246-29.895 7.892-.08.56-.162 1.118-.243 1.677 2.422.789 4.843 1.577 7.652 2.419a1456.64 1456.64 0 0 1-12.788-1.187c-1.45-5.186 1.872-6.826 5.876-7.862 8.825-2.282 17.66-4.527 26.842-7.043 3.417-.524 5.168.516 4.462 4.33z"/>
	<path fill="#F8D9B3" d="M29.325 24.961c-2.313-.799-4.224-1.644-6.135-2.49l-.133-1.456C33.4 18.45 43.534 15.09 54.695 13.982c2.306.892 4.172 1.758 6.232 2.916-10.27 2.868-20.735 5.443-31.602 8.063z"/>
	<path fill="#C53E1E" d="M34.157 83.331c.324 1.09.567 2.568.777 4.433-.308-1.09-.583-2.567-.777-4.433z"/>
	<path fill="#FFE8AF" d="M66.976 56.926a2529.154 2529.154 0 0 0-15.624 4.402V50.946c9.276-2.654 18.66-5.34 28.126-8.047.263.73.539 1.16.559 1.602.39 8.494.383 8.49-7.901 10.9-1.593.463-3.175.964-5.16 1.525z"/>
</svg>
