<svg width="108" height="171" viewBox="0 0 108 171" fill="none" xmlns="http://www.w3.org/2000/svg">
<path d="M108.439 170.704C107.678 170.505 106.731 170.273 106.187 169.662C102.106 165.084 97.9514 160.558 94.1411 155.747C92.2086 153.307 90.9411 150.311 89.3644 147.552C85.9459 149.96 82.7262 152.527 79.2276 154.596C76.5526 156.178 73.552 157.208 70.6289 158.291C70.1001 158.487 68.8618 157.955 68.6004 157.422C65.7412 151.598 63.3145 145.604 62.8024 138.996C62.6265 136.726 62.2931 136.468 60.0778 137.172C51.6681 139.845 43.0166 140.033 34.3304 139.761C32.5049 139.703 31.5333 138.871 31.5793 136.643C31.7338 129.166 31.2742 121.658 32.9615 114.284C33.4085 112.33 33.8013 110.354 34.4101 108.452C34.8775 106.993 34.4103 106.439 33.0717 106.437C26.9218 106.428 21.2128 104.507 15.5881 102.216C13.0113 101.167 12.7874 100.692 13.6672 97.9894C15.6553 91.8808 18.0437 85.9847 22.2718 81.0742C22.5399 80.7629 22.6798 80.3349 22.8953 79.9312C19.7423 77.7421 16.4648 75.8949 13.6923 73.4443C9.1801 69.456 4.96178 65.111 0.733268 60.7986C0.312742 60.3698 0.315407 58.7495 0.737306 58.3186C4.85313 54.1151 8.94619 49.8607 13.3655 46.0081C16.1598 43.5721 19.4797 41.7658 22.5974 39.7314C24.066 38.773 23.9748 37.8652 22.823 36.7047C17.8532 31.6976 15.3254 25.2588 12.7153 18.6859C19.1842 13.9549 26.621 12.5691 34.3659 11.0081C33.6043 7.55438 32.8597 4.17835 32.0937 0.626634C33.5475 0.450958 35.0227 0.450958 36.7004 0.616758C37.9704 4.05719 40.5968 5.82438 43.173 7.64655C43.897 8.1587 44.585 8.72467 45.3661 9.32474C44.6321 9.98479 44.1643 10.3454 43.7656 10.7739C41.3767 13.3413 40.7483 16.4956 42.16 18.9053C44.7422 23.313 48.0862 27.0008 51.9754 30.2441C53.5696 31.5737 54.2431 30.8533 54.8922 30.0409C53.257 28.9529 50.9575 28.2459 50.5345 26.9111C50.1074 25.5633 51.5408 23.593 52.1464 21.9304C51.181 20.7813 49.2035 19.4547 49.0381 17.9216C48.8932 16.5784 50.783 15.0035 51.9322 13.2959C51.516 12.8079 50.7385 11.8963 49.9611 10.9848C52.3937 12.267 54.3698 14.3121 57.6251 13.1267C56.9357 11.1282 58.8009 8.62174 56.4802 7.23346C55.4794 6.63472 53.7476 6.87073 52.5142 7.26997C51.3576 7.64436 50.4204 8.73461 49.1045 9.72145C49.3829 8.93417 49.4289 8.00275 49.8508 7.75949C51.1866 6.98918 52.621 6.12638 54.0941 5.93971C56.7708 5.60054 57.5238 5.02756 57.5271 2.25332C57.5279 1.65254 57.5276 1.05175 57.5278 0.450958C57.7229 0.450958 57.9179 0.450958 58.2596 0.657021C58.5058 2.6284 58.6054 4.39373 58.7112 6.2696C59.6792 6.06313 60.0948 5.93298 60.5187 5.89051C64.6023 5.4814 64.5993 5.48641 63.6939 1.33875C63.632 1.05541 63.677 0.747461 63.6723 0.450958C64.4247 0.450958 65.1771 0.450958 66.1131 0.640215C66.1555 2.08072 65.7694 3.36487 65.9236 4.57643C66.2555 7.18443 68.6328 5.2119 69.8463 6.15815C70.2135 6.44451 71.4817 6.0972 71.8459 5.63308C72.1954 5.18771 71.9984 4.19872 71.8784 3.47724C71.7085 2.45472 71.389 1.45845 71.1334 0.450959C72.1738 0.450958 73.2142 0.450958 74.4325 0.614512C74.4357 1.09818 74.2696 1.42362 74.0849 1.7376C72.0074 5.2702 72.4721 6.39628 76.3429 7.2842C77.1565 7.47084 77.9484 7.75731 79.442 8.20519C79.1248 5.30311 78.8596 2.87703 78.5945 0.450959C81.3834 0.450958 84.1722 0.450958 87.1672 0.63598C87.2324 4.67424 89.9859 6.08636 92.665 7.57457C94.788 5.27386 95.1904 2.97253 93.9556 0.450958C95.4308 0.450958 96.906 0.450958 98.5813 0.623248C98.1771 2.52798 97.6736 4.30631 96.9489 5.98381C95.1449 10.16 95.1564 14.5547 95.3172 18.9723C95.3322 19.3841 95.7245 19.7815 95.9416 20.1856C96.1843 20.2056 96.4269 20.2257 96.6695 20.2457C96.2415 12.8845 97.569 6.10493 102.294 0.450958C102.624 0.450958 102.953 0.450958 103.431 0.609585C99.8844 6.35064 97.596 12.3205 98.6269 19.2615C101.989 18.8424 105.214 18.4403 108.439 18.0383C108.439 18.2387 108.439 18.4391 108.252 18.7907C106.477 19.1092 104.858 19.1271 103.305 19.4675C91.3519 22.0886 81.6808 28.1168 75.4631 39.2836C74.9162 40.2659 74.0469 41.0588 73.3241 41.7667C72.2505 40.0843 71.2216 38.5413 70.099 37.074C68.783 35.3541 66.997 33.888 66.1189 31.9712C64.9434 29.405 64.4304 26.5158 63.6623 23.7566C63.4384 22.9524 63.1338 22.1074 63.1817 21.3008C63.2928 19.4298 62.4922 17.6877 63.1722 15.5981C63.5111 14.5568 62.9493 13.5727 64.5509 13.7389C64.5505 15.5252 64.4789 17.1042 64.5624 18.6746C64.9474 25.9199 67.138 32.3761 72.3241 37.5693C73.597 38.8439 74.2085 39.0204 75.4977 37.3764C78.3524 33.7361 81.4974 30.3244 84.6685 26.9633C85.9931 25.5594 87.6851 24.5214 89.1906 23.3325C87.1614 20.0821 83.852 17.291 81.4271 16.197C76.0134 13.7545 70.3384 13.322 64.552 13.3605C65.0081 12.5998 65.5375 11.4493 65.9026 11.5019C70.2513 12.1283 74.7603 11.7501 78.9367 13.4504C81.0783 14.3222 83.2421 15.228 85.2041 16.445C86.7667 17.4142 88.047 18.8685 89.4357 20.1271C90.1815 20.803 90.8918 21.5203 91.6181 22.2189C91.7883 22.0247 91.9585 21.8306 92.1288 21.6364C90.9491 18.4107 88.3308 16.4365 85.66 14.7419C78.5275 10.2165 70.6411 8.63981 62.3187 8.98707C60.9644 9.04357 60.4851 9.5008 60.5918 10.841C60.8989 14.6994 61.2472 18.5569 61.4341 22.4222C61.71 28.1309 64.1171 32.9445 67.4346 37.2824C68.9568 39.2728 70.5225 41.5216 73.3293 42.1236C73.2587 42.8978 73.3163 43.5441 73.0962 44.067C69.5471 52.4981 69.4204 61.2676 71.3352 69.9863C72.7928 76.6231 76.2755 82.3925 80.8786 87.3373C88.3822 95.3979 97.6748 99.4464 108.439 100.112C108.439 100.313 108.439 100.513 108.242 100.864C104.911 100.61 101.777 100.207 98.4311 99.7762C97.9914 106.409 99.3256 112.38 103.295 117.538C104.834 119.538 106.714 121.262 108.439 123.111C108.439 123.884 108.439 124.657 108.277 125.603C107.227 124.844 106.317 123.935 105.461 122.975C104.793 122.224 104.116 121.461 103.578 120.612C102.572 119.026 101.082 117.821 100.657 115.747C100.422 114.599 98.8888 113.774 98.4998 112.607C97.6994 110.205 97.1434 107.693 96.7478 105.183C96.5361 103.84 96.9706 102.401 96.9119 101.015C96.8792 100.243 96.4326 99.4896 96.0339 98.3219C95.5985 99.0402 95.324 99.2809 95.3347 99.5073C95.5073 103.15 95.2897 106.883 96.0062 110.414C97.4632 117.593 102.067 122.989 106.705 128.257C107.081 128.683 107.852 128.743 108.439 128.974C108.439 130.191 108.439 131.409 108.278 132.829C106.785 132.121 105.453 131.211 103.68 130C102.862 132.162 101.991 134.024 101.499 135.986C101.311 136.734 101.761 138.005 102.349 138.49C102.8 138.862 104.067 138.621 104.716 138.219C106.048 137.396 107.208 136.282 108.439 135.287C108.439 135.768 108.439 136.249 108.284 136.926C107.287 137.701 106.511 138.472 105.586 138.808C104.419 139.233 102.726 139.897 101.998 139.373C101.115 138.738 100.875 136.999 100.606 135.684C100.461 134.975 100.837 134.154 100.909 133.766C98.9335 133.573 96.3399 134.045 95.6359 133.073C94.6953 131.774 95.221 129.354 95.1082 127.253C93.718 126.505 90.8841 128.435 90.2299 125.784C89.8129 124.094 90.8219 122.032 91.2066 120.06C89.6192 119.387 88.7598 120.438 88.756 122.093C88.7449 127.017 88.1783 131.981 89.6697 136.824C90.3761 139.118 91.8857 140.518 94.0124 141.116C95.5964 141.562 97.2865 141.61 99.0898 141.856C98.8946 142.737 98.706 143.592 98.5153 144.447C97.4107 149.396 97.473 154.164 101.149 158.074C103.453 160.525 106.001 162.733 108.439 165.05C108.439 166.865 108.439 168.68 108.439 170.704ZM57.9755 79.6903C58.2102 79.9729 58.5561 80.5403 58.6633 80.4961C60.7448 79.6382 62.7984 78.7089 64.8577 77.7943C62.7282 77.404 60.3017 75.3062 59.0841 78.825C58.9865 79.1071 58.3511 79.1927 58.0029 79.0371C59.2587 76.6695 59.2672 76.6477 56.7557 75.6114C55.6905 75.1718 54.5811 74.8455 52.9592 74.2829C52.5522 76.428 52.0465 78.3357 51.8645 80.2754C51.6973 82.0578 52.7345 82.8682 54.3269 82.04C55.6424 81.3559 56.7616 80.2733 57.9755 79.6903ZM64.9602 105.525C68.0049 105.372 71.089 105.484 74.0856 105.01C79.4169 104.167 84.2689 102.115 88.0208 97.8798C89.2348 96.5095 89.4023 95.5091 87.6437 94.3636C82.4781 90.9991 78.2212 86.6658 75.1043 81.2175C74.5242 80.2033 73.7509 79.9095 73.036 80.8509C71.0379 83.482 68.7984 86.0119 67.3018 88.9321C64.665 94.0773 64.3823 99.8004 64.2166 105.525C63.6292 105.382 63.0417 105.24 62.8462 105.192C62.4152 94.2775 65.3301 84.9862 73.3808 77.6775C72.6045 77.4403 72.0673 77.368 71.8032 77.6102C67.7968 81.2854 64.2528 85.3632 62.5797 90.7256C60.8109 96.3946 60.3931 102.264 60.5609 108.203C60.605 109.762 61.186 110.137 62.5332 110.045C65.3618 109.853 68.2157 109.907 71.0227 109.554C79.3076 108.51 86.5438 105.28 91.8717 98.3787C92.1573 98.0087 92.1382 97.3903 92.261 96.8876C91.7704 97.0162 91.1166 96.9833 90.818 97.3019C89.6191 98.5812 88.7404 100.293 87.3529 101.243C85.123 102.77 82.692 104.179 80.1499 104.987C76.375 106.186 72.4573 107.051 68.5391 107.552C67.3155 107.708 64.5723 108.806 64.9602 105.525ZM36.4325 135.286C40.1613 135.286 43.8902 135.304 47.6189 135.281C50.5774 135.262 53.2024 134.383 55.224 132.023C57.0739 129.864 58.9364 127.716 60.8605 125.485C61.1554 125.896 61.4372 126.32 61.7502 126.718C63.6603 129.147 66.9962 130.286 69.5766 128.927C74.3241 126.428 78.0965 122.686 81.1693 118.224C82.0264 116.98 81.6662 116.049 79.8938 115.527C80.2357 118 79.2518 120.293 77.3471 120.527C75.8506 120.711 74.119 118.878 72.7465 118.087C71.7178 119.221 70.6557 121.356 69.0654 121.92C66.588 122.8 66.1105 119.815 64.9587 118.212C63.0634 119.275 62.5649 123.077 59.4064 121.166C57.0074 119.714 57.6813 116.99 57.3962 114.63C53.2815 117.004 51.6149 120.861 52.7086 124.849C52.8797 125.473 52.8881 126.362 52.5647 126.833C52.3559 127.137 50.9194 127.051 50.8706 126.884C50.659 126.156 50.6532 125.318 50.7637 124.549C50.9275 123.409 51.2532 122.293 51.51 121.167C51.1488 121.018 50.7875 120.869 50.4263 120.72C49.5582 122.241 48.7205 123.781 47.8097 125.275C47.3255 126.069 46.8079 127.252 46.1341 127.393C45.5068 127.524 44.4877 126.645 43.9334 125.961C42.8923 124.676 43.693 123.678 45.9556 122.725C47.3023 122.158 48.4795 121.166 49.7329 120.365C49.5914 120.038 49.4498 119.711 49.3083 119.384C47.6181 119.693 45.9279 120.002 43.8434 120.383C44.0227 119.296 44.1587 118.472 44.2947 117.648C45.1002 117.799 45.9102 117.93 46.7098 118.108C47.2622 118.232 47.8188 118.608 48.3416 118.553C51.5938 118.209 53.9266 116.408 55.8542 113.318C54.7066 113.256 53.7672 113.443 53.0481 113.117C51.712 112.51 49.9773 111.899 49.3715 110.753C48.541 109.182 49.686 107.569 51.135 106.594C52.9825 105.352 52.2617 104.809 50.7157 104.14C48.3259 103.106 48.0778 101.267 50.033 99.494C50.8858 98.7207 51.8508 98.0781 52.2908 97.7402C51.5239 95.6335 49.9918 93.5169 50.4938 92.2535C51.0703 90.8024 53.4484 90.1069 55.0439 89.0832C55.045 88.8907 55.0461 88.6983 55.0472 88.5058C54.0829 88.5883 52.8696 88.3146 52.1954 88.8122C48.3734 91.6325 45.266 95.1722 42.7583 99.2884C41.3832 101.545 41.2406 103.809 42.4572 106.066C43.2782 107.59 44.4013 108.941 45.3258 110.278C43.6652 111.562 41.8471 112.688 40.3691 114.171C37.8633 116.687 35.693 119.378 35.9642 123.462C36.2249 127.387 36.0224 131.345 35.7128 135.255C35.0933 134.927 34.4738 134.599 34.2924 134.503C34.1719 132.922 33.9913 131.884 34.0327 130.856C34.1872 127.02 33.9938 123.208 34.8809 119.359C35.6013 116.234 35.341 112.924 36.5887 109.779C37.0194 108.694 37.45 107.674 37.9732 106.608C39.2943 103.916 39.9556 100.871 41.3589 98.2367C42.3539 96.3687 44.2559 95.0365 45.5208 93.2879C47.0483 91.1761 48.356 89.0168 51.0297 88.0802C51.8411 87.796 52.2281 86.2325 53.1006 84.7655C52.1483 84.9996 51.8626 85.0232 51.6201 85.1409C51.2944 85.299 50.9826 85.5042 50.6985 85.7332C46.9431 88.7599 43.4887 92.1406 41.215 96.472C38.9797 100.73 36.6268 105.057 35.3035 109.651C33.8985 114.528 33.4037 119.733 32.9628 124.836C32.6122 128.895 32.9033 133.016 33.0224 137.106C33.0355 137.555 33.7561 138.31 34.2113 138.364C36.5175 138.638 38.8587 138.97 41.1609 138.827C45.2085 138.575 49.2719 138.207 53.2661 137.51C64.1159 135.615 73.9502 131.498 81.5786 122.949C82.6054 121.798 83.5141 120.525 84.368 119.232C84.5449 118.964 84.2352 118.357 84.1498 117.906C83.7691 118.088 83.2646 118.168 83.0285 118.47C81.8325 119.998 80.9129 121.824 79.5113 123.099C76.849 125.519 74.0708 127.877 71.0627 129.802C68.6961 131.317 65.9474 132.242 63.303 133.247C60.4765 134.322 57.6284 135.478 54.6887 136.059C51.4589 136.697 48.1145 136.726 44.8191 137.008C43.109 137.154 41.2657 137.727 39.7272 137.259C38.5085 136.888 36.2439 137.817 36.4325 135.286ZM34.0701 61.2993C34.0277 60.8682 34.0917 60.1108 33.9272 60.0541C30.5232 58.8826 25.7268 61.3097 24.4441 64.7394C24.2312 65.3087 23.787 65.7867 23.3187 66.509C22.5674 65.6927 22.0436 65.1236 21.4229 64.4492C23.051 63.0963 24.5104 61.8837 26.2357 60.4501C23.5797 59.4188 21.7993 60.3371 19.9911 61.3175C18.2028 62.2871 17.5579 61.9056 17.6205 59.887C17.646 59.0654 18.0295 57.5659 18.2727 57.561C19.2966 57.5404 20.3281 57.9722 21.3587 58.23C22.7743 58.584 24.1917 58.9305 25.6083 59.2802C25.7206 58.9735 25.8329 58.6669 25.9451 58.3602C25.1246 57.6943 24.3 57.0334 23.4847 56.3607C22.8478 55.8352 21.6783 55.2475 21.7176 54.7723C21.7787 54.0345 22.6662 53.3689 23.5599 52.2107C25.4495 58.3023 29.4121 59.5967 34.6495 58.8884C33.6814 57.3527 32.7277 56.0722 32.0176 54.6622C30.7758 52.1965 31.7935 50.5408 34.4527 50.509C35.4606 50.4969 36.4687 50.507 37.5002 50.507C36.8014 44.161 37.5435 43.5608 43.6338 45.3329C43.7188 45.1439 43.8674 44.9532 43.8808 44.7529C43.9056 44.3833 43.8705 44.0056 43.8266 43.6355C43.4165 40.186 44.855 38.854 48.0195 39.8269C48.9264 40.1058 49.7764 40.5799 50.7169 40.9927C50.8713 38.6236 49.2632 38.4675 48.087 38.4253C43.5048 38.2609 38.8989 37.9712 34.4049 39.3918C30.9236 40.4923 28.8917 43.8439 29.5634 47.5415C29.6482 48.0086 29.6703 48.4878 29.7448 49.1771C28.584 48.8986 27.6743 48.6902 26.7693 48.4616C22.9787 47.5038 19.1723 47.4414 15.7633 49.5099C13.667 50.7819 11.9015 52.6698 10.1043 54.4087C8.78377 55.6863 7.68564 57.204 6.40977 58.5351C6.15116 58.8049 5.5402 58.7181 5.09169 58.7958C5.14436 58.3285 5.02292 57.6827 5.27657 57.4215C7.87278 54.7481 10.4354 52.0259 13.2021 49.5465C15.1538 47.7975 17.3984 46.3915 19.5254 44.8516C21.2785 43.5826 22.9206 42.041 24.8459 41.1604C27.61 39.896 30.7365 39.4326 33.4334 38.0579C36.5374 36.4757 39.7415 36.5402 42.9713 36.477C45.3936 36.4295 47.821 36.7292 50.2482 36.8014C50.7338 36.8158 51.2287 36.5004 52.2929 36.1461C34.457 31.6035 13.996 43.1709 1.47157 59.5458C6.48557 66.3746 12.7219 71.8492 19.7548 76.3136C28.825 82.0713 38.6518 85.0564 49.4378 83.8645C50.5767 83.7386 51.6578 83.5114 51.1812 81.8611C47.7053 82.5186 44.3224 83.4726 41.5212 82.3941C40.174 82.3941 39.4091 82.5246 38.704 82.3689C36.8108 81.9509 34.9644 81.1263 33.0612 80.9769C28.8958 80.6499 25.6998 78.0462 22.125 76.3764C20.2377 75.4947 18.6141 73.9745 16.9517 72.6373C14.5611 70.7142 12.064 68.8749 9.95811 66.6538C8.55669 65.1756 6.48038 64.1934 5.98579 61.8495C5.88337 61.3641 5.2912 60.993 4.96036 60.5417C4.93808 60.5114 5.29828 60.091 5.34429 60.116C5.88556 60.411 6.48985 60.6666 6.90751 61.104C8.74581 63.0292 10.4568 65.0869 12.3462 66.9555C15.9758 70.545 20.1107 72.6669 25.3499 71.2699C26.7237 70.9036 28.1422 70.7142 29.7199 70.4087C29.6088 71.1828 29.4902 71.747 29.4521 72.3169C29.2275 75.6747 31.2385 78.882 34.2914 79.7488C38.8127 81.0324 43.4191 81.5029 48.0832 80.7009C48.8743 80.5649 49.6427 80.213 50.3721 79.8547C50.4873 79.7981 50.339 79.1753 50.3125 78.8142C49.5071 78.9138 48.7004 79.003 47.897 79.1171C47.4679 79.1781 47.0476 79.3284 46.618 79.3591C44.2479 79.5287 43.4763 78.6743 43.712 76.2024C43.7776 75.5143 43.7977 74.8216 43.8273 74.3224C41.6239 74.3224 39.4271 74.9461 37.8937 74.1758C35.6089 73.0279 37.6249 70.5944 37.5192 68.5445C36.2539 68.5445 35.0945 68.5277 33.9357 68.5485C32.2454 68.5788 31.2949 67.6107 31.705 66.0381C32.1176 64.4558 33.1059 63.0321 34.0701 61.2993ZM67.3816 48.2504C58.3464 47.9591 52.013 53.465 45.5069 59.0174C45.4951 58.0587 45.7108 57.2951 46.1937 56.8154C48.792 54.2342 51.475 51.8024 54.7691 50.091C59.3435 47.7144 63.8057 45.2701 69.2321 46.6838C69.8463 46.8438 70.6853 46.0929 71.42 45.7645C61.8851 42.4041 47.6414 49.6048 40.357 59.8632C42.8358 62.2055 45.1939 64.7793 47.8859 66.9069C53.8451 71.6166 60.4677 74.6938 68.2069 74.384C69.1411 74.3466 70.0633 73.9935 70.991 73.7867C70.3466 73.0793 69.7185 72.6223 69.1583 72.6977C66.326 73.0787 63.6395 72.5479 60.9434 71.7272C57.1537 70.5735 53.6626 68.7935 50.5641 66.3293C49.0178 65.0996 47.8259 63.3951 46.4972 61.8835C46.1226 61.4573 45.8311 60.9539 45.5015 60.4858C46.1446 60.6914 46.9051 60.7371 47.4115 61.1292C50.2404 63.3198 52.7897 65.998 55.8487 67.743C60.1604 70.2024 64.8662 71.8114 70.121 70.5881C70.121 69.6377 70.2947 68.7191 70.093 67.8979C68.7144 62.2845 68.9024 56.6985 70.1338 51.0959C70.6672 48.669 70.3234 48.2977 67.3816 48.2504ZM76.0064 136.039C72.6118 132.441 72.4226 132.398 67.8422 134.253C67.03 134.582 66.0959 134.782 65.4633 135.337C64.8481 135.877 64.1809 136.789 64.1673 137.549C64.0543 143.842 66.3857 149.496 68.8042 155.103C68.964 155.474 69.5192 155.664 69.9622 155.991C71.6205 151.968 73.1923 148.154 74.9152 143.974C73.6228 143.915 72.7673 143.941 71.9307 143.825C69.814 143.529 68.2865 141.411 68.5039 139.156C68.6707 137.425 70.4645 135.874 72.2449 136.265C73.1006 136.453 74.0798 137.241 74.48 138.036C74.7848 138.641 74.5376 140.007 74.0416 140.449C73.4573 140.971 72.0908 141.281 71.5159 140.921C70.7788 140.459 70.4924 139.238 70.0034 138.328C68.8626 139.489 69.4362 141.023 70.3542 141.72C71.2889 142.43 73.0011 142.828 74.0588 142.445C76.5241 141.554 77.1547 139.24 76.0064 136.039ZM35.5106 13.8136C34.9669 13.4839 34.4086 12.8523 33.8822 12.8792C32.0787 12.9714 30.2212 13.0636 28.5032 13.5766C24.6318 14.7325 20.8175 16.0993 17.0127 17.4756C16.0993 17.806 15.0023 18.7371 16.5809 19.4595C20.115 21.0767 23.7785 22.3952 27.5278 23.8907C27.0704 19.3372 28.812 17.0318 32.2622 17.698C33.3384 17.9057 34.818 19.2918 34.9559 20.3048C35.0971 21.3432 34.0241 22.8493 33.0743 23.6186C32.645 23.9663 31.0761 23.2179 30.3203 22.5903C29.9298 22.2662 29.8981 20.6381 30.2096 20.4407C30.9187 19.9911 31.9375 20.0408 32.8357 19.9341C33.0648 19.9069 33.3133 20.053 33.8375 20.1984C32.9773 18.171 31.6555 18.1483 30.3415 18.814C28.4179 19.7885 27.7997 21.9065 28.8852 23.4831C30.0011 25.1036 31.5949 26.4742 33.4783 25.575C34.9734 24.8611 36.4535 23.4229 37.2112 21.9185C38.6306 19.1005 36.5748 16.6571 35.5106 13.8136ZM23.7015 95.3844C24.7154 94.874 25.7293 94.3636 26.8772 93.7858C26.0875 92.8925 25.3788 92.2311 24.8354 91.4485C23.4871 89.5068 24.2955 86.6331 26.4549 85.4705C28.0088 84.6339 30.1015 85.5642 30.9301 87.5308C31.5806 89.0746 30.8345 90.2824 29.5876 90.8883C28.4129 91.459 26.9814 91.3121 26.4901 89.7711C26.0358 88.3462 26.6268 87.2796 28.2084 87.0024C28.4285 86.9639 28.6194 86.7488 29.0645 86.4584C26.9433 85.7347 25.9536 86.7125 25.5433 88.2867C24.9793 90.4507 26.356 92.6407 28.2314 92.8888C30.3241 93.1657 31.8582 92.1181 32.7546 90.3806C33.6713 88.6039 34.0625 86.4123 32.3582 84.9727C30.5432 83.4395 28.3383 82.3918 26.2966 81.1442C25.0488 80.3817 24.1145 80.7387 23.3405 81.9622C21.6004 84.713 19.6065 87.3185 18.1043 90.1971C16.6643 92.9568 15.7146 95.9866 14.3109 99.4936C17.7838 97.9747 20.5905 96.7473 23.7015 95.3844ZM20.8693 22.5415C19.0069 21.8079 17.1445 21.0743 15.2915 20.3444C15.1354 20.7154 14.9997 20.8789 15.0354 20.9761C17.2863 27.1177 20.412 32.6975 25.1203 37.2186C25.5271 37.6093 26.3799 37.9023 26.8663 37.7393C28.3136 37.2542 29.7576 36.6498 31.0617 35.8491C32.8229 34.7679 33.8544 31.978 33.3242 29.9047C32.8189 27.9287 31.4555 26.7277 29.5318 26.2597C27.8082 25.8404 25.7873 27.1581 25.5009 28.8273C25.0957 31.189 25.6813 32.123 27.9506 32.6188C27.8347 32.3904 27.7899 32.1457 27.6489 32.0485C26.3578 31.1586 25.6969 29.8702 26.9144 28.7245C27.536 28.1396 29.1454 28.0812 30.0051 28.4781C31.3878 29.1164 31.5197 30.5359 30.7837 31.9509C29.7745 33.891 27.5837 34.4683 25.7408 33.2567C23.9802 32.0992 23.5679 29.3191 24.9321 27.4697C25.4863 26.7183 26.1572 26.0578 27.0227 25.0746C24.8556 24.2203 22.9988 23.4883 20.8693 22.5415ZM77.1735 154.463C79.7795 152.683 82.4277 150.963 84.9807 149.106C88.1152 146.825 88.3397 146.038 87.3956 142.271C86.6991 139.491 83.8591 137.542 81.1101 138.025C79.2204 138.357 77.6827 139.477 77.5082 141.418C77.391 142.722 77.9554 144.332 78.7434 145.389C79.2089 146.013 80.7711 146.128 81.7151 145.907C82.4357 145.739 82.9599 144.684 83.5715 144.023C83.261 143.726 82.9506 143.43 82.6401 143.133C82.5374 143.5 82.5312 144.094 82.3142 144.191C81.615 144.505 80.6435 145.01 80.1426 144.736C79.5705 144.424 79.0073 143.273 79.1346 142.632C79.3056 141.771 80.072 140.483 80.7082 140.401C81.668 140.276 83.4403 140.83 83.6154 141.461C84.0099 142.885 84.145 144.861 83.4451 146.005C82.5926 147.397 80.7302 148.077 78.9748 146.967C77.9594 146.325 77.027 145.545 75.8699 144.688C74.2525 148.731 72.6741 152.677 71.0958 156.623C71.2529 156.733 71.41 156.844 71.5671 156.954C73.3351 156.171 75.1031 155.387 77.1735 154.463ZM35.7827 94.679C33.4948 92.9659 31.7763 92.9132 29.842 94.5737C28.5113 95.7159 28.1609 97.2776 28.778 98.8443C29.3749 100.36 31.1303 100.774 32.7461 100.008C32.5332 99.8894 32.3415 99.8141 32.1863 99.6906C31.4158 99.0774 30.1761 98.5504 30.0295 97.8014C29.8917 97.097 30.7471 95.7327 31.4682 95.4363C32.1562 95.1535 33.3799 95.6647 34.1098 96.1993C35.4208 97.1594 35.5827 98.5607 34.622 99.9377C33.2039 101.97 31.4821 102.473 29.7552 101.387C27.5575 100.003 27.0395 97.9009 27.6966 95.0857C23.3986 96.9004 19.4431 98.5705 14.9647 100.461C21.1102 103.243 26.826 104.925 32.9109 105.055C33.7516 105.073 34.8242 105.132 35.4016 104.665C37.8568 102.681 38.0998 97.5746 35.7827 94.679ZM80.1704 137.081C82.0899 137.212 84.0094 137.343 85.6447 137.454C85.2362 133.137 84.8161 128.698 84.3337 123.6C82.4402 128.17 80.7746 132.158 79.171 136.171C79.1004 136.347 79.5957 136.763 80.1704 137.081ZM77.2241 128.741C75.7586 129.75 74.293 130.759 72.8728 131.736C74.7266 133.452 76.285 134.895 77.935 136.423C79.5737 132.259 81.2235 128.067 82.8732 123.875C82.5818 123.64 82.2904 123.404 81.999 123.169C80.4885 124.958 78.978 126.747 77.2241 128.741ZM37.9017 28.4993C40.8344 29.652 43.7671 30.8047 47.0073 32.0783C44.0935 28.3741 41.4532 25.0177 39.0128 21.9155C37.7988 23.4302 36.4239 25.1455 34.8881 27.0615C35.6902 27.4647 36.6347 27.9393 37.9017 28.4993ZM34.4879 84.0082C34.2002 84.2563 33.6446 84.5329 33.6663 84.7479C33.8702 86.7662 34.1728 88.7739 34.4644 90.9138C37.9933 89.3555 41.7817 87.6826 46.1365 85.7595C41.8779 85.1517 38.3416 84.6471 34.4879 84.0082ZM45.0229 89.2876C45.3722 88.8219 45.7214 88.3562 46.0707 87.8905C45.9173 87.6833 45.7639 87.4761 45.6105 87.269C42.1088 88.8524 38.6071 90.4357 35.0233 92.0562C36.5474 94.0232 37.7745 95.6069 39.1041 97.3229C40.999 94.7262 42.8996 92.1217 45.0229 89.2876ZM57.5305 18.1504C57.992 14.0291 56.1323 14.1637 53.2702 14.9383C52.4362 15.164 51.6079 15.4879 50.8457 15.9007C49.7082 16.5168 49.2339 17.2848 50.297 18.5342C52.3224 20.9144 54.843 21.4173 57.9719 21.0463C57.8078 20.0864 57.6763 19.3179 57.5305 18.1504ZM41.7943 73.4357C43.2945 72.3741 44.7946 71.3124 46.9161 69.811C45.7306 68.9211 45.0236 68.5029 44.4506 67.9405C42.1503 65.683 41.0802 65.7828 39.2966 68.5092C39.0137 68.9416 38.6123 69.3534 38.5033 69.832C38.2681 70.8644 37.7558 72.5983 38.1299 72.8548C38.9991 73.4506 40.3263 73.3408 41.7943 73.4357ZM40.7326 31.0273C38.5539 30.1439 36.3752 29.2604 34.3515 28.4398C34.1641 30.8107 33.9995 32.8925 33.8412 34.8938C37.771 34.4232 41.8199 33.9384 46.3553 33.3953C44.2607 32.4926 42.6602 31.8029 40.7326 31.0273ZM45.0994 41.0349C43.9209 43.4636 45.1461 47.1353 47.4336 48.4499C48.7134 47.7249 49.9814 47.1668 51.047 46.335C51.5758 45.9221 52.165 44.8378 51.9837 44.3472C51.1803 42.1738 47.7013 40.4358 45.0994 41.0349ZM45.2311 50.2908C45.3134 49.6193 45.7131 48.6681 45.425 48.3229C43.86 46.4474 41.9455 45.218 39.348 45.5293C37.9677 45.6948 37.5875 46.3585 37.9406 47.6436C38.5696 49.9328 39.6694 51.8712 41.7719 53.1848C42.8814 52.2701 43.9466 51.3919 45.2311 50.2908ZM96.1254 129.642C95.7486 130.958 95.4839 132.996 97.0121 132.828C98.9823 132.612 101.041 131.361 102.643 130.026C104.173 128.751 102.153 127.91 101.547 127.015C99.4534 123.927 98.6894 124.019 96.9113 127.442C96.6067 128.029 96.4079 128.673 96.1254 129.642ZM86.496 112.526C86.2776 111.12 86.0592 109.714 85.7827 107.933C84.3743 108.648 83.4623 109.06 82.5983 109.559C79.5758 111.305 79.3822 112.097 81.7048 114.751C82.5644 115.733 83.86 116.312 84.9569 117.075C85.4699 115.693 85.983 114.31 86.496 112.526ZM91.2961 122.989C90.4762 125.843 91.0542 126.6 93.879 126.238C94.6584 126.138 95.4425 125.876 96.1657 125.551C98.4714 124.514 98.774 123.383 97.4391 121.232C96.834 120.256 96.2837 119.245 95.4195 117.751C93.9443 119.539 92.661 121.095 91.2961 122.989ZM82.3335 3.5966C81.6159 4.77528 80.5523 5.86795 80.2505 7.14995C79.5514 10.1203 82.8482 8.84439 83.8033 10.2487C84.0246 10.5742 85.4222 10.5372 85.7826 10.1629C86.2691 9.6574 86.3736 8.67604 86.4635 7.87765C86.5714 6.92033 86.6858 5.88406 86.4385 4.98642C86.1862 4.07095 85.6704 2.95432 84.942 2.55071C84.4377 2.2713 83.3771 3.05187 82.3335 3.5966ZM57.5867 29.967C56.4344 30.8412 55.2166 31.6398 54.1504 32.6135C53.2848 33.4041 53.3085 34.3542 54.4344 34.9568C55.2541 35.3956 56.173 36.0507 56.9972 35.9808C58.5898 35.8456 60.1467 35.2664 61.7184 34.8712C61.3822 33.5497 61.0874 32.2148 60.6901 30.9129C60.5238 30.368 60.14 29.8931 59.8186 29.3214C59.1281 29.5057 58.5098 29.6707 57.5867 29.967ZM46.2727 78.465C48.7097 78.4239 50.2457 76.8211 51.6705 75.0965C52.4534 74.149 52.1769 73.3293 51.1274 72.7325C49.8743 72.02 48.6417 71.2693 47.3831 70.525C45.4672 72.0161 44.1534 75.7258 44.9099 77.8061C45.0196 78.1079 45.5598 78.2444 46.2727 78.465ZM52.5476 91.4945C51.9053 92.1484 50.4182 92.2975 51.2429 93.8251C52.4001 95.9688 55.6991 97.2688 58.2823 96.5592C58.6119 94.7087 58.9448 92.8397 59.3858 90.364C56.9193 90.7128 54.8742 91.002 52.5476 91.4945ZM57.5905 99.6969C58.0373 98.6145 58.0817 97.7065 56.5583 97.8744C53.861 98.1717 51.3031 98.812 49.7106 101.376C51.3462 103.85 54.403 105.235 56.6488 103.988C57.4081 103.567 57.2705 101.44 57.5905 99.6969ZM54.8189 22.5606C54.0178 23.0296 53.094 23.368 52.4509 24.0054C51.8368 24.614 50.976 25.7885 51.1866 26.2597C51.533 27.0344 52.5904 27.7202 53.4681 27.9418C54.9156 28.3073 56.4629 28.3887 57.959 28.3325C58.3781 28.3167 59.0255 27.4367 59.1003 26.8859C59.1921 26.2103 58.6879 25.4738 58.6253 24.7469C58.4215 22.3808 57.3031 21.6509 54.8189 22.5606ZM93.8669 113.072C93.3662 111.669 92.3136 111.385 91.3042 112.207C90.0315 113.244 88.7645 114.437 87.909 115.83C86.7707 117.685 87.6339 119.163 89.7845 118.974C91.6371 118.811 93.4373 118.019 95.3628 117.477C94.7714 115.771 94.3619 114.59 93.8669 113.072ZM59.0709 89.7315C59.8954 88.3694 60.7546 87.0279 61.5345 85.6394C62.2716 84.3271 61.6029 83.5843 60.3711 83.4948C58.7071 83.3738 57.0106 83.353 55.3621 83.5665C54.7315 83.6482 53.8647 84.406 53.7083 85.0183C53.5518 85.6304 53.945 86.726 54.4551 87.1175C55.7749 88.1305 57.2918 88.8724 59.0709 89.7315ZM77.8993 111.396C76.7712 111.638 75.6181 111.796 74.5212 112.142C73.1355 112.58 72.8587 114.229 73.7355 116.28C74.7926 118.752 76.3662 119.956 77.6425 119.262C77.7684 119.194 77.8689 119.077 77.9833 118.985C79.776 117.546 79.935 113.22 77.8993 111.396ZM69.5742 120.412C70.1414 119.553 70.9503 118.766 71.2197 117.817C71.6364 116.35 71.6846 114.772 71.889 113.24C70.6555 113.222 69.401 113.344 68.193 113.154C65.8173 112.78 65.687 114.219 65.8813 115.957C65.9802 116.843 66.0001 117.837 66.4178 118.561C67.0338 119.63 67.5692 121.122 69.5742 120.412ZM34.5707 51.4086C33.3361 51.3586 32.1965 51.6287 32.6167 53.2232C33.2586 55.6587 34.5528 57.6464 37.0181 58.5876C38.3618 57.0201 39.6217 55.5504 40.8953 54.0647C39.1029 52.2875 37.3287 51.1198 34.5707 51.4086ZM58.4059 115.717C58.5455 116.812 58.4542 118.011 58.8716 118.979C59.8309 121.205 61.2398 121.437 62.5393 119.431C63.6778 117.673 64.2878 115.554 65.3178 113.161C63.3618 113.161 62.0532 113.445 60.9265 113.101C58.7259 112.428 58.3784 113.546 58.4059 115.717ZM58.1656 40.6196C57.6846 39.9688 57.3338 39.0456 56.6957 38.7237C55.3542 38.0468 53.8619 37.6856 52.4315 37.1948C52.2323 38.3168 51.7241 39.4966 51.9102 40.5465C52.1557 41.931 52.9361 43.2184 53.5253 44.5291C53.5634 44.6138 53.953 44.6 54.1459 44.5323C55.8311 43.9411 57.5087 43.3273 59.3313 42.6686C58.8987 41.897 58.6176 41.3957 58.1656 40.6196ZM40.0743 65.7888C40.1561 65.2526 40.4979 64.5013 40.2752 64.217C39.2493 62.9076 38.066 61.7285 36.6409 60.1781C35.3109 61.7766 33.8789 63.1416 32.8873 64.7867C31.8321 66.5371 32.6012 67.8221 34.5681 67.5717C36.3468 67.3452 38.0517 66.5068 40.0743 65.7888ZM56.8374 105.576C54.3022 105.437 52.4959 106.779 50.8184 108.544C49.7226 109.696 50.0223 110.919 51.1282 111.204C53.0211 111.692 55.0624 111.589 57.0439 111.661C57.1887 111.666 57.4964 111.073 57.4859 110.767C57.4279 109.082 57.2944 107.4 56.8374 105.576ZM91.669 8.08408C90.8193 7.62763 89.9696 7.17118 89.1199 6.71472C88.9989 6.84058 88.8778 6.96643 88.7568 7.09228C89.7697 9.43414 90.7825 11.776 91.7954 14.1179C92.0271 14.0619 92.2588 14.0059 92.4905 13.95C92.318 12.0488 92.1454 10.1477 91.669 8.08408ZM89.4038 112.064C93.1567 110.481 93.3467 109.943 91.5811 104.763C90.6942 107.411 89.9571 109.611 89.4038 112.064ZM65.2531 39.7835C63.9291 36.0106 63.0362 35.5751 58.7824 37.2567C61.1892 38.3053 63.11 39.1422 65.2531 39.7835ZM59.5241 41.0784C60.9263 43.6787 62.7433 41.1911 64.2993 41.9053C64.3767 41.6037 64.454 41.302 64.5313 41.0004C62.4432 40.1585 60.3551 39.3166 57.6565 38.2286C58.4906 39.4721 58.9303 40.1277 59.5241 41.0784ZM60.1451 82.4275C63.0914 83.4317 64.3123 82.6272 65.4079 78.7898C63.7629 79.5252 62.2138 80.1528 60.7348 80.9226C60.3447 81.1257 60.171 81.7676 60.1451 82.4275ZM89.4882 11.5468C88.958 10.307 88.4278 9.06724 87.7315 7.43904C87.2259 9.18187 86.8593 10.4458 86.4507 11.8546C87.6582 12.6349 88.8042 13.3754 89.9501 14.1159C90.089 13.9539 90.2278 13.7919 90.3666 13.6299C90.1185 13.0376 89.8703 12.4454 89.4882 11.5468ZM89.8927 106.163C89.586 105.94 89.1433 105.451 88.9929 105.533C86.3165 106.982 86.0777 108.245 87.9052 111.193C88.5355 109.587 89.1485 108.025 89.8927 106.163Z" fill="#F1F1F1"/>
<path d="M108.439 62.0243C107.79 62.6728 107.054 63.0221 106.505 63.57C103.99 66.0842 101.519 68.6453 99.0487 71.2061C96.8205 73.5155 95.8361 76.1101 97.1695 79.3352C97.4102 79.9173 97.3074 80.8017 97.0354 81.3851C96.9161 81.6411 95.681 81.7378 95.4695 81.4723C95.0988 81.0067 94.9771 80.1961 95.0188 79.5482C95.1037 78.2295 95.3669 76.9229 95.642 75.0213C93.8439 76.4627 92.607 77.5338 92.1368 79.5333C91.5169 82.1695 90.0898 82.7186 88.5078 81.2089C86.9457 79.7181 87.0311 78.9056 89.0059 77.8781C90.7687 76.961 92.9616 76.7084 93.9826 73.7998C92.4983 74.092 91.3191 74.3956 90.1219 74.5329C89.4076 74.6149 88.4451 74.6897 88.0084 74.2899C87.6901 73.9986 87.812 72.7207 88.1832 72.271C88.4581 71.9382 89.5586 72.0042 90.1041 72.2814C93.1608 73.8343 95.6431 72.6334 97.8581 70.5885C101.257 67.4505 104.544 64.1842 107.878 60.9724C107.714 60.8023 107.549 60.6322 107.384 60.4621C107.302 60.3457 107.219 60.1263 107.139 60.1276C102.047 60.2075 96.9465 60.1626 91.8666 60.4687C89.6911 60.5998 88.0704 62.074 87.2048 64.2808C86.9218 65.0024 86.3541 65.6061 85.5867 66.7594C84.8049 65.923 84.2435 65.3225 83.533 64.5624C85.5156 63.0747 87.108 61.8798 88.8878 60.5443C85.4528 58.7683 83.0721 61.843 80.2658 61.7242C80.1223 61.388 79.9449 61.1764 79.9661 60.9884C80.0957 59.8387 80.2703 58.6943 80.4299 57.5481C81.6001 57.773 82.7776 57.9641 83.9385 58.2313C85.3983 58.5672 86.8445 58.9654 88.2965 59.3368C88.4057 59.0326 88.5148 58.7283 88.624 58.4241C87.4658 57.6356 86.2536 56.9165 85.1734 56.0278C84.6714 55.6148 84.2675 54.9042 84.1453 54.263C84.0989 54.019 85.019 53.2598 85.4065 53.3239C86.0024 53.4224 86.897 53.9388 87.0082 54.4336C87.7946 57.9329 90.6101 58.7378 93.2884 58.9376C97.9221 59.2832 102.598 59.0335 107.217 59.0335C107.29 58.703 107.394 58.4924 107.342 58.4378C103.871 54.7966 100.571 50.9506 96.8271 47.6333C95.0551 46.0633 92.5015 45.0545 89.9587 46.8611C89.5447 47.1553 88.3977 47.1562 88.2617 46.9064C87.9547 46.3425 87.8003 45.3645 88.0937 44.8829C88.3375 44.4828 89.3302 44.372 89.954 44.4493C91.1853 44.6018 92.391 44.9733 94.0735 45.3619C92.9642 42.7089 91.2683 41.9575 89.3727 41.2926C88.606 41.0237 87.5385 40.0381 87.5661 39.4241C87.5982 38.7073 88.5702 37.8515 89.3278 37.3947C90.523 36.674 91.6173 37.7319 92.2237 39.4733C92.7094 40.868 93.6342 42.1011 94.3641 43.406C94.6858 43.2755 95.0075 43.145 95.3291 43.0145C95.1861 41.7396 94.9893 40.4675 94.9259 39.1884C94.8995 38.6539 94.9973 37.8432 95.3271 37.6306C95.7078 37.3851 96.6377 37.4504 96.9093 37.7642C97.2484 38.1561 97.4135 39.0491 97.2142 39.5356C95.853 42.8578 96.5987 45.5617 99.1289 47.9604C102.178 50.8516 105.138 53.8434 108.288 56.8061C108.439 58.4859 108.439 60.1513 108.439 62.0243Z" fill="#F1F1F1"/>
<path d="M108.439 93.1677C96.5379 93.3182 84.1054 84.8297 79.4263 73.2713C76.1728 65.2344 75.841 57.0273 78.4897 48.5635C81.2265 39.8181 86.8243 33.7472 94.3272 29.467C98.4874 27.0937 103.229 25.997 108.248 25.7044C108.439 26.1856 108.439 26.6666 108.439 27.328C98.4601 28.4817 90.2657 32.5621 84.1691 41.1096C79.7216 47.345 78.2237 54.2196 78.6438 61.6174C79.3171 73.4751 85.0924 82.0166 95.1895 87.7539C99.2672 90.0708 103.603 90.9024 108.254 91.5432C108.439 92.0253 108.439 92.5063 108.439 93.1677Z" fill="#F1F1F1"/>
<path d="M108.439 81.8863C107.696 82.7936 106.971 83.5351 106.203 84.2249C105.654 84.7172 105.094 85.3356 104.444 85.5023C104.165 85.5737 103.239 84.5409 103.322 84.1874C103.458 83.6094 104.143 83.1321 104.66 82.6918C105.8 81.7223 106.979 80.8024 108.29 79.8408C108.439 80.4457 108.439 81.072 108.439 81.8863Z" fill="#F1F1F1"/>
<path d="M108.439 163.037C107.708 162.362 106.638 161.587 106.324 160.567C105.849 159.021 106.474 157.618 108.28 156.951C108.439 158.898 108.439 160.863 108.439 163.037Z" fill="#F1F1F1"/>
<path d="M108.439 39.0529C106.725 37.941 105.011 36.6487 103.015 35.1436C103.729 34.5512 104.349 34.037 104.969 33.5229C105.406 34.1326 105.814 34.7686 106.289 35.3454C106.873 36.0542 107.514 36.7136 108.284 37.4119C108.439 37.9104 108.439 38.3915 108.439 39.0529Z" fill="#F1F1F1"/>
<path d="M108.439 145.93C107.697 146.828 106.972 147.566 106.206 148.257C105.659 148.75 105.104 149.312 104.451 149.561C104.238 149.642 103.704 148.829 103.316 148.425C103.803 147.948 104.261 147.433 104.784 147.002C105.885 146.094 107.02 145.231 108.29 144.328C108.439 144.787 108.439 145.268 108.439 145.93Z" fill="#F1F1F1"/>
<path d="M53.3898 0.450958C54.1459 1.58035 54.7139 2.70974 55.63 4.53097C53.7817 3.02945 52.3843 1.89425 50.9657 0.605008C51.6969 0.450958 52.4493 0.450958 53.3898 0.450958Z" fill="#F1F1F1"/>
<path d="M9.18163 57.1997C11.8579 55.8193 14.5479 56.7301 14.9394 58.9796C15.2971 61.0351 13.7498 62.9676 11.6345 63.1072C9.96793 63.2171 8.35009 61.5624 8.40646 59.6285C8.429 58.8554 8.8292 58.094 9.18163 57.1997Z" fill="#F1F1F1"/>
<path d="M43.6513 131.758C42.7646 133.516 41.4273 134.678 39.7527 134.119C38.6347 133.746 37.421 132.488 37.0442 131.349C36.7623 130.496 37.5078 128.981 38.2262 128.157C39.2275 127.008 40.7563 126.968 42.0175 127.85C43.2433 128.707 44.2689 129.822 43.6513 131.758Z" fill="#F1F1F1"/>
</svg>
