<svg width="33" height="135" viewBox="0 0 33 135" fill="none" xmlns="http://www.w3.org/2000/svg">
<path d="M0.438905 0.141949C1.66406 0.0651983 2.90075 0.378837 4.11191 0.296388C6.48976 0.134531 6.5689 1.51866 6.61948 3.40148C6.83989 11.6068 6.35764 19.7091 3.57804 27.8231C10.3092 27.6973 16.1643 29.9309 22.0479 32.6484C20.3451 39.2147 17.8033 45.0667 13.4171 50.0979C21.2079 54.5388 27.7023 60.0229 32.9842 67.072C27.3002 74.4865 20.5796 80.2799 12.3951 84.6627C16.3569 88.0304 18.5872 92.5358 20.6428 97.1533C21.0345 98.033 21.5202 98.9477 21.5867 99.8747C21.6356 100.555 21.2672 101.603 20.7485 101.939C16.1895 104.894 11.1492 106.556 5.82437 107.214C4.23566 107.41 4.21167 108.195 4.55191 109.33C6.66682 116.384 6.72651 123.637 6.58566 130.914C6.5361 133.475 6.18859 133.801 3.59187 133.881C2.65777 133.909 1.72928 134.132 0.61857 134.291C0.438904 133.978 0.438904 133.639 0.640819 133.132C5.70173 132.961 5.62189 132.959 5.72255 127.911C5.88696 119.665 4.606 111.691 1.71246 104.002C1.52042 103.492 0.87399 103.162 0.438904 102.749C0.438904 100.934 0.438904 99.119 0.592966 97.0801C1.70465 96.0776 2.66228 95.299 3.99443 94.216C2.49449 93.6304 1.4667 93.229 0.438905 92.8277C0.438904 92.6273 0.438904 92.4269 0.607524 92.0785C1.97598 92.3454 3.17581 92.7603 4.33153 93.16C4.33153 91.3062 4.33153 89.4731 4.33153 87.6141C3.11642 87.8339 1.77766 88.076 0.438904 88.3182C0.438904 87.98 0.438904 87.6417 0.624183 87.1345C1.24436 86.9454 1.68704 86.9724 2.11296 86.8981C6.95469 86.0526 11.3589 83.9944 15.5576 81.5014C17.1054 80.5824 18.362 79.1457 19.7507 77.9456C19.75 77.9462 19.7487 77.9473 19.9051 77.9316C23.8682 75.9923 26.6613 72.9525 28.9672 69.3774C28.9672 69.3774 28.9656 69.3791 29.1174 69.3644C30.0693 68.6717 30.8695 67.9935 32.2134 66.8546C29.4473 64.5013 27.0127 62.4301 24.5629 60.2008C23.0661 57.7464 22.7916 57.5906 21.2379 58.5782C22.4581 59.2289 23.5178 59.7939 24.5815 60.5297C25.5596 61.8533 26.5756 62.9721 27.4901 64.1727C27.9598 64.7894 28.2484 65.5517 28.6188 66.2483C27.9245 65.9322 27.0905 65.7721 26.5614 65.2717C24.7907 63.5968 23.144 61.7845 21.4215 60.0545C19.5397 58.1647 17.439 56.8564 14.6271 57.1818C12.4856 57.4296 10.3247 57.5006 7.89017 57.6699C8.84294 52.1861 5.8584 49.9383 0.876504 49.5506C0.731108 49.5393 0.584792 49.5405 0.438904 49.5359C0.438904 49.1977 0.438904 48.8594 0.61026 48.3522C5.13429 49.5387 9.48696 50.8942 13.8396 52.2497C9.78263 49.4985 5.50482 47.3091 0.438904 47.2811C0.438904 46.9429 0.438904 46.6047 0.616986 46.0982C2.04813 46.1672 3.30119 46.4045 4.53325 46.6378C4.36195 44.7897 4.20283 43.073 4.03571 41.27C2.90747 41.5995 1.67319 41.96 0.438904 42.3206C0.438904 42.1201 0.438904 41.9197 0.595013 41.5523C1.66235 40.9072 2.57357 40.429 3.74169 39.8161C2.43236 38.6637 1.43563 37.7864 0.438904 36.9091C0.438904 24.7238 0.438904 12.5386 0.438905 0.141949ZM19.4232 56.1196C19.7415 56.5071 20.0598 56.8946 20.3781 57.2821C20.5496 57.0733 20.7211 56.8646 20.8926 56.6558C20.5105 56.3898 20.137 56.1091 19.7409 55.8673C19.6325 55.8011 19.4567 55.8514 19.2792 55.5326C18.1322 53.9724 16.639 53.0877 14.7595 52.9359C15.3554 53.6912 15.9935 54.375 16.7612 54.8261C17.5448 55.2865 18.4556 55.5184 19.4232 56.1196ZM7.41765 33.4531C7.11323 33.3175 6.80882 33.1819 6.50441 33.0464C6.44766 33.2099 6.3909 33.3734 6.33415 33.5369C6.70981 33.6087 7.08547 33.6805 7.495 34.0794C8.28071 35.5726 7.55958 36.8295 6.32537 37.0701C5.53232 37.2247 4.16388 36.282 3.69741 35.45C3.40459 34.9277 4.08346 33.431 4.73334 32.8637C5.36757 32.31 6.65836 31.9791 7.4171 32.256C9.56189 33.0385 10.4431 34.8112 9.82146 37.3566C13.191 35.933 16.2852 34.6257 19.3795 33.3185C17.8991 32.0298 16.7003 31.2358 15.3902 30.8994C12.6535 30.1967 9.86158 29.7166 7.086 29.1797C2.81361 28.3533 3.42618 28.2968 1.56807 32.4793C0.423481 35.0557 2.26137 39.6168 6.49602 38.6301C7.35737 38.4293 8.36453 37.4097 8.66271 36.5363C8.98713 35.586 9.28061 34.0178 7.41765 33.4531ZM12.4298 104.458C14.952 103.584 17.7104 103.211 20.0313 100.767C16.6006 99.4836 13.5521 98.3433 10.404 97.1656C10.1392 98.2839 10.1859 99.2108 9.75761 99.6658C8.81373 100.668 7.70093 101.948 6.52052 102.119C5.69336 102.239 4.27 100.882 3.82598 99.8582C3.55509 99.2335 4.46552 97.7963 5.19322 97.1182C5.48892 96.8426 6.9878 97.378 7.4487 97.9568C8.4079 99.1613 7.57615 99.9796 6.41807 100.503C6.20388 100.6 6.04073 100.816 5.85402 100.977C5.99351 101.178 6.133 101.378 6.27249 101.579C7.04603 101.013 8.26155 100.586 8.48439 99.8451C8.78179 98.8557 8.68902 97.2309 8.06849 96.5923C7.30853 95.8103 5.7523 95.3108 4.6781 95.5028C2.7539 95.8467 1.20904 97.441 1.44912 99.4456C1.70298 101.565 2.79434 103.593 3.63916 105.608C3.74874 105.869 4.59404 105.961 5.05846 105.883C7.40748 105.484 9.74324 105.003 12.4298 104.458ZM12.1076 40.1921C12.1067 41.6004 12.4757 43.1781 11.9657 44.3532C11.6623 45.0525 9.84612 45.5965 8.94879 45.3374C8.01898 45.069 7.00967 43.844 6.75789 42.845C6.62245 42.3077 7.92495 40.8953 8.72341 40.7564C9.37064 40.6438 10.2411 41.8342 10.9964 42.467C11.1774 42.6188 11.2944 42.8512 11.5856 43.2396C12.1962 41.1076 11.3036 40.0752 9.72098 39.6602C7.84975 39.1697 5.74782 40.3787 5.31059 42.0049C4.42511 45.2982 8.87578 50.1633 12.1375 49.4212C12.4899 49.341 12.8177 48.899 13.0503 48.5498C14.6858 46.0953 16.4433 43.708 17.8624 41.1255C18.9999 39.0556 19.7158 36.7412 20.821 34.0413C16.9144 35.5882 13.6302 36.8887 10.3032 38.2061C10.9243 38.8725 11.4156 39.3998 12.1076 40.1921ZM10.0496 94.5711C11.7876 93.203 11.8952 92.9421 11.3514 91.0678C11.1005 91.5725 11.0081 92.1091 10.7148 92.2784C10.0082 92.6864 9.11036 93.2994 8.4716 93.1252C7.79153 92.9398 6.95285 91.9929 6.86352 91.2875C6.77644 90.6 7.44026 89.2673 7.96651 89.1532C9.14403 88.8979 10.6943 88.8106 11.6279 89.4141C12.9185 90.2483 13.1596 91.8983 12.3302 93.4247C11.9169 94.1855 11.422 94.8996 10.8175 95.87C13.9799 97.2115 16.903 98.4515 20.3881 99.9299C18.6868 94.9985 16.6246 91.1844 13.7832 87.8086C11.3925 84.9682 11.4067 84.9555 8.16532 86.3591C5.67312 87.4382 4.56565 89.4647 5.33634 92.1169C5.95352 94.2408 7.69574 94.7872 10.0496 94.5711Z" fill="#F1F1F1"/>
<path d="M25.0156 69.83C26.1116 69.0396 27.2076 68.2493 28.5857 67.2555C28.7228 67.9027 28.8442 68.476 28.9656 69.2142C28.9656 69.3791 28.9667 69.378 28.807 69.3803C28.333 69.5231 27.951 69.589 27.715 69.8155C25.5422 71.9013 23.3824 74.0019 21.2479 76.1291C20.6956 76.6795 20.2456 77.3383 19.7487 77.9473C19.7487 77.9473 19.75 77.9462 19.5771 77.9469C18.6598 78.395 17.9385 78.8902 17.167 79.2807C14.9867 80.3839 12.595 81.1662 10.6367 82.5851C7.52253 84.8414 3.99105 85.3895 0.438905 86.0634C0.438905 85.7252 0.438905 85.3869 0.438904 84.8796C1.72585 84.4941 3.0505 84.4088 4.29149 84.0324C6.50855 83.36 7.79409 81.3636 7.89546 78.7209C7.92953 77.8329 7.90085 76.9423 7.90085 75.6624C15.1532 78.3791 20.9456 76.8979 25.0024 69.9861C25.0167 69.8289 25.0156 69.83 25.0156 69.83Z" fill="#F1F1F1"/>
<path d="M0.438904 54.7066C2.99684 55.4667 1.25335 57.5382 1.62487 59.3167C2.15428 59.3587 2.80838 59.297 3.38848 59.4812C4.43951 59.815 6.1973 60.1461 6.31042 60.7468C6.52461 61.8839 5.94152 63.293 5.38008 64.4274C5.05632 65.0815 4.12672 65.419 3.46981 65.899C3.59201 66.1096 3.71422 66.3202 3.83642 66.5307C4.4334 66.5779 5.0297 66.6509 5.6275 66.6677C7.99887 66.7343 10.3301 66.0252 12.7624 66.5791C13.7321 66.7999 14.9075 65.8792 16.0235 65.6798C16.7173 65.5559 17.9601 65.5965 18.1032 65.9392C18.4009 66.6524 18.394 67.7901 18.0013 68.4138C17.7457 68.8199 16.5428 68.8311 15.847 68.6613C14.3824 68.3041 12.9723 67.7115 11.5399 67.2155C11.4066 67.4969 11.2734 67.7783 11.1402 68.0597C11.9221 68.6327 12.749 69.1527 13.4707 69.797C13.972 70.2443 14.3953 70.8285 14.6893 71.4355C14.743 71.5464 13.841 72.4113 13.6664 72.324C13.1395 72.0605 12.6194 71.5748 12.3357 71.0415C10.9874 68.5067 7.68105 66.9003 4.90363 67.6397C4.62212 67.7147 4.53419 68.5573 4.21876 69.194C2.94466 68.4902 1.81673 67.5577 0.438904 68.9271C0.438904 67.858 0.438904 66.789 0.590099 65.5347C1.48954 65.442 2.62134 65.895 2.91718 65.5626C3.98701 64.3604 4.80302 62.9105 5.60612 61.4892C5.65643 61.4001 4.74548 60.3987 4.33455 60.436C3.0226 60.555 1.73556 60.9639 0.438904 61.2608C0.438904 59.1461 0.438904 57.0315 0.438904 54.7066Z" fill="#F1F1F1"/>
<path d="M0.438904 105.215C0.712976 105.204 1.17936 105.361 1.23251 105.612C2.14897 109.924 3.04399 114.243 3.87069 118.575C4.0801 119.672 4.085 120.82 4.09891 121.945C4.13036 124.489 4.1088 127.034 3.68652 129.791C3.48179 129.268 3.11372 128.75 3.10021 128.223C3.03708 125.756 3.31176 123.255 3.00055 120.828C2.71722 118.62 3.39056 115.889 0.596967 114.491C0.438904 111.458 0.438904 108.442 0.438904 105.215Z" fill="#F1F1F1"/>
<path d="M0.438904 73.1958C1.47164 73.2853 2.49339 73.7814 3.53943 73.8431C5.60925 73.9654 6.09134 72.9887 5.06055 71.1164C4.81274 70.6662 4.6332 70.1765 4.40487 69.5409C6.15549 70.2122 7.03583 71.8734 6.51368 73.3889C6.07431 74.6642 4.51835 75.0359 1.56868 74.528C1.01162 76.1983 2.96406 78.3291 0.608093 79.7261C0.438903 77.6353 0.438903 75.5207 0.438904 73.1958Z" fill="#F1F1F1"/>
<path d="M0.438904 124.598C2.61275 125.526 2.67743 126.381 0.590794 128.431C0.438904 127.236 0.438904 126.018 0.438904 124.598Z" fill="#F1F1F1"/>
<path d="M25.0172 69.8284C23.8553 69.7339 22.4248 70.0403 21.5933 69.4523C20.3419 68.5673 19.5787 67.0471 20.839 65.3996C21.7105 64.2603 22.7415 63.3581 24.1554 64.3163C25.5844 65.2847 26.5242 66.5772 25.4716 68.464C25.2931 68.7838 25.1903 69.1482 25.034 69.661C25.0155 69.8301 25.0172 69.8284 25.0172 69.8284Z" fill="#F1F1F1"/>
<path d="M13.7459 64.1142C12.8592 64.6837 12.1093 65.1776 10.8379 66.0148C11.5721 64.5317 11.9832 63.5767 12.5101 62.6948C12.7365 62.3158 13.2243 61.8296 13.5552 61.8581C13.9572 61.8929 14.5953 62.3938 14.6261 62.7405C14.6622 63.1465 14.1545 63.6036 13.7459 64.1142Z" fill="#F1F1F1"/>
</svg>
