<svg width="246" height="378" viewBox="0 0 246 378" fill="none" xmlns="http://www.w3.org/2000/svg">
<path d="M247 377.537C245.267 377.096 243.109 376.582 241.868 375.227C232.57 365.074 223.105 355.038 214.423 344.371C210.02 338.96 207.132 332.317 203.539 326.197C195.75 331.538 188.414 337.23 180.442 341.818C174.348 345.326 167.511 347.609 160.851 350.012C159.646 350.447 156.824 349.266 156.229 348.085C149.714 335.169 144.185 321.877 143.018 307.223C142.617 302.191 141.858 301.62 136.81 303.181C117.649 309.107 97.9365 309.525 78.1451 308.92C73.9857 308.793 71.772 306.947 71.8769 302.007C72.2288 285.425 71.1816 268.777 75.0261 252.425C76.0446 248.093 76.9395 243.71 78.3268 239.493C79.3916 236.257 78.3272 235.03 75.2773 235.025C61.2647 235.004 48.257 230.745 35.4412 225.666C29.57 223.339 29.0599 222.286 31.0644 216.292C35.5943 202.746 41.0363 189.672 50.6699 178.783C51.2807 178.092 51.5994 177.143 52.0906 176.248C44.9065 171.394 37.4386 167.297 31.1216 161.863C20.8407 153.019 11.2293 143.384 1.59472 133.821C0.63656 132.87 0.642634 129.277 1.60392 128.322C10.9817 119.001 20.3077 109.566 30.377 101.023C36.7437 95.6214 44.3081 91.616 51.4117 87.1046C54.7579 84.9794 54.5502 82.9664 51.9258 80.393C40.6022 69.2897 34.8426 55.0115 28.8956 40.4361C43.6349 29.9452 60.5793 26.872 78.2261 23.4106C76.4906 15.7519 74.7943 8.26551 73.0489 0.389561C76.3613 5.96046e-08 79.7226 2.98023e-08 83.5451 0.367663C86.4388 7.99683 92.423 11.9156 98.2927 15.9563C99.9425 17.092 101.51 18.347 103.29 19.6777C101.617 21.1413 100.552 21.941 99.6432 22.8911C94.2 28.5845 92.7683 35.5792 95.9847 40.9226C101.868 50.6967 109.487 58.8744 118.349 66.0666C121.981 69.0149 123.516 67.4174 124.995 65.6158C121.269 63.2032 116.03 61.6355 115.066 58.6756C114.093 55.6868 117.359 51.3176 118.738 47.6308C116.539 45.0828 112.033 42.1409 111.656 38.7412C111.326 35.7628 115.632 32.2704 118.251 28.4838C117.302 27.4015 115.531 25.3802 113.759 23.3589C119.302 26.2021 123.804 30.7371 131.222 28.1084C129.651 23.6769 133.901 18.1188 128.613 15.0402C126.333 13.7125 122.387 14.2359 119.577 15.1212C116.941 15.9514 114.806 18.369 111.808 20.5574C112.442 18.8116 112.547 16.7461 113.508 16.2067C116.552 14.4986 119.82 12.5853 123.176 12.1713C129.275 11.4192 130.991 10.1486 130.998 3.99676C131 2.66451 131 1.33225 131 0C131.444 0 131.889 -5.96046e-08 132.667 0.456945C133.228 4.8285 133.455 8.74311 133.696 12.9029C135.902 12.445 136.849 12.1564 137.815 12.0622C147.119 11.155 147.112 11.1661 145.049 1.96868C144.908 1.34038 145.011 0.657497 145 0C146.714 0 148.429 5.96046e-08 150.561 0.419679C150.658 3.614 149.778 6.46161 150.13 9.14826C150.886 14.9315 156.302 10.5574 159.067 12.6557C159.904 13.2907 162.794 12.5206 163.623 11.4914C164.42 10.5038 163.971 8.31068 163.698 6.71081C163.31 4.44336 162.582 2.23412 162 9.53674e-07C164.371 -4.63257e-08 166.741 -2.98023e-08 169.517 0.362682C169.524 1.43522 169.146 2.15689 168.725 2.85313C163.992 10.6867 165.05 13.1838 173.87 15.1528C175.724 15.5666 177.528 16.2019 180.931 17.1951C180.208 10.7597 179.604 5.37984 179 9.53674e-07C185.354 -4.63257e-08 191.709 2.98023e-08 198.533 0.410287C198.681 9.36516 204.955 12.4965 211.059 15.7967C215.897 10.6948 216.814 5.5916 214 0C217.361 0 220.723 2.98023e-08 224.54 0.382053C223.619 4.60581 222.471 8.54928 220.82 12.2691C216.71 21.5298 216.736 31.2751 217.102 41.0711C217.136 41.9844 218.03 42.8656 218.525 43.7616C219.078 43.8061 219.631 43.8505 220.184 43.895C219.208 27.5715 222.233 12.5377 233 0C233.75 0 234.5 -2.98023e-08 235.59 0.351756C227.509 13.0826 222.295 26.3208 224.643 41.7125C232.304 40.7831 239.652 39.8915 247 39C247 39.4444 247 39.8889 246.574 40.6686C242.53 41.3748 238.84 41.4144 235.303 42.1692C208.068 47.9816 186.032 61.3492 171.865 86.1115C170.619 88.2899 168.638 90.0481 166.992 91.6179C164.545 87.8871 162.201 84.4655 159.643 81.2118C156.645 77.3979 152.575 74.1468 150.575 69.8964C147.896 64.2057 146.727 57.7989 144.977 51.6804C144.467 49.8971 143.773 48.0232 143.882 46.2347C144.135 42.0856 142.311 38.2225 143.861 33.589C144.633 31.2798 143.353 29.0976 147.002 29.4661C147.001 33.4272 146.838 36.9288 147.028 40.4111C147.905 56.4775 152.897 70.7942 164.713 82.3102C167.613 85.1366 169.007 85.5279 171.944 81.8824C178.448 73.81 185.614 66.2446 192.839 58.7914C195.858 55.6781 199.713 53.3764 203.143 50.7399C198.52 43.5322 190.979 37.3429 185.454 34.9168C173.119 29.5006 160.189 28.5415 147.004 28.6271C148.044 26.9402 149.25 24.3889 150.082 24.5055C159.99 25.8947 170.264 25.0559 179.78 28.8263C184.659 30.7597 189.59 32.7683 194.06 35.4669C197.62 37.6161 200.537 40.841 203.701 43.6319C205.401 45.1308 207.019 46.7214 208.674 48.2706C209.062 47.84 209.45 47.4094 209.838 46.9788C207.15 39.8259 201.184 35.448 195.099 31.6903C178.847 21.6552 160.878 18.1588 141.916 18.9289C138.83 19.0542 137.738 20.0681 137.981 23.0401C138.681 31.596 139.475 40.1501 139.9 48.7213C140.529 61.3803 146.014 72.0547 153.572 81.674C157.041 86.0877 160.608 91.0744 167.003 92.4094C166.842 94.1262 166.974 95.5594 166.472 96.7189C158.386 115.415 158.097 134.861 162.46 154.195C165.781 168.912 173.716 181.706 184.204 192.671C201.301 210.545 222.474 219.523 247 221C247 221.444 247 221.889 246.552 222.666C238.962 222.104 231.82 221.209 224.197 220.254C223.196 234.963 226.236 248.202 235.28 259.642C238.787 264.077 243.07 267.899 247 272C247 273.714 247 275.429 246.63 277.525C244.24 275.843 242.165 273.827 240.216 271.697C238.692 270.033 237.15 268.339 235.925 266.458C233.633 262.94 230.238 260.27 229.269 255.67C228.733 253.123 225.24 251.294 224.354 248.706C222.53 243.38 221.263 237.81 220.362 232.245C219.88 229.266 220.87 226.076 220.736 223.001C220.661 221.29 219.644 219.619 218.735 217.029C217.743 218.622 217.118 219.156 217.142 219.658C217.535 227.736 217.04 236.013 218.672 243.844C221.992 259.763 232.481 271.728 243.05 283.41C243.906 284.356 245.662 284.489 247 285C247 287.7 247 290.4 246.634 293.549C243.232 291.98 240.197 289.962 236.157 287.276C234.292 292.07 232.309 296.199 231.187 300.55C230.759 302.208 231.785 305.027 233.124 306.102C234.152 306.928 237.038 306.393 238.518 305.502C241.551 303.677 244.196 301.206 247 299C247 300.067 247 301.133 246.647 302.635C244.375 304.352 242.608 306.061 240.499 306.808C237.841 307.749 233.983 309.221 232.325 308.061C230.312 306.651 229.765 302.796 229.152 299.879C228.822 298.308 229.68 296.487 229.843 295.626C225.342 295.199 219.433 296.246 217.829 294.09C215.685 291.209 216.883 285.843 216.626 281.184C213.459 279.525 207.002 283.804 205.511 277.926C204.561 274.178 206.86 269.607 207.737 265.233C204.12 263.741 202.162 266.072 202.153 269.743C202.127 280.661 200.837 291.669 204.235 302.408C205.844 307.494 209.284 310.6 214.129 311.926C217.739 312.914 221.589 313.02 225.698 313.568C225.253 315.52 224.824 317.416 224.389 319.311C221.872 330.286 222.014 340.859 230.39 349.531C235.639 354.965 241.444 359.862 247 365C247 369.025 247 373.049 247 377.537ZM132.02 175.714C132.555 176.341 133.343 177.599 133.587 177.501C138.33 175.598 143.009 173.538 147.701 171.509C142.849 170.644 137.32 165.992 134.546 173.795C134.324 174.42 132.876 174.61 132.082 174.265C134.944 169.015 134.963 168.967 129.241 166.669C126.814 165.694 124.286 164.97 120.59 163.723C119.663 168.48 118.511 172.71 118.096 177.011C117.715 180.964 120.078 182.761 123.707 180.924C126.704 179.407 129.254 177.007 132.02 175.714ZM147.935 233.002C154.872 232.664 161.899 232.911 168.727 231.86C180.874 229.992 191.929 225.44 200.478 216.049C203.244 213.01 203.625 210.792 199.618 208.252C187.849 200.791 178.15 191.182 171.048 179.1C169.726 176.851 167.964 176.2 166.335 178.287C161.783 184.122 156.68 189.732 153.27 196.208C147.262 207.617 146.618 220.308 146.24 233.002C144.902 232.686 143.563 232.37 143.118 232.265C142.136 208.061 148.777 187.457 167.121 171.25C165.352 170.724 164.128 170.564 163.526 171.101C154.398 179.251 146.323 188.293 142.511 200.185C138.48 212.756 137.529 225.77 137.911 238.94C138.011 242.397 139.335 243.229 142.405 243.026C148.85 242.601 155.352 242.72 161.748 241.936C180.625 239.623 197.113 232.459 209.252 217.155C209.903 216.335 209.859 214.964 210.139 213.849C209.021 214.134 207.531 214.061 206.851 214.768C204.119 217.604 202.117 221.401 198.956 223.508C193.875 226.894 188.336 230.019 182.544 231.809C173.943 234.469 165.017 236.387 156.089 237.497C153.301 237.843 147.051 240.278 147.935 233.002ZM82.9347 298.998C91.4307 298.998 99.9269 299.038 108.423 298.986C115.164 298.945 121.145 296.994 125.751 291.762C129.966 286.974 134.21 282.211 138.593 277.264C139.265 278.175 139.907 279.115 140.621 279.998C144.973 285.385 152.573 287.911 158.453 284.897C169.27 279.354 177.865 271.057 184.867 261.163C186.82 258.403 185.999 256.339 181.961 255.181C182.74 260.666 180.498 265.75 176.158 266.27C172.748 266.678 168.803 262.613 165.675 260.86C163.332 263.373 160.912 268.107 157.288 269.359C151.644 271.311 150.556 264.692 147.931 261.135C143.613 263.494 142.477 271.924 135.28 267.686C129.814 264.466 131.35 258.426 130.7 253.194C121.325 258.458 117.527 267.009 120.02 275.854C120.409 277.237 120.428 279.208 119.692 280.252C119.216 280.926 115.943 280.737 115.832 280.365C115.35 278.751 115.336 276.893 115.588 275.188C115.961 272.659 116.703 270.186 117.288 267.689C116.465 267.358 115.642 267.028 114.819 266.697C112.841 270.07 110.933 273.486 108.857 276.797C107.754 278.558 106.575 281.183 105.04 281.494C103.61 281.784 101.288 279.837 100.025 278.32C97.6534 275.471 99.4778 273.256 104.633 271.144C107.701 269.886 110.384 267.686 113.239 265.91C112.917 265.185 112.594 264.46 112.272 263.735C108.421 264.42 104.57 265.105 99.8202 265.95C100.229 263.54 100.539 261.713 100.849 259.886C102.684 260.221 104.53 260.51 106.351 260.906C107.61 261.18 108.878 262.014 110.069 261.892C117.48 261.13 122.795 257.134 127.187 250.283C124.572 250.147 122.431 250.56 120.793 249.837C117.749 248.493 113.796 247.137 112.416 244.595C110.524 241.111 113.133 237.535 116.434 235.374C120.644 232.618 119.001 231.414 115.479 229.931C110.034 227.638 109.468 223.56 113.923 219.629C115.866 217.914 118.065 216.489 119.068 215.74C117.32 211.068 113.829 206.374 114.973 203.573C116.287 200.355 121.705 198.813 125.34 196.543C125.343 196.116 125.346 195.689 125.348 195.262C123.151 195.445 120.386 194.838 118.85 195.942C110.142 202.196 103.062 210.045 97.3479 219.173C94.2147 224.178 93.8898 229.196 96.6619 234.203C98.5326 237.581 101.091 240.578 103.198 243.543C99.4143 246.389 95.2717 248.886 91.9042 252.176C86.1948 257.754 81.2497 263.722 81.8677 272.777C82.4617 281.481 82.0004 290.258 81.2948 298.929C79.8833 298.202 78.4718 297.475 78.0586 297.262C77.7841 293.755 77.3725 291.454 77.4668 289.174C77.8188 280.668 77.3782 272.213 79.3994 263.68C81.0408 256.75 80.4477 249.411 83.2906 242.436C84.2719 240.029 85.2531 237.768 86.4452 235.404C89.4553 229.435 90.962 222.683 94.1596 216.841C96.4266 212.698 100.76 209.744 103.642 205.866C107.123 201.184 110.102 196.395 116.194 194.318C118.043 193.688 118.925 190.221 120.913 186.968C118.743 187.487 118.092 187.539 117.539 187.8C116.797 188.151 116.087 188.606 115.44 189.114C106.883 195.826 99.0123 203.322 93.8317 212.927C88.7385 222.37 83.3774 231.964 80.3623 242.151C77.1612 252.966 76.0338 264.509 75.0291 275.825C74.2302 284.825 74.8935 293.964 75.1649 303.034C75.1947 304.03 76.8365 305.703 77.8739 305.823C83.1284 306.43 88.4628 307.166 93.7083 306.849C102.931 306.292 112.189 305.476 121.29 303.929C146.011 299.728 168.418 290.597 185.799 271.639C188.139 269.087 190.209 266.264 192.155 263.397C192.558 262.803 191.852 261.457 191.658 260.457C190.79 260.861 189.641 261.039 189.103 261.708C186.378 265.097 184.282 269.146 181.089 271.972C175.023 277.34 168.693 282.568 161.839 286.837C156.447 290.196 150.184 292.247 144.159 294.476C137.718 296.859 131.229 299.423 124.531 300.711C117.172 302.126 109.552 302.191 102.043 302.815C98.1471 303.139 93.9471 304.41 90.4417 303.372C87.665 302.549 82.5049 304.609 82.9347 298.998ZM77.5521 134.932C77.4555 133.976 77.6012 132.296 77.2264 132.17C69.4705 129.572 58.5421 134.955 55.6195 142.56C55.1343 143.823 54.1223 144.883 53.0553 146.484C51.3433 144.674 50.1499 143.412 48.7356 141.917C52.4453 138.916 55.7704 136.227 59.7015 133.048C53.6498 130.761 49.5933 132.798 45.4734 134.972C41.3986 137.122 39.9293 136.276 40.072 131.8C40.1301 129.978 41.0038 126.653 41.558 126.642C43.891 126.596 46.2411 127.554 48.5895 128.125C51.8148 128.91 55.0443 129.679 58.272 130.454C58.5279 129.774 58.7837 129.094 59.0395 128.414C57.1698 126.937 55.2911 125.472 53.4334 123.98C51.9822 122.815 49.3176 121.512 49.4072 120.458C49.5463 118.822 51.5686 117.346 53.6048 114.777C57.9102 128.286 66.9388 131.156 78.8721 129.585C76.6663 126.18 74.4935 123.34 72.8755 120.214C70.0461 114.746 72.3648 111.075 78.4239 111.004C80.7203 110.977 83.0173 111 85.3676 111C83.7754 96.9274 85.4661 95.5964 99.3428 99.526C99.5364 99.1068 99.8751 98.684 99.9057 98.2399C99.9621 97.4203 99.8822 96.5828 99.782 95.7621C98.8477 88.1126 102.125 85.1589 109.336 87.3165C111.402 87.9348 113.339 88.9862 115.482 89.9016C115.833 84.648 112.169 84.3018 109.489 84.2083C99.0489 83.8437 88.5544 83.2014 78.315 86.3516C70.3828 88.792 65.7532 96.2241 67.2836 104.424C67.4769 105.459 67.5273 106.522 67.697 108.051C65.0521 107.433 62.9792 106.971 60.9174 106.464C52.2805 104.34 43.6078 104.202 35.8405 108.788C31.064 111.609 27.0414 115.796 22.9464 119.652C19.9376 122.485 17.4356 125.85 14.5285 128.802C13.9393 129.4 12.5472 129.208 11.5253 129.38C11.6453 128.344 11.3686 126.912 11.9466 126.333C17.862 120.404 23.7009 114.368 30.0047 108.87C34.4517 104.991 39.5658 101.873 44.4123 98.4588C48.4065 95.6446 52.1482 92.2263 56.5349 90.2734C62.8329 87.4696 69.9566 86.4421 76.1014 83.3937C83.1737 79.885 90.4741 80.0282 97.8333 79.8879C103.353 79.7827 108.883 80.4473 114.413 80.6073C115.52 80.6393 116.648 79.9398 119.072 79.1542C78.4336 69.081 31.8136 94.7317 3.27693 131.043C14.7012 146.186 28.9107 158.326 44.935 168.226C65.6012 180.994 87.9913 187.613 112.567 184.97C115.162 184.691 117.625 184.187 116.539 180.527C108.62 181.985 100.912 184.101 94.5293 181.709C91.4597 181.709 89.7168 181.999 88.1103 181.654C83.7967 180.727 79.5896 178.898 75.2532 178.567C65.7625 177.842 58.4805 172.068 50.3355 168.365C46.0352 166.41 42.3359 163.039 38.5481 160.074C33.1011 155.809 27.4116 151.731 22.6134 146.805C19.4202 143.527 14.6894 141.349 13.5625 136.152C13.3291 135.075 11.9799 134.252 11.2261 133.252C11.1753 133.184 11.996 132.252 12.1008 132.308C13.3341 132.962 14.711 133.529 15.6626 134.498C19.8511 138.768 23.7497 143.331 28.0547 147.474C36.3246 155.434 45.7458 160.139 57.6833 157.041C60.8134 156.229 64.0454 155.809 67.6403 155.132C67.387 156.848 67.1168 158.099 67.03 159.363C66.5182 166.809 71.1003 173.921 78.0564 175.843C88.3579 178.69 98.8535 179.733 109.481 177.955C111.283 177.653 113.034 176.873 114.696 176.078C114.958 175.953 114.62 174.572 114.56 173.771C112.725 173.992 110.887 174.19 109.056 174.443C108.079 174.578 107.121 174.911 106.142 174.979C100.742 175.355 98.9839 173.461 99.5209 167.979C99.6704 166.453 99.7162 164.917 99.7837 163.81C94.7632 163.81 89.7578 165.194 86.264 163.485C81.0582 160.94 85.6517 155.543 85.4108 150.998C82.5278 150.998 79.8861 150.961 77.2459 151.007C73.3945 151.074 71.2287 148.927 72.1632 145.44C73.1034 141.931 75.3552 138.774 77.5521 134.932ZM153.452 105.996C132.865 105.35 118.435 117.559 103.611 129.871C103.584 127.745 104.075 126.052 105.175 124.988C111.096 119.265 117.209 113.872 124.714 110.077C135.137 104.807 145.304 99.3866 157.668 102.522C159.067 102.876 160.979 101.211 162.653 100.483C140.928 93.0315 108.474 108.999 91.8765 131.747C97.5246 136.941 102.897 142.649 109.031 147.367C122.609 157.81 137.698 164.634 155.332 163.947C157.461 163.864 159.562 163.081 161.676 162.623C160.207 161.054 158.776 160.04 157.5 160.208C151.047 161.053 144.925 159.875 138.782 158.055C130.148 155.497 122.193 151.55 115.133 146.086C111.61 143.359 108.894 139.579 105.867 136.227C105.013 135.282 104.349 134.166 103.598 133.128C105.064 133.584 106.796 133.685 107.95 134.554C114.396 139.412 120.204 145.351 127.174 149.22C136.998 154.674 147.72 158.242 159.693 155.53C159.693 153.422 160.089 151.385 159.63 149.564C156.488 137.116 156.917 124.729 159.723 112.305C160.938 106.924 160.154 106.1 153.452 105.996ZM173.103 300.667C165.369 292.69 164.938 292.592 154.501 296.707C152.651 297.437 150.522 297.881 149.081 299.111C147.679 300.308 146.159 302.33 146.128 304.016C145.871 317.971 151.183 330.508 156.693 342.942C157.057 343.764 158.322 344.186 159.331 344.911C163.11 335.989 166.691 327.532 170.617 318.263C167.672 318.132 165.723 318.191 163.817 317.932C158.994 317.277 155.513 312.58 156.009 307.58C156.389 303.741 160.476 300.302 164.533 301.168C166.482 301.585 168.713 303.333 169.625 305.095C170.32 306.438 169.756 309.466 168.626 310.448C167.295 311.604 164.182 312.292 162.872 311.493C161.192 310.469 160.54 307.76 159.425 305.742C156.826 308.317 158.133 311.719 160.225 313.265C162.354 314.84 166.256 315.722 168.665 314.873C174.283 312.896 175.719 307.765 173.103 300.667ZM80.8342 29.6318C79.5954 28.9006 78.3233 27.5001 77.1239 27.5598C73.0148 27.7641 68.7823 27.9687 64.868 29.1062C56.0471 31.6695 47.3563 34.7002 38.687 37.7523C36.6059 38.4849 34.1064 40.5496 37.7034 42.1515C45.7556 45.7376 54.1028 48.6616 62.6455 51.9777C61.6035 41.8803 65.5715 36.7682 73.4329 38.2453C75.8848 38.706 79.2562 41.7798 79.5702 44.0259C79.8921 46.3286 77.4473 49.6685 75.2832 51.3743C74.3049 52.1455 70.7304 50.4857 69.0081 49.0942C68.1185 48.3754 68.0463 44.7652 68.756 44.3273C70.3717 43.3304 72.693 43.4407 74.7395 43.2039C75.2614 43.1436 75.8278 43.4676 77.022 43.7901C75.0622 39.2943 72.0505 39.2439 69.0564 40.7201C64.6737 42.881 63.2651 47.5779 65.7384 51.0738C68.2809 54.6674 71.9124 57.7067 76.2036 55.7127C79.6102 54.1297 82.9826 50.9403 84.709 47.6045C87.9431 41.3554 83.259 35.9372 80.8342 29.6318ZM53.9275 210.516C56.2377 209.384 58.5478 208.252 61.1631 206.971C59.3638 204.99 57.7492 203.523 56.5109 201.788C53.4388 197.482 55.2809 191.109 60.2009 188.531C63.7416 186.676 68.5098 188.739 70.3977 193.1C71.8798 196.524 70.1799 199.202 67.3388 200.545C64.6622 201.811 61.4007 201.485 60.2812 198.068C59.2461 194.908 60.5926 192.543 64.1963 191.928C64.6979 191.843 65.1327 191.366 66.1468 190.722C61.3139 189.117 59.0589 191.286 58.124 194.776C56.8388 199.575 59.9757 204.431 64.2487 204.982C69.017 205.596 72.5122 203.272 74.5548 199.419C76.6435 195.48 77.5347 190.62 73.6516 187.428C69.516 184.028 64.4922 181.704 59.8403 178.938C56.9973 177.247 54.8684 178.038 53.1049 180.752C49.14 186.852 44.5969 192.629 41.1744 199.013C37.8932 205.132 35.7293 211.851 32.531 219.628C40.4439 216.26 46.8389 213.538 53.9275 210.516ZM47.4744 48.986C43.2309 47.3592 38.9875 45.7324 34.7653 44.1137C34.4098 44.9366 34.1006 45.2991 34.1818 45.5146C39.3106 59.1336 46.4322 71.507 57.16 81.5325C58.0871 82.3989 60.03 83.0487 61.1383 82.6871C64.436 81.6113 67.7261 80.2711 70.6975 78.4957C74.7104 76.098 77.0605 69.9115 75.8525 65.3139C74.7012 60.932 71.5947 58.269 67.2116 57.2311C63.2844 56.3011 58.6798 59.2232 58.0273 62.9246C57.104 68.1618 58.4383 70.233 63.6088 71.3323C63.3449 70.8259 63.2428 70.2833 62.9214 70.0677C59.9798 68.0943 58.4739 65.2373 61.248 62.6968C62.6643 61.3999 66.3311 61.2703 68.2901 62.1503C71.4406 63.5657 71.741 66.7136 70.064 69.8513C67.7647 74.1535 62.7729 75.4337 58.574 72.7471C54.5623 70.1803 53.6231 64.0152 56.7312 59.9143C57.9941 58.248 59.5228 56.7833 61.4948 54.603C56.557 52.7086 52.3264 51.0854 47.4744 48.986ZM175.762 341.524C181.7 337.575 187.734 333.762 193.551 329.643C200.693 324.585 201.204 322.839 199.053 314.486C197.466 308.323 190.995 303.999 184.732 305.07C180.426 305.807 176.922 308.291 176.525 312.596C176.258 315.487 177.544 319.057 179.339 321.4C180.4 322.785 183.96 323.04 186.11 322.55C187.752 322.177 188.947 319.837 190.34 318.372C189.633 317.714 188.925 317.057 188.218 316.399C187.984 317.212 187.97 318.53 187.475 318.745C185.882 319.44 183.669 320.562 182.527 319.954C181.224 319.26 179.941 316.709 180.231 315.288C180.62 313.379 182.367 310.522 183.816 310.339C186.003 310.064 190.041 311.291 190.44 312.692C191.339 315.847 191.647 320.23 190.052 322.766C188.11 325.854 183.866 327.363 179.866 324.901C177.553 323.477 175.429 321.746 172.792 319.846C169.107 328.812 165.511 337.562 161.914 346.312C162.272 346.557 162.63 346.802 162.988 347.047C167.017 345.31 171.045 343.572 175.762 341.524ZM81.4542 208.951C76.2412 205.153 72.3256 205.036 67.9183 208.718C64.8865 211.251 64.0881 214.714 65.494 218.188C66.854 221.549 70.8537 222.467 74.5355 220.769C74.0502 220.505 73.6135 220.338 73.2598 220.064C71.5042 218.705 68.6797 217.536 68.3457 215.875C68.0316 214.313 69.9807 211.288 71.6237 210.631C73.1913 210.004 75.9795 211.137 77.6425 212.322C80.6296 214.452 80.9985 217.559 78.8096 220.612C75.5784 225.12 71.6553 226.235 67.7207 223.825C62.7133 220.758 61.533 216.096 63.0301 209.853C53.2373 213.877 44.2247 217.581 34.0209 221.774C48.0232 227.941 61.0465 231.672 74.9109 231.96C76.8265 232 79.2702 232.13 80.5859 231.095C86.18 226.695 86.7337 215.372 81.4542 208.951ZM182.591 302.978C186.964 303.268 191.338 303.558 195.064 303.805C194.133 294.233 193.176 284.388 192.077 273.084C187.762 283.219 183.967 292.06 180.314 300.959C180.153 301.351 181.281 302.273 182.591 302.978ZM175.878 284.484C172.538 286.721 169.199 288.958 165.963 291.126C170.187 294.932 173.738 298.131 177.497 301.519C181.231 292.285 184.99 282.989 188.749 273.694C188.085 273.172 187.421 272.65 186.757 272.127C183.315 276.095 179.874 280.062 175.878 284.484ZM86.2823 62.1974C92.9644 64.7535 99.6465 67.3096 107.029 70.1337C100.39 61.9198 94.3743 54.477 88.814 47.5977C86.0477 50.9565 82.915 54.7603 79.4158 59.0091C81.2435 59.903 83.3956 60.9557 86.2823 62.1974ZM78.504 185.289C77.8484 185.839 76.5826 186.452 76.6321 186.929C77.0965 191.405 77.786 195.857 78.4506 200.602C86.491 197.146 95.1227 193.437 105.045 189.172C95.3419 187.825 87.2846 186.705 78.504 185.289ZM102.508 196.996C103.304 195.963 104.099 194.93 104.895 193.898C104.546 193.438 104.196 192.979 103.847 192.52C95.868 196.031 87.8895 199.542 79.7238 203.135C83.1965 207.497 85.9925 211.009 89.022 214.814C93.3394 209.056 97.6698 203.28 102.508 196.996ZM131.006 39.2486C132.058 30.1095 127.82 30.408 121.299 32.1257C119.399 32.6263 117.512 33.3445 115.775 34.2599C113.183 35.626 112.102 37.3291 114.525 40.0997C119.14 45.3778 124.883 46.4929 132.012 45.6703C131.638 43.5418 131.338 41.8375 131.006 39.2486ZM95.1516 161.844C98.5696 159.49 101.988 157.136 106.821 153.806C104.12 151.833 102.509 150.906 101.204 149.658C95.9627 144.653 93.5245 144.874 89.4604 150.92C88.8159 151.878 87.9014 152.792 87.653 153.853C87.1171 156.142 85.95 159.987 86.8023 160.556C88.7826 161.877 91.8067 161.634 95.1516 161.844ZM92.7325 67.8033C87.7683 65.8442 82.8042 63.8851 78.1933 62.0654C77.7662 67.3229 77.3911 71.9394 77.0306 76.3772C85.9844 75.3337 95.2099 74.2586 105.544 73.0542C100.771 71.0525 97.1245 69.5231 92.7325 67.8033ZM102.682 89.9952C99.9968 95.3807 102.789 103.523 108.001 106.438C110.917 104.83 113.806 103.593 116.234 101.748C117.439 100.833 118.781 98.4281 118.368 97.3403C116.537 92.5206 108.611 88.6667 102.682 89.9952ZM102.982 110.52C103.17 109.031 104.08 106.922 103.424 106.156C99.8581 101.997 95.496 99.2711 89.5776 99.9616C86.4326 100.329 85.5663 101.8 86.3709 104.65C87.8041 109.726 90.31 114.025 95.1005 116.938C97.6284 114.909 100.055 112.962 102.982 110.52ZM218.944 286.482C218.085 289.399 217.482 293.919 220.964 293.547C225.453 293.067 230.143 290.295 233.793 287.334C237.279 284.506 232.677 282.64 231.296 280.657C226.527 273.809 224.786 274.013 220.734 281.604C220.041 282.905 219.587 284.333 218.944 286.482ZM197.003 248.528C196.506 245.41 196.008 242.291 195.378 238.342C192.169 239.928 190.091 240.841 188.123 241.948C181.236 245.82 180.795 247.577 186.087 253.461C188.045 255.639 190.998 256.923 193.497 258.615C194.666 255.549 195.835 252.484 197.003 248.528ZM207.94 271.728C206.072 278.058 207.389 279.736 213.825 278.933C215.601 278.712 217.388 278.131 219.036 277.41C224.289 275.11 224.979 272.602 221.937 267.832C220.558 265.669 219.305 263.427 217.335 260.113C213.974 264.079 211.05 267.53 207.94 271.728ZM187.519 6.97549C185.884 9.58921 183.461 12.0122 182.773 14.8551C181.18 21.4419 188.692 18.6125 190.868 21.7266C191.373 22.4483 194.557 22.3663 195.378 21.5362C196.487 20.4154 196.725 18.2392 196.929 16.4687C197.175 14.3459 197.436 12.0479 196.872 10.0574C196.298 8.02736 195.122 5.55123 193.463 4.65622C192.314 4.03662 189.897 5.76754 187.519 6.97549ZM131.134 65.4519C128.509 67.3906 125.734 69.1614 123.305 71.3208C121.332 73.0739 121.386 75.1806 123.952 76.517C125.819 77.4899 127.913 78.9427 129.791 78.7876C133.42 78.4878 136.967 77.2034 140.548 76.3272C139.782 73.3966 139.11 70.4365 138.205 67.5497C137.826 66.3412 136.952 65.2881 136.22 64.0204C134.646 64.4291 133.237 64.795 131.134 65.4519ZM105.355 172.997C110.908 172.905 114.408 169.351 117.654 165.527C119.438 163.426 118.808 161.608 116.417 160.285C113.562 158.705 110.753 157.04 107.885 155.39C103.52 158.696 100.527 166.922 102.25 171.536C102.5 172.205 103.731 172.507 105.355 172.997ZM119.653 201.89C118.189 203.34 114.801 203.67 116.68 207.058C119.317 211.811 126.833 214.694 132.719 213.121C133.47 209.017 134.229 204.873 135.233 199.383C129.614 200.156 124.954 200.798 119.653 201.89ZM131.143 220.078C132.161 217.678 132.262 215.665 128.791 216.037C122.645 216.696 116.817 218.116 113.189 223.801C116.915 229.288 123.88 232.36 128.997 229.595C130.727 228.66 130.414 223.943 131.143 220.078ZM124.828 49.0283C123.002 50.0684 120.898 50.8187 119.432 52.232C118.033 53.5817 116.072 56.1861 116.552 57.231C117.341 58.949 119.75 60.4698 121.75 60.9612C125.048 61.7717 128.574 61.9521 131.982 61.8275C132.937 61.7925 134.412 59.841 134.583 58.6197C134.792 57.1215 133.643 55.4883 133.501 53.8763C133.036 48.6296 130.488 47.0109 124.828 49.0283ZM213.798 249.737C212.657 246.626 210.259 245.996 207.959 247.82C205.059 250.12 202.172 252.764 200.223 255.855C197.629 259.967 199.596 263.245 204.496 262.826C208.717 262.464 212.819 260.708 217.206 259.505C215.859 255.723 214.926 253.104 213.798 249.737ZM134.516 197.98C136.395 194.96 138.352 191.985 140.129 188.906C141.809 185.996 140.285 184.349 137.478 184.15C133.687 183.882 129.822 183.836 126.066 184.309C124.629 184.49 122.654 186.171 122.297 187.529C121.941 188.886 122.837 191.315 123.999 192.184C127.006 194.43 130.462 196.075 134.516 197.98ZM177.416 246.022C174.846 246.558 172.218 246.908 169.719 247.676C166.562 248.646 165.931 252.303 167.929 256.851C170.337 262.334 173.923 265.003 176.831 263.465C177.118 263.314 177.347 263.054 177.607 262.851C181.692 259.66 182.054 250.067 177.416 246.022ZM158.448 266.015C159.74 264.109 161.583 262.364 162.197 260.261C163.146 257.006 163.256 253.507 163.722 250.111C160.911 250.07 158.053 250.342 155.301 249.92C149.887 249.09 149.59 252.282 150.033 256.136C150.259 258.099 150.304 260.304 151.256 261.911C152.659 264.28 153.879 267.589 158.448 266.015ZM78.6926 112.999C75.8796 112.888 73.283 113.487 74.2405 117.023C75.703 122.424 78.652 126.831 84.269 128.918C87.3306 125.443 90.2013 122.183 93.1031 118.889C89.0193 114.948 84.9766 112.358 78.6926 112.999ZM133.001 255.603C133.319 258.03 133.111 260.691 134.062 262.838C136.248 267.773 139.458 268.288 142.419 263.839C145.013 259.941 146.403 255.241 148.749 249.935C144.293 249.935 141.311 250.565 138.744 249.801C133.73 248.31 132.938 250.79 133.001 255.603ZM132.453 89.0742C131.357 87.631 130.558 85.5839 129.104 84.87C126.048 83.3691 122.647 82.568 119.388 81.4797C118.934 83.9677 117.776 86.584 118.2 88.912C118.76 91.9824 120.538 94.837 121.88 97.7436C121.967 97.9314 122.855 97.9007 123.294 97.7506C127.134 96.4398 130.957 95.0786 135.109 93.618C134.123 91.9069 133.483 90.7953 132.453 89.0742ZM91.2324 144.887C91.4188 143.698 92.1978 142.032 91.6903 141.402C89.3528 138.498 86.6567 135.883 83.4096 132.445C80.3792 135.99 77.1165 139.017 74.857 142.665C72.4529 146.547 74.2051 149.396 78.6868 148.841C82.7395 148.338 86.624 146.479 91.2324 144.887ZM129.427 233.115C123.651 232.806 119.535 235.783 115.713 239.696C113.216 242.252 113.899 244.964 116.419 245.596C120.731 246.678 125.383 246.449 129.897 246.608C130.227 246.62 130.929 245.305 130.905 244.626C130.772 240.89 130.468 237.16 129.427 233.115ZM208.79 16.9265C206.854 15.9143 204.918 14.9021 202.982 13.8899C202.706 14.169 202.43 14.4481 202.155 14.7272C204.462 19.9203 206.77 25.1134 209.078 30.3065C209.606 30.1824 210.134 30.0582 210.662 29.9341C210.269 25.7184 209.876 21.5026 208.79 16.9265ZM203.629 247.503C212.18 243.992 212.613 242.799 208.59 231.314C206.569 237.185 204.89 242.064 203.629 247.503ZM148.602 87.2202C145.585 78.8537 143.551 77.8881 133.859 81.6169C139.342 83.9423 143.719 85.7981 148.602 87.2202ZM135.548 90.0917C138.743 95.8578 142.883 90.3415 146.429 91.9253C146.605 91.2564 146.781 90.5875 146.957 89.9186C142.2 88.0517 137.442 86.1849 131.293 83.7722C133.194 86.5296 134.196 87.9834 135.548 90.0917ZM136.963 181.784C143.676 184.01 146.458 182.226 148.955 173.717C145.207 175.348 141.677 176.739 138.307 178.446C137.418 178.897 137.022 180.32 136.963 181.784ZM203.821 24.6051C202.613 21.8559 201.405 19.1067 199.818 15.4961C198.667 19.3609 197.831 22.1637 196.9 25.2877C199.652 27.018 202.263 28.6601 204.874 30.3022C205.19 29.9429 205.506 29.5836 205.823 29.2244C205.257 27.911 204.692 26.5976 203.821 24.6051ZM204.743 234.417C204.044 233.922 203.035 232.839 202.693 233.02C196.594 236.234 196.05 239.034 200.214 245.571C201.65 242.009 203.047 238.546 204.743 234.417Z" fill="#F1F1F1"/>
<path d="M247 86C247 98.6876 247 111.375 246.655 124.499C239.478 118.398 232.736 111.764 225.787 105.353C220.022 100.033 218.323 94.0374 221.425 86.6703C221.879 85.5916 221.502 83.6114 220.73 82.7424C220.111 82.0464 217.992 81.9018 217.125 82.446C216.373 82.9174 216.151 84.7152 216.211 85.9005C216.355 88.7369 216.804 91.5578 217.129 94.385C216.397 94.6743 215.664 94.9637 214.931 95.253C213.268 92.3595 211.161 89.6249 210.054 86.5323C208.672 82.6708 206.179 80.3248 203.456 81.9229C201.729 82.9358 199.515 84.8336 199.442 86.4231C199.379 87.7848 201.811 89.9704 203.558 90.5667C207.877 92.0409 211.741 93.7073 214.269 99.5904C210.435 98.7285 207.688 97.9047 204.882 97.5665C203.461 97.3952 201.199 97.6408 200.644 98.5282C199.975 99.596 200.327 101.765 201.027 103.015C201.336 103.569 203.95 103.567 204.893 102.915C210.687 98.9087 216.505 101.146 220.543 104.627C229.073 111.983 236.593 120.512 244.499 128.586C244.618 128.707 244.383 129.174 244.216 129.907C233.691 129.907 223.037 130.461 212.48 129.695C206.377 129.252 199.962 127.467 198.171 119.707C197.917 118.61 195.879 117.464 194.521 117.246C193.638 117.104 191.542 118.787 191.647 119.328C191.926 120.751 192.846 122.326 193.99 123.242C196.451 125.213 199.213 126.807 201.852 128.556C201.603 129.23 201.355 129.905 201.106 130.58C197.797 129.756 194.502 128.873 191.176 128.128C188.531 127.536 185.848 127.112 183.182 126.613C182.818 129.155 182.42 131.693 182.125 134.242C182.077 134.659 182.481 135.128 182.808 135.874C189.202 136.137 194.626 129.319 202.453 133.257C198.398 136.219 194.77 138.869 190.252 142.167C191.871 143.853 193.15 145.185 194.932 147.039C196.68 144.482 197.974 143.143 198.619 141.543C200.591 136.649 204.283 133.38 209.24 133.09C220.815 132.411 232.435 132.511 244.038 132.333C244.22 132.33 244.41 132.817 244.596 133.075C244.972 133.452 245.347 133.829 245.723 134.207C238.125 141.329 230.636 148.572 222.892 155.53C217.845 160.065 212.189 162.728 205.224 159.284C203.981 158.67 201.474 158.523 200.848 159.261C200.002 160.259 199.724 163.092 200.449 163.738C201.444 164.625 203.637 164.459 205.265 164.277C207.993 163.973 210.679 163.3 214.062 162.652C211.735 169.101 206.739 169.662 202.722 171.695C198.223 173.974 198.028 175.775 201.587 179.081C205.192 182.429 208.443 181.211 209.856 175.366C210.927 170.932 213.745 168.556 217.842 165.36C217.216 169.577 216.616 172.474 216.422 175.399C216.327 176.835 216.605 178.633 217.449 179.665C217.931 180.254 220.745 180.04 221.017 179.472C221.637 178.178 221.871 176.217 221.323 174.926C218.285 167.775 220.528 162.021 225.604 156.9C231.234 151.221 236.864 145.542 242.595 139.967C243.843 138.752 245.52 137.977 247 137C247 149.688 247 162.375 246.662 175.579C243.674 178.18 240.987 180.22 238.391 182.37C237.212 183.346 235.651 184.404 235.341 185.686C235.151 186.47 237.261 188.76 237.897 188.602C239.379 188.232 240.655 186.861 241.905 185.769C243.656 184.24 245.306 182.595 247 181C247 187.688 247 194.375 246.578 201.529C235.983 200.577 226.103 198.733 216.812 193.595C193.806 180.872 180.647 161.932 179.112 135.637C178.155 119.232 181.568 103.988 191.702 90.1608C205.593 71.2067 224.264 62.1584 247 60C247 67.0209 247 74.0419 246.648 81.4925C244.892 80.4127 243.432 78.9504 242.101 77.3787C241.018 76.0995 240.09 74.6893 239.093 73.3372C237.681 74.4773 236.268 75.6175 234.641 76.9312C239.189 80.2689 243.095 83.1344 247 86Z" fill="#FDFDFD"/>
<path d="M166.999 92.0014C168.638 90.0481 170.619 88.2899 171.865 86.1115C186.032 61.3492 208.068 47.9816 235.303 42.1692C238.84 41.4144 242.53 41.3748 246.574 41.0019C247 45.6892 247 50.3785 246.565 55.5336C235.129 56.6486 224.326 59.0805 214.847 64.3432C197.752 73.8346 184.997 87.2968 178.761 106.69C172.726 125.458 173.482 143.658 180.895 161.48C191.557 187.11 219.884 205.934 247 206C247 210.689 247 215.379 247 220.534C222.474 219.523 201.301 210.545 184.204 192.671C173.716 181.706 165.781 168.912 162.46 154.195C158.097 134.861 158.386 115.415 166.472 96.7189C166.974 95.5594 166.842 94.1261 167.003 92.4101C167 92 166.999 92.0014 166.999 92.0014Z" fill="#FDFDFD"/>
<path d="M247 364.6C241.444 359.862 235.639 354.965 230.39 349.531C222.014 340.859 221.872 330.286 224.389 319.311C224.824 317.416 225.253 315.52 225.698 313.568C221.589 313.02 217.739 312.914 214.129 311.926C209.284 310.6 205.844 307.494 204.235 302.408C200.837 291.669 202.127 280.661 202.153 269.743C202.162 266.072 204.12 263.741 207.737 265.233C206.86 269.607 204.561 274.178 205.511 277.926C207.002 283.804 213.459 279.525 216.626 281.184C216.883 285.843 215.685 291.209 217.829 294.09C219.433 296.246 225.342 295.199 229.843 295.626C229.68 296.487 228.822 298.308 229.152 299.879C229.765 302.796 230.312 306.651 232.325 308.061C233.983 309.221 237.841 307.749 240.499 306.808C242.608 306.062 244.375 304.352 246.647 303.035C247 308.022 247 313.044 246.661 318.581C243.768 321.051 241.181 322.965 238.672 324.978C237.48 325.934 236.438 327.076 235.328 328.134C236.211 329.03 237.429 330.832 237.913 330.653C239.401 330.101 240.665 328.855 241.912 327.761C243.657 326.23 245.309 324.592 247 323C247 330.688 247 338.375 246.639 346.572C242.523 348.52 241.098 351.63 242.181 355.059C242.896 357.321 245.334 359.038 247 361C247 362.067 247 363.133 247 364.6Z" fill="#FDFDFD"/>
<path d="M130.55 0C131 1.33225 131 2.66451 130.998 3.99676C130.991 10.1486 129.275 11.4192 123.176 12.1713C119.82 12.5853 116.552 14.4986 113.508 16.2067C112.547 16.7461 112.442 18.8116 111.808 20.5574C114.806 18.369 116.941 15.9514 119.577 15.1212C122.387 14.2359 126.333 13.7125 128.613 15.0402C133.901 18.1188 129.651 23.6769 131.222 28.1084C123.804 30.7371 119.302 26.2021 113.759 23.3589C115.531 25.3802 117.302 27.4015 118.251 28.4838C115.632 32.2704 111.326 35.7628 111.656 38.7412C112.033 42.1409 116.539 45.0828 118.738 47.6308C117.359 51.3176 114.093 55.6868 115.066 58.6756C116.03 61.6355 121.269 63.2032 124.995 65.6158C123.516 67.4174 121.981 69.0149 118.349 66.0666C109.487 58.8744 101.868 50.6967 95.9847 40.9226C92.7683 35.5792 94.2 28.5845 99.6432 22.8911C100.552 21.941 101.617 21.1413 103.29 19.6777C101.51 18.347 99.9425 17.092 98.2927 15.9563C92.423 11.9156 86.4388 7.99683 84.0031 0.367663C94.3542 2.98023e-08 104.708 2.98023e-08 115.58 0.341606C119.281 3.20052 122.464 5.71782 126.676 9.04745C124.589 5.00887 123.294 2.50444 122 0C124.7 0 127.4 0 130.55 0Z" fill="#FDFDFD"/>
<path d="M247 136.539C245.52 137.977 243.843 138.752 242.595 139.967C236.864 145.542 231.234 151.221 225.604 156.9C220.528 162.021 218.285 167.775 221.323 174.926C221.871 176.217 221.637 178.178 221.017 179.472C220.745 180.04 217.931 180.254 217.449 179.665C216.605 178.633 216.327 176.835 216.422 175.399C216.616 172.474 217.216 169.577 217.842 165.36C213.745 168.556 210.927 170.932 209.856 175.366C208.443 181.211 205.192 182.429 201.587 179.081C198.028 175.775 198.223 173.974 202.722 171.695C206.739 169.662 211.735 169.101 214.062 162.652C210.679 163.3 207.993 163.973 205.265 164.277C203.637 164.459 201.444 164.625 200.449 163.738C199.724 163.092 200.002 160.259 200.848 159.261C201.474 158.523 203.981 158.67 205.224 159.284C212.189 162.728 217.845 160.065 222.892 155.53C230.636 148.572 238.125 141.329 245.723 134.207C245.347 133.829 244.972 133.452 244.596 133.075C244.41 132.817 244.22 132.33 244.038 132.333C232.435 132.511 220.815 132.411 209.24 133.09C204.283 133.38 200.591 136.649 198.618 141.543C197.974 143.143 196.68 144.482 194.932 147.039C193.15 145.185 191.871 143.853 190.252 142.167C194.77 138.869 198.398 136.219 202.453 133.257C194.626 129.319 189.202 136.137 182.808 135.874C182.481 135.128 182.077 134.659 182.125 134.242C182.42 131.693 182.818 129.155 183.182 126.613C185.848 127.112 188.531 127.536 191.176 128.128C194.502 128.873 197.797 129.756 201.106 130.58C201.355 129.905 201.603 129.23 201.852 128.556C199.213 126.807 196.451 125.213 193.99 123.242C192.846 122.326 191.926 120.751 191.647 119.328C191.542 118.787 193.638 117.104 194.521 117.246C195.879 117.464 197.917 118.61 198.171 119.707C199.962 127.467 206.377 129.252 212.48 129.694C223.037 130.461 233.691 129.907 244.215 129.907C244.383 129.174 244.618 128.707 244.499 128.586C236.593 120.512 229.073 111.983 220.543 104.627C216.505 101.146 210.687 98.9087 204.893 102.915C203.95 103.567 201.336 103.569 201.027 103.015C200.327 101.765 199.975 99.596 200.644 98.5282C201.199 97.6408 203.461 97.3952 204.882 97.5665C207.688 97.9047 210.435 98.7285 214.269 99.5904C211.741 93.7072 207.877 92.0409 203.558 90.5667C201.811 89.9704 199.379 87.7848 199.442 86.4231C199.515 84.8336 201.729 82.9358 203.456 81.9229C206.179 80.3248 208.672 82.6708 210.054 86.5323C211.161 89.6249 213.268 92.3595 214.931 95.253C215.664 94.9637 216.397 94.6743 217.129 94.385C216.804 91.5578 216.355 88.7369 216.211 85.9005C216.151 84.7152 216.373 82.9174 217.125 82.446C217.992 81.9018 220.111 82.0464 220.73 82.7424C221.502 83.6114 221.879 85.5916 221.425 86.6703C218.323 94.0374 220.022 100.033 225.787 105.353C232.736 111.764 239.478 118.398 246.655 124.968C247 128.693 247 132.386 247 136.539Z" fill="#F1F1F1"/>
<path d="M247 205.6C219.884 205.934 191.557 187.11 180.895 161.48C173.482 143.658 172.726 125.458 178.761 106.69C184.997 87.2969 197.752 73.8346 214.847 64.3432C224.326 59.0805 235.129 56.6486 246.565 55.9998C247 57.0667 247 58.1333 247 59.6C224.264 62.1584 205.593 71.2067 191.702 90.1608C181.568 103.988 178.155 119.232 179.112 135.637C180.647 161.932 193.806 180.872 216.812 193.595C226.102 198.733 235.983 200.577 246.578 201.998C247 203.067 247 204.133 247 205.6Z" fill="#F1F1F1"/>
<path d="M247 271.531C243.07 267.899 238.787 264.077 235.28 259.642C226.236 248.202 223.196 234.963 224.197 220.254C231.82 221.209 238.962 222.104 246.552 222.999C247 239.021 247 255.042 247 271.531Z" fill="#FDFDFD"/>
<path d="M247 38.5313C239.652 39.8915 232.304 40.7831 224.643 41.7125C222.295 26.3208 227.509 13.0826 235.965 0.351756C239.634 -2.98023e-08 243.269 0 247 0C247 12.6874 247 25.3751 247 38.5313Z" fill="#FDFDFD"/>
<path d="M247 284.562C245.662 284.489 243.906 284.356 243.05 283.41C232.481 271.728 221.992 259.763 218.672 243.844C217.04 236.013 217.535 227.736 217.142 219.658C217.118 219.156 217.743 218.622 218.735 217.029C219.644 219.619 220.661 221.29 220.736 223.001C220.87 226.076 219.88 229.266 220.362 232.245C221.263 237.81 222.53 243.38 224.354 248.706C225.24 251.294 228.733 253.123 229.269 255.67C230.237 260.27 233.633 262.94 235.925 266.458C237.15 268.339 238.692 270.033 240.216 271.697C242.165 273.827 244.24 275.843 246.63 277.954C247 280.042 247 282.083 247 284.562Z" fill="#FDFDFD"/>
<path d="M213.534 0C216.814 5.5916 215.897 10.6948 211.06 15.7967C204.955 12.4965 198.681 9.36516 199.001 0.410287C203.689 2.98023e-08 208.379 0 213.534 0Z" fill="#FDFDFD"/>
<path d="M247 298.583C244.196 301.206 241.551 303.677 238.518 305.502C237.038 306.393 234.152 306.928 233.124 306.102C231.785 305.027 230.759 302.208 231.187 300.55C232.309 296.199 234.292 292.07 236.157 287.276C240.197 289.962 243.232 291.98 246.634 293.999C247 295.389 247 296.778 247 298.583Z" fill="#FDFDFD"/>
<path d="M178.55 3.3126e-09C179.604 5.37984 180.208 10.7597 180.931 17.1951C177.528 16.2019 175.724 15.5666 173.87 15.1528C165.05 13.1838 163.992 10.6867 168.725 2.85313C169.146 2.15689 169.524 1.43522 169.961 0.362681C172.7 -9.83477e-07 175.4 -9.96687e-07 178.55 3.3126e-09Z" fill="#FDFDFD"/>
<path d="M232.556 0C222.233 12.5377 219.209 27.5715 220.184 43.895C219.631 43.8505 219.078 43.8061 218.525 43.7616C218.03 42.8656 217.137 41.9844 217.102 41.0711C216.736 31.2751 216.71 21.5298 220.82 12.2691C222.471 8.54928 223.619 4.60581 224.998 0.382053C227.371 2.98023e-08 229.741 0 232.556 0Z" fill="#FDFDFD"/>
<path d="M161.542 3.07936e-09C162.582 2.23412 163.31 4.44336 163.698 6.71081C163.971 8.31068 164.42 10.5038 163.623 11.4914C162.794 12.5206 159.904 13.2907 159.067 12.6557C156.302 10.5574 150.886 14.9315 150.13 9.14825C149.778 6.46161 150.658 3.614 150.99 0.419678C154.361 -8.9407e-07 157.723 -9.96921e-07 161.542 3.07936e-09Z" fill="#FDFDFD"/>
<path d="M144.539 0C145.011 0.657497 144.908 1.34038 145.049 1.96868C147.112 11.1661 147.119 11.155 137.815 12.0622C136.849 12.1564 135.902 12.445 133.696 12.9029C133.455 8.74311 133.228 4.8285 133.001 0.456945C136.693 -5.96046e-08 140.386 0 144.539 0Z" fill="#FDFDFD"/>
<path d="M247 180.583C245.306 182.595 243.656 184.24 241.905 185.769C240.655 186.861 239.379 188.232 237.897 188.602C237.261 188.76 235.151 186.47 235.341 185.686C235.651 184.404 237.212 183.346 238.391 182.37C240.987 180.22 243.674 178.18 246.662 176.048C247 177.389 247 178.778 247 180.583Z" fill="#F1F1F1"/>
<path d="M247 360.535C245.334 359.038 242.896 357.321 242.181 355.059C241.098 351.63 242.523 348.52 246.639 347.041C247 351.357 247 355.714 247 360.535Z" fill="#F1F1F1"/>
<path d="M247 85.6C243.095 83.1344 239.189 80.2689 234.641 76.9312C236.268 75.6175 237.681 74.4773 239.093 73.3372C240.09 74.6893 241.018 76.0995 242.101 77.3787C243.432 78.9504 244.892 80.4127 246.648 81.9611C247 83.0667 247 84.1333 247 85.6Z" fill="#F1F1F1"/>
<path d="M247 322.6C245.309 324.592 243.657 326.23 241.912 327.761C240.665 328.855 239.401 330.101 237.913 330.653C237.429 330.832 236.211 329.03 235.328 328.134C236.438 327.076 237.48 325.934 238.672 324.978C241.181 322.965 243.768 321.051 246.661 319.048C247 320.067 247 321.133 247 322.6Z" fill="#F1F1F1"/>
<path d="M121.572 0C123.294 2.50444 124.589 5.00887 126.676 9.04745C122.464 5.71782 119.281 3.20052 116.048 0.341606C117.714 2.98023e-08 119.429 0 121.572 0Z" fill="#F1F1F1"/>
<path d="M77.2922 135.197C75.3552 138.774 73.1034 141.931 72.1632 145.44C71.2287 148.927 73.3945 151.074 77.2458 151.007C79.8861 150.961 82.5278 150.998 85.4108 150.998C85.6517 155.543 81.0582 160.94 86.264 163.485C89.7578 165.194 94.7632 163.81 99.7837 163.81C99.7162 164.917 99.6704 166.453 99.5209 167.979C98.9839 173.461 100.742 175.355 106.142 174.979C107.121 174.911 108.079 174.578 109.056 174.443C110.887 174.19 112.725 173.992 114.56 173.771C114.62 174.572 114.958 175.953 114.696 176.078C113.034 176.873 111.283 177.653 109.481 177.955C98.8535 179.733 88.3579 178.69 78.0564 175.843C71.1003 173.921 66.5182 166.809 67.03 159.363C67.1168 158.099 67.387 156.848 67.6403 155.132C64.0453 155.809 60.8134 156.229 57.6833 157.041C45.7458 160.139 36.3246 155.434 28.0546 147.474C23.7497 143.331 19.8511 138.768 15.6626 134.498C14.711 133.529 13.3341 132.962 12.1008 132.308C11.996 132.252 11.1753 133.184 11.2261 133.252C11.9799 134.252 13.3291 135.075 13.5625 136.152C14.6894 141.349 19.4202 143.527 22.6133 146.805C27.4115 151.731 33.1011 155.809 38.5481 160.074C42.3359 163.039 46.0352 166.41 50.3354 168.365C58.4805 172.068 65.7625 177.842 75.2532 178.567C79.5896 178.898 83.7967 180.727 88.1103 181.654C89.7168 181.999 91.4597 181.709 94.5293 181.709C100.912 184.101 108.62 181.985 116.539 180.527C117.625 184.187 115.162 184.691 112.567 184.97C87.9913 187.613 65.6012 180.994 44.935 168.226C28.9107 158.326 14.7012 146.186 3.27692 131.043C31.8136 94.7316 78.4336 69.081 119.072 79.1542C116.648 79.9398 115.52 80.6393 114.413 80.6073C108.883 80.4473 103.353 79.7827 97.8333 79.8879C90.4741 80.0282 83.1737 79.885 76.1014 83.3937C69.9566 86.4421 62.8329 87.4696 56.5349 90.2734C52.1482 92.2263 48.4065 95.6446 44.4123 98.4588C39.5658 101.873 34.4517 104.991 30.0047 108.87C23.7009 114.368 17.862 120.404 11.9465 126.333C11.3686 126.912 11.6453 128.344 11.5253 129.38C12.5472 129.208 13.9393 129.4 14.5285 128.802C17.4356 125.85 19.9376 122.485 22.9464 119.652C27.0414 115.796 31.064 111.609 35.8405 108.788C43.6078 104.202 52.2805 104.34 60.9174 106.464C62.9792 106.971 65.0521 107.433 67.697 108.051C67.5273 106.522 67.4769 105.459 67.2836 104.424C65.7532 96.2241 70.3828 88.792 78.315 86.3516C88.5544 83.2014 99.0489 83.8437 109.489 84.2082C112.169 84.3018 115.833 84.648 115.482 89.9016C113.339 88.9862 111.402 87.9348 109.336 87.3165C102.125 85.1589 98.8477 88.1126 99.782 95.7621C99.8822 96.5827 99.9621 97.4203 99.9057 98.2399C99.8751 98.684 99.5364 99.1068 99.3428 99.526C85.4661 95.5964 83.7754 96.9274 85.3676 111C83.0173 111 80.7203 110.977 78.4239 111.004C72.3648 111.075 70.0461 114.746 72.8755 120.214C74.4935 123.34 76.6663 126.18 78.8721 129.585C66.9388 131.156 57.9102 128.286 53.6048 114.777C51.5686 117.346 49.5463 118.822 49.4072 120.458C49.3176 121.512 51.9822 122.815 53.4334 123.98C55.2911 125.472 57.1698 126.937 59.0395 128.414C58.7837 129.094 58.5278 129.774 58.272 130.454C55.0443 129.679 51.8148 128.91 48.5895 128.125C46.2411 127.554 43.891 126.596 41.558 126.642C41.0038 126.653 40.1301 129.978 40.072 131.8C39.9293 136.276 41.3986 137.122 45.4734 134.972C49.5933 132.798 53.6498 130.761 59.7015 133.048C55.7704 136.227 52.4453 138.916 48.7355 141.917C50.1499 143.412 51.3433 144.674 53.0553 146.484C54.1223 144.883 55.1343 143.823 55.6195 142.56C58.5421 134.955 69.4705 129.572 77.2264 132.17C77.6012 132.296 77.4555 133.976 77.2922 135.197ZM20.5614 126.123C20.0412 127.824 19.1294 129.512 19.078 131.227C18.9496 135.515 22.6358 139.184 26.4331 138.941C31.2527 138.631 34.7782 134.346 33.9631 129.788C33.0711 124.799 26.942 122.78 20.5614 126.123Z" fill="#FDFDFD"/>
<path d="M82.0028 299.002C82.0004 290.258 82.4617 281.481 81.8676 272.777C81.2497 263.722 86.1948 257.754 91.9042 252.176C95.2717 248.886 99.4143 246.389 103.198 243.543C101.091 240.578 98.5326 237.581 96.6619 234.203C93.8898 229.196 94.2147 224.178 97.3479 219.173C103.062 210.045 110.142 202.196 118.85 195.942C120.386 194.838 123.151 195.445 125.348 195.262C125.346 195.689 125.343 196.116 125.34 196.543C121.705 198.813 116.287 200.355 114.973 203.573C113.829 206.374 117.32 211.068 119.068 215.74C118.065 216.489 115.866 217.914 113.923 219.629C109.468 223.56 110.034 227.638 115.479 229.931C119.001 231.414 120.644 232.618 116.434 235.374C113.133 237.535 110.524 241.111 112.416 244.595C113.796 247.137 117.749 248.493 120.793 249.837C122.431 250.56 124.572 250.147 127.187 250.283C122.795 257.134 117.479 261.13 110.069 261.892C108.878 262.014 107.61 261.18 106.351 260.906C104.529 260.51 102.684 260.221 100.849 259.886C100.539 261.713 100.229 263.54 99.8202 265.95C104.57 265.105 108.421 264.42 112.272 263.735C112.594 264.46 112.917 265.185 113.239 265.91C110.384 267.686 107.701 269.886 104.633 271.144C99.4777 273.256 97.6534 275.471 100.025 278.32C101.288 279.837 103.61 281.784 105.04 281.494C106.575 281.183 107.754 278.558 108.857 276.797C110.933 273.486 112.841 270.07 114.819 266.697C115.642 267.028 116.465 267.358 117.288 267.689C116.703 270.186 115.961 272.659 115.588 275.188C115.336 276.893 115.35 278.751 115.832 280.365C115.943 280.737 119.216 280.926 119.692 280.252C120.428 279.208 120.409 277.237 120.02 275.854C117.527 267.009 121.325 258.458 130.7 253.194C131.35 258.426 129.814 264.466 135.28 267.686C142.477 271.924 143.613 263.494 147.931 261.135C150.556 264.692 151.644 271.311 157.288 269.359C160.912 268.107 163.332 263.373 165.675 260.86C168.803 262.613 172.748 266.678 176.158 266.27C180.498 265.75 182.74 260.666 181.961 255.181C185.999 256.339 186.82 258.403 184.867 261.163C177.865 271.057 169.27 279.354 158.453 284.897C152.573 287.911 144.973 285.385 140.621 279.998C139.907 279.115 139.265 278.175 138.593 277.264C134.209 282.211 129.966 286.974 125.751 291.762C121.145 296.994 115.163 298.945 108.423 298.986C99.9269 299.038 91.4307 298.998 82.4673 298.999C82 299 82.0028 299.002 82.0028 299.002ZM99.5509 290.835C100.79 286.882 98.4528 284.408 95.6598 282.507C92.7862 280.552 89.303 280.641 87.0215 283.188C85.3847 285.016 83.686 288.376 84.3284 290.266C85.1869 292.793 87.9524 295.582 90.4995 296.409C94.3151 297.649 97.3623 295.072 99.5509 290.835Z" fill="#FDFDFD"/>
<path d="M153.922 105.996C160.154 106.1 160.938 106.924 159.722 112.305C156.917 124.729 156.488 137.116 159.63 149.564C160.089 151.385 159.693 153.422 159.693 155.53C147.72 158.242 136.998 154.674 127.174 149.22C120.204 145.351 114.396 139.412 107.95 134.554C106.796 133.685 105.064 133.584 103.598 133.128C104.349 134.166 105.013 135.282 105.867 136.227C108.894 139.579 111.61 143.359 115.133 146.086C122.193 151.55 130.148 155.497 138.782 158.055C144.925 159.875 151.047 161.053 157.5 160.208C158.776 160.04 160.207 161.054 161.676 162.623C159.562 163.081 157.461 163.864 155.332 163.947C137.698 164.634 122.609 157.81 109.031 147.367C102.897 142.649 97.5246 136.941 91.8765 131.747C108.474 108.999 140.928 93.0315 162.653 100.483C160.979 101.211 159.067 102.876 157.668 102.522C145.304 99.3866 135.137 104.807 124.714 110.077C117.209 113.872 111.096 119.265 105.175 124.988C104.075 126.052 103.584 127.745 103.611 129.871C118.435 117.559 132.865 105.35 153.922 105.996Z" fill="#FDFDFD"/>
<path d="M146.998 29.0022C160.189 28.5415 173.119 29.5006 185.454 34.9168C190.979 37.3429 198.52 43.5322 203.143 50.7399C199.713 53.3764 195.858 55.6781 192.839 58.7914C185.614 66.2446 178.448 73.81 171.944 81.8824C169.007 85.5279 167.613 85.1366 164.713 82.3102C152.897 70.7942 147.905 56.4775 147.028 40.4111C146.838 36.9288 147.001 33.4272 147.001 29.4672C147 29 146.998 29.0022 146.998 29.0022Z" fill="#FDFDFD"/>
<path d="M147.003 233.003C146.618 220.308 147.262 207.617 153.27 196.208C156.68 189.732 161.783 184.122 166.335 178.287C167.964 176.2 169.726 176.851 171.048 179.1C178.15 191.182 187.849 200.791 199.618 208.252C203.625 210.792 203.244 213.01 200.478 216.049C191.929 225.44 180.874 229.992 168.727 231.86C161.899 232.911 154.872 232.664 147.467 233.001C147 233 147.003 233.003 147.003 233.003Z" fill="#FDFDFD"/>
<path d="M81.9985 298.999C82.5049 304.609 87.665 302.549 90.4417 303.372C93.9471 304.41 98.1471 303.139 102.043 302.815C109.552 302.191 117.172 302.126 124.531 300.711C131.229 299.423 137.718 296.859 144.159 294.476C150.184 292.247 156.447 290.196 161.839 286.837C168.693 282.568 175.023 277.34 181.089 271.972C184.282 269.146 186.378 265.097 189.103 261.708C189.641 261.039 190.79 260.861 191.658 260.457C191.852 261.457 192.558 262.803 192.155 263.397C190.209 266.264 188.139 269.087 185.799 271.639C168.418 290.597 146.011 299.728 121.29 303.929C112.189 305.476 102.931 306.292 93.7083 306.849C88.4628 307.166 83.1284 306.43 77.8739 305.823C76.8365 305.703 75.1947 304.03 75.1649 303.034C74.8935 293.964 74.2302 284.825 75.0291 275.825C76.0338 264.509 77.1612 252.966 80.3623 242.151C83.3774 231.964 88.7386 222.37 93.8317 212.927C99.0123 203.322 106.883 195.826 115.44 189.114C116.087 188.606 116.797 188.151 117.539 187.8C118.092 187.539 118.743 187.487 120.913 186.968C118.925 190.221 118.043 193.688 116.194 194.318C110.102 196.395 107.123 201.184 103.642 205.866C100.76 209.744 96.4266 212.698 94.1596 216.841C90.962 222.683 89.4553 229.435 86.4452 235.404C85.2531 237.768 84.2719 240.029 83.2906 242.436C80.4477 249.411 81.0408 256.75 79.3994 263.68C77.3782 272.213 77.8188 280.668 77.4668 289.174C77.3725 291.454 77.7841 293.755 78.0586 297.262C78.4718 297.475 79.8833 298.202 81.6488 298.966C82.0028 299.002 81.9985 298.999 81.9985 298.999Z" fill="#FDFDFD"/>
<path d="M173.328 300.971C175.719 307.765 174.283 312.896 168.665 314.873C166.256 315.722 162.354 314.84 160.225 313.265C158.133 311.719 156.826 308.317 159.425 305.742C160.54 307.76 161.192 310.469 162.872 311.493C164.182 312.292 167.295 311.604 168.626 310.448C169.756 309.466 170.32 306.438 169.625 305.095C168.713 303.333 166.482 301.585 164.533 301.168C160.476 300.302 156.389 303.741 156.009 307.58C155.513 312.58 158.994 317.277 163.817 317.932C165.723 318.191 167.672 318.132 170.617 318.263C166.691 327.532 163.11 335.989 159.331 344.911C158.322 344.186 157.057 343.764 156.693 342.942C151.183 330.508 145.871 317.971 146.128 304.016C146.159 302.33 147.679 300.308 149.081 299.111C150.522 297.881 152.651 297.437 154.501 296.707C164.938 292.592 165.369 292.69 173.328 300.971Z" fill="#FDFDFD"/>
<path d="M80.9915 29.9805C83.259 35.9372 87.9431 41.3554 84.709 47.6045C82.9826 50.9403 79.6102 54.1297 76.2036 55.7127C71.9124 57.7067 68.2808 54.6674 65.7384 51.0738C63.2651 47.5779 64.6737 42.881 69.0564 40.7201C72.0505 39.2439 75.0622 39.2943 77.022 43.7901C75.8278 43.4676 75.2614 43.1436 74.7395 43.2039C72.693 43.4407 70.3717 43.3304 68.756 44.3273C68.0463 44.7652 68.1185 48.3753 69.0081 49.0942C70.7304 50.4857 74.3049 52.1455 75.2832 51.3743C77.4473 49.6685 79.8921 46.3286 79.5702 44.0259C79.2562 41.7798 75.8848 38.706 73.4329 38.2453C65.5715 36.7682 61.6035 41.8803 62.6455 51.9777C54.1028 48.6616 45.7556 45.7376 37.7033 42.1515C34.1064 40.5496 36.6059 38.4849 38.687 37.7523C47.3563 34.7002 56.0471 31.6695 64.868 29.1061C68.7823 27.9687 73.0148 27.7641 77.1238 27.5598C78.3233 27.5001 79.5954 28.9006 80.9915 29.9805Z" fill="#FDFDFD"/>
<path d="M53.5807 210.666C46.8389 213.538 40.4439 216.26 32.531 219.628C35.7293 211.851 37.8932 205.132 41.1743 199.013C44.5969 192.629 49.14 186.852 53.1049 180.752C54.8684 178.038 56.9973 177.247 59.8403 178.938C64.4922 181.704 69.516 184.028 73.6516 187.428C77.5347 190.62 76.6434 195.48 74.5548 199.42C72.5122 203.272 69.017 205.596 64.2487 204.982C59.9757 204.431 56.8388 199.575 58.124 194.776C59.0589 191.286 61.3138 189.117 66.1468 190.722C65.1326 191.366 64.6978 191.843 64.1963 191.928C60.5926 192.543 59.2461 194.908 60.2812 198.068C61.4007 201.485 64.6622 201.811 67.3388 200.545C70.1799 199.202 71.8797 196.524 70.3977 193.1C68.5098 188.739 63.7416 186.676 60.2009 188.531C55.2809 191.109 53.4388 197.482 56.5109 201.788C57.7491 203.523 59.3638 204.99 61.1631 206.971C58.5478 208.252 56.2377 209.384 53.5807 210.666Z" fill="#FDFDFD"/>
<path d="M147.001 28.9989C143.353 29.0976 144.633 31.2798 143.861 33.589C142.311 38.2225 144.135 42.0856 143.882 46.2347C143.773 48.0232 144.467 49.8971 144.977 51.6804C146.727 57.7989 147.896 64.2057 150.575 69.8964C152.575 74.1468 156.645 77.3979 159.643 81.2118C162.201 84.4655 164.545 87.8871 166.992 91.6179C166.999 92.0014 167.001 91.9993 167.001 91.9993C160.608 91.0744 157.041 86.0877 153.572 81.674C146.014 72.0547 140.529 61.3803 139.9 48.7213C139.475 40.1501 138.681 31.596 137.981 23.0401C137.738 20.0681 138.83 19.0542 141.916 18.9289C160.878 18.1588 178.847 21.6552 195.099 31.6903C201.184 35.448 207.15 39.8259 209.838 46.9788C209.45 47.4094 209.062 47.84 208.674 48.2706C207.019 46.7214 205.401 45.1308 203.701 43.6319C200.537 40.841 197.62 37.6161 194.06 35.4669C189.59 32.7683 184.659 30.7597 179.78 28.8263C170.264 25.0559 159.99 25.8947 150.082 24.5055C149.25 24.3888 148.044 26.9402 147.004 28.6271C146.998 29.0021 147.001 28.9989 147.001 28.9989Z" fill="#FDFDFD"/>
<path d="M146.999 232.998C147.051 240.278 153.301 237.843 156.089 237.497C165.017 236.387 173.943 234.469 182.544 231.809C188.336 230.019 193.875 226.894 198.956 223.508C202.117 221.401 204.119 217.604 206.851 214.768C207.531 214.061 209.021 214.134 210.139 213.849C209.859 214.964 209.903 216.335 209.252 217.155C197.112 232.459 180.625 239.623 161.748 241.936C155.352 242.72 148.85 242.601 142.405 243.026C139.335 243.229 138.011 242.397 137.911 238.94C137.529 225.77 138.48 212.756 142.511 200.185C146.323 188.293 154.398 179.251 163.526 171.101C164.128 170.564 165.352 170.724 167.121 171.25C148.777 187.457 142.136 208.061 143.118 232.265C143.563 232.37 144.902 232.686 146.622 233.003C147.003 233.003 146.999 232.998 146.999 232.998Z" fill="#FDFDFD"/>
<path d="M47.7851 49.2241C52.3264 51.0854 56.557 52.7086 61.4948 54.603C59.5228 56.7833 57.9941 58.248 56.7312 59.9142C53.6231 64.0152 54.5624 70.1803 58.574 72.7471C62.773 75.4337 67.7647 74.1535 70.064 69.8513C71.741 66.7136 71.4406 63.5657 68.2901 62.1503C66.3311 61.2703 62.6643 61.3998 61.248 62.6968C58.474 65.2372 59.9798 68.0943 62.9215 70.0677C63.2428 70.2833 63.3449 70.8259 63.6088 71.3323C58.4383 70.233 57.104 68.1618 58.0273 62.9246C58.6798 59.2232 63.2844 56.3011 67.2116 57.2311C71.5948 58.2689 74.7012 60.932 75.8526 65.3139C77.0605 69.9115 74.7104 76.098 70.6975 78.4957C67.7262 80.2711 64.436 81.6113 61.1383 82.6871C60.03 83.0487 58.0871 82.3989 57.1601 81.5325C46.4322 71.507 39.3106 59.1336 34.1818 45.5146C34.1006 45.2991 34.4098 44.9366 34.7654 44.1137C38.9875 45.7324 43.231 47.3592 47.7851 49.2241Z" fill="#FDFDFD"/>
<path d="M175.418 341.679C171.045 343.572 167.017 345.31 162.988 347.047C162.63 346.802 162.272 346.557 161.914 346.312C165.511 337.562 169.107 328.812 172.792 319.846C175.429 321.746 177.553 323.477 179.866 324.901C183.866 327.363 188.11 325.854 190.052 322.766C191.647 320.23 191.339 315.847 190.44 312.692C190.041 311.291 186.003 310.064 183.816 310.339C182.367 310.522 180.62 313.379 180.231 315.288C179.941 316.709 181.224 319.26 182.527 319.954C183.669 320.562 185.882 319.44 187.475 318.745C187.97 318.53 187.984 317.212 188.218 316.399C188.925 317.057 189.633 317.714 190.34 318.372C188.947 319.837 187.752 322.177 186.11 322.55C183.96 323.04 180.4 322.785 179.339 321.4C177.544 319.057 176.258 315.487 176.525 312.596C176.922 308.291 180.426 305.807 184.732 305.07C190.995 303.999 197.466 308.323 199.053 314.486C201.204 322.839 200.693 324.585 193.551 329.643C187.734 333.762 181.7 337.575 175.418 341.679Z" fill="#FDFDFD"/>
<path d="M81.7216 209.218C86.7337 215.372 86.18 226.695 80.586 231.095C79.2702 232.13 76.8265 232 74.9109 231.96C61.0465 231.672 48.0232 227.941 34.0209 221.774C44.2247 217.581 53.2373 213.877 63.0301 209.853C61.533 216.096 62.7133 220.758 67.7207 223.825C71.6553 226.235 75.5784 225.12 78.8096 220.612C80.9985 217.559 80.6296 214.452 77.6425 212.322C75.9796 211.137 73.1913 210.004 71.6237 210.631C69.9807 211.288 68.0316 214.313 68.3457 215.875C68.6797 217.536 71.5042 218.705 73.2598 220.064C73.6135 220.338 74.0502 220.505 74.5355 220.769C70.8537 222.467 66.854 221.549 65.494 218.188C64.0881 214.714 64.8865 211.251 67.9183 208.718C72.3256 205.036 76.2412 205.153 81.7216 209.218Z" fill="#FDFDFD"/>
<path d="M182.2 302.962C181.281 302.273 180.153 301.351 180.314 300.959C183.967 292.06 187.762 283.219 192.077 273.084C193.176 284.388 194.133 294.233 195.064 303.805C191.338 303.558 186.964 303.268 182.2 302.962Z" fill="#FDFDFD"/>
<path d="M176.155 284.256C179.874 280.062 183.315 276.095 186.757 272.127C187.421 272.65 188.085 273.172 188.749 273.694C184.99 282.989 181.231 292.285 177.497 301.519C173.738 298.131 170.187 294.932 165.963 291.126C169.199 288.958 172.538 286.721 176.155 284.256Z" fill="#FDFDFD"/>
<path d="M85.915 62.1028C83.3956 60.9557 81.2435 59.903 79.4158 59.0091C82.9151 54.7603 86.0477 50.9565 88.814 47.5977C94.3743 54.477 100.39 61.9198 107.029 70.1337C99.6465 67.3096 92.9644 64.7535 85.915 62.1028Z" fill="#FDFDFD"/>
<path d="M78.8657 185.438C87.2846 186.705 95.3419 187.825 105.045 189.172C95.1227 193.437 86.491 197.146 78.4506 200.602C77.786 195.857 77.0965 191.405 76.6321 186.929C76.5826 186.452 77.8484 185.839 78.8657 185.438Z" fill="#FDFDFD"/>
<path d="M102.254 197.25C97.6698 203.28 93.3394 209.056 89.022 214.814C85.9925 211.009 83.1965 207.497 79.7238 203.135C87.8895 199.542 95.868 196.031 103.847 192.52C104.196 192.979 104.546 193.438 104.895 193.898C104.099 194.93 103.304 195.963 102.254 197.25Z" fill="#FDFDFD"/>
<path d="M131.023 39.6909C131.338 41.8375 131.638 43.5418 132.012 45.6703C124.883 46.4929 119.14 45.3778 114.525 40.0997C112.102 37.3291 113.183 35.626 115.775 34.2599C117.512 33.3445 119.399 32.6263 121.299 32.1257C127.82 30.408 132.058 30.1095 131.023 39.6909Z" fill="#FDFDFD"/>
<path d="M94.7797 161.934C91.8067 161.634 88.7826 161.877 86.8023 160.556C85.95 159.987 87.1171 156.142 87.653 153.853C87.9014 152.792 88.8159 151.878 89.4604 150.92C93.5245 144.874 95.9627 144.653 101.204 149.658C102.509 150.906 104.12 151.833 106.821 153.806C101.988 157.136 98.5696 159.49 94.7797 161.934Z" fill="#FDFDFD"/>
<path d="M93.1051 67.8984C97.1245 69.5231 100.771 71.0525 105.544 73.0542C95.2099 74.2586 85.9844 75.3337 77.0306 76.3772C77.3911 71.9394 77.7662 67.3229 78.1933 62.0654C82.8042 63.8851 87.7683 65.8442 93.1051 67.8984Z" fill="#FDFDFD"/>
<path d="M102.986 89.7385C108.611 88.6667 116.537 92.5206 118.368 97.3403C118.781 98.4281 117.439 100.833 116.234 101.748C113.806 103.593 110.916 104.83 108.001 106.438C102.789 103.523 99.9968 95.3807 102.986 89.7385Z" fill="#FDFDFD"/>
<path d="M102.732 110.767C100.055 112.962 97.6283 114.909 95.1005 116.938C90.3099 114.025 87.8041 109.726 86.3709 104.65C85.5663 101.8 86.4326 100.329 89.5776 99.9616C95.496 99.2711 99.8581 101.997 103.424 106.156C104.08 106.922 103.17 109.031 102.732 110.767Z" fill="#FDFDFD"/>
<path d="M218.983 286.092C219.587 284.333 220.041 282.905 220.734 281.604C224.786 274.013 226.527 273.809 231.296 280.657C232.677 282.64 237.279 284.506 233.793 287.334C230.143 290.295 225.453 293.067 220.964 293.547C217.482 293.919 218.085 289.399 218.983 286.092Z" fill="#FDFDFD"/>
<path d="M197.004 248.973C195.835 252.484 194.666 255.549 193.497 258.615C190.997 256.923 188.045 255.639 186.087 253.461C180.795 247.577 181.236 245.82 188.123 241.948C190.091 240.841 192.169 239.928 195.378 238.342C196.008 242.291 196.506 245.41 197.004 248.973Z" fill="#FDFDFD"/>
<path d="M208.033 271.354C211.05 267.53 213.974 264.079 217.335 260.113C219.305 263.427 220.558 265.669 221.937 267.832C224.979 272.602 224.289 275.11 219.036 277.41C217.388 278.131 215.601 278.712 213.825 278.933C207.389 279.736 206.072 278.058 208.033 271.354Z" fill="#FDFDFD"/>
<path d="M187.783 6.71184C189.897 5.76755 192.314 4.03662 193.463 4.65623C195.122 5.55124 196.298 8.02737 196.872 10.0574C197.436 12.048 197.175 14.3459 196.929 16.4687C196.725 18.2392 196.487 20.4154 195.378 21.5362C194.557 22.3663 191.373 22.4483 190.868 21.7266C188.692 18.6125 181.18 21.4419 182.773 14.8551C183.461 12.0122 185.884 9.58921 187.783 6.71184Z" fill="#FDFDFD"/>
<path d="M131.481 65.3064C133.237 64.795 134.646 64.4291 136.22 64.0204C136.952 65.2881 137.826 66.3412 138.205 67.5497C139.11 70.4365 139.782 73.3966 140.548 76.3272C136.967 77.2034 133.42 78.4878 129.791 78.7876C127.913 78.9427 125.819 77.4899 123.952 76.517C121.386 75.1806 121.332 73.0739 123.305 71.3208C125.734 69.1614 128.509 67.3906 131.481 65.3064Z" fill="#FDFDFD"/>
<path d="M104.932 172.988C103.731 172.507 102.5 172.205 102.25 171.536C100.527 166.922 103.52 158.696 107.885 155.39C110.753 157.04 113.562 158.705 116.417 160.285C118.808 161.608 119.438 163.426 117.654 165.527C114.408 169.351 110.908 172.905 104.932 172.988Z" fill="#FDFDFD"/>
<path d="M119.973 201.664C124.954 200.798 129.614 200.156 135.233 199.383C134.229 204.873 133.47 209.017 132.719 213.121C126.833 214.694 119.317 211.811 116.68 207.058C114.801 203.67 118.189 203.34 119.973 201.664Z" fill="#FDFDFD"/>
<path d="M131.088 220.516C130.414 223.943 130.727 228.66 128.997 229.595C123.88 232.36 116.915 229.288 113.189 223.801C116.817 218.116 122.645 216.696 128.791 216.037C132.262 215.665 132.161 217.678 131.088 220.516Z" fill="#FDFDFD"/>
<path d="M125.226 49.0097C130.488 47.0109 133.036 48.6296 133.501 53.8763C133.643 55.4883 134.792 57.1215 134.583 58.6197C134.412 59.841 132.937 61.7925 131.982 61.8275C128.574 61.9521 125.048 61.7717 121.75 60.9612C119.75 60.4698 117.341 58.949 116.552 57.231C116.072 56.1861 118.033 53.5817 119.432 52.232C120.898 50.8187 123.002 50.0684 125.226 49.0097Z" fill="#FDFDFD"/>
<path d="M213.895 250.111C214.926 253.104 215.859 255.723 217.206 259.505C212.819 260.708 208.717 262.464 204.496 262.826C199.596 263.245 197.629 259.967 200.223 255.855C202.172 252.764 205.059 250.12 207.959 247.82C210.259 245.996 212.657 246.626 213.895 250.111Z" fill="#FDFDFD"/>
<path d="M134.127 197.97C130.462 196.075 127.006 194.43 123.999 192.184C122.837 191.315 121.941 188.886 122.297 187.529C122.654 186.171 124.629 184.49 126.066 184.309C129.822 183.836 133.687 183.882 137.478 184.15C140.285 184.349 141.809 185.996 140.129 188.906C138.352 191.985 136.395 194.96 134.127 197.97Z" fill="#FDFDFD"/>
<path d="M177.828 246.042C182.054 250.067 181.692 259.66 177.607 262.851C177.347 263.054 177.118 263.314 176.831 263.465C173.923 265.003 170.337 262.334 167.929 256.851C165.931 252.303 166.562 248.646 169.719 247.676C172.218 246.908 174.846 246.558 177.828 246.042Z" fill="#FDFDFD"/>
<path d="M158.159 266.242C153.879 267.589 152.659 264.28 151.256 261.911C150.304 260.304 150.259 258.099 150.033 256.136C149.59 252.282 149.887 249.09 155.301 249.92C158.053 250.342 160.911 250.07 163.722 250.111C163.256 253.507 163.146 257.006 162.197 260.261C161.583 262.364 159.74 264.109 158.159 266.242Z" fill="#FDFDFD"/>
<path d="M79.1268 112.998C84.9767 112.358 89.0193 114.948 93.1031 118.889C90.2013 122.183 87.3306 125.443 84.269 128.918C78.652 126.831 75.703 122.424 74.2405 117.023C73.283 113.487 75.8797 112.888 79.1268 112.998Z" fill="#FDFDFD"/>
<path d="M133.001 255.164C132.938 250.79 133.73 248.31 138.744 249.801C141.311 250.565 144.293 249.935 148.749 249.935C146.403 255.241 145.013 259.941 142.419 263.839C139.458 268.288 136.248 267.773 134.062 262.838C133.111 260.691 133.319 258.03 133.001 255.164Z" fill="#FDFDFD"/>
<path d="M132.648 89.3789C133.483 90.7952 134.123 91.9069 135.109 93.618C130.957 95.0786 127.134 96.4398 123.294 97.7506C122.855 97.9007 121.967 97.9314 121.88 97.7436C120.538 94.837 118.76 91.9824 118.2 88.912C117.776 86.584 118.934 83.9677 119.388 81.4797C122.647 82.568 126.048 83.3691 129.104 84.87C130.558 85.5839 131.357 87.631 132.648 89.3789Z" fill="#FDFDFD"/>
<path d="M90.9075 145.053C86.624 146.479 82.7395 148.338 78.6868 148.841C74.2051 149.396 72.4529 146.547 74.857 142.665C77.1165 139.017 80.3791 135.99 83.4095 132.445C86.6567 135.883 89.3528 138.498 91.6903 141.402C92.1977 142.032 91.4188 143.698 90.9075 145.053Z" fill="#FDFDFD"/>
<path d="M132.003 174.997C129.254 177.007 126.704 179.407 123.707 180.924C120.078 182.761 117.715 180.964 118.096 177.011C118.511 172.71 119.663 168.48 120.59 163.723C124.286 164.97 126.814 165.694 129.241 166.669C134.963 168.967 134.944 169.015 132.041 174.633C132 175 132.003 174.997 132.003 174.997Z" fill="#FDFDFD"/>
<path d="M129.825 233.271C130.468 237.16 130.772 240.89 130.905 244.626C130.929 245.305 130.227 246.62 129.897 246.608C125.383 246.449 120.731 246.678 116.419 245.596C113.899 244.964 113.216 242.252 115.713 239.696C119.535 235.783 123.651 232.806 129.825 233.271Z" fill="#FDFDFD"/>
<path d="M209.136 17.1067C209.876 21.5026 210.269 25.7184 210.662 29.9341C210.134 30.0582 209.606 30.1824 209.078 30.3065C206.77 25.1134 204.462 19.9203 202.155 14.7272C202.43 14.4481 202.706 14.169 202.982 13.8899C204.918 14.9021 206.854 15.9143 209.136 17.1067Z" fill="#FDFDFD"/>
<path d="M203.42 247.223C204.89 242.064 206.569 237.185 208.59 231.314C212.613 242.799 212.18 243.992 203.42 247.223Z" fill="#FDFDFD"/>
<path d="M131.999 175.001C132.876 174.61 134.324 174.42 134.546 173.795C137.32 165.992 142.849 170.644 147.701 171.509C143.009 173.538 138.33 175.598 133.587 177.501C133.343 177.599 132.555 176.341 132.011 175.356C132.003 174.997 131.999 175.001 131.999 175.001Z" fill="#FDFDFD"/>
<path d="M148.349 87.437C143.719 85.7981 139.342 83.9423 133.859 81.6169C143.551 77.8881 145.585 78.8537 148.349 87.437Z" fill="#FDFDFD"/>
<path d="M135.373 89.7644C134.196 87.9834 133.194 86.5296 131.293 83.7722C137.442 86.1849 142.2 88.0517 146.957 89.9186C146.781 90.5875 146.605 91.2564 146.429 91.9253C142.884 90.3415 138.743 95.8578 135.373 89.7644Z" fill="#FDFDFD"/>
<path d="M136.682 181.54C137.022 180.32 137.418 178.897 138.307 178.446C141.677 176.739 145.207 175.348 148.955 173.717C146.458 182.226 143.676 184.01 136.682 181.54Z" fill="#FDFDFD"/>
<path d="M203.974 24.9447C204.692 26.5977 205.257 27.911 205.823 29.2244C205.506 29.5836 205.19 29.9429 204.874 30.3022C202.263 28.6601 199.652 27.018 196.9 25.2877C197.831 22.1637 198.667 19.3609 199.818 15.4961C201.405 19.1067 202.613 21.8559 203.974 24.9447Z" fill="#FDFDFD"/>
<path d="M204.593 234.749C203.047 238.546 201.65 242.009 200.214 245.571C196.05 239.034 196.594 236.234 202.693 233.02C203.035 232.839 204.044 233.922 204.593 234.749Z" fill="#FDFDFD"/>
<path d="M20.8442 125.841C26.942 122.78 33.071 124.799 33.9631 129.788C34.7782 134.346 31.2527 138.631 26.433 138.941C22.6358 139.184 18.9495 135.515 19.078 131.227C19.1293 129.512 20.0412 127.824 20.8442 125.841Z" fill="#F1F1F1"/>
<path d="M99.3826 291.174C97.3623 295.072 94.3151 297.649 90.4995 296.409C87.9524 295.582 85.1869 292.793 84.3284 290.266C83.6861 288.376 85.3847 285.016 87.0216 283.188C89.303 280.641 92.7862 280.552 95.6599 282.507C98.4528 284.408 100.79 286.882 99.3826 291.174Z" fill="#F1F1F1"/>
</svg>
