<svg width="512" height="512" viewBox="0 0 512 512" fill="none" xmlns="http://www.w3.org/2000/svg">
    <path d="M289.444 254.498c44.473 10.373 88.55 20.614 132.624 30.867 20.902 4.863 41.784 9.81 62.71 14.563 3.238.735 4.724 1.824 4.716 5.502-.119 53.304-.079 106.608-.093 159.912-.001 1.308-.179 2.616-.3 4.264H264.963V248.865a5944.604 5944.604 0 0 1 24.481 5.633Z" fill="#7A6D79"/>
    <path d="M49.743 229.512c32.88-7.751 65.75-15.552 98.646-23.24 32.415-7.576 64.857-15.038 97.289-22.54.955-.221 1.938-.324 2.894-.48 2.156 8.516 1.522 9.627-6.423 11.47-12.809 2.971-25.631 5.889-38.424 8.932-7.489 1.782-9.905 4.911-9.947 12.676-.055 9.997-.071 19.996.002 29.994.071 9.51 5.619 13.866 15.058 11.761 11.046-2.464 22.054-5.097 33.082-7.644 2.216-.512 4.446-.965 7.111-1.541v220.685H139.902v-5.883c0-29.994-.038-59.988.034-89.983.013-5.215-1.281-9.241-7.341-11.007-.372-6.862-.437-13.13-.503-19.398 5.79-1.217 7.773-3.349 7.781-9.094.051-34.165.07-68.331-.008-102.497-.019-8.305-4.985-12.042-13.187-10.158a17557.323 17557.323 0 0 0-63.247 14.662c-6.824 1.594-9.046 4.541-9.064 12.252-.057 24-.025 47.999-.025 71.998 0 47.999.014 95.997-.045 143.996-.003 2.315 1.318 5.878-3.832 4.926-.448-77.642-.455-154.772-.477-231.902 0-2.662-.16-5.323-.245-7.985Zm97.389 6.002c.004 8.153-.142 16.31.058 24.459.173 7.034 4.856 11.095 11.414 9.818 6.847-1.334 13.631-3.031 20.382-4.799 4.523-1.184 7.067-4.321 7.093-9.075.068-12.146.162-24.295-.043-36.438-.108-6.383-5.294-10.258-11.586-9.045-3.425.659-6.799 1.579-10.197 2.381-17.122 4.04-17.122 4.04-17.121 22.699Z" fill="#675D67"/>
    <path d="M456.261 168.817c-62.633-14.619-124.855-29.162-187.092-43.636-2.63-.611-4.651-.996-4.634-4.496.112-24.327.063-48.654.091-72.98.001-.79.276-1.581.576-3.195 4.223 1.066 8.224 1.91 12.124 3.087a19616.462 19616.462 0 0 1 76.9 23.37c4.616 1.414 8.766 1.993 11.981-2.764.499-.74 2.396-1.096 3.431-.82 5.681 1.516 11.295 3.284 17.297 5.074-.926 7.237 3.648 9.618 9.676 11.406 29.034 8.611 57.988 17.493 86.983 26.238 3.216.97 5.866 2.067 5.846 6.223-.093 18.994-.039 37.989-.066 56.984-.001.792-.28 1.583-.544 2.983-10.876-2.497-21.518-4.941-32.569-7.474Z" fill="#7A6D79"/>
    <path d="M49.78 104.582c26.242-8.058 52.471-16.162 78.73-24.164a50777.59 50777.59 0 0 1 108.929-33.035c3.6-1.088 7.296-1.859 11.549-2.928.166 2.46.367 4.07.369 5.678.02 23.155-.024 46.31.057 69.466.011 3.061-.623 4.778-4.055 5.571-64.363 14.882-128.695 29.896-193.034 44.877-.486.114-.985.166-1.897-.221-.495-22.06-.572-43.652-.649-65.244Z" fill="#675D67"/>
    <path d="M131.708 343.228c.45 6.354.515 12.622.566 19.36-5.47 1.595-7.486 4.935-7.459 10.474.151 30.257.072 60.514.072 90.772v6.108c-13.835 0-27.39 0-41.414-.528-.47-74.406-.472-148.285-.475-222.163l41.89-9.927v5.878c.001 30.111.037 60.221-.035 90.332-.012 4.822 1.076 8.582 6.855 9.694Z" fill="#FEB441"/>
    <path d="M264.498 148.118v-8.605l224.833 52.386v27.634c-7.363-1.636-14.438-3.138-21.48-4.783-66.392-15.506-132.77-31.072-199.189-46.458-3.316-.768-4.395-1.925-4.227-5.199.246-4.82.063-9.662.063-14.975Zm-.001 72.874v-12.534c7.529 1.669 14.459 3.139 21.358 4.745 66.039 15.375 132.063 30.817 198.131 46.068 4.405 1.017 5.975 2.693 5.63 7.262-.459 6.084-.113 12.229-.113 19.083-8.511-1.966-16.386-3.769-24.254-5.603-65.227-15.205-130.44-30.466-195.705-45.504-4.138-.954-5.657-2.459-5.098-6.541.291-2.125.051-4.323.051-6.976Z" fill="#FDC064"/>
    <path d="M50 186.208c31.078-7.312 62.151-14.652 93.239-21.927 34.328-8.034 68.669-16.01 103.008-24.001.787-.183 1.602-.246 3.209-.484 0 8.859.106 17.422-.167 25.973-.027.839-2.287 2.015-3.674 2.343-30.909 7.319-61.837 14.555-92.77 21.775-34.009 7.938-68.026 15.844-102.428 23.325-.398-9.294-.408-18.149-.418-27.004Z" fill="#FDB340"/>
    <path d="M49.344 229.577c.484 2.597.643 5.258.644 7.92.022 77.13.029 154.26.048 231.844-7.152.509-14.316.497-21.476.655-2.743.06-4.073-.919-3.857-3.747.075-.994.002-1.998.002-2.998 0-51.988.068-103.977-.116-155.965-.016-4.756 1.36-6.583 6.01-7.619 16.464-3.666 16.423-3.855 16.421-20.726 0-8.665.061-17.33-.027-25.994-.076-7.576-4.55-11.278-11.995-9.988-3.09.535-6.14 1.311-9.164 1.968-2.77-7.739-1.868-9.554 5.579-11.324 5.828-1.386 11.687-2.645 17.93-4.026Z" fill="#554E56"/>
    <path d="M82.607 247.248c.394 73.881.396 147.76.403 222.094-4.31.456-8.623.456-13.262.456V250.282c4.12-1.003 8.294-2.019 12.859-3.034Z" fill="#F6A211"/>
    <path d="M279.803 186.186c68.414 15.972 136.422 31.86 204.434 47.731 6.045 1.411 6.392 2.11 4.645 11.24-8.867-2.05-17.723-4.086-26.573-6.146a904762.49 904762.49 0 0 1-190.459-44.345c-8.332-1.942-8.323-1.978-6.878-11.756 4.83 1.068 9.628 2.128 14.831 3.276Z" fill="#776A76"/>
    <path d="M49.396 104.653c.46 21.521.537 43.113.613 65.204-8.034 2.481-16.069 4.463-24.79 6.615-.217-2.283-.492-3.848-.495-5.413-.03-17.661.08-35.322-.09-52.98-.043-4.342 1.323-6.802 5.688-7.902 6.289-1.586 12.466-3.614 19.074-5.524Z" fill="#554E56"/>
    <path d="M247.944 208.835c.81 4.286 1.451 8.607 1.507 12.936.151 11.608.05 11.603-11.066 14.139-9.679 2.209-19.354 4.433-29.652 6.793 0-7.989-.102-15.434.128-22.869.029-.939 1.666-2.378 2.784-2.648 11.928-2.88 23.901-5.57 36.299-8.351Z" fill="#FCB340"/>
    <path d="M49.612 186.199c.397 8.864.407 17.719.425 27.021-8.19 2.408-16.388 4.369-25.118 6.458V191.96c7.894-1.874 16.1-3.821 24.693-5.761Z" fill="#FCA612"/>
    <path d="M32.063 266.139v17.738l-7.591 1.79c0-8.088-.353-15.671.299-23.167.13-1.494 4.099-2.655 7.292-4.564v8.203Z" fill="#ED9C11"/>
    <path d="M147.132 235.017c-.001-18.162-.001-18.162 17.121-22.202 3.398-.802 6.772-1.722 10.197-2.381 6.292-1.213 11.478 2.662 11.586 9.045.205 12.143.111 24.292.044 36.438-.027 4.754-2.571 7.891-7.094 9.075-6.751 1.768-13.535 3.465-20.382 4.799-6.558 1.277-11.241-2.784-11.414-9.818-.2-8.149-.054-16.306-.058-24.956Zm24.025-1.428v-7.848c-3.605 1.843-8.434 2.978-8.621 4.637-.843 7.466-.368 15.08-.368 23.192l8.989-2.044v-17.937Z" fill="#020201"/>
    <path d="M171.157 234.079v17.447l-8.989 2.044c0-8.112-.475-15.726.368-23.192.187-1.659 5.016-2.794 8.621-4.638v8.339Z" fill="#F6AF3F"/>
</svg>
