<svg width="519" height="528" viewBox="0 0 519 528" fill="none" xmlns="http://www.w3.org/2000/svg">
    <g clip-path="url(#a)">
        <path d="M437.583 1c4.437 2.6 5.961 6.337 5.445 11.01-.036.33-.006.666-.004 1 .053 10.822-2.261 22.386.832 32.255 3.033 9.674 11.566 17.625 17.689 26.329 5.647 8.026 11.53 15.9 16.824 24.153 1.856 2.893 3.123 6.69 3.2 10.107.338 15.141.146 30.293.146 45.774 1.173.153 2.253.296 3.334.436 5.019.646 7.744 3.137 7.835 8.052.191 10.323.211 20.654.003 30.977-.113 5.646-2.697 7.472-11.173 8.524 0 4.86.01 9.807-.003 14.754-.012 4.873-1.887 8.37-7.708 9.412-5.812-1.036-7.662-4.535-7.676-9.387-.013-4.927-.002-9.854-.002-15.052-15.129 0-29.695 0-44.724-.093-5.886-.093-11.308-.093-16.834-.093v266.591c5.996 0 11.639 0 17.744.066 14.741.066 29.021.066 43.811.066v-37.23c0-57.774-.004-115.547.005-173.321.002-7.678 1.149-9.334 7.685-11.422 6.519 2.088 7.698 3.795 7.699 11.433.008 68.159.005 136.317.005 204.475v5.385c10.789 2.365 11.242 2.935 11.243 13.875 0 8.166.064 16.332-.021 24.497-.069 6.631-2.847 9.409-9.498 9.417-31.996.039-63.992.038-95.988 0-6.681-.008-9.41-2.759-9.459-9.405-.064-8.831-.022-17.664-.015-26.496.007-8.828 1.755-10.704 10.88-11.426V199.555c-.942-.123-2.022-.29-3.107-.401-4.982-.512-7.648-3.037-7.719-8.028-.146-10.33-.175-20.666.012-30.994.102-5.671 2.745-7.545 11.11-8.438 0-14.744.141-29.54-.079-44.33-.074-4.923 1.223-8.977 4.089-12.962 10.98-15.267 21.795-30.655 32.493-46.121 1.302-1.883 2.094-4.503 2.143-6.801.224-10.494.127-20.996.084-31.494-.015-3.817 1.047-6.885 5.048-8.632C434.389 1 435.778 1 437.583 1Zm-16.481 480.028h-27.684v16.631c9.753 0 19.197 0 29.558.164h54.539v-16.648c-18.622 0-37.051 0-56.413-.147Zm1.855-297.046h54.401v-16.571c-18.696 0-36.991 0-56.214-.196h-27.749v16.636c9.741 0 19.189 0 29.562.131Zm5.334-112.855c-5.451 7.729-10.5 15.786-16.468 23.093-5.789 7.087-8.124 14.568-7.577 23.711.672 11.219.161 22.51.161 33.894h5.632c0-2.513.279-4.852-.047-7.104-1.662-11.474 1.038-20.923 12.564-26.979 2.098-1.64 4.178-3.303 6.296-4.916 5.397-4.108 7.801-4.095 13.326.126 4.499 3.437 8.87 7.048 13.464 10.35 3.889 2.796 5.474 6.372 5.301 11.11-.211 5.77-.05 11.553-.05 17.317h5.433c0-15.122.027-29.934-.048-44.746-.006-1.245-.4-2.689-1.104-3.698-9.788-14.03-19.663-27.999-29.802-42.388-2.316 3.547-4.395 6.732-7.081 10.23Zm16.686 79.036c.024-3.145-.129-6.305.118-9.433.32-4.061-.239-7.596-4.363-9.484-2.226-1.019-5.432-3.217-6.675-2.442-3.651 2.276-8.959 3.582-9.016 9.438-.034 3.477-.171 6.968.095 10.425.087 1.136 1.302 3.129 1.991 3.125 5.866-.037 11.73-.444 17.85-1.629Z" fill="#040404"/>
        <path d="M367.915 414c0 29.494.004 58.488-.002 87.482-.002 9.236-2.276 11.521-11.464 11.521-107.978.002-215.955.002-323.933 0-9.277 0-11.47-2.193-11.47-11.478-.003-53.822.043-107.644-.077-161.466-.01-4.876 1.483-8.496 4.94-11.922 10.293-10.197 20.31-20.673 30.437-31.044-3.057-5.606-6.909-11.473-9.599-17.831-7.662-18.111-10.01-36.471-.823-54.936 4.718-9.483 12.09-16.697 20.12-23.226 26.901-21.872 57.475-37.698 88.289-53.079 10.69-5.337 21.573-10.29 32.468-15.467v-12.881c-9.864-1.716-18.929-5.439-27.268-11.145-27.697-18.952-32.728-62.038-10.122-86.864 7.811-8.577 17.013-14.704 28.165-18.04 4.248-1.271 8.23-2.223 11.252 1.952 2.844 3.928 1.023 7.45-1.318 10.976-9.86 14.854-8.884 31.819 2.473 45.175 11.336 13.332 31.936 16.416 46.684 6.983 1.12-.717 2.203-1.492 3.307-2.234 3.216-2.162 7.075-2.942 9.552.008 1.798 2.14 2.987 6.217 2.265 8.826-6.526 23.559-21.95 38.075-45.83 43.519-1.114.254-2.25.416-3.629.666v12.62c20.518 10.336 41.118 20.344 61.369 31.016 20.76 10.94 40.95 22.893 59.091 37.953 10.082 8.37 19.145 17.54 23.241 30.529 6.183 19.602 1.814 37.744-7.509 55.194-1.874 3.508-4.164 6.794-6.276 10.205 7.952 8.137 15.922 16.325 23.926 24.479 13.95 14.208 11.591 8.324 11.712 28.022.131 21.328.029 42.658.029 64.487ZM227.667 88.715c-1.656.132-3.312.275-4.969.393-33.61 2.383-59.079-22.964-56.861-56.563.112-1.692.014-3.398.014-5.463-9.593 6.784-17.307 24.27-15.23 39.148 3.326 23.823 26.121 41.667 49.909 38.13 11.222-1.669 20.267-6.984 27.73-15.47l-.247-.191c.161.212.322.423-.346.016Zm-97.75 201.394c2.447.032 4.894.061 7.342.095 6.668.093 8.473 1.4 10.361 8.365-1.048 5.456-4.822 6.998-9.821 7.024-8.605.044-17.208.216-26.711.047-12.147-.018-24.297-.206-36.436.087-2.478.06-5.464 1.346-7.275 3.06-9.424 8.92-18.468 18.24-27.822 27.235-2.484 2.389-3.41 4.824-3.402 8.259.108 49.253.074 98.507.074 147.76v5.612c19.669 0 38.753 0 58.75.178h46.019v-6.07c0-24.497.063-48.994-.061-73.491-.021-4.132 1.21-7.301 4.121-10.231 14.093-14.187 28.041-28.517 42.073-42.765 5.683-5.771 8.958-5.778 14.68.02 14.046 14.233 28.187 28.379 41.923 42.907 2.345 2.479 4.011 6.66 4.058 10.081.34 24.659.182 49.325.182 73.988v5.262h104.442c.115-.943.262-1.583.262-2.223.013-50.994.042-101.988-.095-152.981-.005-1.843-1.255-4.073-2.606-5.458-7.679-7.872-15.949-15.199-23.255-23.392-5.435-6.095-11.271-8.197-19.475-8.112-42.823.443-85.654.217-128.482.197-7.298-.003-9.052-1.291-10.72-8.332 1.993-5.811 3.807-7.019 10.898-7.021 44.818-.012 89.637-.051 134.454.078 3.602.011 5.759-1.115 7.707-4.074 6.315-9.588 10.553-19.775 12.101-31.314 1.808-13.476-2.172-24.69-11.48-34.051-5.143-5.174-10.721-10.042-16.643-14.295-33.823-24.284-71.001-42.522-108.756-59.671-1.029-.468-2.64-.506-3.648-.034-9.926 4.647-19.781 9.444-30.382 14.207-15.281 8.106-30.994 15.503-45.723 24.51-15.573 9.523-30.425 20.285-45.162 31.091-7.343 5.383-12.67 12.871-14.73 22.012-4.285 19.024 2.385 35.282 13.356 50.301.545.746 2 1.168 3.031 1.167 18.65-.022 37.3-.133 56.851-.028ZM232.966 441.5c0-6.493.102-12.989-.071-19.477-.045-1.69-.447-3.854-1.538-4.958-12.156-12.301-24.48-24.437-36.838-36.697-12.434 12.324-24.865 24.567-37.145 36.961-.983.991-1.286 3.017-1.291 4.564-.078 23.807.026 47.616-.137 71.422-.026 3.816 1.201 4.757 4.857 4.732 22.142-.151 44.287-.206 66.428.028 4.825.051 5.873-1.719 5.818-6.129-.208-16.48-.083-32.964-.083-50.446Z" fill="#030302"/>
        <path d="M422.065 199.344h44.259c0 5.198-.01 10.125.003 15.052.013 4.852 1.864 8.351 7.341 9.516.336 6.442.336 12.756.339 19.534-6.531 2.55-7.678 4.206-7.68 11.884-.009 57.774-.005 115.547-.005 173.321v37.23c-14.79 0-29.07 0-43.834-.518-.511-2.514-.559-4.509-.559-6.505-.004-84.177-.004-168.354.003-252.531 0-2.328.087-4.656.133-6.983Z" fill="#FEE9B8"/>
        <path d="M421.601 199.251c.418 2.42.331 4.748.331 7.076-.007 84.177-.006 168.354-.003 252.531 0 1.995.048 3.991.097 6.439-5.62.452-11.263.452-17.259.452V199.158c5.526 0 10.948 0 16.834.093Z" fill="#D9C08E"/>
        <path d="m428.899 70.813 6.473-9.916c10.139 14.389 20.014 28.358 29.802 42.388.704 1.009 1.098 2.453 1.104 3.698.075 14.812.048 29.624.048 44.746h-5.433c0-5.764-.161-11.547.05-17.317.173-4.738-1.412-8.314-5.301-11.11-4.594-3.302-8.965-6.913-13.464-10.35-5.525-4.221-7.929-4.234-13.326-.126-2.118 1.613-4.198 3.276-6.898 4.713-.187-6.743-.335-13.378.776-19.796 1.569-9.061 4.068-17.962 6.169-26.93Z" fill="#FCE7B6"/>
        <path d="M422.072 167.411h55.286v16.571c-18.198 0-36.3 0-54.881-.523-.455-5.698-.43-10.873-.405-16.048Zm-.038 313.764h55.481v16.648c-18.339 0-36.439 0-55.008-.527-.471-5.724-.472-10.923-.473-16.121Z" fill="#E8BC98"/>
        <path d="M428.595 70.97c-1.797 8.811-4.296 17.712-5.865 26.773-1.111 6.418-.963 13.053-1.1 19.895-10.6 6.16-13.3 15.609-11.638 27.083.326 2.252.047 4.591.047 7.104h-5.632c0-11.384.511-22.675-.161-33.894-.547-9.143 1.788-16.624 7.577-23.711 5.968-7.307 11.017-15.364 16.772-23.25Z" fill="#D8BF8D"/>
        <path d="M421.608 167.313c.439 5.273.414 10.449.406 16.081-9.431.457-18.878.457-28.619.457v-16.636c9.255 0 18.502 0 28.213.098Z" fill="#CA9F78"/>
        <path d="M421.568 481.102c.467 5.271.468 10.47.48 16.112-9.433.445-18.877.445-28.63.445v-16.631c9.195 0 18.439 0 28.15.074Z" fill="#CBA17A"/>
        <path d="M444.849 150.608c-5.992.74-11.856 1.147-17.722 1.184-.689.004-1.904-1.989-1.991-3.125-.266-3.457-.129-6.948-.095-10.425.057-5.856 5.365-7.162 9.016-9.438 1.243-.775 4.449 1.423 6.675 2.442 4.124 1.888 4.683 5.423 4.363 9.484-.247 3.128-.094 6.288-.246 9.878Z" fill="#301F1F"/>
        <path d="M167.857 297.938c1.854 6.334 3.608 7.622 10.906 7.625 42.828.02 85.659.246 128.482-.197 8.204-.085 14.04 2.017 19.475 8.112 7.306 8.193 15.576 15.521 23.255 23.392 1.351 1.385 2.601 3.615 2.606 5.458.137 50.993.108 101.987.095 152.981 0 .64-.147 1.28-.262 2.223H247.972v-5.262c0-24.663.158-49.329-.182-73.988-.047-3.421-1.713-7.602-4.058-10.081-13.736-14.528-27.877-28.674-41.923-42.907-5.722-5.798-8.997-5.791-14.68-.02-14.032 14.248-27.98 28.578-42.073 42.765-2.911 2.931-4.142 6.099-4.121 10.231.124 24.497.061 48.994.061 73.491v6.07c-15.495 0-30.757 0-46.48-.535-.47-28.075-.48-55.615-.028-83.232 7.434-.083 14.407-.02 21.377-.117 6.37-.088 9.15-2.822 9.184-9.118.072-12.947.237-25.902-.151-38.838-.083-2.772-1.646-6.33-3.738-8.066-8.799-7.296-18.058-14.038-27.11-21.331.54-1.196 1.043-2.046 1.545-2.897l16.392-27.77c8.604-.118 17.207-.29 25.812-.334 4.999-.026 8.773-1.567 10.452-7.342 6.955-.316 13.281-.314 19.606-.313Zm154.604 56.098c-6.445-4.989-12.901-9.962-19.329-14.972-3.805-2.965-7.55-2.983-11.363-.015-7.874 6.129-15.971 11.996-23.535 18.485-2.215 1.899-4.059 5.496-4.157 8.379-.441 12.966-.246 25.956-.17 38.937.038 6.335 2.793 9.066 9.216 9.094 16.143.071 32.286.066 48.429.004 6.698-.025 9.446-2.766 9.483-9.372.062-11.317-.409-22.656.169-33.943.376-7.343-1.841-12.594-8.743-16.597Z" fill="#FDE8B7"/>
        <path d="M167.95 297.585c-6.418.352-12.744.35-19.541.346-2.676-6.327-4.482-7.634-11.15-7.727-2.448-.034-4.895-.063-7.798-.559-7.173-13.488-12.965-26.906-13.847-41.714-.468-7.855-1.022-16.219 1.069-23.617 6.919-24.471 24.479-41.673 42.419-58.411 1.506-1.404 2.621-3.226 3.918-4.855 9.875-4.755 19.73-9.552 29.656-14.199 1.008-.472 2.619-.434 3.648.034 37.755 17.149 74.933 35.387 108.756 59.672 5.922 4.252 11.5 9.12 16.643 14.294 9.308 9.361 13.288 20.575 11.48 34.051-1.548 11.539-5.786 21.726-12.101 31.314-1.948 2.959-4.105 4.085-7.707 4.074-44.817-.129-89.636-.09-134.454-.078-7.091.002-8.905 1.21-10.991 7.375Z" fill="#EF9E00"/>
        <path d="M111.537 305.784c-5.014 9.4-10.478 18.657-15.942 27.913-.502.851-1.006 1.701-1.96 2.914-3.05 1.171-6.08 1.384-8.174 2.893-7.811 5.632-15.29 11.724-22.948 17.571-3.126 2.386-4.703 5.278-4.655 9.346.147 12.63.017 25.264.067 37.896.028 6.955 2.686 9.566 9.687 9.64 8.805.093 17.61.125 26.415.184.01 27.54.019 55.08.032 83.066-19.08.446-38.163.446-57.832.446v-5.612c0-49.253.034-98.507-.074-147.76-.007-3.435.918-5.87 3.402-8.259 9.354-8.995 18.398-18.315 27.822-27.234 1.811-1.715 4.797-3.001 7.275-3.061 12.139-.293 24.29-.105 36.885.057Z" fill="#DEC491"/>
        <path d="M232.966 442c0 16.982-.125 33.466.083 49.946.055 4.41-.993 6.181-5.818 6.129-22.141-.234-44.286-.179-66.428-.027-3.656.025-4.883-.917-4.857-4.733.163-23.806.059-47.615.137-71.422.005-1.547.308-3.573 1.291-4.564 12.28-12.394 24.711-24.637 37.145-36.961 12.358 12.26 24.682 24.396 36.838 36.697 1.091 1.104 1.493 3.268 1.538 4.958.173 6.488.071 12.984.071 19.977Z" fill="#322020"/>
        <path d="M162.657 161.052c-.934 1.624-2.049 3.447-3.555 4.851-17.94 16.738-35.5 33.94-42.419 58.411-2.091 7.398-1.537 15.762-1.069 23.617.882 14.808 6.674 28.226 13.397 41.615-18.645.458-37.295.569-55.945.591-1.03.001-2.486-.421-3.031-1.167-10.97-15.019-17.64-31.277-13.355-50.301 2.059-9.141 7.386-16.629 14.729-22.012 14.737-10.806 29.589-21.568 45.162-31.091 14.729-9.007 30.442-16.404 46.086-24.514Z" fill="#D28702"/>
        <path d="M228.448 89.288c-7.651 8.088-16.696 13.403-27.918 15.072-23.788 3.537-46.583-14.307-49.909-38.13-2.077-14.879 5.637-32.364 15.23-39.148 0 2.066.098 3.771-.014 5.463-2.218 33.599 23.251 58.946 56.861 56.563 1.657-.118 3.313-.261 5.356-.093.386.3.394.273.394.273Z" fill="#F8D040"/>
        <path d="M228.468 89.324c-.133-.202-.294-.413-.455-.625.082.064.165.128.341.39.094.199.086.226.114.235Z" fill="#F8D040"/>
        <path d="M322.739 354.26c6.624 3.779 8.841 9.03 8.465 16.373-.577 11.287-.107 22.626-.169 33.943-.037 6.606-2.785 9.347-9.483 9.372a5878.14 5878.14 0 0 1-48.429-.004c-6.423-.028-9.178-2.759-9.216-9.094-.076-12.981-.271-25.971.17-38.936.098-2.884 1.942-6.481 4.157-8.38 7.564-6.489 15.661-12.356 23.535-18.485 3.813-2.968 7.558-2.95 11.363.016 6.428 5.009 12.884 9.982 19.607 15.195Zm-16.233 6.738c-8.904-7.227-8.492-6.592-17.809-.542-7.955 5.165-11 11.318-9.831 20.556.735 5.808.137 11.785.137 17.951 11.927 0 22.895.09 33.856-.144 1.063-.023 2.915-2.003 2.982-3.158.32-5.47-.436-11.046.284-16.439 1.108-8.306-1.825-13.996-9.619-18.224ZM94.489 414.064a2152.7 2152.7 0 0 1-26.877-.107c-7-.074-9.659-2.685-9.687-9.64-.05-12.632.08-25.266-.067-37.896-.048-4.068 1.53-6.96 4.655-9.346 7.658-5.847 15.137-11.939 22.948-17.571 2.094-1.509 5.124-1.722 8.137-2.546 9.504 6.929 18.763 13.671 27.562 20.967 2.092 1.736 3.655 5.294 3.738 8.066.388 12.936.223 25.891.151 38.838-.034 6.296-2.814 9.03-9.184 9.118-6.97.097-13.943.034-21.376.117Zm15.193-45.527c-5.434-4.305-10.762-8.759-16.4-12.779-1.026-.733-3.699-.248-4.952.623a130.466 130.466 0 0 0-12.47 9.819c-1.404 1.254-2.66 3.464-2.729 5.285-.297 7.8.022 15.621-.194 23.426-.096 3.461 1.35 4.161 4.43 4.114 9.47-.148 18.947-.167 28.416.008 3.265.06 4.352-1.003 4.272-4.273-.208-8.471-.112-16.949-.373-26.223Z" fill="#010101"/>
        <path d="M306.767 361.243c7.532 3.983 10.466 9.673 9.358 17.979-.72 5.393.036 10.969-.284 16.439-.067 1.155-1.919 3.135-2.982 3.158-10.961.234-21.929.144-33.856.144 0-6.165.598-12.142-.137-17.951-1.169-9.238 1.876-15.391 9.831-20.556 9.317-6.05 8.905-6.685 18.07.787ZM109.8 368.937c.143 8.874.047 17.352.255 25.823.08 3.27-1.007 4.333-4.272 4.273-9.47-.175-18.946-.156-28.416-.009-3.08.048-4.526-.652-4.43-4.113.216-7.805-.103-15.626.194-23.426.07-1.821 1.325-4.031 2.728-5.285 3.94-3.523 8.131-6.801 12.47-9.819 1.254-.871 3.927-1.356 4.954-.623 5.637 4.02 10.965 8.474 16.517 13.179Z" fill="#312020"/>
    </g>
    <defs>
        <clipPath id="a">
            <path fill="#fff" d="M0 0h519v528H0z"/>
        </clipPath>
    </defs>
</svg>
