<svg xmlns="http://www.w3.org/2000/svg" fill="none" viewBox="0 0 381 374">
  <g fill="#009B9F">
    <path d="M234.224 228.755c-.64.579-1.433.646-2.157.864-.69.207-.943.548-.873 1.24.23 2.296.033 4.603.255 6.909.207 2.149.133 4.327.129 6.493-.005 3.08.046 6.166-.112 9.24-.37 7.188-.997 14.352-2.86 21.343-.729 2.733-1.678 5.391-2.982 7.989-.486-.453-.413-.971-.42-1.466-.033-2.407.018-4.817-.119-7.218-.17-2.976-.186-5.953-.288-8.929a195.055 195.055 0 0 0-.58-10.054c-.511-5.917-1.1-11.827-1.882-17.717-.277-2.09-.535-4.187-.675-6.29-.063-.944-.406-1.438-1.245-1.861-3.657-1.843-7.393-3.532-10.912-5.647-3.984-2.393-7.607-5.254-11.037-8.358a1553.98 1553.98 0 0 1-16.178-14.831c-3.736-3.477-7.446-6.981-11.282-10.345-6.295-5.522-12.621-11.011-19.555-15.747-.937-.641-1.844-1.358-3.007-1.603-.181.473.195.657.36 1.023.087.129.132.173.228.3.907.986 1.764 1.889 2.669 2.876.094.13.138.177.237.305 1.95 2.101 3.632 4.292 5.279 6.633.09.133.135.18.233.308 1.304 1.798 2.388 3.62 3.521 5.528.213.17.197.347.291.556.228.386.409.708.618 1.118.071.136.114.184.204.316.449.867.851 1.65 1.274 2.532.055.154.089.209.159.354.655 1.31 1.123 2.591 1.589 3.98.035.154.069.2.117.331.245.886.475 1.686.699 2.597-.829.704-1.25-.001-1.692-.452-2.767-2.824-5.619-5.563-8.276-8.499-2.068-2.286-4.343-4.387-6.537-6.56-12.956-12.83-25.706-25.865-38.545-38.811-7.744-7.808-15.655-15.454-23.245-23.409-7.56-7.924-15.472-15.497-23.135-23.316-.608-.62-1.52-1.16-1.013-2.363 2.445 1.346 4.628 3.021 6.967 4.646.123.092.173.111.266.2.52.371.998.674 1.519 1.06.181.407.502.488.862.671 2.125 1.192 3.93 2.689 5.889 3.961.32.208.624.441 1.012.725.132.094.187.126.307.226 2.14 1.491 4.214 2.913 6.366 4.398.132.094.187.127.309.228 1.172.816 2.277 1.563 3.462 2.37.134.094.188.129.313.231 2.14 1.49 4.21 2.912 6.36 4.395.134.095.188.13.313.232 2.141 1.491 4.212 2.915 6.361 4.401.133.095.188.127.309.228 3.399 2.359 6.73 4.65 10.138 7.004.131.095.186.127.307.227 2.14 1.492 4.214 2.915 6.366 4.402.132.094.187.126.307.225 2.139 1.492 4.214 2.915 6.366 4.401.132.095.187.126.307.227.49.219.754.706 1.38.629.361-.125.594-.293.935-.423 1.763-.924 3.547-1.609 5.428-2.345 1.822 1.327 3.219 2.994 4.772 4.498a319.813 319.813 0 0 1 5.624 5.609c.457.465 1.061.885.852 1.772-1.937.935-1.958.988-.435 2.234 5.173 4.233 10.383 8.421 15.53 12.684a2039.752 2039.752 0 0 1 17.345 14.545c6.785 5.751 13.479 11.606 20.168 17.469 4.194 3.676 8.379 7.374 13.274 10.148 1.508.856 3.02 1.698 4.753 2.329.576.276.975.612 1.353.991 4.692 4.699 9.406 9.376 14.099 14.075.535.536 1.182 1.017 1.261 1.968Z"/>
    <path d="M63.51 97.967c-.058.804.404 1.235.856 1.684 2.397 2.38 4.787 4.767 7.18 7.152 3.588 3.577 7.244 7.091 10.753 10.744 8.79 9.15 17.983 17.904 26.787 27.034 7.871 8.162 16.13 15.936 23.948 24.141 7.723 8.105 15.893 15.763 23.619 23.856 2.795 2.927 5.748 5.703 8.439 8.728.174.196.373.295.723.324 1.318 5.754 1.316 11.511.088 17.249-.566 2.641-2.001 4.846-3.835 6.816-2.753 2.956-6.044 5.189-9.635 7.174-.554-.031-.918-.249-1.23-.56-2.164-2.158-4.391-4.255-6.456-6.508-.542-.591-1.09-1.213-1.287-2.142.277-1.016 1.134-1.239 1.849-1.592 4.901-2.415 9.637-5.113 14.165-8.167 2.696-1.818 2.752-1.942 1.507-4.906-2.845-6.765-6.826-12.815-11.594-18.392-7.432-8.694-16.156-15.996-24.934-23.248-.707-.584-1.438-1.143-2.111-1.761-.857-.786-1.618-.803-2.567-.132-4.57 3.233-9.198 6.385-13.452 10.037-1.684 1.445-3.422 2.827-5.013 4.378-.52.507-1.092.963-1.995.897-2.847-2.677-5.334-5.575-8.061-8.386a1.26 1.26 0 0 1-.117-.41c.017-.251.053-.39.148-.621 2.552-2.907 5.42-5.349 8.144-7.937 3.008-2.856 5.997-5.735 9.12-8.468.884-.774.262-1.221-.335-1.695-2.798-2.223-5.67-4.351-8.523-6.501-15.654-11.802-31.192-23.756-46.886-35.506-.89-.666-1.827-1.267-2.698-1.955-.807-.638-1.43-.518-2.124.208-2.12 2.218-3.628 4.865-5.348 7.366-.891 1.296-1.358 2.9-2.858 3.866-1.814.835-3.287.291-4.719-.874 2.117-3.861 4.72-7.326 7.286-10.815 1.111-1.511 2.222-3.024 3.38-4.499.294-.376.45-.71.359-1.168-1.54-7.683.182-14.964 2.748-22.141.08-.226.176-.448.343-.736.57-.413 1.023-.223 1.388.11 1.7 1.55 3.37 3.131 4.848 4.9.276.33.483.718.372 1.284-1.161.85-2.296 1.572-3.385 2.359-.718.519-.686.736.085 1.237a275.618 275.618 0 0 1 11.028 7.576Zm13.989 172.418c-.015.185-.041.284-.103.351-2.113 2.319-2.25 2.495-1.872 5.626.202 1.681.175 3.358.223 5.031.14 4.899.97 9.633 2.889 14.162 1.897 4.48 4.3 8.663 8.12 11.763 4.502 3.651 9.696 6.088 15.263 7.693 1.989.574 4.061.78 6.128.894 1.008.056 2.001.316 3.145.249 4.104 3.951 8.053 7.9 11.987 11.864.437.441.871.908.977 1.67-.465.491-1.019.26-1.531.308-4.428.419-8.875.407-13.306.247-4.562-.164-9.11-.53-13.487-2.123-6.958-2.533-12.741-6.579-16.922-12.715-3.428-5.03-5.616-10.596-6.712-16.578-.719-3.921-1.129-7.872-1.294-11.86-.095-2.302-.237-4.602-.271-6.908-.01-.65-.17-1.298-.274-2.046-1.37.736-2.485 1.645-3.61 2.538-1.997 1.586-3.953 3.226-5.987 4.763-1.738 1.314-3.649 2.33-5.801 2.839-1.96.464-3.94.394-5.9.138-5.835-.761-10.445-3.743-14.29-8.035-1.963-2.191-3.777-4.485-5.085-7.15-1.481-3.021-2.201-6.224-2.568-9.54-.265-2.4-.255-4.806-.163-7.203.146-3.844.815-7.621 1.782-11.348a95.883 95.883 0 0 1 4.138-12.374c.782-.619 1.331-.189 1.845.246.796.674 1.492 1.459 2.387 2.191.301.796-.02 1.414-.243 2.045-1.75 4.959-3.537 9.929-4.021 15.196-.623 6.779-.443 13.421 3.298 19.563 3.244 5.323 7.459 6.732 13.774 5.38 2.403-.514 4.528-1.656 6.41-3.233 3.887-3.257 7.582-6.72 11.182-10.286.578-.572 1.089-1.243 2.035-1.497.206.002.324.01.376.079 2.212 2.907 5.029 5.251 7.48 8.06Zm244.586 25.116c-2.341 2.782-5.247 4.636-8.456 6.032-4.772 2.076-9.764 3.27-14.984 3.286-7.177.024-12.975-2.864-17.346-8.523-2.381-3.083-4.779-6.17-6.269-9.822-.242-.591-.682-.462-1.082-.349-1.111.315-2.221.642-3.307 1.031-1.541.553-3.06 1.166-4.704 1.757-.839-.333-1.268-.993-1.782-1.547-1.949-2.099-3.881-4.212-5.932-6.216-.432-.422-.93-.868-.654-1.691.98-.537 1.904-.983 2.932-1.443.189-.12.299-.18.53-.218a941.679 941.679 0 0 0 5.799-2.831c.259-.127.519-.255.77-.398 1.403-.798 1.544-1.045 1.237-2.67-.454-2.403-.971-4.793-1.435-7.194-.71-3.673-1.211-7.369-1.42-11.112-.092-1.632-.105-3.26-.176-4.889-.043-.972.275-1.901.244-2.987.897-.755 1.443-.082 1.99.402 1.06.937 1.939 2.084 3.334 2.794.554.755.423 1.559.54 2.312.836 5.38 2.519 10.486 4.99 15.336.793 1.557.99 1.622 2.55.793 1.451-.771 2.866-1.607 4.279-2.445.539-.321 1.069-.668 1.832-.702 1.312.664 2.07 1.806 3.038 2.719 1.078 1.017 2.12 2.071 3.262 3.16-.813 1.833-2.081 3.279-3.298 4.753-1.408 1.706-2.958 3.286-4.539 4.835-1.422 1.393-1.366 1.368-.194 2.959 1.381 1.875 2.965 3.531 4.865 4.876 3.063 2.167 6.53 3.228 10.234 3.517 4.55.355 9.005-.136 13.3-1.758.764-.289 1.521-.593 2.386-.9.839-.162 1.417.176 1.903.644 1.857 1.784 3.49 3.781 5.309 5.602.201.202.303.484.254.887Z"/>
    <path d="M124.385 329.799c-2.46-2.37-4.789-4.736-7.128-7.091-1.666-1.677-3.348-3.337-5.019-5.008-.37-.371-.817-.702-.818-1.41 1.873-.015 3.76.052 5.628.06 6.534.029 12.97-.73 19.178-2.95 1.335-.478 2.109-1.245 2.373-2.695.5-.096.814.137 1.087.41 3.599 3.607 7.357 7.061 10.676 11.054-2.026 1.19-4.223 1.915-6.331 2.843-1.209.533-1.212.497-1.232 1.862-.059 3.905.207 7.772 1.388 11.527.945 3.003 2.22 5.847 4.288 8.265 3.636 4.252 8.829 6.165 14.52 3.691 2.942-1.279 5.59-3.021 8.151-4.906 3.108-2.287 6.046-4.778 8.67-7.614 1.763-1.904 3.488-3.842 5.311-5.806.541-.223.947-.08 1.274.23 1.912 1.81 3.824 3.621 5.563 5.602.16.183.218.422.307.755-1.793 2.446-3.851 4.598-5.845 6.806-2.327 2.576-4.788 5.027-7.306 7.413-2.337 2.213-4.689 4.424-7.55 6.004-.986.545-2.013.962-3.102 1.13-3.349.519-6.737.702-10.052-.06-3.867-.889-7.255-2.815-10.225-5.441-5.106-4.516-7.802-10.393-9.456-16.831-.585-2.276-1.009-4.593-1.522-6.888-.126-.561-.3-1.113-.478-1.66-.191-.586-.526-.766-1.208-.655-3.653.595-7.312 1.165-11.142 1.363Zm185.356-175.795c-.199-.368-.213-.668-.185-1.084-.02-.161-.054-.21-.11-.344a31.85 31.85 0 0 1-.18-1.959c-.02-.173-.054-.222-.109-.356-.757-5.933-1.487-11.78-2.233-17.625-.923-7.22-1.87-14.437-2.786-21.657-.633-4.991-1.214-9.989-1.852-14.98-.808-6.318-1.65-12.632-2.479-18.948-.331-2.519-.666-5.037-1.004-7.554a3.568 3.568 0 0 1 .322-2.084c.955-1.993 1.85-4.015 2.806-6.009.325-.678.653-1.39 1.399-1.813.924.913 1.546 1.998 2.213 3.048 5.46 8.601 9.114 17.981 12.01 27.686.273.916.527 1.846.504 2.828-.014.63-.337.751-.839.596-.806-.25-1.406-.824-1.994-1.389-.87-.836-1.705-1.707-2.572-2.546-.262-.254-.459-.63-.996-.63-.261 1.272-.043 2.552.034 3.808.229 3.73.543 7.456.856 11.181.344 4.105.696 8.211 1.094 12.311.623 6.436 1.264 12.87 1.955 19.3.687 6.383 1.518 12.75 2.182 19.136.208 1.999.507 3.988.758 6.104-.744.821-1.487.524-2.054-.03-2.29-2.239-4.763-4.305-6.74-6.99Zm-75.412 74.856c-3.299-3.42-6.699-6.631-9.987-9.953-1.9-1.919-3.826-3.811-5.732-5.724-.369-.37-.83-.677-.985-1.329.414-.601.237-1.2.197-1.748-.156-2.14-.362-4.276-.547-6.541-.026-.188-.055-.248-.118-.401a537.077 537.077 0 0 1-.753-7.986c-.026-.187-.054-.247-.117-.401-.519-4.407-1.001-8.721-1.488-13.034-.428-3.794-.861-7.586-1.264-11.504.765-.611 1.221-.036 1.637.375 2.978 2.941 5.984 5.854 8.941 8.959.464 3.074.896 6.06 1.268 9.053.531 4.278 1.019 8.562 1.522 12.843.028.238.026.48.035.846.026.185.055.244.116.397.08.662.129 1.23.174 1.92.026.181.055.241.116.394.175 1.248.319 2.402.454 3.679.084.266.11.429.153.672.066.459.108.84.147 1.335.026.175.055.234.116.387.147.653.309 1.207.364 1.772.078.803.482 1.209 1.386 1.278.173.044.235.064.385.129 2.4.082 4.7-.019 6.998-.315 3.221-.416 6.088-1.722 8.84-3.341 1.909-1.123 3.732-2.366 5.429-3.796.912-.769 1.319-1.706 1.352-2.883.049-1.731-.118-3.448-.264-5.166-.157-1.858-.369-3.711-.549-5.69.941-.473 1.447.223 1.982.731 2.054 1.954 3.975 4.046 6.153 6.015-.037 4.048-1.251 7.716-2.798 11.301-2.124 4.922-5.604 8.666-10.114 11.492-4.079 2.557-8.313 4.807-13.049 6.234Zm104.106-64.454a7958.058 7958.058 0 0 1-2.967-20.839c-.901-6.404-1.745-12.817-2.688-19.215-.755-5.118-1.224-10.304-2.558-15.304-1.063-3.984-.272-7.595 1.229-11.191.584-1.4 1.151-2.829 2.032-4.24 2.789 4.674 5.581 9.162 8.146 13.783 2.032 3.659 3.999 7.35 5.517 11.258.836 2.152 1.542 4.347 2.044 6.599.138.617.517 1.446-.183 1.858-.587.347-1.13-.286-1.622-.64-1.714-1.232-3.272-2.674-5.17-3.885-.39 1.097-.111 2.136-.021 3.128.274 3.002.65 5.996 1.005 8.99.61 5.136 1.232 10.27 1.982 15.389.751 5.119 1.424 10.249 2.13 15.375.118.854.227 1.71.33 2.687a.65.65 0 0 0 .119.432 1233.63 1233.63 0 0 1 1.872 13.256c-.753.769-1.417.414-1.906-.145-2.179-2.493-4.649-4.7-6.928-7.094-.41-.43-.564-.993-.984-1.523-.582-1.672-.582-3.355-.869-4.993-.182-1.035-.27-2.087-.39-3.254a.661.661 0 0 0-.12-.432ZM37.166 235.152c-.9.095-1.259-.551-1.767-.97-.686-.565-1.09-1.509-2.241-1.605.179-1.534 1.003-2.859 1.53-4.298.397-1.082.876-2.134 1.31-3.202.4-.981.403-.995-.576-1.479-1.513-.749-3.069-1.417-4.549-2.225-5.982-3.265-10.852-7.661-13.882-13.864-1.37-2.803-1.896-5.836-2.223-8.9-.106-.997-.21-1.998-.233-3.011-.135-5.882.95-11.564 2.723-17.137 1.284-4.036 2.9-7.941 4.855-11.807.805-.364 1.252.147 1.691.574.865.84 1.743 1.665 2.727 2.534.298.809-.048 1.418-.302 2.036-1.836 4.46-3.644 8.928-4.692 13.659-1.192 5.385-1.59 10.799-.09 16.161 1.568 5.602 5.051 9.389 11.053 10.313 3.769.581 7.27-.388 10.619-2.118 4.133-2.136 7.991-4.702 11.826-7.311.558-.38 1.092-.805 1.902-.92.73.02 1.187.372 1.6.775a565.04 565.04 0 0 1 6.903 6.875c.338.341.64.713.75 1.31-.097.857-.668 1.251-1.204 1.659-6.014 4.581-12.303 8.724-19.4 11.455-2.452.944-4.018 2.554-4.99 4.89-.74 1.781-1.603 3.508-2.369 5.278-.21.483-.375 1.001-.97 1.328Zm117.119-98.703c2.239-.331 4.403-.296 6.566-.058.189.021.373.097.562.126 1.137.17 1.174.153 1.031-.972-.359-2.819-1.175-5.538-1.905-8.272-1.289-4.822-2.648-9.626-3.998-14.554.878-.997 1.597-.349 2.224.227 1.384 1.269 2.757 2.561 3.977 3.988 2.567 3.004 5.579 5.577 8.299 8.576 1.28 1.865 2.338 3.751 3.622 5.498 3.216 4.378 7.088 8.082 11.443 11.311a64.714 64.714 0 0 1 3.158 2.517c1.787 1.508 2.718 3.45 2.803 5.783.122 3.362.19 6.719-.54 10.039-.511 2.325-.723 2.439-2.524.955-3.166-2.608-6.485-4.968-10.193-6.773-3.307-1.61-6.759-2.762-10.342-3.556-.281-.063-.559-.138-.946-.24-2.315-1.603-4.105-3.627-5.927-5.584-2.159-2.32-4.398-4.556-6.6-6.831-.552-.57-1.252-1.137-.71-2.18Zm123.769 1.931a136.913 136.913 0 0 1-.712-5.701c-.082-.27-.106-.432-.15-.673a507.995 507.995 0 0 1-.731-6.819c-.027-.186-.054-.246-.116-.399-.178-1.439-.32-2.785-.455-4.257-.081-.269-.104-.431-.149-.671-.474-3.773-.908-7.47-1.376-11.163-.413-3.265-.868-6.524-1.296-9.787a287.02 287.02 0 0 1-.669-5.522c.04-.994.613-.784 1.092-.626.464.152.801.522 1.14.863 2.671 2.691 5.426 5.3 8.082 8.154.785 4.942 1.509 9.8 2.22 14.659.317 2.171.606 4.346.908 6.642.027.182.054.241.115.393.37 2.493.707 4.893 1.045 7.415.027.182.055.242.115.393.087.327.107.574.199.792.228.538.545.588.991.182.651-.593 1.117-1.326 1.603-2.039.704-1.032 1.313-2.129 2.035-3.148.387-.545.404-.953.048-1.522a101.444 101.444 0 0 1-2.785-4.717c-.693-1.256-1.381-2.516-1.45-4.026a7.005 7.005 0 0 1 .927-3.862c1.041-1.847 2.429-3.353 4.345-4.301 1.717-.849 3.253-.553 4.625.78 1.683 1.637 2.289 3.763 2.569 5.97.342 2.691.156 5.365-.751 7.959a20.433 20.433 0 0 0-1.158 6.628c-.009 1.258-.071 1.361-1.295 1.317-1.11-.039-1.919.39-2.677 1.151-2.381 2.396-4.327 5.152-6.579 7.785-.072.143-.085.204-.148.345.052.835.154 1.591.256 2.463.027.177.055.237.117.39a72.73 72.73 0 0 1 .428 3.713c-.632.683-1.265.415-1.713-.001-2.983-2.772-5.996-5.517-8.65-8.76Z"/>
    <path d="M282.8 101.747c-.691.166-1.059-.31-1.465-.715-2.456-2.446-4.903-4.9-7.372-7.331-.374-.37-.691-1.026-1.489-.513-.541-1.532-.627-3.206-.867-4.851a1799.175 1799.175 0 0 0-2.813-18.762c-1.171-7.483-2.52-14.935-3.837-22.392-.668-3.785.391-7.21 1.833-10.591a20.75 20.75 0 0 1 1.392-2.685c.757-1.236 1.173-1.231 1.875.008a479.43 479.43 0 0 1 4.703 8.442c2.563 4.74 4.941 9.57 6.839 14.62 1.184 3.15 2.115 6.379 2.883 9.655.129.552.354 1.296-.096 1.603-.533.364-1.069-.263-1.482-.623-1.377-1.203-2.705-2.463-4.06-3.691-.49-.444-.967-.922-1.762-1.142.227 1.55.435 3.001.652 4.45.669 4.454 1.348 8.906 2.009 13.36.837 5.639 1.662 11.279 2.489 16.918a148 148 0 0 1 .568 4.24Zm-84.4 177.222c1.193-1.131 2.271-2.232 3.464-3.191.662-.533.709-.977.439-1.72-1.461-4.02-2.889-8.056-4.681-11.943-3.262-7.073-6.594-14.113-9.878-21.176-1.581-3.4-3.101-6.828-4.688-10.225-.529-1.131-.694-2.264-.534-3.496.337-2.582.924-5.098 1.834-7.538.101-.27.217-.536.343-.794 1.095-2.234 1.764-2.384 3.573-.712 2.269 2.096 4.302 4.421 6.406 6.675 2.299 2.463 4.541 4.977 6.795 7.481.836.929 1.655 1.882 2.274 2.974.243.429.655.885.278 1.448-.386.577-.991.551-1.568.492-1.027-.104-1.938-.568-2.845-1.016-.779-.385-1.546-.801-2.386-1.029-.675-.183-.893.029-.75.733.345 1.704 1.02 3.301 1.672 4.904 1.958 4.815 4.456 9.381 6.578 14.122 1.599 3.573 2.907 7.256 3.202 11.163.383 5.051.3 10.091-1.906 14.847-.569 1.226-1.267 2.373-1.983 3.614-.625.446-1.112.177-1.525-.137a20.248 20.248 0 0 1-3.921-3.925c-.319-.423-.534-.912-.193-1.551Zm1.719-219.899c1.084-1.606 2.452-2.825 3.643-4.199 2.583-2.98 5.302-5.849 7.369-9.236 1.784-2.925 1.786-5.144-.709-8.652-.925-1.301-2.398-1.738-3.924-1.881-2.313-.217-4.639-.147-6.954-.071-3.894.127-7.778.443-11.62 1.141-1.136.207-2.269.432-3.521.642-.166.027-.213.061-.347.114-.217.052-.348.084-.581.109-2.655-2.397-5.085-4.91-7.54-7.397-.464-.47-.952-1.004-.48-1.867.547-.247 1.062-.393 1.679-.54.15-.034.198-.068.332-.122 2.028-.55 3.971-1.08 6.025-1.627.171-.045.23-.073.382-.133 5.907-1.565 11.729-3.06 17.616-4.295 3.369-.707 6.73-1.238 10.121-.195 3.017.927 5.331 2.82 7.184 5.314.473.637.566 1.399.615 2.184.359 5.717-1.037 11.04-3.579 16.116-.926 1.848-1.876 3.683-3.02 5.535-.044.133-.017.183-.073.253-1.018 1.444-1.953 2.869-2.948 4.373-.094.133-.13.186-.231.31-1.704 2.55-3.55 4.878-5.48 7.254-.44.318-.84.282-1.137.029-1.064-.912-2.274-1.696-2.822-3.16Zm109.543 94.963c.598-.027.903.436 1.271.801a630.89 630.89 0 0 1 5.494 5.481c.53.538 1.072.956 1.99.831.724 3.877 1.097 7.784 1.579 11.677.564 4.561 1.15 9.12 1.705 13.683.428 3.517.811 7.04 1.236 10.558.644 5.323 1.316 10.643 1.958 15.967.522 4.325 1.007 8.655 1.529 12.981.539 4.468 1.107 8.932 1.651 13.4.076.618.085 1.245.116 1.997-.668.656-1.244.256-1.674-.154-2.287-2.182-4.679-4.267-6.689-6.864-.479-3.255-.89-6.433-1.291-9.613-.537-4.271-1.07-8.544-1.598-12.816-.417-3.372-.81-6.747-1.241-10.117-.643-5.03-1.32-10.055-1.966-15.085-.415-3.227-.79-6.459-1.201-9.687-.763-5.979-1.544-11.956-2.308-17.936a159.53 159.53 0 0 1-.561-5.104Zm30.063 19.108c.253-.099.505-.064.664.136 1.747 2.189 3.898 3.989 5.821 6.008.563.592 1.161 1.144 1.61 1.843.35.545.859.912 1.682.841.583 1.619.678 3.302.903 4.957.769 5.649 1.544 11.298 2.105 16.972.387 3.911.673 7.829.966 11.748.559 7.489.462 14.987.578 22.484.106 6.858-1.939 13.14-4.678 19.282a5 5 0 0 1-.433.745c-.043.065-.164.078-.335.152-.61-.893-.633-1.954-.734-2.963-.231-2.287-.385-4.583-.56-6.876-.285-3.727-.563-7.455-.84-11.183-.323-4.351-.608-8.705-.97-13.052-.415-4.964-.877-9.924-1.353-14.883-.701-7.295-1.436-14.585-2.553-21.834-.678-4.403-1.21-8.829-1.804-13.245-.045-.332-.055-.67-.069-1.132Zm-68.446 75.895c-.726.09-1.213-.138-1.642-.592-.693-.734-1.425-1.431-2.14-2.143-.341-.34-.667-.706-1.314-.703.257-6.082 1.865-11.74 5.695-16.604 2.091-2.654 4.848-4.199 8.242-4.56 1.289-.137 2.559-.191 3.873-.079 2.935.251 5.05 1.741 6.76 3.962 4.053 5.263 6.572 11.146 7.286 17.78.939 8.725-1.294 16.649-6.051 24.031-.532.066-.927-.05-1.255-.381-1.579-1.596-3.165-3.185-4.741-4.784-.093-.095-.116-.258-.187-.488-.119-.949.583-1.249 1.098-1.628.936-.688 1.854-1.384 2.616-2.266 1.214-1.404 1.969-3.013 1.778-4.883-.586-5.717-2.597-10.849-6.71-14.977-3.432-3.444-7.861-2.96-10.63 1.028-1.181 1.7-1.769 3.62-2.075 5.64-.085.566-.053 1.163-.603 1.647ZM208.784 132.31a12.078 12.078 0 0 1-.197-1.655c-.02-.168-.055-.215-.106-.347a211.556 211.556 0 0 1-.483-4.279c-.082-.269-.107-.432-.15-.675-.606-4.976-1.201-9.871-1.762-14.771-.355-3.094-.661-6.193-.985-9.289-.357-3.427-.714-6.854-1.059-10.282-.028-.28-.044-.606.066-.85 1.067-2.363 1.895-4.837 3.302-7.04.075-.117.185-.21.334-.376.565.225.855.708 1.176 1.174 2.376 3.454 4.369 7.132 6.377 10.802a83.374 83.374 0 0 1 6.674 15.92c.375 1.239.725 2.487.839 3.785.025.286.069.58.027.858-.094.636-.453.848-1.003.54-.542-.304-1.029-.707-1.532-1.079-1.306-.964-2.474-2.127-4.101-2.871-.225 1.209-.034 2.322.082 3.424.442 4.191.913 8.378 1.371 12.693.026.185.055.244.115.398.56 4.537 1.089 8.98 1.592 13.546-.569.534-.946.152-1.267-.19-3.001-3.199-6.243-6.161-9.31-9.436Zm51.626 67.522c-.777.137-1.232-.275-1.686-.732-1.63-1.643-3.277-3.269-4.912-4.907-.444-.445-.884-.889-1.561-1.187-.784-5.549-1.464-11.056-2.185-16.559-.82-6.262-1.69-12.518-2.516-18.78-.82-6.216-1.613-12.435-2.414-18.653-.593-4.603-1.181-9.207-1.776-13.81-.024-.188-.097-.369-.126-.67.68-.634 1.093-.115 1.479.277 2.312 2.35 4.679 4.645 7.081 7.052.572 1.722.634 3.447.879 5.14.893 6.163 1.745 12.332 2.592 18.501.729 5.317 1.413 10.64 2.15 15.955.606 4.365 1.314 8.716 1.875 13.087.408 3.183.854 6.363 1.057 9.576.119 1.875.126 3.742.063 5.71Zm-68.028 138.815c-.512.008-.644-.402-.912-.662-2.026-1.963-3.899-4.082-6.161-5.952 1.398-1.858 2.894-3.675 4.398-5.486 3.684-4.435 7.279-8.945 11.148-13.224 5.839-6.457 12.294-12.189 19.914-16.684.676.03 1.135.305 1.551.733 2.012 2.076 4.097 4.08 6.118 6.148.487.498 1.141.955.859 1.919a348.421 348.421 0 0 1-7.486 4.24c-2.685 1.478-4.959 3.486-7.216 5.515-2.908 2.615-5.634 5.417-8.368 8.205a256.942 256.942 0 0 0-13.095 14.429c-.217.258-.452.501-.75.819ZM143.45 223.514c2.694 3.388 5.948 6.095 8.834 9.28-2.001 1.457-4.253 2.451-6.481 3.465-7.866 3.58-16.066 6.275-24.254 9.001-2.742.913-5.453 1.922-8.285 2.887-2.72-2.488-5.246-5.062-7.767-7.64-.339-.346-.597-.758-.616-1.375.343-.85 1.06-1.066 1.721-1.346 8.269-3.5 16.758-6.443 25.073-9.828 3.174-1.292 6.354-2.568 9.477-3.981.692-.314 1.384-.72 2.298-.463Zm27.651-98.035c-.506.135-.88-.135-1.233-.489-2.203-2.207-4.52-4.313-6.587-6.64-1.531-1.724-3.199-3.301-4.77-4.978-.479-.511-.988-.916-1.869-.777-1.984-6.345-3.693-12.736-4.52-19.321-.208-1.662-.292-3.347-.314-5.023-.047-3.51.078-7.023-.04-10.53-.127-3.73 1.462-6.782 3.46-9.723.325-.478.64-.553.958-.004.41.707.842 1.403 1.217 2.128 3.488 6.749 6.946 13.513 10.037 20.455.191.43.346.874.535 1.359-.806.255-1.383-.2-2.003-.383-.969-.283-1.91-.669-2.888-.915-.826-.208-.892-.106-.939.742-.091 1.643.197 3.26.411 4.872.698 5.28 1.686 10.508 3.144 15.639 1.33 4.68 3.055 9.204 5.401 13.588ZM150.48 322.262c-.734-.253-1.301-.612-1.73-1.144-2.472-3.067-5.492-5.605-8.195-8.448-.593-.624-1.191-1.244-1.834-1.952.392-2.115 1.266-3.994 2.009-6.032.132-.233.133-.393.229-.594 1.417-3.899 2.954-7.676 4.55-11.429.094-.221.181-.445.348-.734.755-.338 1.146.157 1.526.534.696.691 1.509 1.275 2.077 2.223-.802 2.123-1.874 4.052-2.486 6.172-.45 1.559-.903 3.116-1.392 4.784-.056.169-.075.227-.137.366-.151 1.499-.82 2.846-.618 4.516 8.213-3.095 15.919-7.01 23.712-10.966.815-.053 1.369.264 1.868.762 2.186 2.182 4.385 4.35 6.552 6.55.398.404.861.807.721 1.589-2.692 1.903-5.522 3.436-8.35 4.962-5.789 3.125-11.751 5.9-17.799 8.492-.307.132-.63.226-1.051.349Zm120.916-117.837c-1.515-1.494-2.949-2.915-4.097-4.606-.392-.577-.41-.962-.05-1.544 1.82-2.949 3.588-5.93 5.394-8.889.574-.94.615-.946 1.55-.392 2.162 1.282 4.109 2.858 6.055 4.435 1.495 1.212 2.935 2.493 4.522 3.59 1.21.838 1.27.823 2.222-.26 1.436-1.634 2.495-3.54 3.829-5.247.354-.454.727-.901 1.14-1.302.991-.961 2.105-1.09 3.284-.332.686.44 1.35.94 1.932 1.508a537.468 537.468 0 0 1 6.466 6.436c.404.408.732.891 1.101 1.335.823.99.988 2.094.412 3.226-1.427 2.801-3.042 5.474-5.599 7.433-.266.204-.56.371-.843.553-.606.391-1.117.332-1.686-.165-2.249-1.961-4.533-3.88-6.808-5.811-.954-.811-1.92-1.607-2.875-2.417-.444-.376-.821-.375-1.206.102-.995 1.236-2.022 2.446-3.013 3.686-.961 1.203-1.928 2.404-2.823 3.656-.433.606-.786.623-1.435.321-2.301-1.069-4.297-2.562-6.2-4.202-.401-.346-.8-.695-1.272-1.114Z"/>
    <path d="M229.346 305.515c-.151-.624-.63-.983-1.034-1.387-1.867-1.866-3.743-3.723-5.605-5.595-.574-.577-1.113-1.189-1.759-1.86 1.905-1.429 4.045-2.535 6.177-3.651 8.286-4.333 16.943-7.854 25.516-11.557 1.592-.687 3.18-1.381 4.878-2.084.153.629.624 1 1.042 1.385 2.33 2.146 4.33 4.606 6.565 6.842.308.308.602.623.679 1.195-2.773 1.29-5.567 2.453-8.349 3.646-6.105 2.617-12.165 5.333-18.141 8.231-3.293 1.597-6.577 3.211-9.969 4.835Zm6.337-238.28c-.525-1.063-.472-2.146-.589-3.18-.603-5.338-1.66-10.602-2.529-15.897-.636-3.876-1.127-7.775-1.698-11.66-.691-4.707.793-8.903 2.564-13.081.182-.43.344-1.014.875-1.066.574-.056.707.566.956.954 1.666 2.591 3.109 5.31 4.582 8.011a328.715 328.715 0 0 1 4.825 9.195c2.019 3.998 3.612 8.163 4.706 12.511.189.753.286 1.508.087 2.456-2.849-1.026-4.852-3.235-7.481-4.975.266 8.157 1.21 16.05 2.214 24.055-.532.605-1.038.323-1.41-.041-2.395-2.352-4.96-4.54-7.102-7.282ZM104.869 239.124a3077.1 3077.1 0 0 1 7.354 7.425c.396.402.912.735.931 1.495-2.718 1.204-5.455 2.272-8.158 3.418-6.233 2.642-12.229 5.715-17.646 9.821-3.55 2.69-6.707 5.788-9.743 9.152-.547.018-.876-.255-1.179-.573-1.981-2.078-4.194-3.935-5.961-6.219-.27-.348-.546-.665-.56-1.239-.146-.977.523-1.409 1.013-1.905 6.563-6.638 13.988-12.118 22.304-16.384 3.222-1.652 6.452-3.291 9.777-4.732.569-.247 1.122-.603 1.868-.259Zm-78.4-69.311c-.772.074-1.158-.367-1.581-.769-.837-.794-1.562-1.707-2.616-2.42.703-1.985 1.835-3.757 2.886-5.777 1.002-1.741 1.862-3.352 2.825-4.901.448-.722.518-1.364.294-2.168-.695-2.491-1.35-4.99-1.568-7.587-.454-5.423.555-10.59 2.579-15.604 1.515-3.752 3.455-7.28 5.637-10.778.412-.016.743.005 1.071.053.691.1 1.065.926 1.71.916.619-.009 1.19-.558 2.015-.38.56.904-.028 1.6-.4 2.287-1.762 3.259-2.922 6.693-3.271 10.392-.266 2.821-.027 5.587.998 8.232.822 2.121 1.974 2.384 3.776.965 1.138-.897 2.085-2.002 3.128-3.003.593-.569 1.208-1.11 1.937-1.501.523-.28 1.091-.527 1.64-.152.596.409.6 1.084.499 1.708-.381 2.355-1.244 4.552-2.423 6.61-2.494 4.356-5.85 7.979-9.7 11.181-2.457 2.044-4.7 4.292-6.306 7.224-.156.278-.27.456-.4.747-.569 1.201-1.135 2.286-1.6 3.42-.214.521-.451 1.045-1.13 1.305Z"/>
    <path d="M235.586 67.281c.619-.08.939.372 1.309.74 1.942 1.927 3.875 3.864 5.819 5.79.367.364.678.832 1.379.858.604 3.846 1.098 7.688 1.619 11.526.547 4.029 1.13 8.053 1.679 12.081.524 3.84 1.021 7.683 1.534 11.524.406 3.035.819 6.069 1.228 9.227.027.184.055.244.117.397.47 3.445.906 6.797 1.332 10.271a.654.654 0 0 0 .119.432c.069.562.119 1.058.161 1.678-.728.217-1.157-.243-1.594-.695-2.093-2.164-4.34-4.178-6.342-6.433-.114-.128-.33-.167-.595-.253-.626-3.843-1.155-7.681-1.686-11.518-.545-3.932-1.102-7.861-1.636-11.794-.533-3.934-1.037-7.872-1.567-11.806-.633-4.691-1.289-9.378-1.916-14.07-.349-2.608-.66-5.22-.96-7.955Zm-88.122-19.275c-2.501 1.196-5.122 1.979-7.69 2.905-7.773 2.803-15.525 5.66-23.229 8.645-.85.33-1.706.642-2.668.964-1.753.424-2.914-.311-3.994-1.472-1.496-1.608-3.125-3.092-4.642-4.683-.674-.708-1.282-1.476-.569-2.619 4.017-1.877 8.076-3.388 12.116-4.941 7.275-2.797 14.616-5.412 22.083-7.98 3.065 2.908 6.021 5.812 8.593 9.18Z"/>
    <path d="M147.579 48.11c-1.275-.79-2.252-1.81-3.122-2.876-1.434-1.756-3.117-3.257-4.67-4.89-.361-.379-.807-.705-.803-1.412 3.227-1.36 6.542-2.373 9.835-3.446 8.736-2.847 17.583-5.327 26.554-7.793.094.722.516 1.221 1.013 1.711a948.146 948.146 0 0 1 6.045 6.022c.4.402.919.738.938 1.501-2.867.9-5.754 1.646-8.608 2.504-8.985 2.7-17.933 5.521-26.789 8.624-.09.032-.189.04-.393.056Zm172.162 186.33c.429-.141.703.053.996.355 1.875 1.93 3.784 3.827 5.675 5.741.447.451.922.844 1.667.99.591.887.428 1.881.55 2.809.663 5.03 1.207 10.076 1.809 15.114.366 3.064.393 6.145.255 9.211-.255 5.704-.782 11.383-2.655 16.84-1.276 3.722-3.14 7.106-5.895 10.065-.439-.353-.778-.751-1.136-1.131-1.141-1.213-2.399-2.306-3.414-3.649-.714-.946-1.639-1.728-2.777-2.38 2.425-1.457 4.933-2.883 7.104-4.815.179-.159.394-.282.557-.454.623-.66 1.691-1.034 1.929-1.86.251-.873.005-1.901-.083-2.856-.254-2.765-.537-5.527-.811-8.29-.488-4.908-.963-9.817-1.472-14.722-.598-5.762-1.177-11.525-1.944-17.268-.158-1.187-.247-2.382-.355-3.7Zm-141.979 74.095a7.338 7.338 0 0 0-.769-.901c-2.527-2.516-5.053-5.034-7.584-7.546-.169-.168-.382-.291-.675-.495 3.557-2.179 7.246-4.246 10.809-6.525 6.326-4.046 12.369-8.47 18.025-13.409.253-.221.481-.472.809-.744.034.482.282.893.594 1.259 1.417 1.666 2.809 3.362 4.884 4.445-1.245 2.581-3.019 4.836-4.928 6.995-4.419 4.998-9.569 9.155-15.039 12.935-1.976 1.366-4.015 2.64-6.126 3.986ZM104.646 51.67c-.064 1.04.356 1.803 1.127 2.518 1.445 1.339 2.832 2.743 4.194 4.167 1.005 1.053 1.983 2.092 3.699 2.12-2.225 1.194-4.696 1.99-7.1 2.95-7.991 3.192-15.945 6.473-23.834 9.908-.528.23-1.048.479-1.677.72-2.243-2.074-4.42-4.114-6.362-6.382-.37-.432-.763-.88-.792-1.606 2.557-1.638 5.312-2.776 7.98-4.08 4.181-2.043 8.424-3.963 12.661-5.89 3.319-1.508 6.669-2.948 10.104-4.425Zm104.06 80.672c.656.023 1.146.391 1.597.842 2.514 2.516 5.024 5.035 7.565 7.523.438.43.593 1.129 1.37 1.336.556 1.976.671 3.983.936 5.968.778 5.825 1.539 11.652 2.288 17.48.535 4.172 1.039 8.348 1.56 12.521.059.473.133.943.175 1.53-.77-.035-1.288-.524-1.8-1.037-2.468-2.47-4.94-4.935-7.419-7.393-.368-.365-.675-.819-1.318-.982-.563-2.023-.681-4.079-.95-6.112a2819.266 2819.266 0 0 1-2.274-17.624c-.549-4.363-1.056-8.731-1.586-13.096-.034-.283-.109-.56-.144-.956Zm69.271 6.081c.657-.06.989.457 1.392.856 2.294 2.274 4.581 4.555 6.864 6.839.552.551 1.103 1.089 2.052 1.145.573 1.335.502 2.744.628 4.115.295 3.204.288 6.43.473 9.638.18 3.133.021 6.244-.204 9.339-.41 5.655-1.56 11.203-3.208 16.635-.198.652-.397 1.38-1.101 1.909-.664-1.053-.655-2.224-.746-3.316-.295-3.536-.429-7.086-.718-10.623-.343-4.199-.699-8.395-1.298-12.573-.545-3.795-1.049-7.593-1.787-11.357-.194-.987-.341-1.988-.75-2.966-.811.057-1.402.579-2.013 1.008-3.152 2.215-6.24 4.524-9.548 6.511-1.113.668-2.256 1.288-3.399 1.905-.499.269-1.032.476-1.882.544.77-1.362 1.723-2.286 2.647-3.197 3.363-3.314 6.779-6.575 10.159-9.872.62-.604 1.177-1.272 1.747-1.925.811-.928 1.123-1.984.83-3.209-.099-.416-.101-.855-.138-1.406Zm-128.402 156.3c-.664.023-1.009-.396-1.389-.764a106.56 106.56 0 0 0-2.166-2.05c.351-1.472 1.099-2.763 1.692-4.121.237-.544.218-.892-.206-1.388-1.347-1.577-2.887-2.961-4.333-4.437-.944-.963-1.76-2.028-2.623-3.057-.697-.831-.876-1.654-.363-2.632 1.454-2.777 3.115-5.401 5.417-7.576.676-.638 1.428-.737 2.265-.415.179.069.348.166.52.251.643.317 1.301.913 1.924.878.727-.04 1.158-.928 1.7-1.461 2.368-2.33 4.714-4.68 7.159-7.063 1.094.473 1.762 1.34 2.486 2.279-2.664 2.894-5.629 5.401-8.599 7.958.985 1.379 2.243 2.433 3.266 3.69.636.782 1.285 1.554 1.915 2.34 1.07 1.337 1.019 2.721.159 4.139-1.021 1.684-2.112 3.321-3.227 4.945-1.899 2.769-4.029 5.389-5.597 8.484Z"/>
    <path d="M161.776 263.228c-1.22-.338-1.934-1.163-2.494-2.276 2.176-2.522 4.376-4.937 6.566-7.361 1.261-1.396 2.34-2.93 3.317-4.532.859-1.409.853-1.75-.56-2.529-2.143-1.182-2.909-3.106-3.174-5.322-.323-2.695.309-5.243 1.404-7.695.635-1.419 1.447-2.707 2.616-3.765 1.683-1.524 3.456-1.714 5.212-.313 1.981 1.58 3.277 3.576 3.464 6.222.171 2.411-.004 4.806-.26 7.183-.226 2.102.198 3.877 1.605 5.459 1.136 1.278 1.169 2.783.695 4.339-.455 1.488-1.301 1.825-2.596.902-.975-.695-1.825-1.562-2.73-2.353-.18-.157-.358-.317-.647-.574-4.106 4.224-8.137 8.481-12.418 12.615Zm99.225 53.903c1.549.589 2.959 1.189 4.18 2.175.773.624 1.362 1.388 1.728 2.275.603 1.46.606 2.909-.438 4.226-.356.449-.698.908-1.063 1.384-1.495-.953-2.746-2.099-4.227-2.908-.379-.207-.761-.438-1.171-.56-1.227-.362-1.894.031-2.001 1.306-.153 1.816-.32 3.631-.324 5.462a57.91 57.91 0 0 1-1.81 14.242c-.214.839-.46 1.678-.904 2.427-.43.725-.85.725-1.243-.017-.584-1.1-1.119-2.228-1.651-3.355-1.151-2.443-2.39-4.822-4.153-6.909-1.715-2.029-3.701-3.45-6.463-3.643-1.211-.084-2.108-.898-2.89-1.778-1.663-1.872-1.983-4.108-1.696-6.484.075-.614.239-1.223.418-1.818.472-1.561 1.357-2.033 2.968-1.615 1.143.297 2.11.923 3.036 1.625 2.524 1.914 4.583 4.261 6.333 6.875 1.071 1.598 2.038 3.266 3.052 4.903.32.516.611 1.059 1.275 1.403.61-1.046.625-2.15.737-3.223.279-2.669.47-5.344.852-8.006.447-3.114 1.988-5.564 4.21-7.681.335-.319.657-.575 1.245-.306ZM129.137 116.617c.367.52.672.952 1 1.367.083.105.236.156.473.303.457-1.304.472-2.623.578-3.922.282-3.441.466-6.9 1.46-10.233.785-2.635 2.095-4.964 4.405-6.596 1.724-1.219 3.123-1.13 4.718.246 2.427 2.092 2.881 5.191 1.162 7.628-.362.514-.679.607-1.176.252a42.454 42.454 0 0 0-1.673-1.14c-.567-.365-1.12-.774-1.734-1.037-1.633-.698-2.906-.07-3.324 1.632-.183.742-.274 1.512-.34 2.275-.333 3.875-.5 7.759-.715 11.641-.172 3.105-.361 6.225-1.092 9.273-.125.518-.28 1.022-.552 1.48-.35.588-.673.633-1.082.074-.824-1.127-1.534-2.329-2.233-3.539-1.417-2.456-2.696-4.994-4.453-7.248-1.201-1.542-2.759-2.302-4.675-2.512-2.659-.292-4.571-1.629-5.609-4.143-.783-1.898-.545-3.772.109-5.623.301-.852.961-1.268 1.915-1.23 2.17.088 4.006.998 5.67 2.285 1.532 1.185 2.777 2.657 3.972 4.172 1.135 1.441 2.11 2.992 3.196 4.595ZM73.803 65.971c1.994 2.423 4.258 4.506 6.422 6.682.338.34.718.656.722 1.3-1.511 1.044-3.188 1.653-4.785 2.426-6.837 3.309-13.626 6.706-20.324 10.495-1.359-2.126-3.384-3.575-5.036-5.362-.384-.415-.736-.9-1.446-1.059-.05-.958.419-1.559 1.252-2.04 6.16-3.553 12.354-7.043 18.73-10.202 1.464-.725 2.91-1.486 4.465-2.24Zm80.436 70.383c.057.643.254 1.158.742 1.558.075.061.136.137.206.203 3.948 3.756 7.466 7.929 11.421 11.679.311.295.664.57.79 1.119-1.661.005-3.309-.33-4.988-.439-4.858-.313-9.594.344-14.268 1.598-.372.1-.741.205-1.22.316-.199-.623-.717-.947-1.115-1.345-2.977-2.981-5.967-5.95-8.945-8.93-.433-.433-.972-.801-1.104-1.585 5.926-2.287 12.068-3.577 18.481-4.174Zm-33.59 155.784c.013-3.555.11-6.961.945-10.295.368-1.468 1.005-2.79 2.171-3.831.555-.496 1.151-.736 1.849-.549 1.813.484 3.414 1.342 4.532 2.899 1.456 2.027 1.322 4.063-.439 6.605-2.039-1.066-3.667-2.886-5.943-3.578-.314.581-.393 1.087-.406 1.623-.082 3.463.262 6.916.259 10.375-.003 3.215-.027 6.439-.935 9.563-.249.854-.386 2.006-1.383 2.207-1.027.207-1.325-.966-1.803-1.624-1.413-1.946-2.534-4.089-4.026-5.989-.897-1.141-1.86-2.204-3.017-3.087a6.619 6.619 0 0 0-3.59-1.362c-2.09-.16-2.788-.712-3.093-2.717-.269-1.765-.242-3.541.433-5.249.461-1.168.834-1.362 2.083-1.119 1.066.208 1.992.705 2.863 1.31 2.365 1.641 4.1 3.884 5.858 6.11.94 1.191 1.786 2.482 3.189 3.46.431-1.595.479-3.098.453-4.752Zm74.671-178.375c-.033 3.366.047 6.599-.135 9.818-.133 2.342-.048 4.704-.451 7.03-.047.27.031.635-.336.709-.324.066-.492-.248-.693-.442-1.391-1.345-2.498-2.928-3.709-4.423-1.393-1.72-2.744-3.471-4.322-5.037-1.721-1.709-3.766-2.774-6.178-2.69-2.305.08-4.53-1.94-4.774-4.842-.057-.67-.017-1.341.184-1.997.348-1.138.99-1.563 2.179-1.297 1.666.372 3.151 1.188 4.619 2.023 3.085 1.757 5.801 3.975 8.228 6.555.33.352.683.682 1.037 1.01.057.053.174.043.377.086.236-1.839.44-3.675.712-5.5.42-2.819 1.151-5.549 2.497-8.088a11.282 11.282 0 0 1 2.059-2.771c.759-.75 1.573-.94 2.616-.561 3.475 1.263 3.65 3.326 3.194 6.615-.119.857-.816 1.13-1.672.793-.44-.174-.834-.474-1.233-.741-.69-.462-1.426-.822-2.248-.944-1.062-.158-1.594.19-1.687 1.258-.096 1.097-.359 2.184-.264 3.436ZM118.317 28.85c4.105-1.64 8.131-3.233 12.187-4.744 8.476-3.157 16.968-6.273 25.456-9.396.901-.332 1.788-.738 2.763-.807.933-.067 1.148.274.718 1.123-.128.255-.326.473-.486.713-1.944 2.913-4.729 4.687-7.916 6.011-9.377 3.898-18.874 7.498-28.293 11.29-.223.09-.447.18-.777.268-1.497-.793-2.454-2.048-3.51-3.193-.295-.32-.445-.734-.142-1.264Zm67.487 240.425c1.073 3.285.599 6.13-1.701 8.669-1.34 1.479-2.734 2.856-4.553 3.715-2.451 1.159-4.862 1.004-7.174-.403-1.236-.752-1.603-1.996-1.715-3.323-.181-2.161-.016-4.318.288-6.456.398-2.803.917-5.588 1.872-8.269.55-1.546.764-1.728 2.314-1.338 3.192.804 6.3 1.81 8.667 4.303a9.557 9.557 0 0 1 2.002 3.102Zm-76.203-4.227c3.181-1.616 6.426-2.834 9.602-4.208a13160.58 13160.58 0 0 1 25.608-11.04c.462-.198.964-.698 1.456-.231.548.52.046 1.093-.176 1.583-1.31 2.893-3.576 4.84-6.356 6.256-4.811 2.45-9.805 4.501-14.749 6.66-3.972 1.734-7.935 3.488-12.007 5.248-1.935-.382-3.723-2.623-3.378-4.268ZM217.49 57.96c4.182.112 7.638 1.548 10.215 4.756 1.943 2.42 2.02 5.128.891 7.893-1.264 3.095-3.569 5.201-6.608 6.535-1.978.868-3.706.441-5.364-.898-2.446-1.977-2.839-4.568-2.399-7.412.411-2.65.875-5.297 1.434-7.92.238-1.12.281-2.466 1.831-2.954Zm-17.42 1.05c1.37.962 2.285 2.377 3.826 3.225-1.515 2.345-3.414 4.447-5.285 6.561-5.984 6.764-12.169 13.352-17.96 20.287-.644.771-1.17 1.73-2.31 2.248-.027-1.296.364-2.356.736-3.41 1.859-5.273 4.784-9.942 8.209-14.322 3.435-4.391 7.137-8.555 10.929-12.64a73.697 73.697 0 0 1 1.855-1.95Z"/>
    <path d="M118.279 28.773c.042.647.5 1.009.881 1.432.88.978 2.017 1.722 2.686 3.005-1.74 1.006-3.616 1.633-5.445 2.367-8.623 3.458-17.262 6.877-25.896 10.31-.313.124-.628.244-.942.367-.235.091-.476.137-.664-.076-.196-.221-.08-.45.043-.66 1.319-2.259 2.823-4.364 4.996-5.906 1.78-1.263 3.773-2.142 5.733-3.06 6.062-2.838 12.285-5.303 18.608-7.78Zm123.54 234.005c.212-.273.36-.463.505-.655 1.524-2.032 1.526-2.034-.024-4.124a40.629 40.629 0 0 1-2.093-3.116c-.796-1.312-.667-2.555.071-3.811 1.403-2.386 3.364-4.185 5.811-5.468.385-.201.779-.383 1.165-.582 1.313-.678 1.319-.685 2.257.52.718.923 1.312 1.887 1.237 3.141-.076 1.258-.834 1.946-2.077 1.772-.581-.081-1.083-.39-1.616-.61-1.14-.471-3.339.643-3.62 1.833-.151.64.2 1.109.61 1.537 1.566 1.635 3.512 2.037 5.687 1.787 1.975-.228 3.839-.895 5.754-1.36.651-.158 1.446-.51 1.911.025.541.621-.038 1.35-.333 1.986-.5 1.078-1.341 1.864-2.268 2.575-1.808 1.387-3.868 2.349-5.843 3.453-1.6.894-3.133 1.855-4.546 3.054-1.388 1.177-3.03 2.001-5.181 1.906.521-1.619 1.716-2.58 2.593-3.863Zm-132.254 2.192c.053.642.235 1.185.736 1.65.868.803 1.381 1.945 2.512 2.635-3.804 1.909-7.68 3.72-11.528 5.587-1.341.651-2.635 1.408-3.913 2.178-1.296.78-1.329 1.007-.553 2.269.704 1.145 1.499 2.234 1.965 3.518.319.877.472 1.764.39 2.683-.107 1.215-.906 1.751-1.991 1.248-1.781-.826-3.2-2.126-4.378-3.68-.224-.296-.419-.68-.456-1.042-.31-2.973-.098-5.847 1.624-8.447.934-1.41 2.181-2.399 3.677-3.153a173.57 173.57 0 0 1 11.915-5.446Zm119.186-129.714c.503-1.439.857-2.823 2.148-3.842 0 .785.073 1.578-.014 2.353-.285 2.525-.418 5.058-.592 7.591-.115 1.682-.076 3.335.022 5.008.15 2.542 1.218 4.622 3.028 6.335 1.174 1.111 1.655.968 2.307-.496.351-.788.632-1.618 1.174-2.305.693-.878 1.18-.84 1.715.133.805 1.463 1.165 3.02.855 4.684-.158.848-.363 1.687-.556 2.527a5.105 5.105 0 0 1-.213.687c-1.318 3.422-4.997 4.05-7.365 1.225-2.001-2.385-3.101-5.212-3.518-8.245-.719-5.231-.434-10.431 1.009-15.655ZM95.426 99.742c-.36 1.021-.794 1.854-1.484 2.571-2.04 2.119-5.267 2.078-7.264-.546-1.37-1.801-1.765-3.907-1.907-6.086-.219-3.355.59-6.574 1.374-9.788.672-2.75 1.439-5.476 2.397-8.143.387-1.076.853-2.122 1.752-3.345.266 1.283.323 2.296.26 3.292-.136 2.157-.604 4.264-1.053 6.376-.63 2.964-1.087 5.945-.463 8.984a8.793 8.793 0 0 0 1.654 3.642c.789 1.027 1.114 1.091 2.352.625.769-.29 1.506-.64 2.187-1.1.206-.14.423-.207.748-.086-.114 1.16-.208 2.34-.553 3.604Zm20.615-16.372c.379-5.579 2.759-13.678 5.214-17.56.14 2.027.176 3.867-.105 5.69-.322 2.081-.758 4.146-1.141 6.218-.476 2.57-.623 5.138.116 7.684.393 1.353.997 2.594 2.07 3.573.37.337.699.444 1.155.21a37.27 37.27 0 0 1 1.955-.932c.982-.434 1.242-.29 1.244.722.003 1.768-.375 3.425-1.512 4.851-2.114 2.653-6.187 2.21-7.639-.273-.749-1.281-1.187-2.587-1.406-4.032-.305-2.017-.112-4.015.049-6.152Zm189.112 89.301c.349 2.95-.403 5.557-1.844 7.948-1.38 2.289-4.762 2.252-6.305.062-1.192-1.691-1.519-3.608-1.575-5.585-.065-2.304-.1-4.615.002-6.916a43.805 43.805 0 0 1 3.333-14.941c.074-.177.129-.366.23-.526.172-.272.31-.652.754-.487.337.127.304.455.311.737.026.972-.238 1.903-.457 2.835-.65 2.752-1.29 5.514-1.525 8.331-.223 2.679-.214 5.366.812 7.94.471 1.179 1.162 2.209 2.008 3.138.581.637.978.594 1.507-.12.54-.73.851-1.62 1.585-2.218.336-.274.624-.645 1.164-.198Zm1.449 100.168c-1.313-1.974-1.549-4.133-1.595-6.294-.099-4.648.852-9.156 2.102-13.602.454-1.614 1.046-3.193 1.628-4.768.275-.744.568-1.509 1.286-2.178.357.699.165 1.294.035 1.856-.536 2.336-1.196 4.648-1.509 7.028-.377 2.86-.502 5.727.172 8.569.361 1.52.966 2.921 2.137 4.014 1.034.965 1.722.829 2.307-.477.215-.481.332-1.006.543-1.489.149-.342.324-.78.794-.712.451.065.562.526.597.887.168 1.742.098 3.457-.744 5.058-.777 1.478-1.806 2.721-3.268 3.573-1.321.769-1.936.725-3.172-.185a7.035 7.035 0 0 1-1.313-1.28ZM198.866 161.874c.241-.222.483-.489.627-.16.172.391.073.832-.007 1.267-.596 3.251-1.135 6.512-1.747 9.759-.57 3.02-.018 5.814 1.535 8.438.098.165.207.325.323.479.771 1.03 1.245 1.112 2.256.274.702-.582 1.307-1.282 2.1-1.755.622-.371.852-.257.928.474.272 2.593-.475 4.848-2.327 6.705-1.669 1.674-3.76 1.719-5.561.178-1.54-1.319-2.282-2.9-2.414-4.993-.229-3.617-.251-7.187.683-10.708.9-3.388 1.904-6.745 3.604-9.958Zm20.672 192.504c-3.412 1.012-4.912-.686-5.587-2.683-.872-2.58-1.06-5.221-.802-7.945.456-4.81 1.746-9.424 3.039-14.045.116-.415.246-.834.435-1.22.152-.313.205-.85.733-.717.424.107.288.552.301.868.073 1.642-.173 3.255-.497 4.857-.601 2.966-1.204 5.926-1.059 8.985.079 1.663.4 3.236 1.268 4.67.197.325.438.636.707.905.681.676 1.174.708 1.876.082.654-.583 1.095-1.34 1.526-2.093.408-.712.871-1.383 1.431-1.984.236-.253.513-.483.885-.293.314.159.252.491.246.767-.058 2.504-.91 4.788-1.949 7.025-.544 1.171-1.36 2.088-2.553 2.821Zm61.667-37.836c-.188 1.504-.373 2.881-.542 4.259-.035.284-.075.594.002.859.498 1.71 1.035 3.409 2.098 4.877.733 1.013 1.009 1.021 1.932.181.686-.623 1.198-1.377 1.684-2.15.464-.737.986-1.423 1.629-2.013.181-.165.38-.325.638-.191.237.124.272.359.299.611.1.931-.106 1.836-.34 2.706-.579 2.144-1.579 4.096-2.694 6.029-1.313 2.275-4.85 1.891-6.197.09-1.204-1.611-1.623-3.45-1.711-5.404-.228-5.102.816-10.031 2.065-14.929.308-1.208.718-2.392 1.114-3.576.329-.984.395-1.034 1.231-1.611.441 1.437.076 4.523-1.208 10.262ZM256.831 89.098c.319 1.969.108 3.865.741 5.676.441 1.264 1.022 2.382 2.129 3.17 1.013.721 1.283.685 1.992-.308.419-.586.782-1.212 1.176-1.817.211-.323.421-.705.883-.616.451.086.522.527.63.885.616 2.053.09 3.988-.664 5.886a4.951 4.951 0 0 1-.904 1.471c-1.334 1.501-2.976 1.732-4.648.609-2.201-1.48-3.379-3.637-3.988-6.145-.576-2.373-.47-4.792-.238-7.18a41.684 41.684 0 0 1 2.514-10.764c.179-.47.298-1.008 1.028-1.312.261 1.814-.41 3.456-.414 5.137-.003 1.725-.152 3.45-.237 5.308Zm100.121 84.317c.434 1.351.885 2.569 1.66 3.63.788 1.078 1.127 1.113 2.239.313.195-.14.382-.298.594-.408.619-.323 1.116-.177 1.184.493.194 1.913.366 3.845-.885 5.547-.906 1.232-2.293 1.605-3.697.986-1.603-.706-2.553-2.017-3.231-3.534-1.368-3.064-1.594-6.292-1.26-9.587.362-3.577.951-7.12 1.61-10.651.282-1.506.618-3.002.949-4.499.071-.324.206-.639.346-.943a.47.47 0 0 1 .465-.279c.295.017.445.236.45.471.022.96.096 1.931-.014 2.88-.49 4.242-.966 8.48-.829 12.764.03.923.26 1.801.419 2.817ZM123.98 344.652c.56.611 1.073 1.122 1.53 1.68.472.575.845.627 1.382.036.905-.994 1.888-1.917 3.001-3.033.226 1.267.269 2.35-.012 3.392-.426 1.58-1.042 3.093-2.005 4.446-1.399 1.967-3.393 2.192-5.4.838-2.17-1.464-2.83-3.55-2.88-5.947-.071-3.413-.122-6.831.804-10.17.322-1.159.696-2.297 1.176-3.403.177-.405.338-.793.918-.961.395.708.488 1.48.486 2.282-.004 2.602.007 5.205-.005 7.808-.005 1.09.18 2.107 1.005 3.032Zm-62.804-46.161c-.045 1.625.351 2.997 1.198 4.218.577.831.87.898 1.854.623.743-.207 1.473-.465 2.223-.638.774-.178 1.071.094.982.873a28.005 28.005 0 0 1-.39 2.561c-.169.806-.502 1.582-1.072 2.178-1.048 1.095-2.22 2.229-3.884 1.704-1.861-.586-3.356-1.734-3.71-3.836-.33-1.951-.447-3.932-.275-5.895.238-2.733.8-5.411 1.969-7.93a17.982 17.982 0 0 1 2.207-3.549c.216-.275.426-.512.908-.579.231.541.046 1.064-.086 1.598-.508 2.051-1.367 4-1.716 6.1a14.597 14.597 0 0 0-.208 2.572Zm182.721-108.26a7346.26 7346.26 0 0 1-14.943 8.389 4.53 4.53 0 0 1-.52.252c-.746.302-.991.167-1.002-.599-.015-1.003.342-1.871 1.025-2.616 1.051-1.148 2.309-2.035 3.623-2.845 4.877-3.002 9.821-5.888 14.935-8.476.727-.368 1.469-.71 2.292-.815.516 1.516-.091 3.46-1.367 4.26-1.305.819-2.637 1.594-4.043 2.45ZM173.27 51.346c.281-.454.353-.919.823-1.195.52.212.498.693.535 1.16.105 1.354-.115 2.695-.332 4.01a41.908 41.908 0 0 0-.548 7.6c.024 1.443.44 2.752 1.286 3.903.883 1.202 1.661 1.265 2.773.292.471-.413.874-.907 1.367-1.288.788-.611 1.273-.41 1.342.54.19 2.631-.526 4.938-2.492 6.792-.361.34-.768.578-1.216.762-1.344.55-2.318.272-3.13-.912-.998-1.453-1.599-3.08-1.855-4.801-.845-5.691-.511-11.296 1.447-16.863ZM73.13 104.65c-.311.083-.682.111-.84-.442.253.051.523.206.84.442Zm57.068 38.138c-.081.269-.383.32-.745.411.073-.303.376-.333.745-.411Zm146.94-10.777c.106.069.184.22.237.457-.105-.069-.186-.222-.237-.457Zm-16.09 145.747c-.048.083-.171.157-.369.238.049-.078.171-.162.369-.238Zm-120.095 26.331c.022.098-.019.247-.121.446-.022-.098.018-.247.121-.446Zm87.049-94.717c-.104-.069-.18-.221-.234-.459.102.069.182.222.234.459Zm47.685-89.507c.106.069.183.22.236.456-.105-.068-.185-.221-.236-.456Zm-67.892 5.494c.105.069.182.222.236.459-.104-.068-.184-.222-.236-.459Zm-46.481 64.919c-.106-.039-.207-.16-.31-.361.105.039.209.159.31.361Zm48.249-135.282c-.078-.081-.041-.164.103-.254.032.06 0 .147-.103.254Zm138.238 113.586c-.087.006-.131-.074-.162-.234.056.008.12.084.162.234Zm-9.406-4.168c.086-.005.13.075.162.234-.056-.007-.12-.083-.162-.234ZM25.223 160.7c.035-.008.04.109.011.119-.03.011-.046-.111-.011-.119Zm192.598-32.288c-.08-.001-.138-.075-.183-.222.077.001.141.075.183.222Zm91.584 24.144c.079-.01.121.056.155.193-.083.026-.144-.036-.155-.193Zm-.286-2.317c.077-.008.118.058.151.194-.08.025-.14-.038-.151-.194Zm-21.072-6.791c-.082 0-.141-.074-.187-.221.078.001.145.074.187.221Zm-160.118-.875c-.077.073-.159.038-.248-.102.08-.088.164-.056.248.102Zm-23.789-16.487c-.078.073-.16.037-.25-.103.082-.091.167-.059.25.103Zm108.556-75.817c-.082-.04-.081-.094.002-.162.089.04.089.094-.002.162Zm-28.662-13.303c-.007-.073.06-.113.194-.148.023.078-.039.137-.194.148Zm67.727 93.153c-.086.005-.13-.075-.161-.234.056.007.12.083.161.234Zm35.852 10.49c-.103-.048-.099-.139.029-.262.084.055.069.139-.029.262ZM145.462 306.051c-.092-.054-.08-.139.03-.258.113.052.105.139-.03.258Zm62.986-175.767c.071-.005.109.061.143.193-.075.021-.132-.041-.143-.193Zm-87.193 7.662c-.077.073-.158.038-.247-.101.08-.089.163-.057.247.101Zm56.233-110.873c.006.074-.06.113-.194.15-.024-.079.039-.138.194-.15Zm6.405-1.778c0 .081-.073.14-.219.185.001-.078.074-.143.219-.185Zm103.281 106.006c-.082-.001-.14-.074-.185-.218.078 0 .143.073.185.218Zm-172.592 2.017c-.077.074-.158.038-.248-.101.081-.089.165-.056.248.101Zm113.686 77.802c-.079-.001-.137-.075-.184-.22.076.001.141.074.184.22Zm-64.701-16.485c-.115.039-.176-.029-.193-.203.073-.004.14.063.193.203Zm52.662.122c.081.001.138.075.187.222-.076-.001-.143-.075-.187-.222Zm-50.977 4.194c-.066.004-.102-.062-.135-.192.072-.018.126.044.135.192Zm120.761-75.458c-.081-.001-.139-.074-.185-.219.078.001.143.073.185.219Zm-58.905 79.24c-.08-.001-.137-.075-.184-.221.076.002.141.075.184.221Zm-10.008.411c.081 0 .138.074.186.221-.076-.001-.142-.074-.186-.221Zm10.298 1.903c-.08-.001-.137-.075-.184-.221.076.001.141.075.184.221Zm22.93-85.603c-.082-.001-.141-.075-.187-.221.078.001.144.074.187.221Zm-88.196 72.298c-.1.049-.169-.008-.216-.171.096-.052.171.004.216.171ZM90.8 116.825c-.079.072-.16.034-.253-.105.058-.03.146.002.254.105Zm139.596 97.432c.041.064-.102.086-.102.086s-.135-.054-.177-.112c.052-.052.145-.044.279.026ZM87.021 114.228c-.078.074-.16.038-.25-.102.082-.091.167-.059.25.102Zm-6.677-4.624c-.077.073-.158.038-.247-.101.08-.089.164-.057.247.101Zm195.942 15.164c.082.001.141.075.187.221-.078-.001-.145-.074-.187-.221ZM70.738 102.972c-.05.032-.108-.006-.189-.097.058-.065.126-.038.19.097Zm86.765 81.247c-.097.051-.167-.004-.226-.161.066-.017.146.035.226.161Zm-5.512-6.941c-.097.051-.167-.005-.226-.161.066-.017.146.035.226.161Zm-2.911-3.178c-.097.054-.168 0-.223-.158.066-.017.143.034.223.158Zm-51.606-52.648c-.08.072-.16.034-.254-.105.059-.031.146.002.254.105Zm-40.421 80.437c1.654-1.435 3.409-2.824 5.25-4.258.129-.091.17-.135.292-.226 3.502-2.92 6.953-5.759 10.29-8.733 3.66-3.262 7.333-6.508 10.893-9.88a605.713 605.713 0 0 1 7.247-6.727c.558.114.887.464 1.24.791 2.288 2.121 4.293 4.51 6.464 6.741.274.282.477.598.573 1.108-1.238 1.57-2.784 2.724-4.153 4.067-1.816 1.781-3.749 3.444-5.597 5.194-4.431 4.196-8.908 8.343-13.49 12.375-3.243 2.854-6.52 5.673-10.074 8.301-.333-.268-.544-.593-.812-.861-2.372-2.379-4.752-4.75-7.138-7.116-.27-.268-.587-.488-.985-.776ZM91.35 171.84c-.007-.061.066-.163.232-.284.012.068-.07.156-.232.284Zm-62.416-7.458c.092.127.015.258-.167.416-.01-.095.047-.233.167-.416Zm89.342 43.791a1939.167 1939.167 0 0 0-5.002 6.294c-.729.921-.727.932-1.721.37-4.369-2.47-8.202-5.555-11.224-9.6-.489-.655-.48-1.126-.083-1.79 1.702-2.85 3.352-5.731 5.037-8.591.695-1.181.869-1.243 2.032-.565 2.633 1.533 4.947 3.5 7.305 5.406 1.161.939 2.312 1.89 3.496 2.798.777.596.865.582 1.509-.174.498-.585.951-1.212 1.382-1.848 1.186-1.756 2.346-3.528 3.711-5.156 1.184-1.411 1.757-1.534 3.294-.447.94.665 1.831 1.413 2.675 2.197 2.788 2.594 5.511 5.255 8.106 8.044.414.444.611.76.198 1.344-1.724 2.436-3.245 5.012-5.191 7.296-1.837 2.155-2.543 2.323-4.801.577-2.321-1.796-4.528-3.738-6.787-5.613-.593-.492-1.215-.952-1.788-1.466-.526-.472-.981-.553-1.44.065-.2.27-.426.521-.708.859ZM94.284 220.08c-.807 1.119-1.06 1.193-2.013.565-.398-.263-.74-.613-1.098-.933-.538-.481-1.042-1.004-1.608-1.449-.983-.773-1.288-.654-1.697.532-.6 1.737-.86 3.544-1.08 5.352-.418 3.423-.74 6.859-1.166 10.282-.23 1.854-.522 3.706-1.148 5.484-.178.503-.364.993-.743 1.477-.8-.278-1.036-1.044-1.397-1.676-1.026-1.793-1.886-3.678-3.012-5.418a35.201 35.201 0 0 0-2.027-2.799c-1.091-1.37-2.501-2.019-4.262-2.06-3.197-.074-5.309-2.03-5.702-5.207-.2-1.614.026-3.168.803-4.61.86-1.594 1.879-1.943 3.47-1.13 1.913.978 3.495 2.4 4.895 3.999 1.931 2.205 3.79 4.474 5.684 6.713.212.25.385.56.859.61.507-1.487.594-3.062.748-4.613.324-3.248.685-6.487 1.577-9.639.315-1.112.73-2.193 1.371-3.166.727-1.102 1.297-1.32 2.56-.974 2.352.644 4.06 2.123 5.339 4.141.429.678.564 1.38.27 2.182-.264.717-.397 1.483-.623 2.337Zm-43.522 19.138c.54-1.403 1.03-2.705 1.57-3.987.24-.573.562-1.116.877-1.654.238-.406.532-1.023 1.02-.845.628.23.145.851.06 1.253-.598 2.863-1.28 5.709-1.875 8.573-.301 1.451-.652 2.926-.67 4.394a12.758 12.758 0 0 0 1.53 6.219c.44.825.78.878 1.448.232.69-.665 1.287-1.426 1.92-2.148.408-.464.81-.935 1.292-1.492 1.053 2.816.59 5.352-.74 7.807-.092.168-.21.322-.32.48-2.13 3.096-4.678 2.842-7.074.311-1.567-1.655-1.92-3.826-1.97-6.027-.063-2.768.637-5.423 1.344-8.063.446-1.668 1.034-3.297 1.588-5.053Zm13.586-76.836a585.497 585.497 0 0 0 5.183-6.857c.685-.922.656-.937-.129-1.755-1.467-1.531-2.976-3.033-3.841-5.018-1.642-3.767-1.524-7.394 1.054-10.723 1.488-1.923 3.582-2.857 5.975-3.148.39-.047.763.041 1.13.183 1.671.645 2.886 2.437 2.936 4.237.084 3.083-.34 6.141-.453 9.215-.024.654.073 1.072.482 1.526 1.16 1.286 2.346 2.556 3.17 4.1.727 1.364 1.381 2.754 1.487 4.331.013.188.159.4.105.553-.182.522-.013 1.231-.656 1.518-.55.246-1.029-.071-1.477-.364-1.217-.795-2.233-1.831-3.342-2.755-1.56-1.3-1.586-1.315-2.739.272-1.189 1.636-2.29 3.337-3.493 4.962-2.094 2.827-4.428 5.454-7.002 7.986-.482.362-.838.163-1.112-.106-.746-.733-1.613-1.364-2.128-2.44 1.505-1.863 3.037-3.617 4.637-5.444.094-.124.12-.173.213-.273Z"/>
    <path d="M59.39 168.023c1.074.347 1.621 1.248 2.367 1.917.246.221.352.584.798.722-1.012 1.682-2.558 2.936-3.977 4.292-2.952 2.822-5.953 5.597-9.15 8.149a227.85 227.85 0 0 1-13.351 9.856c-.69.472-1.393.982-2.474 1.139.45-.888 1.013-1.441 1.57-1.992 4.487-4.436 8.908-8.941 13.492-13.275 3.675-3.474 7.1-7.18 10.725-10.808Zm4.963-5.678c.037.057-.004.119-.104.203-.077-.064-.048-.138.104-.203Zm-1.748 35.014c.052.093 0 .16-.15.213-.062-.091-.013-.165.15-.213Z"/>
  </g>
</svg>
