<svg xmlns="http://www.w3.org/2000/svg" fill="none" viewBox="0 0 500 500">
  <path fill="#FEBC7F" d="M307.764 305.789c-.842.774-1.883.864-2.835 1.155-.907.277-1.239.733-1.148 1.659.303 3.069.044 6.155.336 9.238.271 2.873.174 5.786.17 8.681-.007 4.119.06 8.245-.147 12.356-.486 9.611-1.31 19.19-3.759 28.537-.958 3.655-2.205 7.21-3.918 10.683-.638-.605-.543-1.298-.552-1.96-.043-3.218.024-6.441-.156-9.651-.223-3.979-.244-7.96-.378-11.939-.152-4.485-.384-8.973-.763-13.444-.671-7.912-1.445-15.814-2.472-23.689-.364-2.795-.704-5.6-.888-8.411-.083-1.262-.533-1.923-1.635-2.488-4.805-2.465-9.714-4.724-14.338-7.551-5.235-3.2-9.996-7.025-14.503-11.176a2061.627 2061.627 0 0 1-21.258-19.832c-4.908-4.648-9.782-9.333-14.823-13.832-8.272-7.383-16.584-14.723-25.694-21.056-1.232-.856-2.424-1.816-3.952-2.143-.237.633.256.879.473 1.368.114.172.174.232.299.401 1.192 1.318 2.318 2.526 3.508 3.846.123.173.181.236.31.408 2.563 2.81 4.773 5.739 6.937 8.869.119.178.178.24.307.412 1.712 2.404 3.137 4.84 4.626 7.392.28.227.258.464.382.743.301.515.537.946.812 1.495.094.181.15.246.268.422.59 1.159 1.118 2.206 1.674 3.386.073.206.118.28.209.474.86 1.751 1.476 3.464 2.089 5.321.045.205.09.267.154.443.32 1.184.623 2.253.917 3.472-1.088.941-1.643-.002-2.223-.605-3.636-3.776-7.383-7.437-10.874-11.363-2.718-3.057-5.707-5.867-8.59-8.772-17.024-17.155-33.776-34.585-50.646-51.895-10.175-10.44-20.571-20.664-30.544-31.301-9.935-10.596-20.33-20.721-30.398-31.177-.8-.829-1.998-1.551-1.331-3.159 3.212 1.8 6.08 4.039 9.154 6.212.161.124.228.149.349.267.683.497 1.312.902 1.996 1.418.239.544.66.652 1.133.897 2.792 1.595 5.164 3.596 7.738 5.297.42.278.819.589 1.33.969.173.126.245.168.403.302 2.811 1.994 5.537 3.896 8.365 5.88.174.127.246.171.405.306 1.54 1.09 2.993 2.09 4.55 3.168.176.126.247.173.41.31 2.813 1.991 5.534 3.894 8.359 5.876.175.127.246.174.41.311 2.814 1.993 5.535 3.897 8.359 5.884.174.126.246.171.406.306 4.465 3.154 8.842 6.217 13.32 9.364.173.127.245.17.403.304 2.812 1.995 5.538 3.898 8.365 5.885.174.127.246.169.403.302 2.812 1.995 5.538 3.898 8.365 5.885.174.126.246.168.404.302.644.293.991.945 1.814.842.474-.167.78-.392 1.228-.565 2.316-1.236 4.66-2.152 7.132-3.136 2.395 1.774 4.229 4.003 6.271 6.014a428.391 428.391 0 0 1 7.389 7.5c.6.621 1.395 1.183 1.119 2.37-2.544 1.249-2.572 1.32-.571 2.986 6.797 5.66 13.643 11.26 20.406 16.961a2649.913 2649.913 0 0 1 22.79 19.449c8.916 7.689 17.712 15.518 26.501 23.357 5.51 4.915 11.01 9.861 17.441 13.57 1.983 1.144 3.968 2.27 6.247 3.113.756.369 1.279.819 1.776 1.325 6.166 6.283 12.361 12.537 18.526 18.821.703.716 1.553 1.359 1.658 2.631Z"/>
  <path fill="#FEB67F" d="M83.45 130.909c-.076 1.076.531 1.652 1.125 2.252 3.15 3.183 6.29 6.374 9.434 9.563 4.715 4.783 9.518 9.482 14.13 14.366 11.55 12.234 23.628 23.94 35.197 36.148 10.342 10.914 21.195 21.309 31.467 32.28 10.147 10.837 20.883 21.076 31.034 31.897 3.673 3.915 7.553 7.627 11.089 11.672.229.261.49.394.95.433 1.732 7.694 1.729 15.391.115 23.063-.743 3.533-2.629 6.481-5.039 9.115-3.617 3.952-7.941 6.938-12.66 9.593-.728-.042-1.206-.334-1.616-.75-2.843-2.885-5.769-5.689-8.483-8.701-.712-.791-1.433-1.622-1.691-2.865.364-1.358 1.49-1.657 2.43-2.128 6.439-3.229 12.662-6.837 18.611-10.921 3.543-2.431 3.618-2.597 1.98-6.559-3.737-9.046-8.968-17.135-15.233-24.593-9.765-11.625-21.229-21.389-32.762-31.085-.929-.781-1.891-1.529-2.774-2.355-1.126-1.052-2.126-1.074-3.373-.176-6.005 4.322-12.087 8.536-17.676 13.42-2.212 1.933-4.496 3.78-6.587 5.853-.683.678-1.435 1.289-2.621 1.201-3.741-3.581-7.009-7.455-10.592-11.214a1.703 1.703 0 0 1-.154-.548c.022-.336.07-.522.195-.831 3.353-3.886 7.121-7.152 10.701-10.612 3.952-3.82 7.879-7.668 11.983-11.323 1.162-1.035.344-1.632-.44-2.266-3.676-2.973-7.45-5.818-11.199-8.693-20.569-15.78-40.986-31.764-61.607-47.476-1.168-.891-2.4-1.694-3.545-2.614-1.06-.852-1.88-.693-2.791.278-2.785 2.966-4.767 6.505-7.028 9.85-1.17 1.732-1.784 3.877-3.754 5.168-2.384 1.117-4.32.39-6.2-1.168 2.781-5.162 6.201-9.795 9.573-14.461 1.46-2.021 2.92-4.043 4.44-6.016.387-.502.593-.95.472-1.561-2.024-10.273.24-20.009 3.611-29.606a5.74 5.74 0 0 1 .451-.985c.748-.551 1.345-.296 1.824.148 2.233 2.073 4.43 4.187 6.37 6.551.363.443.635.962.489 1.718-1.526 1.136-3.017 2.102-4.448 3.154-.944.694-.901.985.111 1.654 4.884 3.229 9.674 6.596 14.491 10.13Z"/>
  <path fill="#FD957F" d="M101.831 361.454c-.02.247-.054.38-.135.47-2.777 3.099-2.955 3.335-2.46 7.521.266 2.248.23 4.491.293 6.728.184 6.551 1.275 12.881 3.796 18.937 2.493 5.989 5.651 11.583 10.671 15.727 5.914 4.883 12.739 8.141 20.054 10.287 2.613.767 5.335 1.043 8.051 1.196 1.326.075 2.631.423 4.133.333 5.393 5.283 10.582 10.563 15.75 15.864.575.589 1.145 1.214 1.284 2.232-.61.657-1.338.347-2.01.412-5.819.561-11.663.544-17.485.331-5.994-.22-11.97-.71-17.721-2.84-9.143-3.387-16.742-8.796-22.235-17-4.504-6.727-7.38-14.169-8.82-22.168-.944-5.242-1.483-10.526-1.7-15.858-.125-3.079-.312-6.154-.356-9.237-.013-.869-.223-1.735-.36-2.735-1.8.984-3.265 2.199-4.743 3.393-2.625 2.12-5.195 4.313-7.867 6.369-2.284 1.756-4.794 3.115-7.623 3.796-2.576.62-5.177.526-7.753.185-7.666-1.018-13.724-5.005-18.776-10.745-2.579-2.929-4.963-5.996-6.68-9.56-1.947-4.039-2.894-8.323-3.375-12.757-.348-3.208-.336-6.425-.215-9.63.193-5.14 1.072-10.191 2.342-15.174a129.704 129.704 0 0 1 5.437-16.545c1.028-.829 1.75-.253 2.424.329 1.046.901 1.962 1.951 3.137 2.929.396 1.065-.027 1.89-.32 2.735-2.298 6.63-4.647 13.276-5.283 20.318-.818 9.065-.582 17.946 4.334 26.158 4.262 7.119 9.8 9.002 18.098 7.195 3.158-.688 5.95-2.215 8.423-4.324 5.107-4.354 9.962-8.985 14.693-13.754.759-.764 1.43-1.662 2.674-2.001.27.003.425.014.494.105 2.906 3.888 6.608 7.021 9.829 10.778Z"/>
  <path fill="#FDBF7F" d="M423.21 395.037c-3.076 3.72-6.894 6.199-11.111 8.065-6.271 2.776-12.829 4.372-19.688 4.395-9.431.031-17.05-3.83-22.793-11.397-3.128-4.122-6.279-8.25-8.237-13.133-.318-.79-.896-.618-1.421-.467-1.46.422-2.919.858-4.347 1.379-2.024.739-4.02 1.559-6.18 2.349-1.102-.446-1.666-1.328-2.342-2.068-2.561-2.807-5.099-5.633-7.794-8.312-.567-.564-1.222-1.161-.859-2.262a51.828 51.828 0 0 1 3.852-1.929c.249-.16.393-.241.696-.291 2.622-1.29 5.122-2.536 7.62-3.785.341-.171.683-.342 1.013-.533 1.842-1.067 2.028-1.397 1.624-3.57-.596-3.212-1.275-6.409-1.885-9.619-.933-4.911-1.591-9.854-1.866-14.859-.12-2.181-.138-4.359-.231-6.537-.056-1.299.361-2.542.321-3.994 1.178-1.009 1.896-.11 2.615.538 1.392 1.252 2.548 2.787 4.38 3.736.728 1.01.556 2.085.71 3.091 1.099 7.194 3.31 14.022 6.556 20.507 1.043 2.082 1.302 2.168 3.352 1.059 1.905-1.03 3.765-2.147 5.621-3.269.709-.428 1.405-.893 2.408-.938 1.724.887 2.72 2.415 3.991 3.635 1.416 1.36 2.787 2.77 4.287 4.226-1.068 2.451-2.735 4.385-4.333 6.355-1.85 2.281-3.888 4.394-5.965 6.465-1.868 1.863-1.794 1.83-.254 3.957 1.814 2.507 3.895 4.722 6.391 6.519 4.025 2.899 8.581 4.317 13.448 4.703 5.979.475 11.832-.181 17.476-2.351 1.003-.385 1.998-.793 3.135-1.202 1.102-.217 1.861.235 2.501.86 2.439 2.386 4.585 5.056 6.975 7.491.265.27.399.647.334 1.186Z"/>
  <path fill="#FD9C7F" d="M163.438 440.897c-3.233-3.168-6.292-6.332-9.366-9.481-2.188-2.242-4.399-4.462-6.594-6.696-.487-.497-1.074-.938-1.075-1.886 2.461-.019 4.94.071 7.395.081 8.584.038 17.041-.976 25.198-3.945 1.755-.639 2.771-1.664 3.119-3.603.657-.129 1.07.182 1.428.547 4.729 4.824 9.667 9.443 14.028 14.782-2.662 1.59-5.548 2.559-8.318 3.801-1.589.712-1.593.664-1.62 2.49-.077 5.222.273 10.391 1.825 15.412 1.241 4.016 2.917 7.819 5.633 11.052 4.778 5.686 11.601 8.243 19.079 4.935 3.866-1.71 7.345-4.039 10.711-6.559 4.084-3.059 7.943-6.39 11.392-10.181 2.316-2.546 4.583-5.137 6.978-7.764.711-.298 1.244-.107 1.674.307 2.513 2.421 5.025 4.843 7.309 7.491.212.245.287.565.404 1.01-2.355 3.271-5.06 6.148-7.68 9.1-3.057 3.444-6.291 6.722-9.6 9.912-3.07 2.959-6.161 5.917-9.92 8.028-1.296.729-2.645 1.286-4.076 1.512-4.401.693-8.853.938-13.209-.08-5.081-1.189-9.532-3.765-13.434-7.277-6.71-6.038-10.252-13.896-12.426-22.504-.769-3.044-1.325-6.142-2-9.211-.165-.75-.393-1.488-.627-2.219-.251-.783-.692-1.024-1.587-.876-4.8.796-9.608 1.559-14.641 1.822Z"/>
  <path fill="#FDE27F" d="M406.99 205.838c-.262-.493-.28-.893-.243-1.45-.026-.215-.07-.28-.144-.459a43.95 43.95 0 0 1-.237-2.62c-.026-.232-.071-.296-.143-.476-.995-7.933-1.954-15.752-2.935-23.567-1.212-9.654-2.456-19.304-3.66-28.958-.832-6.674-1.595-13.356-2.434-20.029-1.061-8.449-2.167-16.892-3.257-25.337a3815 3815 0 0 0-1.319-10.1 4.842 4.842 0 0 1 .424-2.787c1.254-2.666 2.43-5.37 3.686-8.035.427-.907.858-1.858 1.838-2.424 1.215 1.221 2.031 2.67 2.908 4.076 7.174 11.5 11.976 24.043 15.781 37.019.359 1.225.693 2.468.663 3.781-.02.843-.444 1.005-1.103.797-1.059-.334-1.847-1.101-2.62-1.857-1.143-1.117-2.24-2.283-3.379-3.405-.345-.339-.604-.841-1.309-.842-.344 1.701-.056 3.412.045 5.092.3 4.988.713 9.97 1.124 14.95.452 5.49.915 10.979 1.437 16.462.819 8.606 1.661 17.209 2.57 25.806.901 8.536 1.994 17.048 2.866 25.587.273 2.673.667 5.333.997 8.163-.978 1.097-1.955.7-2.7-.041-3.008-2.993-6.258-5.756-8.856-9.346Z"/>
  <path fill="#FEC47F" d="M307.901 305.93c-4.335-4.573-8.802-8.867-13.123-13.309-2.496-2.565-5.027-5.095-7.531-7.653-.484-.495-1.09-.906-1.295-1.777.544-.804.312-1.605.259-2.338-.204-2.861-.475-5.717-.719-8.746-.034-.251-.071-.331-.154-.537a737.901 737.901 0 0 1-.99-10.678c-.034-.25-.071-.33-.154-.536-.681-5.893-1.315-11.661-1.955-17.428-.562-5.072-1.131-10.143-1.661-15.382 1.005-.817 1.605-.048 2.151.501 3.913 3.933 7.864 7.828 11.749 11.98.609 4.11 1.177 8.103 1.665 12.105.698 5.721 1.339 11.448 2 17.172.037.319.035.643.047 1.131.034.248.072.327.152.532.106.884.17 1.644.229 2.567.034.242.072.322.152.526.23 1.669.419 3.212.597 4.92.11.356.144.573.2.898.087.615.142 1.123.194 1.786.035.233.073.313.153.517.192.873.405 1.615.478 2.37.103 1.073.632 1.617 1.821 1.709.227.058.309.085.506.171 3.153.11 6.176-.024 9.195-.421 4.232-.555 7.999-2.302 11.615-4.467 2.508-1.502 4.904-3.163 7.134-5.075 1.198-1.029 1.733-2.281 1.776-3.855.064-2.315-.155-4.611-.346-6.908-.207-2.484-.486-4.962-.722-7.609 1.237-.632 1.902.299 2.604.978 2.699 2.613 5.223 5.41 8.085 8.043-.049 5.413-1.643 10.318-3.676 15.111-2.791 6.581-7.363 11.587-13.289 15.366-5.36 3.418-10.924 6.427-17.147 8.336Z"/>
  <path fill="#FDE37F" d="M444.694 219.746c-1.317-9.346-2.619-18.604-3.9-27.864-1.183-8.563-2.292-17.137-3.532-25.692-.991-6.844-1.608-13.778-3.36-20.463-1.398-5.329-.357-10.156 1.615-14.965.768-1.872 1.511-3.782 2.669-5.67 3.665 6.251 7.334 12.251 10.705 18.43 2.669 4.892 5.254 9.828 7.249 15.054 1.098 2.877 2.025 5.812 2.685 8.823.181.826.679 1.934-.24 2.485-.772.464-1.485-.383-2.131-.856-2.253-1.648-4.3-3.576-6.794-5.195-.512 1.467-.146 2.856-.027 4.182.359 4.015.853 8.018 1.321 12.022.801 6.868 1.617 13.732 2.603 20.576.987 6.845 1.872 13.705 2.799 20.558.155 1.143.298 2.288.434 3.593-.003.289.045.399.156.579.846 5.912 1.667 11.737 2.46 17.725-.99 1.027-1.862.553-2.505-.195-2.863-3.333-6.109-6.284-9.103-9.485-.539-.575-.741-1.328-1.292-2.036-.765-2.237-.766-4.487-1.143-6.676-.238-1.385-.355-2.792-.512-4.351.002-.289-.047-.399-.157-.579Z"/>
  <path fill="#FC9F7F" d="M48.836 314.343c-1.183.127-1.655-.737-2.322-1.297-.902-.756-1.433-2.018-2.946-2.146.235-2.051 1.319-3.824 2.012-5.747.521-1.446 1.15-2.853 1.721-4.282.525-1.311.529-1.331-.758-1.978-1.988-1-4.032-1.894-5.977-2.975-7.86-4.366-14.26-10.243-18.24-18.537-1.8-3.749-2.492-7.804-2.921-11.901-.14-1.333-.276-2.671-.306-4.026-.177-7.864 1.249-15.462 3.578-22.914 1.687-5.397 3.811-10.619 6.378-15.787 1.059-.488 1.645.196 2.223.767a101.621 101.621 0 0 0 3.583 3.388c.392 1.082-.063 1.896-.397 2.722-2.413 5.965-4.787 11.939-6.165 18.265-1.567 7.2-2.088 14.44-.118 21.608 2.06 7.491 6.637 12.555 14.523 13.791 4.952.776 9.554-.52 13.953-2.833 5.43-2.855 10.5-6.286 15.539-9.775.734-.508 1.434-1.077 2.499-1.23.96.027 1.56.497 2.102 1.036a743.236 743.236 0 0 1 9.071 9.193c.444.456.84.953.984 1.751-.126 1.146-.877 1.673-1.58 2.218-7.902 6.126-16.166 11.665-25.492 15.318-3.221 1.262-5.279 3.415-6.556 6.538-.974 2.381-2.107 4.69-3.113 7.057-.275.646-.493 1.339-1.275 1.776Z"/>
  <path fill="#FEC47F" d="M202.725 182.365c2.943-.443 5.786-.396 8.628-.078.249.028.49.13.739.168 1.494.228 1.542.205 1.354-1.3-.471-3.769-1.544-7.405-2.503-11.059-1.693-6.449-3.479-12.873-5.252-19.461 1.153-1.333 2.097-.467 2.922.303 1.818 1.697 3.623 3.424 5.225 5.332 3.373 4.018 7.331 7.458 10.905 11.468 1.682 2.494 3.072 5.015 4.758 7.351 4.226 5.854 9.314 10.806 15.037 15.125a85.098 85.098 0 0 1 4.149 3.365c2.348 2.017 3.571 4.613 3.683 7.733.161 4.495.249 8.984-.709 13.423-.671 3.108-.95 3.261-3.316 1.277-4.161-3.487-8.522-6.643-13.394-9.057-4.345-2.152-8.882-3.693-13.59-4.755-.368-.083-.733-.183-1.242-.32-3.042-2.144-5.394-4.85-7.788-7.467-2.836-3.102-5.779-6.092-8.672-9.133-.725-.763-1.645-1.521-.934-2.915Z"/>
  <path fill="#FDDD7F" d="M365.355 184.947c-.375-2.556-.66-5.005-.936-7.623-.108-.361-.139-.578-.198-.9a710.88 710.88 0 0 1-.96-9.118c-.035-.249-.071-.329-.153-.534-.233-1.924-.42-3.724-.597-5.692-.107-.359-.137-.575-.196-.897-.623-5.045-1.193-9.989-1.807-14.927-.543-4.365-1.141-8.723-1.704-13.086a394.85 394.85 0 0 1-.879-7.384c.052-1.329.805-1.047 1.435-.837.61.204 1.053.699 1.498 1.154 3.51 3.599 7.13 7.088 10.62 10.904a1618.156 1618.156 0 0 1 2.916 19.601c.417 2.903.797 5.811 1.194 8.88.035.243.071.323.15.526.487 3.333.93 6.542 1.373 9.915.037.243.073.323.152.526.114.436.141.767.262 1.058.299.72.715.787 1.302.244.855-.793 1.467-1.774 2.106-2.726.925-1.38 1.725-2.848 2.674-4.21.508-.728.53-1.274.063-2.035-1.271-2.07-2.5-4.17-3.659-6.307-.911-1.68-1.816-3.365-1.905-5.383a9.503 9.503 0 0 1 1.217-5.165c1.368-2.469 3.192-4.483 5.71-5.75 2.255-1.135 4.274-.74 6.076 1.043 2.212 2.188 3.008 5.032 3.377 7.982.449 3.598.205 7.174-.988 10.642a27.78 27.78 0 0 0-1.521 8.863c-.012 1.682-.093 1.82-1.702 1.761-1.458-.053-2.522.521-3.517 1.539-3.129 3.203-5.686 6.889-8.645 10.409-.095.192-.112.273-.194.461.068 1.117.201 2.128.335 3.294.037.236.073.317.155.522.229 1.682.413 3.24.562 4.965-.831.912-1.662.554-2.251-.003-3.919-3.706-7.878-7.377-11.365-11.712Z"/>
  <path fill="#FDE37F" d="M371.591 135.963c-.908.222-1.391-.414-1.926-.955-3.226-3.271-6.441-6.552-9.686-9.804-.492-.493-.907-1.371-1.957-.685-.711-2.049-.823-4.286-1.138-6.487-1.199-8.367-2.412-16.731-3.697-25.086-1.539-10.006-3.311-19.97-5.042-29.942-.878-5.06.515-9.64 2.409-14.161a27.81 27.81 0 0 1 1.829-3.59c.994-1.652 1.541-1.646 2.464.01 2.088 3.747 4.166 7.5 6.179 11.288 3.368 6.338 6.493 12.796 8.986 19.549 1.556 4.213 2.78 8.53 3.788 12.91.171.74.465 1.734-.125 2.144-.7.487-1.406-.351-1.948-.833-1.809-1.61-3.554-3.293-5.334-4.936-.645-.594-1.271-1.232-2.315-1.526.298 2.073.571 4.013.856 5.95.878 5.955 1.771 11.908 2.64 17.864 1.1 7.539 2.184 15.081 3.271 22.621.265 1.838.515 3.677.746 5.669Z"/>
  <path fill="#FDB57F" d="M260.692 372.932c1.567-1.513 2.984-2.985 4.551-4.267.871-.712.932-1.306.577-2.3-1.92-5.375-3.796-10.771-6.151-15.969-4.285-9.457-8.663-18.872-12.979-28.315-2.077-4.547-4.075-9.13-6.16-13.673-.695-1.512-.912-3.026-.701-4.674.442-3.453 1.213-6.817 2.41-10.079.132-.361.284-.716.45-1.062 1.438-2.987 2.317-3.187 4.695-.952 2.981 2.803 5.653 5.912 8.418 8.926 3.02 3.292 5.966 6.654 8.927 10.002 1.099 1.243 2.175 2.518 2.988 3.977.319.574.862 1.184.366 1.937-.507.77-1.303.736-2.061.657-1.349-.139-2.547-.76-3.738-1.359-1.023-.515-2.031-1.07-3.135-1.375-.887-.245-1.173.039-.985.98.453 2.278 1.34 4.413 2.196 6.557 2.573 6.439 5.855 12.544 8.643 18.882 2.102 4.778 3.82 9.703 4.209 14.927.502 6.755.393 13.493-2.506 19.852-.747 1.64-1.664 3.173-2.605 4.833-.821.596-1.462.237-2.003-.183a26.831 26.831 0 0 1-5.153-5.248c-.42-.566-.701-1.219-.253-2.074Z"/>
  <path fill="#FDDE7F" d="M262.951 78.898c1.423-2.147 3.221-3.776 4.786-5.613 3.395-3.984 6.967-7.82 9.683-12.35 2.344-3.91 2.347-6.879-.932-11.57-1.215-1.739-3.151-2.323-5.156-2.515-3.04-.29-6.096-.195-9.137-.094-5.116.17-10.22.592-15.268 1.526-1.493.276-2.982.577-4.627.858-.218.036-.28.082-.456.153a4.99 4.99 0 0 1-.764.145c-3.488-3.205-6.68-6.566-9.907-9.89-.609-.628-1.25-1.342-.631-2.497.72-.33 1.396-.526 2.207-.721.197-.046.26-.091.436-.164 2.665-.735 5.218-1.444 7.917-2.175.224-.06.302-.098.502-.178 7.761-2.093 15.411-4.092 23.147-5.744 4.426-.945 8.842-1.655 13.298-.26 3.964 1.24 7.006 3.771 9.44 7.105.622.852.744 1.87.808 2.92.471 7.645-1.363 14.762-4.703 21.55-1.216 2.471-2.465 4.924-3.968 7.4-.058.178-.023.245-.096.339-1.338 1.931-2.567 3.836-3.873 5.847-.125.178-.171.25-.304.415-2.24 3.41-4.664 6.522-7.201 9.7-.577.424-1.104.377-1.493.038-1.399-1.22-2.989-2.268-3.708-4.225Z"/>
  <path fill="#FDD47F" d="M406.886 205.876c.786-.036 1.187.584 1.67 1.071a831.612 831.612 0 0 1 7.219 7.33c.696.719 1.409 1.278 2.615 1.11.952 5.184 1.442 10.408 2.075 15.614.742 6.099 1.511 12.195 2.24 18.296.563 4.703 1.066 9.414 1.625 14.117.845 7.118 1.728 14.232 2.572 21.35.686 5.784 1.323 11.574 2.009 17.357.708 5.975 1.455 11.944 2.17 17.918.099.827.111 1.665.152 2.67-.878.878-1.634.343-2.2-.206-3.005-2.918-6.148-5.705-8.789-9.178-.629-4.352-1.17-8.602-1.696-12.853a8176.104 8176.104 0 0 1-2.1-17.138c-.548-4.508-1.063-9.021-1.63-13.527-.846-6.725-1.735-13.445-2.584-20.17-.545-4.315-1.037-8.637-1.578-12.953-1.002-7.995-2.029-15.987-3.033-23.982-.279-2.22-.513-4.445-.737-6.826Z"/>
  <path fill="#FDD77F" d="M446.388 231.427c.333-.133.663-.087.873.181 2.296 2.927 5.121 5.334 7.648 8.034.741.791 1.526 1.529 2.116 2.464.459.728 1.129 1.22 2.209 1.125.767 2.164.892 4.415 1.188 6.628 1.009 7.553 2.029 15.106 2.766 22.694.508 5.229.884 10.468 1.269 15.708.734 10.014.607 20.039.759 30.064.14 9.169-2.548 17.57-6.146 25.783-.153.349-.36.677-.569.996-.057.086-.216.104-.441.203-.802-1.195-.831-2.614-.965-3.962-.302-3.059-.505-6.128-.735-9.194a6830.9 6830.9 0 0 1-1.103-14.953c-.425-5.818-.799-11.64-1.276-17.453-.544-6.637-1.151-13.27-1.777-19.899-.921-9.755-1.887-19.503-3.355-29.196-.891-5.888-1.59-11.805-2.37-17.71-.059-.444-.072-.895-.091-1.513Z"/>
  <path fill="#FDC67F" d="M356.453 332.907c-.955.121-1.594-.183-2.158-.791-.911-.981-1.873-1.913-2.812-2.866-.449-.454-.877-.944-1.727-.939.339-8.134 2.451-15.698 7.484-22.202 2.746-3.549 6.37-5.615 10.829-6.098 1.694-.183 3.363-.255 5.089-.105 3.857.336 6.635 2.328 8.883 5.298 5.325 7.036 8.635 14.904 9.573 23.774 1.234 11.667-1.701 22.261-7.951 32.132-.699.089-1.218-.067-1.648-.51-2.075-2.134-4.16-4.258-6.231-6.397-.122-.126-.152-.344-.245-.652-.156-1.269.766-1.67 1.443-2.177 1.229-.919 2.435-1.851 3.437-3.029 1.596-1.877 2.588-4.029 2.336-6.53-.769-7.644-3.412-14.507-8.817-20.026-4.509-4.605-10.329-3.958-13.967 1.374-1.551 2.274-2.324 4.841-2.726 7.542-.112.757-.071 1.556-.792 2.202Z"/>
  <path fill="#FDD17F" d="M274.336 176.83a16.556 16.556 0 0 1-.259-2.213c-.027-.224-.072-.287-.14-.464a286.703 286.703 0 0 1-.633-5.721c-.108-.36-.141-.578-.199-.902-.795-6.654-1.577-13.2-2.315-19.752-.466-4.136-.868-8.28-1.293-12.421-.47-4.581-.938-9.163-1.392-13.747-.037-.376-.058-.81.087-1.138 1.401-3.159 2.49-6.467 4.339-9.412.097-.156.242-.281.439-.504.741.302 1.123.948 1.544 1.571 3.122 4.618 5.742 9.536 8.379 14.443a112.506 112.506 0 0 1 8.77 21.287c.492 1.657.953 3.326 1.103 5.062.033.381.09.774.035 1.147-.124.85-.596 1.134-1.318.721-.712-.406-1.352-.945-2.013-1.441-1.716-1.29-3.251-2.845-5.389-3.84-.295 1.617-.044 3.105.108 4.579.58 5.603 1.2 11.202 1.802 16.971.034.248.072.327.151.533.735 6.066 1.431 12.007 2.092 18.113-.748.713-1.244.202-1.665-.255-3.943-4.277-8.203-8.237-12.233-12.617Z"/>
  <path fill="#FDCF7F" d="M342.171 267.115c-1.021.184-1.619-.367-2.215-.979-2.142-2.196-4.306-4.37-6.455-6.56-.583-.595-1.162-1.19-2.051-1.588-1.031-7.419-1.923-14.784-2.87-22.141-1.079-8.373-2.222-16.738-3.307-25.111-1.077-8.311-2.119-16.627-3.172-24.942-.78-6.155-1.552-12.311-2.334-18.465-.031-.251-.126-.494-.165-.896.894-.847 1.437-.154 1.943.37 3.038 3.142 6.149 6.211 9.305 9.43.751 2.302.833 4.609 1.155 6.873 1.173 8.24 2.292 16.489 3.405 24.738.959 7.109 1.857 14.226 2.826 21.334.795 5.836 1.726 11.654 2.463 17.498.536 4.257 1.122 8.509 1.389 12.804.156 2.508.166 5.004.083 7.635Z"/>
  <path fill="#FDAC7F" d="M252.784 452.729c-.673.01-.846-.539-1.198-.885-2.662-2.625-5.123-5.459-8.096-7.959 1.838-2.485 3.804-4.914 5.779-7.335 4.84-5.93 9.564-11.961 14.648-17.682 7.672-8.634 16.154-16.299 26.166-22.31.888.041 1.492.408 2.038.981 2.644 2.776 5.384 5.456 8.039 8.22.64.666 1.5 1.277 1.13 2.566a453.926 453.926 0 0 1-9.837 5.67c-3.528 1.976-6.516 4.661-9.482 7.375-3.821 3.495-7.403 7.242-10.995 10.97a341.96 341.96 0 0 0-17.206 19.294c-.286.345-.594.669-.986 1.095Zm-64.295-153.948c3.54 4.531 7.816 8.151 11.607 12.409-2.629 1.948-5.587 3.277-8.516 4.633-10.335 4.787-21.109 8.391-31.868 12.035-3.604 1.221-7.165 2.571-10.886 3.86-3.575-3.326-6.893-6.768-10.207-10.215-.445-.463-.783-1.013-.808-1.839.45-1.136 1.392-1.425 2.261-1.799 10.865-4.681 22.02-8.615 32.945-13.141 4.17-1.728 8.349-3.434 12.452-5.324.91-.419 1.819-.963 3.02-.619Z"/>
  <path fill="#FCC97F" d="M224.821 167.697c-.664.18-1.155-.181-1.62-.654-2.894-2.952-5.939-5.767-8.655-8.879-2.012-2.305-4.203-4.414-6.267-6.656-.629-.683-1.299-1.225-2.456-1.039-2.606-8.484-4.853-17.03-5.939-25.835-.274-2.222-.384-4.475-.413-6.716-.062-4.693.103-9.391-.053-14.079-.166-4.989 1.921-9.069 4.547-13.003.426-.638.841-.739 1.259-.004.538.945 1.106 1.875 1.599 2.845 4.583 9.024 9.127 18.068 13.189 27.351.251.574.453 1.169.703 1.817-1.059.342-1.818-.268-2.633-.511-1.273-.38-2.51-.895-3.794-1.224-1.086-.278-1.172-.143-1.234.992-.12 2.196.259 4.359.539 6.514.918 7.06 2.216 14.05 4.132 20.912 1.747 6.258 4.014 12.307 7.096 18.169Z"/>
  <path fill="#FDA27F" d="M197.726 430.819c-.964-.338-1.71-.817-2.273-1.529-3.248-4.101-7.216-7.494-10.767-11.296-.78-.834-1.566-1.663-2.411-2.61.515-2.828 1.664-5.34 2.641-8.065.172-.312.173-.525.3-.794 1.861-5.214 3.881-10.264 5.979-15.283.123-.295.237-.594.457-.981.992-.453 1.505.21 2.005.714.915.924 1.982 1.705 2.729 2.972-1.054 2.839-2.463 5.419-3.267 8.253-.59 2.084-1.186 4.167-1.829 6.397-.073.225-.098.303-.179.489-.2 2.004-1.079 3.805-.812 6.039 10.79-4.138 20.916-9.373 31.156-14.663 1.072-.071 1.799.352 2.455 1.019 2.871 2.917 5.761 5.816 8.609 8.757.522.54 1.13 1.08.947 2.126-3.537 2.543-7.256 4.593-10.971 6.634-7.607 4.179-15.441 7.889-23.387 11.355-.404.176-.829.303-1.382.466Z"/>
  <path fill="#FDCE7F" d="M356.606 273.257c-1.991-1.997-3.875-3.898-5.383-6.159-.515-.772-.538-1.286-.067-2.064 2.393-3.943 4.716-7.93 7.088-11.886.755-1.257.809-1.265 2.038-.524 2.84 1.714 5.399 3.821 7.955 5.929 1.965 1.621 3.857 3.334 5.942 4.802 1.591 1.12 1.668 1.1 2.92-.349 1.887-2.184 3.279-4.732 5.031-7.015.466-.607.955-1.205 1.498-1.741 1.302-1.285 2.765-1.458 4.315-.445.901.589 1.774 1.258 2.539 2.017a725.684 725.684 0 0 1 8.495 8.606c.532.546.962 1.192 1.447 1.785 1.082 1.323 1.299 2.8.541 4.314-1.874 3.745-3.996 7.318-7.356 9.938-.349.273-.736.497-1.108.74-.796.522-1.467.444-2.216-.22-2.954-2.622-5.956-5.189-8.945-7.771-1.254-1.084-2.523-2.149-3.778-3.231-.583-.503-1.079-.503-1.584.136-1.307 1.653-2.657 3.271-3.959 4.928-1.263 1.609-2.534 3.215-3.709 4.889-.569.81-1.033.833-1.886.429-3.024-1.429-5.647-3.426-8.147-5.619-.527-.462-1.05-.928-1.671-1.489Z"/>
  <path fill="#FEB67F" d="M301.353 408.426c-.197-.834-.828-1.314-1.358-1.853-2.453-2.496-4.918-4.979-7.364-7.482-.755-.771-1.463-1.59-2.312-2.486 2.503-1.911 5.314-3.391 8.117-4.882 10.887-5.795 22.261-10.503 33.527-15.454 2.091-.919 4.179-1.847 6.409-2.786.202.841.819 1.337 1.369 1.851 3.062 2.87 5.689 6.159 8.626 9.149.405.411.791.833.892 1.597-3.643 1.726-7.314 3.282-10.97 4.876-8.021 3.499-15.984 7.131-23.837 11.006-4.326 2.136-8.642 4.294-13.099 6.464Z"/>
  <path fill="#FDE27F" d="M309.68 89.817c-.689-1.421-.62-2.87-.773-4.251-.793-7.14-2.182-14.178-3.324-21.258-.835-5.182-1.48-10.396-2.23-15.59-.909-6.294 1.041-11.905 3.368-17.492.239-.574.453-1.355 1.151-1.424.753-.075.927.756 1.255 1.275 2.189 3.464 4.086 7.101 6.02 10.712a440.756 440.756 0 0 1 6.341 12.295c2.653 5.345 4.745 10.915 6.183 16.728.249 1.007.376 2.017.114 3.285-3.742-1.373-6.375-4.327-9.83-6.653.35 10.907 1.591 21.461 2.909 32.164-.698.809-1.363.433-1.852-.055-3.147-3.144-6.517-6.07-9.332-9.736Z"/>
  <path fill="#FDA17F" d="M137.795 319.654c3.291 3.373 6.482 6.646 9.663 9.929.52.536 1.198.982 1.223 1.998-3.571 1.611-7.167 3.037-10.719 4.57-8.19 3.534-16.068 7.642-23.187 13.132-4.664 3.597-8.813 7.74-12.802 12.238-.719.024-1.15-.342-1.548-.767-2.604-2.778-5.512-5.261-7.834-8.315-.355-.466-.717-.89-.736-1.657-.19-1.306.688-1.884 1.332-2.547 8.623-8.876 18.38-16.203 29.307-21.907 4.233-2.21 8.477-4.401 12.846-6.328.748-.33 1.474-.806 2.455-.346Z"/>
  <path fill="#FDA97F" d="M34.78 226.977c-1.015.098-1.522-.491-2.078-1.029-1.1-1.062-2.052-2.282-3.437-3.236.924-2.654 2.411-5.024 3.791-7.725 1.317-2.327 2.448-4.482 3.712-6.552.59-.965.681-1.825.387-2.9-.913-3.33-1.774-6.672-2.06-10.144-.597-7.251.73-14.16 3.389-20.864 1.99-5.017 4.539-9.735 7.406-14.413.541-.021.977.008 1.408.071.908.134 1.4 1.238 2.245 1.226.814-.013 1.566-.747 2.65-.509.735 1.209-.038 2.14-.526 3.058-2.316 4.358-3.84 8.949-4.298 13.896-.35 3.772-.036 7.471 1.31 11.007 1.08 2.836 2.595 3.188 4.962 1.29 1.496-1.199 2.74-2.676 4.11-4.015.78-.761 1.588-1.484 2.546-2.007.686-.375 1.434-.705 2.154-.203.784.546.788 1.448.656 2.284-.5 3.149-1.635 6.086-3.183 8.838-3.278 5.825-7.688 10.669-12.746 14.951-3.229 2.732-6.175 5.739-8.286 9.659-.205.371-.355.61-.524.998-.749 1.607-1.493 3.057-2.104 4.573-.281.697-.593 1.397-1.485 1.746Z"/>
  <path fill="#FDDA7F" d="M309.552 89.879c.815-.108 1.235.497 1.72.988 2.552 2.577 5.092 5.167 7.646 7.743.484.487.892 1.112 1.813 1.147.793 5.142 1.443 10.279 2.128 15.412.718 5.386 1.484 10.767 2.206 16.154.687 5.134 1.341 10.272 2.015 15.408.533 4.058 1.076 8.115 1.613 12.338.036.246.072.326.154.532.618 4.606 1.191 9.088 1.75 13.732-.002.289.047.399.157.579.09.751.157 1.414.211 2.244-.956.289-1.519-.326-2.094-.93-2.75-2.894-5.703-5.587-8.334-8.602-.149-.172-.434-.223-.782-.338-.822-5.139-1.517-10.271-2.215-15.401-.716-5.257-1.448-10.512-2.149-15.771-.701-5.26-1.363-10.525-2.06-15.786-.831-6.272-1.692-12.54-2.517-18.812a463.94 463.94 0 0 1-1.262-10.637Z"/>
  <path fill="#FDCD7F" d="M193.763 64.105c-3.285 1.6-6.73 2.646-10.104 3.884-10.213 3.748-20.399 7.569-30.523 11.56a78.5 78.5 0 0 1-3.505 1.289c-2.304.567-3.829-.416-5.248-1.968-1.966-2.15-4.106-4.135-6.099-6.263-.886-.945-1.685-1.972-.748-3.5 5.279-2.51 10.611-4.53 15.92-6.608 9.558-3.74 19.204-7.236 29.016-10.67 4.027 3.89 7.912 7.772 11.291 12.276Z"/>
  <path fill="#FDD67F" d="M193.914 64.245c-1.675-1.058-2.959-2.422-4.102-3.846-1.885-2.349-4.095-4.356-6.136-6.538-.474-.507-1.061-.943-1.055-1.888 4.24-1.82 8.596-3.174 12.922-4.608 11.48-3.807 23.104-7.123 34.891-10.421.124.966.678 1.633 1.331 2.288 2.663 2.67 5.306 5.359 7.944 8.053.526.536 1.207.986 1.233 2.007-3.768 1.202-7.562 2.2-11.311 3.347-11.807 3.611-23.564 7.383-35.2 11.532-.119.042-.249.052-.517.074Z"/>
  <path fill="#FCC87F" d="M420.13 313.391c.564-.189.924.071 1.309.475 2.463 2.58 4.971 5.117 7.457 7.676.586.604 1.21 1.128 2.19 1.324.777 1.185.562 2.515.723 3.756.87 6.726 1.585 13.472 2.377 20.209.481 4.097.516 8.216.335 12.317-.335 7.626-1.028 15.219-3.489 22.517-1.677 4.976-4.126 9.501-7.747 13.458-.575-.472-1.021-1.004-1.492-1.513-1.499-1.621-3.152-3.084-4.485-4.879-.939-1.265-2.154-2.31-3.649-3.182 3.187-1.948 6.482-3.855 9.334-6.439.235-.212.518-.376.732-.607.819-.883 2.222-1.382 2.534-2.487.331-1.167.007-2.542-.108-3.819-.335-3.696-.706-7.39-1.066-11.084-.642-6.562-1.265-13.126-1.934-19.686-.786-7.703-1.547-15.41-2.554-23.089-.209-1.586-.326-3.185-.467-4.947Z"/>
  <path fill="#FDAA7F" d="M233.573 412.466a9.505 9.505 0 0 0-1.01-1.206c-3.32-3.364-6.639-6.731-9.965-10.09-.222-.224-.501-.389-.887-.662 4.675-2.913 9.521-5.677 14.203-8.724 8.312-5.41 16.252-11.325 23.685-17.93.332-.295.631-.631 1.063-.994.044.645.37 1.193.78 1.683 1.862 2.228 3.69 4.496 6.418 5.944-1.637 3.45-3.968 6.466-6.476 9.353-5.806 6.683-12.574 12.241-19.761 17.296-2.596 1.825-5.276 3.529-8.05 5.33Z"/>
  <path fill="#FEC47F" d="M137.502 69.004c-.085 1.39.467 2.411 1.48 3.367 1.899 1.79 3.722 3.668 5.511 5.573 1.321 1.406 2.607 2.797 4.86 2.834-2.923 1.596-6.17 2.66-9.328 3.944-10.5 4.269-20.951 8.655-31.318 13.248-.694.308-1.377.64-2.203.964-2.948-2.774-5.808-5.502-8.359-8.534-.486-.577-1.003-1.177-1.04-2.147 3.358-2.19 6.978-3.713 10.485-5.457 5.493-2.731 11.068-5.298 16.635-7.874 4.361-2.017 8.763-3.942 13.277-5.918Z"/>
  <path fill="#FCC97F" d="M274.234 176.873c.862.031 1.506.523 2.098 1.126 3.303 3.363 6.601 6.732 9.939 10.059.576.574.78 1.51 1.802 1.787.729 2.641.881 5.325 1.23 7.979 1.022 7.789 2.022 15.58 3.005 23.374.704 5.578 1.366 11.161 2.05 16.742.077.631.175 1.26.23 2.045-1.012-.046-1.692-.7-2.365-1.387a3245.301 3245.301 0 0 0-9.749-9.885c-.483-.488-.886-1.095-1.732-1.313-.74-2.705-.894-5.453-1.247-8.172a3735.193 3735.193 0 0 1-2.988-23.566c-.721-5.834-1.388-11.674-2.084-17.511-.045-.378-.143-.748-.189-1.278Z"/>
  <path fill="#FBD37E" d="M365.253 185.004c.864-.08 1.3.612 1.829 1.145 3.015 3.04 6.019 6.09 9.02 9.144.725.738 1.449 1.456 2.695 1.531.754 1.785.66 3.669.826 5.502.388 4.284.378 8.599.621 12.888.237 4.19.028 8.348-.268 12.487-.539 7.562-2.05 14.98-4.215 22.243-.26.872-.522 1.845-1.446 2.553-.873-1.408-.861-2.974-.981-4.434-.387-4.729-.563-9.475-.943-14.204-.451-5.614-.918-11.226-1.706-16.812-.716-5.074-1.378-10.153-2.348-15.186-.254-1.32-.448-2.657-.986-3.966-1.065.076-1.841.774-2.644 1.348-4.142 2.962-8.2 6.049-12.547 8.705-1.462.894-2.964 1.723-4.465 2.548-.656.361-1.356.637-2.473.727 1.012-1.821 2.263-3.056 3.478-4.274 4.418-4.432 8.907-8.792 13.349-13.2.814-.808 1.546-1.702 2.295-2.574 1.066-1.241 1.475-2.654 1.091-4.291-.13-.556-.133-1.143-.182-1.88Z"/>
  <path fill="#FDA77F" d="M196.537 393.997c-.872.031-1.326-.53-1.825-1.022a142.319 142.319 0 0 0-2.846-2.74c.461-1.969 1.444-3.696 2.223-5.512.312-.727.286-1.192-.27-1.855-1.771-2.109-3.793-3.959-5.694-5.933-1.24-1.288-2.312-2.712-3.447-4.088-.916-1.11-1.15-2.211-.477-3.519 1.911-3.713 4.094-7.222 7.118-10.13.888-.853 1.876-.985 2.977-.555.235.092.456.222.683.336.845.423 1.709 1.22 2.528 1.174.955-.054 1.521-1.241 2.233-1.954 3.112-3.115 6.195-6.258 9.407-9.444 1.437.633 2.315 1.792 3.266 3.048-3.5 3.869-7.395 7.221-11.298 10.64 1.294 1.844 2.947 3.253 4.292 4.935.836 1.045 1.687 2.077 2.515 3.128 1.407 1.788 1.339 3.638.21 5.534-1.342 2.252-2.776 4.441-4.24 6.613-2.496 3.702-5.295 7.205-7.355 11.344Z"/>
  <path fill="#FCAF7F" d="M212.569 351.884c-1.603-.452-2.541-1.555-3.278-3.043 2.86-3.373 5.75-6.602 8.628-9.843 1.657-1.867 3.075-3.917 4.359-6.06 1.128-1.884 1.121-2.339-.736-3.382-2.816-1.58-3.822-4.152-4.171-7.116-.424-3.603.406-7.01 1.846-10.288.833-1.898 1.901-3.621 3.436-5.035 2.212-2.038 4.542-2.291 6.848-.419 2.604 2.113 4.307 4.783 4.553 8.32.224 3.224-.006 6.426-.342 9.605-.298 2.81.26 5.183 2.108 7.298 1.494 1.71 1.537 3.723.914 5.802-.598 1.991-1.709 2.441-3.411 1.206-1.281-.928-2.398-2.088-3.588-3.146-.236-.21-.47-.423-.85-.766-5.395 5.647-10.691 11.339-16.316 16.867Zm130.378 72.074c2.035.788 3.888 1.59 5.493 2.909 1.016.835 1.789 1.856 2.271 3.043.791 1.951.795 3.889-.576 5.65-.468.601-.918 1.215-1.397 1.85-1.964-1.273-3.608-2.806-5.554-3.887-.499-.278-.999-.587-1.538-.749-1.613-.485-2.49.041-2.631 1.745-.2 2.428-.42 4.856-.425 7.304a78.741 78.741 0 0 1-2.378 19.044c-.281 1.121-.604 2.242-1.188 3.244-.565.97-1.117.97-1.634-.022-.767-1.471-1.47-2.979-2.168-4.487-1.513-3.266-3.14-6.447-5.458-9.238-2.253-2.713-4.862-4.612-8.492-4.87-1.591-.113-2.77-1.201-3.797-2.378-2.186-2.503-2.606-5.493-2.228-8.67.098-.821.313-1.636.549-2.431.62-2.087 1.782-2.719 3.899-2.159 1.502.397 2.773 1.234 3.99 2.173 3.317 2.558 6.022 5.698 8.322 9.192 1.407 2.137 2.677 4.368 4.009 6.556.42.69.803 1.416 1.676 1.877.802-1.399.821-2.876.968-4.31.367-3.569.618-7.146 1.12-10.706.587-4.163 2.612-7.439 5.531-10.269.44-.427.863-.769 1.636-.411Z"/>
  <path fill="#FBBF7E" d="M169.683 155.847c.481.694.882 1.272 1.313 1.827.109.141.31.209.621.406.601-1.745.621-3.508.76-5.244.37-4.601.612-9.227 1.918-13.684 1.032-3.522 2.753-6.636 5.789-8.82 2.265-1.629 4.103-1.509 6.199.33 3.188 2.798 3.785 6.941 1.527 10.2-.476.687-.892.811-1.546.337a55.121 55.121 0 0 0-2.197-1.525c-.745-.488-1.473-1.035-2.28-1.386-2.145-.934-3.817-.095-4.367 2.182-.24.992-.36 2.021-.446 3.042-.438 5.181-.658 10.375-.94 15.566-.226 4.151-.474 8.323-1.436 12.398-.163.693-.366 1.366-.725 1.979-.459.786-.884.847-1.422.099-1.082-1.507-2.015-3.114-2.933-4.732-1.862-3.283-3.542-6.677-5.851-9.691-1.579-2.062-3.625-3.078-6.143-3.359-3.494-.39-6.007-2.179-7.37-5.54-1.03-2.537-.717-5.043.143-7.519.395-1.139 1.263-1.695 2.516-1.644 2.851.117 5.264 1.334 7.451 3.056 2.012 1.584 3.649 3.552 5.218 5.578 1.493 1.927 2.773 4 4.201 6.144Z"/>
  <path fill="#FEBC7F" d="M96.975 88.127c2.62 3.24 5.594 6.025 8.438 8.935.445.454.944.877.949 1.738-1.986 1.395-4.189 2.21-6.288 3.244-8.982 4.424-17.904 8.967-26.704 14.033-1.786-2.844-4.447-4.781-6.618-7.171-.504-.554-.967-1.201-1.9-1.415-.066-1.281.55-2.085 1.645-2.727 8.094-4.752 16.233-9.418 24.611-13.642 1.924-.97 3.824-1.987 5.867-2.995Z"/>
  <path fill="#FDBF7F" d="M202.665 182.238c.076.86.335 1.548.976 2.083.098.081.178.183.27.272 5.187 5.022 9.81 10.602 15.006 15.616.409.394.874.762 1.039 1.496-2.182.007-4.348-.442-6.554-.587-6.384-.419-12.606.46-18.749 2.137-.487.133-.973.274-1.603.422-.261-.834-.941-1.266-1.464-1.799-3.911-3.986-7.84-7.955-11.753-11.939-.57-.58-1.277-1.072-1.451-2.12 7.786-3.058 15.857-4.783 24.283-5.581Z"/>
  <path fill="#FA9D7E" d="M158.53 390.54c.016-4.753.144-9.308 1.241-13.766.484-1.963 1.321-3.73 2.853-5.122.728-.663 1.511-.984 2.429-.735 2.382.648 4.485 1.795 5.955 3.877 1.913 2.71 1.737 5.433-.577 8.831-2.679-1.424-4.818-3.857-7.808-4.783-.413.776-.517 1.453-.534 2.17-.108 4.631.344 9.247.34 13.873-.004 4.298-.035 8.609-1.229 12.786-.326 1.142-.507 2.683-1.817 2.952-1.35.277-1.741-1.292-2.369-2.172-1.856-2.602-3.33-5.468-5.29-8.008-1.178-1.526-2.444-2.947-3.964-4.128a8.615 8.615 0 0 0-4.717-1.821c-2.747-.214-3.663-.952-4.064-3.633-.353-2.36-.318-4.734.569-7.019.606-1.561 1.095-1.82 2.737-1.495 1.401.277 2.618.942 3.762 1.751 3.107 2.195 5.387 5.193 7.696 8.17 1.236 1.593 2.348 3.319 4.192 4.627.566-2.133.628-4.143.595-6.355Z"/>
  <path fill="#FAC97E" d="M256.644 152.03c-.042 4.502.063 8.825-.177 13.128-.174 3.132-.062 6.291-.593 9.401-.061.36.041.848-.441.948-.426.088-.647-.333-.91-.592-1.828-1.798-3.282-3.914-4.874-5.914-1.83-2.299-3.605-4.64-5.679-6.735-2.262-2.285-4.948-3.709-8.117-3.597-3.03.108-5.953-2.593-6.274-6.474-.074-.896-.022-1.793.242-2.671.458-1.521 1.301-2.089 2.863-1.734 2.19.498 4.141 1.589 6.069 2.706 4.054 2.348 7.623 5.315 10.811 8.765.434.47.898.912 1.363 1.35.076.071.229.057.496.115.31-2.459.578-4.914.936-7.355.551-3.769 1.512-7.419 3.28-10.814a15.103 15.103 0 0 1 2.705-3.705c.998-1.002 2.067-1.257 3.438-.75 4.567 1.689 4.796 4.447 4.197 8.844-.156 1.147-1.073 1.512-2.196 1.061-.579-.232-1.097-.634-1.621-.991-.906-.617-1.874-1.098-2.954-1.262-1.396-.212-2.094.254-2.217 1.683-.126 1.466-.471 2.92-.347 4.593Z"/>
  <path fill="#FAD27E" d="M155.465 38.492c5.394-2.192 10.683-4.324 16.014-6.344 11.137-4.221 22.294-8.388 33.448-12.564 1.183-.443 2.349-.986 3.631-1.08 1.225-.089 1.507.368.943 1.503-.169.34-.429.633-.639.952-2.554 3.897-6.214 6.268-10.401 8.04-12.322 5.21-24.8 10.024-37.177 15.094a8.27 8.27 0 0 1-1.021.36c-1.967-1.061-3.224-2.74-4.612-4.27-.387-.428-.584-.982-.186-1.691Z"/>
  <path fill="#FDA97F" d="M244.141 359.97c1.409 4.392.787 8.196-2.235 11.591-1.761 1.978-3.593 3.819-5.983 4.968-3.221 1.549-6.388 1.343-9.427-.54-1.624-1.005-2.106-2.668-2.253-4.443-.238-2.889-.021-5.773.378-8.632.524-3.748 1.206-7.472 2.46-11.056.723-2.067 1.004-2.311 3.041-1.789 4.195 1.074 8.278 2.419 11.389 5.753a12.827 12.827 0 0 1 2.63 4.148Z"/>
  <path fill="#F9A57D" d="M144.012 354.318c4.18-2.161 8.444-3.789 12.618-5.627a17310.8 17310.8 0 0 1 33.647-14.761c.607-.266 1.267-.935 1.913-.31.72.696.061 1.462-.231 2.117-1.721 3.869-4.699 6.471-8.352 8.365-6.322 3.276-12.882 6.018-19.379 8.905-5.219 2.319-10.427 4.664-15.777 7.017-2.543-.51-4.892-3.507-4.439-5.706Z"/>
  <path fill="#FBD87E" d="M285.775 77.415c5.496.15 10.036 2.07 13.422 6.36 2.554 3.235 2.655 6.856 1.171 10.554-1.66 4.138-4.689 6.954-8.682 8.737-2.6 1.161-4.87.59-7.049-1.201-3.213-2.643-3.73-6.107-3.152-9.91.54-3.545 1.15-7.083 1.884-10.591.313-1.496.37-3.297 2.406-3.95Z"/>
  <path fill="#FAD27E" d="M262.885 78.819c1.801 1.286 3.003 3.179 5.029 4.312-1.992 3.135-4.487 5.946-6.945 8.773-7.863 9.045-15.99 17.853-23.599 27.127-.846 1.031-1.537 2.312-3.035 3.005-.036-1.733.479-3.15.967-4.56 2.442-7.05 6.286-13.293 10.786-19.15 4.514-5.871 9.378-11.438 14.361-16.901a98.236 98.236 0 0 1 2.436-2.606Z"/>
  <path fill="#FAC97E" d="M155.415 38.388c.055.865.657 1.35 1.157 1.915 1.157 1.308 2.651 2.303 3.529 4.018-2.286 1.345-4.751 2.184-7.154 3.165-11.33 4.624-22.682 9.196-34.026 13.786-.411.166-.825.327-1.238.49-.309.122-.626.184-.873-.101-.257-.296-.104-.6.057-.881 1.733-3.022 3.71-5.837 6.564-7.898 2.339-1.689 4.958-2.864 7.534-4.092 7.966-3.794 16.142-7.091 24.45-10.402Z"/>
  <path fill="#FABA7E" d="M317.743 351.283c.278-.365.473-.619.663-.877 2.002-2.716 2.006-2.719-.031-5.514a54.5 54.5 0 0 1-2.751-4.166c-1.045-1.754-.876-3.417.094-5.096 1.843-3.19 4.42-5.596 7.636-7.311.505-.269 1.024-.513 1.53-.779 1.725-.906 1.734-.915 2.966.696.944 1.233 1.724 2.523 1.625 4.199-.1 1.682-1.096 2.603-2.729 2.37-.763-.108-1.423-.522-2.124-.816-1.498-.63-4.387.86-4.756 2.451-.198.856.263 1.482.802 2.055 2.057 2.187 4.615 2.724 7.472 2.389 2.595-.304 5.045-1.196 7.561-1.818.855-.211 1.899-.681 2.511.034.71.83-.05 1.805-.437 2.655-.657 1.441-1.763 2.493-2.981 3.444-2.375 1.854-5.082 3.14-7.678 4.617-2.102 1.195-4.115 2.48-5.972 4.083-1.825 1.574-3.982 2.675-6.809 2.549.686-2.165 2.255-3.45 3.408-5.165Z"/>
  <path fill="#FA9D7E" d="M143.965 354.213c.07.859.308 1.585.968 2.206 1.139 1.074 1.814 2.602 3.3 3.524-4.998 2.552-10.091 4.973-15.148 7.47-1.762.871-3.462 1.883-5.141 2.912-1.704 1.043-1.746 1.347-.727 3.034.925 1.532 1.97 2.988 2.582 4.704.419 1.173.62 2.36.513 3.589-.141 1.624-1.19 2.341-2.617 1.668-2.34-1.104-4.205-2.842-5.752-4.921-.295-.396-.55-.91-.6-1.393-.407-3.975-.128-7.818 2.135-11.295 1.226-1.886 2.866-3.208 4.831-4.216a226.31 226.31 0 0 1 15.656-7.282Z"/>
  <path fill="#FAC97E" d="M300.572 180.769c.661-1.924 1.126-3.775 2.822-5.136 0 1.049.097 2.109-.018 3.146-.374 3.376-.55 6.763-.777 10.149-.151 2.249-.101 4.459.028 6.697.196 3.399 1.6 6.18 3.979 8.471 1.542 1.485 2.174 1.293 3.031-.664.462-1.054.83-2.164 1.542-3.081.911-1.175 1.55-1.124 2.254.177 1.058 1.956 1.531 4.038 1.123 6.264-.207 1.133-.477 2.255-.731 3.379a6.84 6.84 0 0 1-.279.918c-1.732 4.575-6.566 5.416-9.678 1.638-2.628-3.189-4.074-6.969-4.622-11.024-.945-6.996-.57-13.948 1.326-20.934Z"/>
  <path fill="#FABA7E" d="M125.387 133.283c-.473 1.365-1.043 2.479-1.95 3.437-2.68 2.833-6.921 2.779-9.545-.73-1.801-2.408-2.319-5.223-2.506-8.138-.287-4.486.775-8.79 1.806-13.087.883-3.677 1.89-7.323 3.149-10.889.509-1.439 1.121-2.837 2.302-4.473.35 1.716.425 3.071.342 4.403-.179 2.884-.793 5.702-1.384 8.525-.828 3.963-1.428 7.95-.608 12.013a11.855 11.855 0 0 0 2.173 4.87c1.037 1.373 1.464 1.459 3.091.836 1.01-.387 1.979-.855 2.874-1.472.27-.185.556-.276.983-.115-.15 1.551-.274 3.129-.727 4.82Z"/>
  <path fill="#F9C37D" d="M152.475 111.39c.498-7.458 3.624-18.288 6.851-23.48.183 2.711.231 5.172-.139 7.609-.422 2.784-.995 5.544-1.499 8.315-.625 3.435-.818 6.87.153 10.274.516 1.81 1.31 3.469 2.72 4.778.485.45.918.593 1.517.28.844-.44 1.702-.856 2.569-1.246 1.29-.579 1.632-.388 1.635.966.004 2.365-.494 4.58-1.987 6.487-2.778 3.547-8.129 2.955-10.038-.366-.984-1.713-1.559-3.458-1.846-5.392-.402-2.696-.148-5.368.064-8.225Z"/>
  <path fill="#FAD27E" d="M400.962 230.798c.458 3.944-.53 7.43-2.424 10.627-1.813 3.061-6.256 3.011-8.283.084-1.566-2.262-1.997-4.825-2.07-7.469-.085-3.08-.132-6.171.003-9.248a59.438 59.438 0 0 1 4.379-19.978c.096-.236.169-.488.302-.702.227-.365.408-.873.99-.651.444.169.4.608.41.985.033 1.3-.313 2.545-.601 3.79-.854 3.681-1.695 7.373-2.003 11.141-.294 3.581-.282 7.174 1.066 10.615.618 1.578 1.527 2.955 2.639 4.197.762.852 1.285.794 1.979-.161.71-.976 1.119-2.166 2.084-2.965.441-.366.819-.862 1.529-.265Z"/>
  <path fill="#F9C37D" d="M402.865 364.735c-1.724-2.639-2.035-5.527-2.095-8.416-.131-6.214 1.119-12.242 2.762-18.187.597-2.159 1.374-4.269 2.139-6.376.362-.995.746-2.017 1.689-2.912.47.935.217 1.73.047 2.482-.705 3.123-1.572 6.215-1.983 9.397-.495 3.824-.66 7.657.227 11.458.474 2.032 1.268 3.905 2.807 5.367 1.358 1.291 2.262 1.108 3.031-.638.283-.643.436-1.344.713-1.99.197-.459.427-1.044 1.045-.953.592.087.738.704.784 1.187.22 2.328.129 4.621-.978 6.763-1.021 1.976-2.374 3.638-4.294 4.777-1.735 1.029-2.545.969-4.168-.247-.618-.464-1.157-1.001-1.726-1.712Z"/>
  <path fill="#FBBF7E" d="M261.304 216.361c.317-.297.635-.653.824-.214.225.523.096 1.113-.009 1.695-.784 4.346-1.491 8.706-2.296 13.048-.749 4.039-.023 7.774 2.017 11.283.128.221.273.434.424.64 1.014 1.378 1.637 1.487 2.965.367.923-.779 1.717-1.715 2.759-2.347.817-.496 1.119-.343 1.22.633.357 3.469-.624 6.483-3.058 8.967-2.193 2.237-4.941 2.298-7.307.237-2.024-1.764-2.999-3.878-3.172-6.676-.3-4.837-.33-9.61.898-14.317 1.182-4.531 2.501-9.019 4.735-13.316Z"/>
  <path fill="#F9A57D" d="M288.466 473.762c-4.483 1.354-6.454-.917-7.341-3.587-1.146-3.45-1.392-6.98-1.053-10.623.599-6.432 2.293-12.602 3.993-18.78.152-.555.323-1.115.57-1.631.201-.419.27-1.137.964-.959.557.142.378.739.396 1.161.095 2.195-.227 4.352-.653 6.494-.79 3.966-1.582 7.924-1.392 12.015.104 2.223.525 4.326 1.666 6.243.26.435.575.851.93 1.21.893.905 1.542.947 2.465.111.859-.78 1.438-1.793 2.004-2.799.536-.953 1.145-1.849 1.88-2.653.31-.339.675-.646 1.164-.392.412.213.331.656.323 1.025-.076 3.348-1.196 6.403-2.561 9.394-.715 1.565-1.787 2.792-3.355 3.771Z"/>
  <path fill="#F8B27D" d="M369.495 423.172c-.247 2.011-.491 3.851-.712 5.694-.046.379-.099.795.003 1.15.653 2.285 1.359 4.558 2.755 6.519.965 1.355 1.326 1.366 2.54.243.901-.833 1.573-1.841 2.213-2.874.609-.986 1.295-1.903 2.14-2.692.237-.222.499-.434.838-.255.312.165.357.479.393.817.131 1.244-.139 2.454-.447 3.618-.76 2.866-2.074 5.476-3.54 8.061-1.725 3.042-6.372 2.528-8.142.12-1.583-2.153-2.134-4.613-2.248-7.225-.3-6.822 1.072-13.414 2.713-19.962.405-1.616.943-3.199 1.464-4.782.432-1.315.518-1.383 1.618-2.154.579 1.922.099 6.047-1.588 13.722Z"/>
  <path fill="#FBD87E" d="M337.468 119.05c.42 2.632.142 5.169.973 7.59.581 1.69 1.343 3.185 2.799 4.239 1.33.964 1.686.916 2.617-.412.551-.784 1.027-1.621 1.545-2.43.277-.432.553-.942 1.16-.824.592.116.687.705.828 1.184.809 2.745.119 5.332-.873 7.87a6.644 6.644 0 0 1-1.187 1.967c-1.753 2.007-3.911 2.317-6.107.814-2.892-1.979-4.44-4.863-5.241-8.216-.757-3.174-.618-6.407-.312-9.601a56.504 56.504 0 0 1 3.303-14.392c.234-.63.391-1.349 1.351-1.755.343 2.426-.54 4.621-.544 6.869-.004 2.307-.2 4.614-.312 7.097Zm131.556 112.743c.571 1.807 1.163 3.435 2.182 4.853 1.035 1.442 1.48 1.488 2.941.419.256-.188.503-.398.78-.545.814-.433 1.468-.238 1.557.659.254 2.557.48 5.141-1.163 7.417-1.19 1.647-3.013 2.146-4.858 1.319-2.107-.945-3.355-2.698-4.246-4.727-1.797-4.096-2.094-8.413-1.656-12.819.476-4.782 1.251-9.519 2.117-14.241.369-2.014.812-4.015 1.246-6.016.094-.434.271-.855.455-1.261a.613.613 0 0 1 .611-.372c.387.022.585.314.592.629.029 1.284.126 2.583-.019 3.851-.644 5.672-1.27 11.339-1.089 17.067.039 1.234.341 2.409.55 3.767Z"/>
  <path fill="#F8927D" d="M162.905 460.759c.737.816 1.411 1.5 2.011 2.245.62.769 1.11.838 1.816.049 1.189-1.33 2.481-2.564 3.944-4.056.296 1.694.353 3.142-.016 4.536-.56 2.112-1.37 4.135-2.635 5.945-1.838 2.63-4.459 2.93-7.096 1.12-2.851-1.957-3.718-4.747-3.784-7.952-.093-4.563-.16-9.134 1.057-13.598.422-1.55.915-3.072 1.546-4.55.231-.543.443-1.061 1.205-1.286.52.947.641 1.979.639 3.051-.006 3.48.009 6.961-.007 10.441-.007 1.458.238 2.818 1.32 4.055Zm-82.521-61.724c-.06 2.172.461 4.008 1.574 5.64.757 1.111 1.144 1.201 2.436.833.976-.277 1.935-.622 2.92-.853 1.018-.238 1.408.125 1.29 1.168-.129 1.146-.278 2.295-.51 3.424-.223 1.078-.66 2.115-1.41 2.912-1.378 1.464-2.918 2.98-5.103 2.279-2.446-.785-4.41-2.319-4.877-5.13-.432-2.608-.585-5.258-.36-7.882.313-3.655 1.052-7.236 2.588-10.603.777-1.704 1.759-3.271 2.899-4.747.284-.367.56-.684 1.194-.773.303.723.06 1.423-.114 2.137-.667 2.742-1.796 5.348-2.254 8.156a19.85 19.85 0 0 0-.273 3.439Z"/>
  <path fill="#F9C37D" d="M320.473 254.277a9343.187 9343.187 0 0 1-19.635 11.218c-.22.125-.448.241-.682.337-.982.403-1.303.223-1.318-.801-.019-1.342.451-2.502 1.347-3.498 1.382-1.535 3.034-2.722 4.761-3.803 6.408-4.015 12.905-7.875 19.624-11.335.956-.492 1.931-.949 3.011-1.089.679 2.026-.118 4.626-1.796 5.696-1.714 1.095-3.464 2.131-5.312 3.275Z"/>
  <path fill="#FAC97E" d="M227.671 68.57c.37-.606.465-1.227 1.082-1.597.683.284.655.927.702 1.551.139 1.811-.15 3.604-.436 5.361a57.102 57.102 0 0 0-.72 10.162c.033 1.93.579 3.68 1.691 5.22 1.16 1.607 2.182 1.692 3.643.39.619-.551 1.149-1.212 1.796-1.722 1.036-.817 1.672-.549 1.763.724.25 3.517-.691 6.6-3.274 9.08-.474.456-1.009.773-1.597 1.019-1.767.737-3.047.363-4.114-1.219-1.31-1.943-2.101-4.118-2.437-6.42-1.111-7.61-.671-15.104 1.901-22.548Z"/>
  <path fill="#FEB67F" d="M96.09 139.845c-.408.112-.896.148-1.104-.59.333.067.688.275 1.105.59Z"/>
  <path fill="#C49664" d="M171.077 190.841c-.107.36-.504.427-.98.549.097-.404.494-.445.98-.549Zm193.074-14.411c.139.092.241.295.311.611-.138-.091-.244-.296-.311-.611Z"/>
  <path fill="#F8B27D" d="M343.01 371.312c-.064.111-.226.21-.485.319.064-.105.224-.217.485-.319Z"/>
  <path fill="#C49664" d="M185.207 406.521c.029.131-.024.33-.158.596-.029-.132.023-.33.158-.596Zm114.381-126.649c-.137-.092-.237-.296-.308-.614.134.092.239.297.308.614Zm62.656-119.683c.139.093.241.295.31.611-.138-.092-.242-.296-.31-.611Zm-89.208 7.347c.138.092.24.296.31.614-.136-.092-.241-.297-.31-.614Zm-61.074 86.804c-.139-.052-.273-.213-.407-.483.137.053.275.214.407.483ZM275.36 73.452c-.102-.109-.055-.22.134-.34.043.08.001.197-.134.34Z"/>
  <path fill="#FDD77F" d="M457 225.331c-.115.008-.172-.099-.213-.313.074.01.158.112.213.313Zm-12.36-5.573c.114-.008.172.099.213.313-.073-.01-.158-.112-.213-.313Z"/>
  <path fill="#C49664" d="M33.142 214.791c.046-.01.054.145.015.16-.04.014-.061-.15-.015-.16Zm253.068-43.173c-.105-.002-.182-.101-.241-.297.102.002.186.101.241.297Z"/>
  <path fill="#FDD47F" d="M406.548 203.901c.104-.013.16.076.204.258-.108.035-.189-.048-.204-.258Zm-.375-3.098c.101-.011.155.078.199.26-.106.033-.185-.051-.199-.26Z"/>
  <path fill="#C49664" d="M378.486 191.723c-.109 0-.186-.099-.247-.295.103.001.191.099.247.295Zm-210.392-1.17c-.101.098-.208.051-.325-.136.106-.118.216-.075.325.136Zm-31.257-22.046c-.103.098-.21.05-.328-.137.106-.121.218-.078.328.137ZM279.476 67.13c-.108-.053-.107-.125.002-.215.118.053.117.125-.002.215Z"/>
  <path fill="#FDD67F" d="M241.815 49.343c-.009-.097.079-.15.254-.198.031.104-.051.183-.254.198Z"/>
  <path fill="#FDCF7F" d="M330.807 173.9c-.114.008-.172-.099-.213-.313.074.011.158.112.213.313Z"/>
  <path fill="#C49664" d="M377.915 187.927c-.136-.064-.13-.186.037-.35.111.074.092.185-.037.35ZM191.132 409.143c-.12-.071-.105-.185.04-.345.148.071.138.187-.04.345Z"/>
  <path fill="#FCC97F" d="M273.894 174.122c.093-.008.144.08.188.257-.099.028-.173-.055-.188-.257Z"/>
  <path fill="#C49664" d="M159.325 184.366c-.101.098-.208.051-.325-.135.106-.118.216-.075.325.135Z"/>
  <path fill="#FDD67F" d="M233.213 36.115c.009.099-.078.152-.254.2-.031-.104.051-.184.254-.2Z"/>
  <path fill="#C49664" d="M241.63 33.737c0 .11-.097.187-.287.248 0-.105.096-.192.287-.248Zm135.708 141.744c-.107-.001-.184-.098-.243-.292.102.001.187.098.243.292Zm-226.781 2.697c-.101.098-.208.051-.325-.136.106-.118.216-.074.325.136Zm149.38 104.031c-.104-.001-.18-.1-.241-.295.1.002.185.1.241.295Zm-85.015-22.043c-.151.052-.231-.038-.254-.27.096-.006.184.084.254.27Zm69.197.164c.106 0 .181.1.245.296-.1-.001-.188-.1-.245-.296Z"/>
  <path fill="#FEB67F" d="M217.137 265.938c-.087.005-.136-.083-.179-.257.096-.025.166.058.179.257Z"/>
  <path fill="#C49664" d="M375.812 165.04c-.106-.001-.183-.098-.242-.292.102.001.187.098.242.292Zm-77.4 105.955c-.104-.002-.179-.1-.24-.295.099.001.184.099.24.295Zm-13.149.549c.106.001.181.1.245.296-.1-.002-.188-.1-.245-.296Zm13.53 2.544c-.104-.001-.179-.1-.24-.295.099.002.184.1.24.295Zm30.131-114.461c-.108-.001-.185-.1-.247-.296.103.001.19.099.247.296Zm-115.887 96.671c-.132.066-.223-.011-.284-.228.126-.07.225.005.284.228ZM119.31 156.125c-.105.096-.212.045-.334-.14.077-.041.192.001.334.14Zm183.424 130.279c.053.085-.135.115-.135.115s-.177-.072-.232-.151c.067-.068.19-.059.367.036Zm-188.39-133.751c-.104.098-.211.05-.329-.137.107-.122.219-.079.329.137Zm-8.774-6.184c-.102.099-.208.052-.325-.135.106-.118.216-.075.325.135Zm257.461 20.277c.108.001.185.099.246.295-.103-.001-.19-.099-.246-.295Z"/>
  <path fill="#FEB67F" d="M92.948 137.602c-.067.042-.142-.008-.248-.13.075-.087.165-.05.248.13Z"/>
  <path fill="#C49664" d="M206.955 246.238c-.128.07-.221-.005-.298-.214.087-.022.192.046.298.214Zm-7.243-9.28c-.128.069-.221-.006-.298-.216.087-.022.192.047.298.216Zm-3.826-4.25c-.127.073-.22.001-.292-.211.086-.022.188.046.292.211Zm-67.808-70.396c-.104.096-.211.045-.333-.141.076-.041.192.002.333.141Z"/>
  <path fill="#FDAA7F" d="M74.966 269.866c2.173-1.918 4.479-3.776 6.899-5.694.169-.12.224-.18.383-.302 4.601-3.905 9.136-7.7 13.52-11.676 4.81-4.362 9.636-8.703 14.314-13.212a811.94 811.94 0 0 1 9.523-8.995c.732.153 1.165.622 1.628 1.059 3.006 2.835 5.641 6.029 8.494 9.013.36.376.627.8.752 1.481-1.626 2.1-3.657 3.643-5.456 5.438-2.386 2.383-4.926 4.606-7.354 6.946-5.823 5.61-11.705 11.156-17.725 16.546-4.263 3.817-8.567 7.586-13.238 11.1-.438-.358-.715-.792-1.066-1.151a2397.835 2397.835 0 0 0-9.38-9.515c-.354-.358-.772-.653-1.294-1.038Zm45.066-40.179c-.011-.081.085-.218.304-.38.016.091-.091.208-.304.38Z"/>
  <path fill="#C49664" d="M38.018 219.715c.122.17.02.344-.22.556-.012-.127.062-.312.22-.556Z"/>
  <path fill="#FDAE7F" d="M155.411 278.268a2817.303 2817.303 0 0 0-6.573 8.416c-.958 1.233-.954 1.247-2.26.495-5.741-3.302-10.778-7.427-14.748-12.837-.643-.876-.631-1.505-.11-2.393 2.237-3.811 4.405-7.663 6.618-11.487.914-1.58 1.142-1.661 2.67-.756 3.46 2.05 6.501 4.681 9.6 7.229 1.525 1.255 3.037 2.527 4.593 3.741 1.021.797 1.137.778 1.982-.233a27.72 27.72 0 0 0 1.816-2.471c1.559-2.347 3.083-4.717 4.877-6.894 1.555-1.886 2.308-2.05 4.328-.597a34.295 34.295 0 0 1 3.515 2.938c3.663 3.468 7.241 7.026 10.651 10.755.544.594.802 1.017.26 1.797-2.265 3.258-4.264 6.703-6.821 9.756-2.413 2.882-3.341 3.107-6.308.771-3.05-2.401-5.95-4.998-8.919-7.505-.779-.658-1.595-1.272-2.348-1.959-.692-.632-1.29-.741-1.893.086-.263.361-.559.697-.93 1.148Z"/>
  <path fill="#FBA27E" d="M123.886 294.189c-1.06 1.497-1.394 1.596-2.645.756-.523-.351-.971-.819-1.442-1.247-.707-.643-1.37-1.342-2.114-1.938-1.291-1.034-1.691-.874-2.229.711-.788 2.323-1.13 4.739-1.42 7.156-.549 4.578-.971 9.172-1.531 13.749-.303 2.479-.686 4.955-1.509 7.333-.233.673-.478 1.328-.976 1.975-1.052-.371-1.361-1.396-1.836-2.241-1.348-2.398-2.478-4.918-3.958-7.244a46.952 46.952 0 0 0-2.663-3.744c-1.434-1.831-3.286-2.7-5.6-2.754-4.2-.098-6.976-2.714-7.492-6.962-.262-2.158.034-4.236 1.055-6.164 1.13-2.132 2.468-2.598 4.558-1.511 2.515 1.308 4.593 3.209 6.433 5.347 2.538 2.949 4.981 5.982 7.469 8.976.279.334.506.749 1.128.816.667-1.989.781-4.095.984-6.169.425-4.343.9-8.673 2.072-12.888.414-1.487.959-2.932 1.802-4.234.955-1.473 1.704-1.764 3.364-1.302 3.089.861 5.334 2.839 7.014 5.538.564.906.742 1.845.355 2.917-.347.959-.521 1.983-.819 3.124Z"/>
  <path fill="#FD957F" d="M66.7 319.779c.71-1.876 1.354-3.616 2.062-5.33.317-.767.739-1.492 1.153-2.212.313-.543.699-1.368 1.34-1.13.826.307.19 1.138.08 1.676-.787 3.828-1.682 7.633-2.464 11.462-.396 1.941-.857 3.913-.882 5.875a17.304 17.304 0 0 0 2.01 8.317c.58 1.103 1.026 1.173 1.905.31.905-.89 1.69-1.907 2.522-2.872.537-.621 1.064-1.251 1.697-1.995 1.384 3.765.775 7.156-.972 10.438-.12.225-.277.431-.42.643-2.799 4.139-6.148 3.8-9.296.415-2.058-2.213-2.523-5.116-2.589-8.059-.082-3.701.838-7.25 1.767-10.781.586-2.23 1.359-4.409 2.087-6.757Z"/>
  <path fill="#FCAF7F" d="M84.552 217.04a800.75 800.75 0 0 0 6.81-9.168c.9-1.233.861-1.254-.17-2.348-1.928-2.046-3.91-4.055-5.047-6.709-2.158-5.037-2.003-9.887 1.385-14.338 1.955-2.57 4.707-3.819 7.851-4.209.513-.063 1.002.055 1.485.244 2.196.864 3.792 3.26 3.857 5.666.111 4.123-.447 8.211-.595 12.321-.031.875.096 1.435.634 2.041 1.524 1.72 3.083 3.417 4.165 5.483.956 1.823 1.815 3.681 1.954 5.791.017.251.208.534.138.738-.239.698-.017 1.646-.861 2.03-.724.33-1.353-.094-1.943-.486-1.597-1.063-2.933-2.448-4.39-3.684-2.05-1.738-2.084-1.758-3.599.364-1.562 2.188-3.008 4.462-4.59 6.635-2.752 3.78-5.818 7.292-9.2 10.678-.634.484-1.101.218-1.461-.141-.981-.981-2.12-1.825-2.797-3.263 1.977-2.492 3.99-4.836 6.094-7.28.123-.165.158-.231.28-.365Z"/>
  <path fill="#F9A57D" d="M78.037 224.584c1.41.463 2.13 1.668 3.11 2.562.323.296.462.781 1.049.965-1.33 2.249-3.362 3.926-5.226 5.739-3.879 3.774-7.823 7.485-12.023 10.897-5.684 4.617-11.545 8.994-17.544 13.179-.904.631-1.83 1.312-3.25 1.522.591-1.187 1.33-1.927 2.063-2.663 5.896-5.931 11.706-11.955 17.729-17.75 4.828-4.645 9.327-9.601 14.092-14.451Zm6.52-7.593c.049.076-.004.159-.136.272-.1-.086-.063-.185.136-.272Z"/>
  <path fill="#C49664" d="M82.26 263.81c.07.123 0 .213-.197.284-.08-.121-.017-.221.198-.284Z"/>
</svg>
