<svg xmlns="http://www.w3.org/2000/svg" xml:space="preserve" viewBox="0 0 100 100">

  <path fill="#EDE9E7" d="M7.01 19.92c.816-1.301 1.638-3.736 2.448-3.732 9.73.046 19.465.328 29.18.866 2.01.111 3.946 1.526 6.12 3.089.205 18.305.205 35.861.205 53.462H7.011V19.92m6.29 17.267c1.093.573 2.157 1.572 3.285 1.65 7.213.506 14.44.81 23.056 1.25-1.468-1.677-2.466-3.918-3.742-4.089-6.87-.922-13.806-1.391-20.732-1.809-.623-.037-1.336 1.41-1.868 2.998M28.973 55.24c-4.314-.069-8.631-.255-12.938-.114-.956.032-1.874 1.221-2.81 1.878.906.692 1.755 1.89 2.725 1.998 7.486.823 14.995 1.436 24.276 2.275-2.091-2.219-3.094-3.96-4.591-4.693-1.706-.834-3.852-.768-6.662-1.344m8.507-29.375c-7.23-.623-14.455-1.322-21.696-1.763-.803-.049-1.695 1.376-2.546 2.118.998.598 1.95 1.61 3 1.727 6.568.734 13.162 1.236 19.74 1.883 3.305.326 3.304-1.236 1.502-3.965M16.824 44.937l-3.584 2.208c1.14.617 2.239 1.661 3.428 1.778 5.915.581 11.852.974 17.788 1.3 1.404.078 2.836-.358 4.255-.558-1.218-1.217-2.324-3.326-3.674-3.496-5.724-.723-11.52-.87-18.213-1.232z"/>
	<path fill="#FFCD82" d="M90.969 62.09c6.92-1.154 7.999-.175 8.011 7.302.006 3.497.133 7.002-.037 10.491-.276 5.657-2.861 10.397-8.332 11.84-9.077 2.397-18.007 2.562-25.518-4.996-3.64-3.665-8.128-6.49-12.645-9.95-.434-.434-.456-.612-.418-1.165 1.128-3.111.729-7.721 5.017-7.036 2.857.456 5.325 3.35 8.528 5.536.122-2.05.29-3.622.297-5.196.03-6.962.033-13.925.007-20.887-.01-2.714.447-5.627 3.81-4.837 1.709.4 3.71 2.961 4.093 4.848.668 3.28.186 6.795.186 10.868 4.288-2.566 7.067-1.633 8.642 2.526 1.263-.89 2.331-1.643 3.732-2.364 1.763 1.027 3.195 2.024 4.627 3.02z"/>
	<path fill="#EDE9E7" d="M90.995 61.64c-1.458-.546-2.89-1.543-4.658-2.966-1.775-1.89-3.19-3.379-4.66-4.81-1.183-1.15-3.04-2.011-3.537-3.385-1.347-3.722-2.13-7.648-2.717-11.522 1.807-.924 3.193-1.82 4.58-2.714-1.385-.729-2.805-2.138-4.147-2.068-5.928.309-11.833 1.055-17.748 1.62-3.353.32-3.57 2.155-2.566 4.677 3.3-.472 6.389-.913 9.423-.993-1.026 3.709-2.508 7.005-2.847 10.414-.48 4.85-.122 9.782-.122 12.856-5.219 2.127-9.063 3.694-12.954 4.794-.048-16.142-.05-31.817-.051-47.492 3.488-1.344 6.915-3.607 10.478-3.848 8.445-.572 16.955-.184 25.704-.184.602 1.801 1.163 3.482 1.754 6.026.024 10.596.08 20.33-.02 30.06-.03 2.903.716 4.527 3.963 3.72.05 1.789.1 3.578.125 5.816M75.32 28.028l4.602-2.16c-1.457-.628-2.926-1.814-4.37-1.783-5.608.121-11.221.494-16.805 1.056-2.393.24-4.66 1.21-3.166 4.365 6.382-.501 12.59-.988 19.74-1.478z"/>
	<path fill="#BCABA5" d="M48.593 20.006c.4 15.72.401 31.395.406 47.957.092 3.641-1.091 6.924 2.972 8.023.021.179.043.357.114.8-1.247 5.53-5.244 6.867-9.533 3.83-1.833-1.298-4.263-2.394-6.447-2.444-10.774-.247-21.556-.113-32.582-.113-.204-1.422-.498-2.522-.5-3.623-.025-16.786-.003-33.571-.016-50.357-.002-2.227-.28-4.561 3.57-4.162.434 17.77.434 35.537.434 53.688h37.952c0-17.6 0-35.157.015-53.187 1.082-.468 2.15-.463 3.615-.412z"/>
	<path fill="#BBAAA4" d="M90.857 55.373c-3.234 1.26-3.98-.365-3.95-3.267.1-9.732.044-19.465.068-29.669 3.214-.99 3.956.579 3.914 3.512-.136 9.655-.047 19.314-.032 29.424z"/>
	<path fill="#C2B2AD" d="M13.23 36.771c.602-1.172 1.315-2.62 1.938-2.582 6.926.418 13.861.887 20.732 1.809 1.276.171 2.274 2.412 3.742 4.09-8.615-.442-15.843-.745-23.056-1.25-1.128-.08-2.192-1.078-3.355-2.067z"/>
	<path fill="#C0B0AA" d="M29.4 55.366c2.383.451 4.53.385 6.235 1.22 1.497.731 2.5 2.473 4.59 4.692-9.28-.84-16.789-1.452-24.275-2.275-.97-.107-1.82-1.306-2.725-1.998.936-.657 1.854-1.846 2.81-1.878 4.307-.141 8.624.045 13.366.24z"/>
	<path fill="#BEADA8" d="M37.822 26.071c1.46 2.524 1.46 4.086-1.844 3.76-6.578-.647-13.172-1.149-19.74-1.883-1.05-.118-2.002-1.129-3-1.727.851-.742 1.743-2.167 2.546-2.118 7.24.44 14.466 1.14 22.038 1.968zM17.286 44.94c6.23.359 12.027.506 17.75 1.229 1.351.17 2.457 2.28 3.675 3.496-1.419.2-2.85.636-4.255.559-5.936-.327-11.873-.72-17.788-1.301-1.19-.117-2.288-1.161-3.428-1.778 1.195-.736 2.39-1.472 4.046-2.206z"/>
	<path fill="#F5F3EF" d="M52.03 75.612c-4.122-.725-2.939-4.008-2.985-7.182 3.888-1.987 7.732-3.554 12.951-5.68 0-3.075-.359-8.008.122-12.857.339-3.41 1.821-6.705 3.297-10.466 3.533-.423 6.56-.432 9.588-.441 1.007 3.845 1.79 7.771 3.137 11.493.497 1.374 2.354 2.235 3.537 3.385 1.47 1.431 2.885 2.92 4.328 4.779-1.064 1.148-2.132 1.901-3.395 2.79-1.575-4.158-4.354-5.091-8.642-2.525 0-4.073.482-7.588-.186-10.868-.384-1.887-2.384-4.447-4.093-4.848-3.363-.79-3.82 2.123-3.81 4.837.026 6.962.023 13.925-.007 20.887-.007 1.574-.175 3.147-.297 5.196-3.203-2.186-5.67-5.08-8.528-5.536-4.288-.685-3.89 3.925-5.017 7.036z"/>
	<path fill="#C1B1AB" d="M75.423 38.957c-3.448.038-6.475.047-9.953.108-3.539.494-6.628.935-9.928 1.407-1.004-2.522-.787-4.357 2.566-4.677 5.915-.565 11.82-1.311 17.748-1.62 1.342-.07 2.762 1.34 4.146 2.068-1.386.895-2.772 1.79-4.579 2.714z"/>
	<path fill="#BDACA6" d="M74.85 28.03c-6.679.488-12.887.975-19.27 1.476-1.493-3.154.774-4.124 3.167-4.365 5.584-.562 11.197-.935 16.806-1.056 1.443-.031 2.912 1.155 4.37 1.782-1.535.72-3.069 1.44-5.073 2.162z"/>
</svg>
