<svg xmlns="http://www.w3.org/2000/svg" fill="none" viewBox="0 0 84 84">
    <path fill="#AAA5A8" d="M78.726 63.312c0 3.003-3.87 5.883-10.757 8.006S51.74 74.634 42 74.634c-4.823 0-9.599-.293-14.054-.862-4.456-.569-8.505-1.403-11.915-2.454-6.888-2.123-10.757-5.003-10.757-8.006s3.87-5.883 10.757-8.006S32.26 51.99 42 51.99c9.74 0 19.082 1.193 25.97 3.316 6.887 2.123 10.756 5.003 10.756 8.006Z"/>
    <path fill="#CE7A15" d="m41.166 58.12 1.007-3.143 29.564 9.472-1.007 3.142-29.564-9.471Z"/>
    <path fill="#9B5100" d="m50.064 61.284-8.898-3.162 1.008-3.144 13.596 4.356-5.706 1.95Z"/>
    <path fill="#FFBF4D" d="M71.646 64.734 70.02 66.6l-25.584-7.566 26.298 8.556.912-2.856Z"/>
    <path fill="#171C47" d="m70.638 67.878-29.562-9.474a.298.298 0 0 1-.192-.378l1.008-3.144a.303.303 0 0 1 .378-.192l29.562 9.474a.298.298 0 0 1 .192.378l-1.008 3.144a.288.288 0 0 1-.15.174.279.279 0 0 1-.138.036c-.024-.006-.06-.012-.09-.018ZM42.366 55.356l-.822 2.574 28.992 9.288.822-2.574-28.992-9.288Z"/>
    <path fill="#9B5100" d="m71.736 64.452-29.562-9.474v-7.914l29.562 9.468v7.92Z"/>
    <path fill="#7F3F00" d="M60.798 53.028c-1.77 1.194-5.118 7.068 10.938 7.926v3.492l-29.562-9.468v-7.914l18.624 5.964Z"/>
    <path fill="#CE7A15" d="M71.736 57.576 56.022 51.81l15.714 4.722v1.044Zm-.3 1.098.3 5.778-29.562-9.474v-.654l28.614 8.982.648-4.632Z"/>
    <path fill="#171C47" d="M71.646 64.734 42.084 55.26a.303.303 0 0 1-.21-.288v-7.908c0-.096.048-.186.126-.24a.31.31 0 0 1 .27-.042l29.562 9.474c.126.042.21.156.21.288v7.914a.293.293 0 0 1-.126.24.32.32 0 0 1-.174.06.45.45 0 0 1-.096-.024ZM42.474 47.472v7.284l28.962 9.282v-7.284l-28.962-9.282Z"/>
    <path fill="#CE7A15" d="m12.26 64.448 29.564-9.472 1.006 3.143-29.563 9.471-1.007-3.142Z"/>
    <path fill="#9B5100" d="m33.936 61.284 8.898-3.162-1.008-3.144-13.596 4.356 5.706 1.95Z"/>
    <path fill="#FFBF4D" d="M12.354 64.734 13.98 66.6l25.584-7.566-26.298 8.556-.912-2.856Z"/>
    <path fill="#171C47" d="M13.266 67.89a.279.279 0 0 1-.138-.036.305.305 0 0 1-.15-.174l-1.008-3.144a.305.305 0 0 1 .192-.378l29.562-9.474a.3.3 0 0 1 .378.192l1.008 3.144a.305.305 0 0 1-.192.378l-29.562 9.474a.22.22 0 0 1-.09.018Zm-.63-3.246.822 2.574L42.45 57.93l-.822-2.574-28.992 9.288Z"/>
    <path fill="#9B5100" d="m12.264 64.452 29.562-9.474v-7.914l-29.562 9.468v7.92Z"/>
    <path fill="#7F3F00" d="M23.202 53.028c1.77 1.194 5.118 7.068-10.938 7.926v3.492l29.562-9.474v-7.908l-18.624 5.964Z"/>
    <path fill="#CE7A15" d="m12.264 57.576 15.714-5.766-15.714 4.722v1.044Zm.3 1.098-.3 5.778 29.562-9.474v-.654l-28.614 8.982-.648-4.632Z"/>
    <path fill="#171C47" d="M12.264 64.752a.267.267 0 0 1-.174-.06.293.293 0 0 1-.126-.24v-7.92c0-.132.084-.246.21-.288l29.562-9.474a.31.31 0 0 1 .27.042.293.293 0 0 1 .126.24v7.914a.303.303 0 0 1-.21.288L12.36 64.728a.206.206 0 0 1-.096.024Zm.3-7.998v7.284l28.962-9.282v-7.284l-28.962 9.282Z"/>
    <path fill="#9B5100" d="m11.778 7.92.66-2.058V46.05l-.66 2.058V7.92Z"/>
    <path fill="#171C47" d="M11.778 48.408c-.018 0-.03 0-.048-.006a.302.302 0 0 1-.252-.294V7.92c0-.03.006-.06.012-.09l.66-2.058a.302.302 0 0 1 .33-.204c.144.024.252.15.252.294V46.05c0 .03-.006.06-.012.09l-.66 2.058a.295.295 0 0 1-.282.21Zm.3-40.44v38.22l.06-.186V7.782l-.06.186Z"/>
    <path fill="#CE7A15" d="m11.773 48.107.659-2.057 29.563 9.472-.659 2.056-29.563-9.471Z"/>
    <path fill="#FFBF4D" d="m12.078 47.694.36-1.644L42 55.518l-1.776-.024-27.228-8.538-.918.738Z"/>
    <path fill="#171C47" d="M41.34 57.876c-.03 0-.06-.006-.09-.012L11.682 48.39a.298.298 0 0 1-.192-.378l.66-2.058a.303.303 0 0 1 .378-.192l29.562 9.474a.298.298 0 0 1 .192.378l-.66 2.058a.288.288 0 0 1-.15.174.305.305 0 0 1-.132.03ZM12.156 47.91l28.992 9.288.474-1.488-28.992-9.282-.474 1.482Z"/>
    <path fill="#9B5100" d="M42 15.336 12.438 5.862V46.05L42 55.518V15.336Z"/>
    <path fill="#7F3F00" d="M14.298 6.588c.18 21.714 4.716 31.716 5.022 35.892a.984.984 0 0 0 .018.066c7.572 6.348 13.128 4.2 18.684 11.7L42 55.518V15.336L14.298 6.588Z"/>
    <path fill="#CE7A15" d="M13.884 44.91 12.738 6.276l-.174 39.912 26.91 8.43-25.59-9.708Z"/>
    <path fill="#171C47" d="M42 55.818c-.03 0-.06-.006-.09-.012l-29.568-9.474a.303.303 0 0 1-.21-.288V5.862c0-.096.048-.186.126-.24a.31.31 0 0 1 .27-.042l29.562 9.474c.126.042.21.156.21.288V55.53a.293.293 0 0 1-.126.24.344.344 0 0 1-.174.048Zm-29.262-9.99L41.7 55.11V15.552L12.738 6.276v39.552Z"/>
    <path fill="#9B5100" d="m72.222 7.92-.66-2.058V46.05l.66 2.058V7.92Z"/>
    <path fill="#171C47" d="m71.94 48.198-.66-2.058c-.012-.03-.012-.06-.012-.09V5.862c0-.15.108-.276.252-.294a.298.298 0 0 1 .33.204l.66 2.058c.012.03.012.06.012.09v40.188c0 .15-.108.276-.252.294-.018 0-.03.006-.048.006a.295.295 0 0 1-.282-.21Zm-.078-40.416v38.22l.06.186V7.968l-.06-.186Z"/>
    <path fill="#CE7A15" d="m42 55.516 29.564-9.472.659 2.057-29.563 9.472-.66-2.057Z"/>
    <path fill="#FFBF4D" d="m71.922 47.694-.36-1.644L42 55.518l1.776-.024 27.228-8.538.918.738Z"/>
    <path fill="#171C47" d="M42.522 57.846a.305.305 0 0 1-.15-.174l-.66-2.058a.305.305 0 0 1 .192-.378l29.562-9.474a.3.3 0 0 1 .378.192l.66 2.058a.305.305 0 0 1-.192.378L42.75 57.864c-.03.012-.06.012-.09.012a.356.356 0 0 1-.138-.03ZM71.37 46.428l-28.992 9.288.474 1.488 28.992-9.288-.474-1.488Z"/>
    <path fill="#9B5100" d="m42 15.336 29.562-9.474V46.05L42 55.518V15.336Z"/>
    <path fill="#7F3F00" d="M69.702 6.588c-.18 21.714-4.716 31.716-5.022 35.892-.006.024-.012.048-.018.066-7.572 6.348-13.128 4.2-18.684 11.7L42 55.518V15.336l27.702-8.748Z"/>
    <path fill="#CE7A15" d="m70.116 44.91 1.146-38.634.174 39.912-26.91 8.43 25.59-9.708Z"/>
    <path fill="#171C47" d="M41.826 55.764a.293.293 0 0 1-.126-.24V15.336c0-.132.084-.246.21-.288L71.472 5.58a.31.31 0 0 1 .27.042.293.293 0 0 1 .126.24V46.05a.303.303 0 0 1-.21.288L42.09 55.806c-.03.012-.06.012-.09.012a.299.299 0 0 1-.174-.054ZM71.262 6.276 42.3 15.552V55.11l28.962-9.282V6.276Z"/>
    <path fill="#30AA17" d="m42 16.788 25.122-8.052v34.152L42 50.94V16.788Z"/>
    <path fill="#171C47" d="M42 51.24a.267.267 0 0 1-.174-.06.293.293 0 0 1-.126-.24V16.788c0-.132.084-.246.21-.288l25.128-8.052a.31.31 0 0 1 .27.042.293.293 0 0 1 .126.24v34.152a.303.303 0 0 1-.21.288L42.09 51.222a.24.24 0 0 1-.09.018Zm.3-34.236v33.522l24.528-7.86V9.15L42.3 17.004Z"/>
    <path fill="#30AA17" d="M42 16.788 16.878 8.736v34.152L42 50.94V16.788Z"/>
    <path fill="#171C47" d="M42 51.24c-.03 0-.06-.006-.09-.012l-25.128-8.052a.303.303 0 0 1-.21-.288V8.736c0-.096.048-.186.126-.24a.31.31 0 0 1 .27-.042L42.09 16.5c.126.042.21.156.21.288V50.94a.293.293 0 0 1-.126.24.305.305 0 0 1-.174.06Zm-24.822-8.568 24.522 7.86V17.004l-24.522-7.86v33.528Z"/>
    <path fill="#9B5100" d="M45.18 56.55a3.18 3.18 0 1 1-6.36 0 3.18 3.18 0 0 1 6.36 0Z"/>
    <path fill="#CE7A15" d="M44.832 56.202a2.832 2.832 0 1 1-5.664 0 2.832 2.832 0 0 1 5.664 0Z"/>
    <path fill="#FFBF4D" d="M42 53.982a2.83 2.83 0 0 1 2.814 2.526A2.83 2.83 0 0 0 42 53.37a2.83 2.83 0 0 0-2.814 3.138A2.83 2.83 0 0 1 42 53.982Z"/>
    <path fill="#171C47" d="M42 60.03c-1.92 0-3.48-1.56-3.48-3.48s1.56-3.48 3.48-3.48 3.48 1.56 3.48 3.48-1.56 3.48-3.48 3.48Zm0-6.36a2.88 2.88 0 1 0 .001 5.761A2.88 2.88 0 0 0 42 53.67Z"/>
    <path fill="#9B5100" d="M43.47 56.226a1.47 1.47 0 1 1-2.94 0 1.47 1.47 0 0 1 2.94 0Z"/>
    <path fill="#7F3F00" d="M43.152 56.55a1.152 1.152 0 1 1-2.304 0 1.152 1.152 0 0 1 2.304 0Z"/>
    <path fill="#9B5100" d="M42.75 56.952a.75.75 0 1 1-1.5 0 .75.75 0 0 1 1.5 0Z"/>
    <path fill="#171C47" d="M42 57.996a1.453 1.453 0 1 1 .002-2.906A1.453 1.453 0 0 1 42 57.996Zm0-2.298a.855.855 0 0 0-.852.852c0 .468.384.852.852.852a.855.855 0 0 0 .852-.852.855.855 0 0 0-.852-.852Z"/>
    <path fill="#C6CBE0" d="m42 18.846 22.734-8.922v30.9L42 48.108V18.846Z"/>
    <path fill="#171C47" d="M42 48.408a.267.267 0 0 1-.174-.06.293.293 0 0 1-.126-.24V18.846c0-.126.078-.234.192-.282L64.62 9.642a.3.3 0 0 1 .408.276v30.9a.303.303 0 0 1-.21.288L42.09 48.39a.24.24 0 0 1-.09.018Zm.3-29.358v28.644l22.134-7.092v-30.24L42.3 19.05Z"/>
    <path fill="#C6CBE0" d="M42 18.846 19.266 9.924v30.9L42 48.108V18.846Z"/>
    <path fill="#171C47" d="M42 48.408c-.03 0-.06-.006-.09-.012l-22.734-7.29a.303.303 0 0 1-.21-.288v-30.9c0-.102.048-.192.132-.246a.302.302 0 0 1 .276-.03l22.734 8.922a.307.307 0 0 1 .192.282v29.262a.293.293 0 0 1-.126.24.305.305 0 0 1-.174.06Zm-22.434-7.806L41.7 47.694V19.05l-22.134-8.688v30.24Z"/>
    <path fill="#F8F9FF" d="m42 13.566 19.788-8.922v30.9L42 44.466v-30.9Z"/>
    <path fill="#30AA17" d="M43.08 42.792v-28.53l17.628-7.95v28.53l-17.628 7.95Zm1.2-27.756v25.896l15.228-6.864V8.172L44.28 15.036Z"/>
    <path fill="#171C47" d="M42 44.766a.303.303 0 0 1-.3-.3v-30.9c0-.12.072-.228.174-.276l19.788-8.922a.293.293 0 0 1 .288.024c.084.054.138.15.138.252v30.9c0 .12-.072.228-.174.276l-19.788 8.916a.322.322 0 0 1-.126.03Zm.3-31.008v30.24l19.188-8.652V5.106L42.3 13.758Z"/>
    <path fill="#F8F9FF" d="M42 13.566 22.212 4.644v30.9L42 44.466v-30.9Z"/>
    <path fill="#30AA17" d="M23.046 34.842V6.318l17.628 7.95v28.53l-17.628-7.956Zm1.2-26.67v25.896l15.228 6.864V15.036L24.246 8.172Z"/>
    <path fill="#171C47" d="M42 44.766a.313.313 0 0 1-.126-.024l-19.782-8.928a.298.298 0 0 1-.174-.276v-30.9a.303.303 0 0 1 .426-.276l19.788 8.922a.298.298 0 0 1 .174.276v30.9a.303.303 0 0 1-.138.252.309.309 0 0 1-.168.054Zm-19.488-9.42L41.7 43.998v-30.24L22.512 5.106v30.24Z"/>
    <path fill="#A1AAC9" d="m61.788 4.644 2.946 5.28v30.9l-2.946-5.28v-30.9Z"/>
    <path fill="#171C47" d="M64.734 41.124a.305.305 0 0 1-.264-.156l-2.946-5.28a.302.302 0 0 1-.036-.144v-30.9a.29.29 0 0 1 .222-.288.295.295 0 0 1 .336.144l2.946 5.28a.302.302 0 0 1 .036.144v30.9a.29.29 0 0 1-.222.288.301.301 0 0 1-.072.012Zm-2.646-5.658 2.346 4.206v-29.67l-2.346-4.206v29.67Z"/>
    <path fill="#A1AAC9" d="m22.212 4.644-2.946 5.28v30.9l2.946-5.28v-30.9Z"/>
    <path fill="#171C47" d="M19.266 41.124c-.024 0-.048-.006-.078-.012a.3.3 0 0 1-.222-.288v-30.9c0-.054.012-.102.036-.144l2.946-5.28a.295.295 0 0 1 .336-.144.3.3 0 0 1 .222.288v30.9a.285.285 0 0 1-.036.144l-2.946 5.28a.289.289 0 0 1-.258.156Zm.3-31.122v29.67l2.346-4.206V5.796l-2.346 4.206Z"/>
    <path fill="#EFD912" d="M41.49 47.622a1.439 1.439 0 0 1-1.26-1.602 1.439 1.439 0 1 1 2.856.342 1.439 1.439 0 0 1-1.428 1.272c-.054 0-.108-.006-.168-.012Z"/>
    <path fill="#EFD912" d="M43.2 46.398a1.44 1.44 0 1 1 2.778-.762 1.44 1.44 0 0 1-1.008 1.77 1.413 1.413 0 0 1-.384.054 1.453 1.453 0 0 1-1.386-1.062Zm-4.902.426a1.444 1.444 0 0 1-.846-1.854 1.444 1.444 0 0 1 1.854-.846 1.444 1.444 0 0 1 .846 1.854 1.447 1.447 0 0 1-1.35.936 1.246 1.246 0 0 1-.504-.09Z"/>
    <path fill="#EFD912" d="M46.14 45.654a1.441 1.441 0 1 1 .966.378 1.464 1.464 0 0 1-.966-.378Zm-10.728-.21a1.44 1.44 0 0 1-.516-1.968 1.439 1.439 0 0 1 1.974-.51c.684.402.918 1.284.51 1.968-.27.456-.75.714-1.242.714a1.545 1.545 0 0 1-.726-.204Zm-2.604-1.812a1.446 1.446 0 0 1-.21-2.028 1.446 1.446 0 0 1 2.028-.21c.618.504.708 1.41.21 2.028a1.43 1.43 0 0 1-1.116.528 1.421 1.421 0 0 1-.912-.318Z"/>
    <path fill="#EFD912" d="M48.024 43.35a1.433 1.433 0 0 1-1.11-1.704c.162-.78.93-1.278 1.704-1.11.78.162 1.278.93 1.11 1.704a1.441 1.441 0 0 1-1.704 1.11ZM30.51 41.436a1.442 1.442 0 0 1 2.154-1.914 1.442 1.442 0 0 1-1.074 2.4 1.463 1.463 0 0 1-1.08-.486Zm18.042-.99a1.44 1.44 0 1 1 .192.012c-.066 0-.126-.006-.192-.012ZM28.596 38.82a1.434 1.434 0 0 1 .522-1.968 1.437 1.437 0 0 1 1.968.522c.402.69.168 1.566-.522 1.968a1.432 1.432 0 0 1-1.968-.522Z"/>
    <path fill="#EFD912" d="M48.894 37.5a1.441 1.441 0 1 1 1.824-.918 1.433 1.433 0 0 1-1.368.984c-.15.006-.3-.018-.456-.066Zm-21.576-1.776a1.442 1.442 0 0 1 1.056-1.74 1.442 1.442 0 0 1 1.74 1.056 1.442 1.442 0 0 1-1.398 1.782 1.446 1.446 0 0 1-1.398-1.098Z"/>
    <path fill="#EFD912" d="M49.836 34.674a1.44 1.44 0 1 1 2.022-.24c-.282.36-.708.546-1.134.546a1.378 1.378 0 0 1-.888-.306Zm-21.498-.804a1.443 1.443 0 0 1-1.152-1.68c.144-.78.9-1.296 1.68-1.152.78.144 1.296.9 1.152 1.68a1.433 1.433 0 0 1-1.68 1.152Z"/>
    <path fill="#EFD912" d="M51.804 32.502a1.436 1.436 0 0 1 .102-2.034 1.436 1.436 0 0 1 2.034.102c.534.588.492 1.5-.096 2.034a1.428 1.428 0 0 1-.966.372 1.46 1.46 0 0 1-1.074-.474Zm-22.836-1.53a1.436 1.436 0 0 1-.468-1.98 1.435 1.435 0 0 1 1.98-.468c.678.42.888 1.302.468 1.98a1.431 1.431 0 0 1-1.98.468Z"/>
    <path fill="#EFD912" d="M54.018 30.504a1.443 1.443 0 0 1-.63-1.938c.36-.708 1.23-.99 1.938-.63s.99 1.23.63 1.938a1.441 1.441 0 0 1-1.938.63Zm-23.49-2.064a1.443 1.443 0 0 1 2.28-1.764 1.442 1.442 0 0 1-1.14 2.322c-.426 0-.852-.192-1.14-.558Z"/>
    <path fill="#EFD912" d="M55.368 27.822a1.44 1.44 0 1 1 .03 0h-.03ZM32.91 26.676a1.444 1.444 0 0 1 .828-1.86 1.444 1.444 0 0 1 1.86.828 1.444 1.444 0 0 1-1.344 1.956 1.436 1.436 0 0 1-1.344-.924Zm2.772-1.008a1.447 1.447 0 0 1 .99-1.782 1.45 1.45 0 0 1 1.782.99 1.447 1.447 0 0 1-.99 1.782 1.442 1.442 0 0 1-1.782-.99Zm2.85-.786c-.27-.75.114-1.572.858-1.848.75-.27 1.572.114 1.848.858a1.441 1.441 0 0 1-1.35 1.938c-.594 0-1.146-.36-1.356-.948Z"/>
    <path fill="#EFD912" d="M53.49 24.108a1.446 1.446 0 0 1 .72-1.908 1.44 1.44 0 0 1 1.908.72 1.44 1.44 0 0 1-1.314 2.034 1.44 1.44 0 0 1-1.314-.846Zm-12.18-.228a1.436 1.436 0 0 1 .54-1.962 1.436 1.436 0 0 1 1.962.54c.396.69.15 1.572-.54 1.962a1.466 1.466 0 0 1-.714.192 1.474 1.474 0 0 1-1.248-.732Zm2.568-1.47a1.436 1.436 0 0 1 .168-2.046c.006-.006.018-.012.024-.018a1.443 1.443 0 0 1 2.034.138c.522.6.462 1.506-.138 2.034-.006.006-.018.018-.03.024l-.024.024c-.27.234-.606.354-.942.354a1.527 1.527 0 0 1-1.092-.51Z"/>
    <path fill="#EFD912" d="M52.116 22.254a1.443 1.443 0 0 1 1.89-2.178c.6.522.666 1.428.144 2.028-.288.33-.684.498-1.092.498-.336 0-.672-.114-.942-.348Zm-5.946-1.872c-.24-.756.18-1.566.942-1.806.756-.24 1.566.18 1.806.942a1.438 1.438 0 0 1-1.374 1.872 1.45 1.45 0 0 1-1.374-1.008Z"/>
    <path fill="#EFD912" d="M50.136 21.228a1.44 1.44 0 0 1-1.08-1.728 1.44 1.44 0 0 1 1.728-1.08 1.44 1.44 0 0 1-.324 2.844 1.49 1.49 0 0 1-.324-.036Z"/>
    <path fill="#DD9F03" d="M44.244 56.184a1.44 1.44 0 1 1 .762-2.778 1.44 1.44 0 0 1 1.008 1.77 1.439 1.439 0 0 1-1.386 1.062 2.042 2.042 0 0 1-.384-.054Z"/>
    <path fill="#EFD912" d="M44.352 55.362a1.02 1.02 0 1 1 .54-1.968 1.023 1.023 0 0 1-.27 2.01 1.403 1.403 0 0 1-.27-.042Z"/>
    <path fill="#FCFF71" d="M44.46 54.768a.613.613 0 0 1-.432-.756.613.613 0 0 1 .756-.432.613.613 0 0 1-.162 1.206.376.376 0 0 1-.162-.018Z"/>
    <path fill="#DD9F03" d="M44.97 53.274a1.44 1.44 0 1 1 .762-2.778 1.44 1.44 0 0 1 1.008 1.77 1.439 1.439 0 0 1-1.386 1.062 1.647 1.647 0 0 1-.384-.054Z"/>
    <path fill="#EFD912" d="M45.078 52.452a1.02 1.02 0 1 1 .54-1.968 1.023 1.023 0 0 1-.27 2.01 1.403 1.403 0 0 1-.27-.042Z"/>
    <path fill="#FCFF71" d="M45.186 51.864a.613.613 0 0 1-.432-.756.613.613 0 0 1 .756-.432.613.613 0 0 1-.162 1.206.745.745 0 0 1-.162-.018Z"/>
    <path fill="#DD9F03" d="M44.994 50.286a1.44 1.44 0 1 1 .762-2.778 1.44 1.44 0 0 1 1.008 1.77 1.439 1.439 0 0 1-1.77 1.008Z"/>
    <path fill="#EFD912" d="M45.102 49.47a1.02 1.02 0 1 1 .54-1.968 1.023 1.023 0 0 1-.27 2.01 1.403 1.403 0 0 1-.27-.042Z"/>
    <path fill="#FCFF71" d="M45.21 48.876a.613.613 0 0 1-.432-.756.613.613 0 0 1 .756-.432.613.613 0 0 1-.162 1.206.376.376 0 0 1-.162-.018Z"/>
    <path fill="#DD9F03" d="M44.208 47.406a1.44 1.44 0 1 1 .762-2.778 1.44 1.44 0 0 1 1.008 1.77 1.439 1.439 0 0 1-1.386 1.062 1.693 1.693 0 0 1-.384-.054Z"/>
    <path fill="#EFD912" d="M44.322 46.584a1.02 1.02 0 1 1 .54-1.968 1.023 1.023 0 0 1-.27 2.01 1.403 1.403 0 0 1-.27-.042Z"/>
    <path fill="#FCFF71" d="M44.43 45.996a.613.613 0 0 1-.432-.756.613.613 0 0 1 .756-.432.613.613 0 0 1-.162 1.206.745.745 0 0 1-.162-.018Z"/>
    <path fill="#DD9F03" d="M46.728 45.978a1.44 1.44 0 1 1 .762-2.778 1.44 1.44 0 0 1 1.008 1.77 1.439 1.439 0 0 1-1.386 1.062 2.19 2.19 0 0 1-.384-.054Z"/>
    <path fill="#EFD912" d="M46.842 45.156a1.02 1.02 0 1 1 .54-1.968 1.023 1.023 0 0 1-.27 2.01 1.403 1.403 0 0 1-.27-.042Z"/>
    <path fill="#FCFF71" d="M46.95 44.568a.613.613 0 0 1-.432-.756.613.613 0 0 1 .756-.432.613.613 0 0 1-.162 1.206.745.745 0 0 1-.162-.018Z"/>
    <path fill="#DD9F03" d="M47.94 43.332a1.44 1.44 0 1 1 .762-2.778 1.44 1.44 0 0 1 1.008 1.77 1.439 1.439 0 0 1-1.386 1.062 1.74 1.74 0 0 1-.384-.054Z"/>
    <path fill="#EFD912" d="M48.054 42.51a1.02 1.02 0 1 1 .54-1.968 1.023 1.023 0 0 1-.27 2.01 1.403 1.403 0 0 1-.27-.042Z"/>
    <path fill="#FCFF71" d="M48.162 41.922a.613.613 0 0 1-.432-.756.613.613 0 0 1 .756-.432.613.613 0 0 1-.162 1.206.745.745 0 0 1-.162-.018Z"/>
    <path fill="#DD9F03" d="M48.36 40.41a1.44 1.44 0 1 1 .762-2.778 1.44 1.44 0 0 1 1.008 1.77 1.439 1.439 0 0 1-1.386 1.062 2.113 2.113 0 0 1-.384-.054Z"/>
    <path fill="#EFD912" d="M48.474 39.588a1.02 1.02 0 1 1 .54-1.968 1.023 1.023 0 0 1-.27 2.01 1.403 1.403 0 0 1-.27-.042Z"/>
    <path fill="#FCFF71" d="M48.582 38.994a.613.613 0 0 1-.432-.756.613.613 0 0 1 .756-.432.613.613 0 0 1-.162 1.206.376.376 0 0 1-.162-.018Z"/>
    <path fill="#DD9F03" d="M48.972 37.524a1.44 1.44 0 1 1 .762-2.778 1.44 1.44 0 0 1 1.008 1.77 1.439 1.439 0 0 1-1.386 1.062 1.647 1.647 0 0 1-.384-.054Z"/>
    <path fill="#EFD912" d="M49.08 36.702a1.02 1.02 0 1 1 .54-1.968 1.023 1.023 0 0 1-.27 2.01 1.403 1.403 0 0 1-.27-.042Z"/>
    <path fill="#FCFF71" d="M49.188 36.114a.613.613 0 0 1-.432-.756.613.613 0 0 1 .756-.432.613.613 0 0 1-.162 1.206.745.745 0 0 1-.162-.018Z"/>
    <path fill="#DD9F03" d="M50.346 34.938a1.44 1.44 0 1 1 .762-2.778 1.44 1.44 0 0 1 1.008 1.77 1.439 1.439 0 0 1-1.386 1.062 2.19 2.19 0 0 1-.384-.054Z"/>
    <path fill="#EFD912" d="M50.46 34.116a1.02 1.02 0 1 1 .54-1.968 1.023 1.023 0 0 1-.27 2.01 1.403 1.403 0 0 1-.27-.042Z"/>
    <path fill="#FCFF71" d="M50.568 33.522a.613.613 0 0 1-.432-.756.613.613 0 0 1 .756-.432.613.613 0 0 1-.162 1.206.376.376 0 0 1-.162-.018Z"/>
    <path fill="#DD9F03" d="M52.488 32.922a1.44 1.44 0 1 1 .762-2.778 1.44 1.44 0 0 1 1.008 1.77 1.439 1.439 0 0 1-1.77 1.008Z"/>
    <path fill="#EFD912" d="M52.596 32.1a1.02 1.02 0 1 1 .54-1.968 1.023 1.023 0 0 1-.27 2.01c-.084-.006-.18-.012-.27-.042Z"/>
    <path fill="#FCFF71" d="M52.704 31.512a.613.613 0 0 1-.432-.756.613.613 0 0 1 .756-.432.613.613 0 0 1-.162 1.206.787.787 0 0 1-.162-.018Z"/>
    <path fill="#DD9F03" d="M54.294 30.606a1.44 1.44 0 1 1 .762-2.778 1.44 1.44 0 0 1 1.008 1.77 1.439 1.439 0 0 1-1.77 1.008Z"/>
    <path fill="#EFD912" d="M54.402 29.79a1.02 1.02 0 1 1 .54-1.968 1.023 1.023 0 0 1-.27 2.01 1.478 1.478 0 0 1-.27-.042Z"/>
    <path fill="#FCFF71" d="M54.51 29.196a.613.613 0 0 1-.432-.756.613.613 0 0 1 .756-.432.613.613 0 0 1-.162 1.206.376.376 0 0 1-.162-.018Z"/>
    <path fill="#DD9F03" d="M55.014 27.774a1.44 1.44 0 1 1 .762-2.778 1.44 1.44 0 0 1 1.008 1.77 1.439 1.439 0 0 1-1.386 1.062 2.19 2.19 0 0 1-.384-.054Z"/>
    <path fill="#EFD912" d="M55.128 26.952a1.02 1.02 0 1 1 .54-1.968 1.023 1.023 0 0 1-.27 2.01 1.403 1.403 0 0 1-.27-.042Z"/>
    <path fill="#FCFF71" d="M55.236 26.358a.613.613 0 0 1-.432-.756.613.613 0 0 1 .756-.432.613.613 0 0 1-.162 1.206.376.376 0 0 1-.162-.018Z"/>
    <path fill="#DD9F03" d="M54.426 24.906a1.44 1.44 0 1 1 .762-2.778 1.44 1.44 0 0 1 1.008 1.77 1.439 1.439 0 0 1-1.386 1.062 1.647 1.647 0 0 1-.384-.054Z"/>
    <path fill="#EFD912" d="M54.534 24.084a1.02 1.02 0 1 1 .54-1.968 1.023 1.023 0 0 1-.27 2.01 1.403 1.403 0 0 1-.27-.042Z"/>
    <path fill="#FCFF71" d="M54.642 23.496a.613.613 0 0 1-.432-.756.613.613 0 0 1 .756-.432.613.613 0 0 1-.162 1.206.745.745 0 0 1-.162-.018Z"/>
    <path fill="#DD9F03" d="M52.674 22.554a1.44 1.44 0 1 1 .762-2.778 1.44 1.44 0 0 1 1.008 1.77 1.439 1.439 0 0 1-1.77 1.008Z"/>
    <path fill="#EFD912" d="M52.788 21.732a1.02 1.02 0 1 1 .54-1.968 1.023 1.023 0 0 1-.27 2.01 1.403 1.403 0 0 1-.27-.042Z"/>
    <path fill="#FCFF71" d="M52.896 21.144a.613.613 0 0 1-.432-.756.613.613 0 0 1 .756-.432.613.613 0 0 1-.162 1.206.745.745 0 0 1-.162-.018Z"/>
    <path fill="#DD9F03" d="M50.082 21.216a1.44 1.44 0 1 1 .762-2.778 1.44 1.44 0 0 1 1.008 1.77 1.439 1.439 0 0 1-1.386 1.062 2.042 2.042 0 0 1-.384-.054Z"/>
    <path fill="#EFD912" d="M50.19 20.394a1.02 1.02 0 1 1 .54-1.968 1.023 1.023 0 0 1-.27 2.01 1.403 1.403 0 0 1-.27-.042Z"/>
    <path fill="#FCFF71" d="M50.298 19.8a.613.613 0 0 1-.432-.756.613.613 0 0 1 .756-.432.613.613 0 0 1-.162 1.206.376.376 0 0 1-.162-.018Z"/>
    <path fill="#DD9F03" d="M47.166 21.336a1.44 1.44 0 1 1 .762-2.778 1.44 1.44 0 0 1 1.008 1.77 1.439 1.439 0 0 1-1.77 1.008Z"/>
    <path fill="#EFD912" d="M47.274 20.52a1.02 1.02 0 1 1 .54-1.968 1.023 1.023 0 0 1-.27 2.01 1.478 1.478 0 0 1-.27-.042Z"/>
    <path fill="#FCFF71" d="M47.382 19.926a.613.613 0 0 1-.432-.756.613.613 0 0 1 .756-.432.613.613 0 0 1-.162 1.206.376.376 0 0 1-.162-.018Z"/>
    <path fill="#DD9F03" d="M44.61 22.83a1.44 1.44 0 1 1 .762-2.778 1.44 1.44 0 0 1 1.008 1.77 1.439 1.439 0 0 1-1.77 1.008Z"/>
    <path fill="#EFD912" d="M44.718 22.428a1.02 1.02 0 1 1 .54-1.968 1.023 1.023 0 0 1-.27 2.01 1.403 1.403 0 0 1-.27-.042Z"/>
    <path fill="#FCFF71" d="M44.826 22.038a.613.613 0 0 1-.432-.756.613.613 0 0 1 .756-.432.613.613 0 0 1-.162 1.206.745.745 0 0 1-.162-.018Z"/>
    <path fill="#DD9F03" d="M42.18 24.558a1.44 1.44 0 1 1 .762-2.778 1.44 1.44 0 0 1 1.008 1.77 1.439 1.439 0 0 1-1.386 1.062 2.19 2.19 0 0 1-.384-.054Z"/>
    <path fill="#EFD912" d="M42.294 23.736a1.02 1.02 0 1 1 .54-1.968 1.023 1.023 0 0 1-.27 2.01 1.403 1.403 0 0 1-.27-.042Z"/>
    <path fill="#FCFF71" d="M42.402 23.142a.613.613 0 0 1-.432-.756.613.613 0 0 1 .756-.432.613.613 0 0 1-.162 1.206.376.376 0 0 1-.162-.018Z"/>
    <path fill="#DD9F03" d="M39.504 25.782a1.44 1.44 0 1 1 .762-2.778 1.44 1.44 0 0 1 1.008 1.77 1.439 1.439 0 0 1-1.386 1.062 2.042 2.042 0 0 1-.384-.054Z"/>
    <path fill="#EFD912" d="M39.612 24.96a1.02 1.02 0 1 1 .54-1.968 1.023 1.023 0 0 1-.27 2.01 1.403 1.403 0 0 1-.27-.042Z"/>
    <path fill="#FCFF71" d="M39.72 24.366a.613.613 0 0 1-.432-.756.613.613 0 0 1 .756-.432.613.613 0 0 1-.162 1.206.376.376 0 0 1-.162-.018Z"/>
    <path fill="#DD9F03" d="M36.684 26.664a1.44 1.44 0 1 1 .762-2.778 1.44 1.44 0 0 1 1.008 1.77 1.439 1.439 0 0 1-1.386 1.062 2.19 2.19 0 0 1-.384-.054Z"/>
    <path fill="#EFD912" d="M36.798 25.842a1.02 1.02 0 1 1 .54-1.968 1.023 1.023 0 0 1-.27 2.01 1.403 1.403 0 0 1-.27-.042Z"/>
    <path fill="#FCFF71" d="M36.906 25.248a.613.613 0 0 1-.432-.756.613.613 0 0 1 .756-.432.613.613 0 0 1-.162 1.206.376.376 0 0 1-.162-.018Z"/>
    <path fill="#DD9F03" d="M33.87 27.546a1.44 1.44 0 1 1 .762-2.778 1.44 1.44 0 0 1 1.008 1.77 1.439 1.439 0 0 1-1.77 1.008Z"/>
    <path fill="#EFD912" d="M33.984 26.73a1.02 1.02 0 1 1 .54-1.968 1.023 1.023 0 0 1-.27 2.01 1.403 1.403 0 0 1-.27-.042Z"/>
    <path fill="#FCFF71" d="M34.092 26.136a.613.613 0 0 1-.432-.756.613.613 0 0 1 .756-.432.613.613 0 0 1-.162 1.206.376.376 0 0 1-.162-.018Z"/>
    <path fill="#DD9F03" d="M31.29 28.944a1.44 1.44 0 1 1 .762-2.778 1.44 1.44 0 0 1 1.008 1.77 1.439 1.439 0 0 1-1.77 1.008Z"/>
    <path fill="#EFD912" d="M31.398 28.128a1.02 1.02 0 1 1 .54-1.968 1.023 1.023 0 0 1-.27 2.01 1.403 1.403 0 0 1-.27-.042Z"/>
    <path fill="#FCFF71" d="M31.506 27.534a.613.613 0 0 1-.432-.756.613.613 0 0 1 .756-.432.613.613 0 0 1-.162 1.206.376.376 0 0 1-.162-.018Z"/>
    <path fill="#DD9F03" d="M29.346 31.134a1.44 1.44 0 1 1 .762-2.778 1.44 1.44 0 0 1 1.008 1.77 1.439 1.439 0 0 1-1.386 1.062 1.647 1.647 0 0 1-.384-.054Z"/>
    <path fill="#EFD912" d="M29.454 30.312a1.02 1.02 0 1 1 .54-1.968 1.023 1.023 0 0 1-.27 2.01 1.403 1.403 0 0 1-.27-.042Z"/>
    <path fill="#FCFF71" d="M29.562 29.724a.613.613 0 0 1-.432-.756.613.613 0 0 1 .756-.432.613.613 0 0 1-.162 1.206.745.745 0 0 1-.162-.018Z"/>
    <path fill="#DD9F03" d="M28.224 33.846a1.44 1.44 0 1 1 .762-2.778 1.44 1.44 0 0 1 1.008 1.77 1.439 1.439 0 0 1-1.386 1.062 2.042 2.042 0 0 1-.384-.054Z"/>
    <path fill="#EFD912" d="M28.332 33.024a1.02 1.02 0 1 1 .54-1.968 1.023 1.023 0 0 1-.27 2.01 1.403 1.403 0 0 1-.27-.042Z"/>
    <path fill="#FCFF71" d="M28.44 32.43a.613.613 0 0 1-.432-.756.613.613 0 0 1 .756-.432.613.613 0 0 1-.162 1.206.376.376 0 0 1-.162-.018Z"/>
    <path fill="#DD9F03" d="M28.338 36.768a1.44 1.44 0 1 1 .762-2.778 1.44 1.44 0 0 1 1.008 1.77 1.439 1.439 0 0 1-1.77 1.008Z"/>
    <path fill="#EFD912" d="M28.446 35.952a1.02 1.02 0 1 1 .54-1.968 1.023 1.023 0 0 1-.27 2.01 1.403 1.403 0 0 1-.27-.042Z"/>
    <path fill="#FCFF71" d="M28.554 35.358a.613.613 0 0 1-.432-.756.613.613 0 0 1 .756-.432.613.613 0 0 1-.162 1.206.376.376 0 0 1-.162-.018Z"/>
    <path fill="#DD9F03" d="M29.466 39.486a1.44 1.44 0 1 1 .762-2.778 1.44 1.44 0 0 1 1.008 1.77 1.446 1.446 0 0 1-1.392 1.062 1.37 1.37 0 0 1-.378-.054Z"/>
    <path fill="#EFD912" d="M29.574 38.67a1.02 1.02 0 1 1 .54-1.968 1.023 1.023 0 0 1-.27 2.01 1.403 1.403 0 0 1-.27-.042Z"/>
    <path fill="#FCFF71" d="M29.682 38.076a.613.613 0 0 1-.432-.756.613.613 0 0 1 .756-.432.613.613 0 0 1-.162 1.206.376.376 0 0 1-.162-.018Z"/>
    <path fill="#DD9F03" d="M31.206 41.868a1.44 1.44 0 1 1 .762-2.778 1.44 1.44 0 0 1 1.008 1.77 1.439 1.439 0 0 1-1.386 1.062 1.647 1.647 0 0 1-.384-.054Z"/>
    <path fill="#EFD912" d="M31.314 41.046a1.02 1.02 0 1 1 .54-1.968 1.023 1.023 0 0 1-.27 2.01 1.403 1.403 0 0 1-.27-.042Z"/>
    <path fill="#FCFF71" d="M31.422 40.458a.613.613 0 0 1-.432-.756.613.613 0 0 1 .756-.432.613.613 0 0 1-.162 1.206.745.745 0 0 1-.162-.018Z"/>
    <path fill="#DD9F03" d="M33.342 43.902a1.44 1.44 0 1 1 .762-2.778 1.44 1.44 0 0 1 1.008 1.77 1.439 1.439 0 0 1-1.77 1.008Z"/>
    <path fill="#EFD912" d="M33.45 43.086a1.02 1.02 0 1 1 .54-1.968 1.023 1.023 0 0 1-.27 2.01 1.403 1.403 0 0 1-.27-.042Z"/>
    <path fill="#FCFF71" d="M33.558 42.492a.613.613 0 0 1-.432-.756.613.613 0 0 1 .756-.432.613.613 0 0 1-.162 1.206.376.376 0 0 1-.162-.018Z"/>
    <path fill="#DD9F03" d="M38.424 46.866a1.44 1.44 0 1 1 .762-2.778 1.44 1.44 0 0 1 1.008 1.77 1.439 1.439 0 0 1-1.77 1.008Z"/>
    <path fill="#EFD912" d="M38.532 46.044a1.02 1.02 0 1 1 .54-1.968 1.023 1.023 0 0 1-.27 2.01 1.403 1.403 0 0 1-.27-.042Z"/>
    <path fill="#FCFF71" d="M38.64 45.456a.613.613 0 0 1-.432-.756.613.613 0 0 1 .756-.432.613.613 0 0 1-.162 1.206.745.745 0 0 1-.162-.018Z"/>
    <path fill="#DD9F03" d="M35.766 45.588a1.44 1.44 0 1 1 .762-2.778 1.44 1.44 0 0 1 1.008 1.77 1.439 1.439 0 0 1-1.77 1.008Z"/>
    <path fill="#EFD912" d="M35.874 44.772a1.02 1.02 0 1 1 .54-1.968 1.023 1.023 0 0 1-.27 2.01 1.403 1.403 0 0 1-.27-.042Z"/>
    <path fill="#FCFF71" d="M35.982 44.178a.613.613 0 0 1-.432-.756.613.613 0 0 1 .756-.432.613.613 0 0 1-.162 1.206.376.376 0 0 1-.162-.018Z"/>
    <path fill="#DD9F03" d="M41.28 47.58a1.44 1.44 0 1 1 .762-2.778 1.44 1.44 0 0 1 1.008 1.77 1.439 1.439 0 0 1-1.77 1.008Z"/>
    <path fill="#EFD912" d="M41.394 46.764a1.02 1.02 0 1 1 .54-1.968 1.023 1.023 0 0 1-.27 2.01 1.403 1.403 0 0 1-.27-.042Z"/>
    <path fill="#FCFF71" d="M41.502 46.17a.613.613 0 0 1-.432-.756.613.613 0 0 1 .756-.432.613.613 0 0 1-.162 1.206.376.376 0 0 1-.162-.018Z"/>
    <path fill="#207C06" d="M44.904 61.11h-1.98v-1.092a.991.991 0 0 1 1.98 0v1.092Z"/>
    <path fill="#30AA17" d="M43.914 60.39a.65.65 0 0 1-.648-.648v-.066a.65.65 0 0 1 1.296 0v.066c0 .36-.288.648-.648.648Zm.99.72h-1.98c-.744 5.118-2.556 8.802-2.73 11.04 1.428-1.002 1.98-1.842 1.98-1.842.768 1.758 1.05 2.76 1.05 2.76.96-1.602 1.836-3.36 1.836-3.36.888 2.958 1.644 4.92 1.644 4.92.996-4.356-1.8-13.518-1.8-13.518Z"/>
    <path fill="#207C06" d="M44.88 65.34c-.18 1.5-.9 2.82-1.74 4.08-.36-1.02.48-1.98 0-3 .06 1.14-.96 1.92-1.74 2.58-.036-.492.042-1.008.018-1.518-.594 1.944-1.128 3.504-1.224 4.668 1.428-1.002 1.98-1.842 1.98-1.842.768 1.758 1.05 2.76 1.05 2.76.96-1.602 1.836-3.36 1.836-3.36.888 2.958 1.644 4.92 1.644 4.92.27-1.17.264-2.694.108-4.29-2.106-1.674-1.206-3.066-1.932-4.998Z"/>
    <path fill="#50DB2E" d="M43.344 61.11h-.414c-.744 5.118-2.556 8.802-2.73 11.04.228-.162.432-.312.618-.462 2.604-6.396 1.302-5.616 2.526-10.578Zm1.56 0h-.546c.906 3.096 2.238 9.102 1.896 12.306.27.774.444 1.212.444 1.212 1.002-4.356-1.794-13.518-1.794-13.518Z"/>
    <path fill="#171C47" d="M57.138 26.418a1.72 1.72 0 0 0-.486-1.242 1.76 1.76 0 0 0-.63-.42 1.737 1.737 0 0 0 .366-1.956 1.709 1.709 0 0 0-.972-.912 1.714 1.714 0 0 0-.732-.108 1.739 1.739 0 0 0-2.49-2.124 1.743 1.743 0 0 0-2.658-1.302 1.67 1.67 0 0 0-.57.588 1.681 1.681 0 0 0-.612-.528 1.702 1.702 0 0 0-1.326-.114 1.721 1.721 0 0 0-1.02.858c-.12.228-.186.48-.198.732a1.738 1.738 0 0 0-1.944.24l-.018.012c-.012.006-.018.018-.03.024a1.74 1.74 0 0 0-.588 1.404c-.066-.03-.132-.048-.204-.072a1.745 1.745 0 0 0-2.184 1.452 1.725 1.725 0 0 0-1.554-.18 1.73 1.73 0 0 0-1.086 1.194 1.732 1.732 0 0 0-1.608-.354 1.716 1.716 0 0 0-1.206 1.236 1.602 1.602 0 0 0-.42-.264 1.711 1.711 0 0 0-1.332-.036 1.758 1.758 0 0 0-1.116 1.5 1.73 1.73 0 0 0-.63-.204 1.735 1.735 0 0 0-1.944 1.506c-.03.234-.012.468.048.69a1.75 1.75 0 0 0-1.752.804 1.715 1.715 0 0 0-.21 1.314c.054.216.144.42.264.594a1.751 1.751 0 0 0-1.404 1.398 1.743 1.743 0 0 0 .828 1.818 1.74 1.74 0 0 0 .696 3.138c-.12.168-.204.354-.258.558-.12.45-.054.918.18 1.32.312.534.888.864 1.506.864.042 0 .084 0 .126-.006a1.738 1.738 0 0 0 2.052 2.328 1.728 1.728 0 0 0-.024.528c.048.462.27.876.63 1.17a1.754 1.754 0 0 0 1.782.252 1.74 1.74 0 0 0 2.67 1.554c.018.18.072.36.15.528a1.736 1.736 0 0 0 2.784.528c.204.624.756 1.11 1.452 1.188h.006a1.738 1.738 0 0 0 1.662-.78c.24.3.582.51.954.6a1.736 1.736 0 0 0 .39 2.64 1.73 1.73 0 0 0-.828 1.194v.006a1.726 1.726 0 0 0 .492 1.53 1.726 1.726 0 0 0-1.182 1.206 1.74 1.74 0 0 0 1.092 2.094c-.276.408-.558 1.14-.45 2.346-.552.144-.96.648-.96 1.242v1.068c-.414 2.838-1.164 5.25-1.764 7.188-.492 1.584-.882 2.838-.96 3.852a.288.288 0 0 0 .15.282.303.303 0 0 0 .318-.012c.858-.606 1.416-1.152 1.728-1.506.6 1.434.834 2.256.84 2.262.03.114.132.198.246.216a.305.305 0 0 0 .3-.144 54.84 54.84 0 0 0 1.506-2.718c.786 2.544 1.428 4.212 1.44 4.23a.307.307 0 0 0 .282.192h.024a.3.3 0 0 0 .27-.234c.984-4.284-1.56-12.87-1.794-13.632v-1.044c0-.618-.438-1.134-1.02-1.26-.15-1.512.378-2.088.54-2.232a1.741 1.741 0 0 0 1.404-2.598 1.967 1.967 0 0 0-.288-.378 1.736 1.736 0 0 0 .408-3.15 1.72 1.72 0 0 0 .834-1.782 1.752 1.752 0 0 0-1.248-1.392c.102-.102.186-.222.258-.348.132-.228.204-.48.222-.738a1.754 1.754 0 0 0 2.076-.384l.012-.012c.522-.588.576-1.44.174-2.082a1.751 1.751 0 0 0 1.44-1.362v-.012a1.75 1.75 0 0 0-.582-1.686 1.73 1.73 0 0 0 1.02-1.362 1.73 1.73 0 0 0-.516-1.482c.486-.18.882-.57 1.05-1.086a1.725 1.725 0 0 0-.138-1.404c.48-.036.924-.27 1.224-.654l.012-.012c.282-.36.408-.81.354-1.272l-.018-.126a1.76 1.76 0 0 0 1.602-.396 1.741 1.741 0 0 0 .474-1.872 1.742 1.742 0 0 0 1.716-.942 1.743 1.743 0 0 0-.276-1.974c.66-.192 1.158-.828 1.176-1.578Zm-2.802-3.942a1.135 1.135 0 0 1 1.506.57 1.143 1.143 0 0 1-1.038 1.608c-.45 0-.858-.264-1.038-.672a1.138 1.138 0 0 1 .57-1.506Zm-2.142-2.058c.228-.258.54-.396.864-.396a1.134 1.134 0 0 1 1.134 1.056c.024.306-.078.6-.276.828a1.14 1.14 0 0 1-1.608.12 1.142 1.142 0 0 1-.114-1.608Zm-2.844-.846a1.136 1.136 0 0 1 1.362-.858c.612.138.996.756.858 1.368a1.136 1.136 0 0 1-1.362.858 1.14 1.14 0 0 1-.858-1.368Zm-2.814-.15c.138-.27.378-.468.666-.558a1.13 1.13 0 0 1 1.428.744c.09.288.066.6-.078.87a1.135 1.135 0 0 1-1.008.612c-.498 0-.936-.318-1.086-.798-.09-.294-.066-.6.078-.87Zm-2.322 1.182.012-.012.006-.006.012-.012.018-.012a1.14 1.14 0 0 1 1.608.108c.198.228.3.522.282.828a1.111 1.111 0 0 1-.384.78l-.006.006-.012.012c-.006.006-.012.006-.012.012-.006 0-.006.006-.012.006l-.006.006c-.21.18-.474.282-.744.282-.33 0-.642-.144-.864-.39-.42-.474-.372-1.2.102-1.608ZM42 22.176c.264-.15.57-.192.864-.108.294.078.54.27.69.534.15.264.192.57.108.864-.078.294-.27.54-.534.69-.006 0-.006.006-.012.006A1.14 1.14 0 0 1 42 22.176Zm-2.508 1.146a1.146 1.146 0 0 1 1.464.678c.102.288.09.594-.036.87a1.107 1.107 0 0 1-.642.588 1.095 1.095 0 0 1-.39.072 1.139 1.139 0 0 1-.396-2.208Zm-3.42 1.398a1.141 1.141 0 1 1 .996 1.698 1.15 1.15 0 0 1-1.098-.828c-.084-.3-.048-.606.102-.87Zm-2.226.372a1.136 1.136 0 0 1 1.47.66 1.14 1.14 0 0 1-.66 1.47 1.2 1.2 0 0 1-.408.078c-.468 0-.9-.294-1.068-.732a1.157 1.157 0 0 1 .666-1.476Zm-3.306 2.322c.036-.3.192-.57.432-.756.204-.156.444-.24.696-.24.048 0 .096.006.144.012.3.036.57.192.756.432a1.145 1.145 0 0 1-.9 1.842c-.354 0-.684-.162-.9-.444a1.137 1.137 0 0 1-.228-.846Zm-1.788 1.734a1.14 1.14 0 0 1 1.566-.372 1.14 1.14 0 0 1 .372 1.566c-.21.342-.57.54-.972.54a1.138 1.138 0 0 1-1.104-.876c-.072-.294-.018-.6.138-.858Zm-1.086 3.954a1.129 1.129 0 0 1-.18-.852 1.144 1.144 0 0 1 1.332-.912c.612.114 1.02.702.918 1.314 0 .006 0 .012-.006.018a1.139 1.139 0 0 1-2.064.432Zm-.054 2.55a1.15 1.15 0 0 1 .132-.864c.156-.258.408-.444.702-.516a1.143 1.143 0 0 1 .546 2.22c-.09.024-.18.03-.27.03-.534 0-.99-.36-1.11-.87Zm2.232 3.588a1.131 1.131 0 0 1-1.098-1.428 1.14 1.14 0 1 1 2.202.582c-.078.294-.264.54-.528.696-.18.096-.372.15-.576.15Zm2.496 2.088a1.134 1.134 0 0 1-1.608-.096 1.134 1.134 0 0 1 .096-1.608 1.135 1.135 0 0 1 1.608.096c.204.228.306.522.288.822a1.125 1.125 0 0 1-.384.786Zm2.262 1.908a1.139 1.139 0 0 1-1.602.162 1.136 1.136 0 0 1-.162-1.602 1.141 1.141 0 0 1 2.016.606c.03.3-.06.6-.252.834Zm2.526 1.542a1.146 1.146 0 0 1-1.56.408 1.144 1.144 0 0 1-.408-1.56 1.142 1.142 0 0 1 2.088.288c.078.294.03.6-.12.864Zm2.742 1.098a1.148 1.148 0 0 1-1.068.744 1.126 1.126 0 0 1-1.032-.666 1.123 1.123 0 0 1-.03-.87 1.145 1.145 0 0 1 1.464-.672c.588.216.888.876.666 1.464Zm-.456-2.028a1.741 1.741 0 0 0-1.542.162 1.78 1.78 0 0 0-.048-.246 1.71 1.71 0 0 0-.804-1.062 1.744 1.744 0 0 0-1.566-.096c.006-.09 0-.174-.006-.264a1.727 1.727 0 0 0-.63-1.17 1.742 1.742 0 0 0-1.53-.336c.018-.084.03-.168.03-.252a1.713 1.713 0 0 0-.438-1.26 1.721 1.721 0 0 0-1.428-.576c.024-.066.048-.132.066-.198a1.74 1.74 0 0 0-1.392-2.16c.024-.03.042-.066.066-.102a1.74 1.74 0 0 0 .204-1.314 1.73 1.73 0 0 0-.81-1.086c.36-.252.624-.636.714-1.092 0-.006.006-.012.006-.018.09-.474-.03-.942-.288-1.314a1.728 1.728 0 0 0 1.176-.798c.264-.432.318-.93.192-1.38.09.012.18.018.27.018.39 0 .756-.126 1.062-.366.408-.318.636-.78.672-1.26a1.738 1.738 0 0 0 1.47.108c.546-.21.924-.666 1.062-1.188a1.735 1.735 0 0 0 2.814-.882c.312.264.708.42 1.134.42.204 0 .402-.036.594-.108a1.748 1.748 0 0 0 1.134-1.404 1.73 1.73 0 0 0 1.812.06c.006 0 .006-.006.012-.006.396-.228.684-.6.804-1.044.048-.18.072-.366.06-.552.21.084.432.132.666.132.414 0 .822-.15 1.134-.426.012-.006.018-.018.03-.024.012-.012.024-.018.03-.03a1.72 1.72 0 0 0 .588-1.188v-.036c.24.12.51.192.798.192.18 0 .354-.03.522-.084.414-.132.756-.402.978-.774a1.712 1.712 0 0 0 1.416.726c.312 0 .606-.084.864-.228.042.444.252.852.594 1.146.318.276.72.426 1.14.426.042 0 .084 0 .12-.006a1.742 1.742 0 0 0 1.002 2.238c-.312.306-.51.732-.522 1.206-.012.456.156.888.468 1.224a1.747 1.747 0 0 0-1.092 2.238c-.03 0-.054-.006-.084-.006-.462-.024-.9.132-1.242.438l-.012.012a1.732 1.732 0 0 0-.54 1.614 1.747 1.747 0 0 0-1.8.606 1.735 1.735 0 0 0-.36 1.284c.03.234.102.45.21.648a1.715 1.715 0 0 0-.636.18 1.74 1.74 0 0 0-.426 2.808 1.747 1.747 0 0 0-1.128 1.404 1.724 1.724 0 0 0 .606 1.56 1.746 1.746 0 0 0-1.002 1.23c-.096.444-.012.9.228 1.284a1.732 1.732 0 0 0-1.47 1.596 1.713 1.713 0 0 0-1.242-.126c-.012.006-.024.006-.036.012a1.76 1.76 0 0 0-1.086.75 1.749 1.749 0 0 0-1.35-.648c-.462 0-.888.18-1.206.486a1.691 1.691 0 0 0-1.032-1.098Zm5.46 1.134a1.14 1.14 0 0 1 .066 2.106.801.801 0 0 1-.108.042 1.143 1.143 0 0 1-1.23-1.68c.144-.252.372-.432.648-.522.204-.042.42-.024.624.054Zm-3.21 2.352c-.048 0-.09 0-.132-.006h-.006a1.144 1.144 0 0 1-.996-1.266 1.138 1.138 0 0 1 2.214-.216c-.024.198-.012.402.03.6-.114.51-.57.888-1.11.888Zm4.914 26.088a87.395 87.395 0 0 1-1.236-3.792.288.288 0 0 0-.264-.21h-.024a.307.307 0 0 0-.27.168 60.569 60.569 0 0 1-1.482 2.766 31.91 31.91 0 0 0-.852-2.154.298.298 0 0 0-.522-.048c-.006.006-.396.582-1.332 1.332.156-.834.468-1.836.84-3.03.594-1.902 1.326-4.26 1.752-7.038h1.494c.366 1.266 2.232 7.902 1.896 12.006Zm-1.974-13.398v.792h-1.38v-.792a.69.69 0 0 1 1.38 0Zm1.116-4.932c-.132.492-.588.84-1.098.84a1.138 1.138 0 0 1-.564-2.13c.264-.15.57-.192.864-.108.294.078.54.27.69.534.15.264.192.57.108.864Zm.75-3.018a1.134 1.134 0 0 1-1.314.93 1.139 1.139 0 0 1-.93-1.308v-.006a1.13 1.13 0 0 1 1.314-.93 1.14 1.14 0 0 1 .93 1.314Zm.03-3.36c.048.3-.018.6-.198.852a1.135 1.135 0 0 1-.924.48 1.135 1.135 0 0 1-1.122-.954c-.048-.3.018-.6.198-.852a1.135 1.135 0 0 1 2.046.474Zm1.452-3.36-.012.012a1.154 1.154 0 0 1-.834.366c-.282 0-.558-.108-.768-.294a1.15 1.15 0 0 1-.078-1.614 1.138 1.138 0 0 1 1.608-.078c.474.42.51 1.14.084 1.608Zm1.488-3.18v.006a1.147 1.147 0 0 1-1.35.876 1.14 1.14 0 1 1 1.35-.882Zm.432-3.006c-.078.564-.558.99-1.128.99-.048 0-.102-.006-.156-.012-.3-.042-.57-.198-.756-.438a1.12 1.12 0 0 1-.222-.846c.042-.3.198-.57.438-.756.24-.186.54-.264.84-.222.624.09 1.068.66.984 1.284Zm.564-2.67a1.135 1.135 0 0 1-1.44.72 1.142 1.142 0 0 1-.15-2.1 1.147 1.147 0 0 1 1.53.51c.132.27.156.576.06.87Zm1.188-2.244c0 .006-.006.006-.006.012a1.132 1.132 0 0 1-1.59.18 1.118 1.118 0 0 1-.426-.762c-.036-.3.048-.6.24-.84.186-.24.462-.39.762-.426.048-.006.09-.006.138-.006a1.1 1.1 0 0 1 .702.246c.24.186.39.462.426.762.024.294-.06.594-.246.834Zm2.01-1.878c-.21.192-.48.294-.762.294a1.142 1.142 0 0 1-.78-1.974c.006 0 .006-.006.012-.012a1.15 1.15 0 0 1 .822-.294c.306.012.582.15.786.372.204.228.312.516.294.822a1.113 1.113 0 0 1-.372.792Zm2.058-2.64a1.144 1.144 0 0 1-1.536.498 1.138 1.138 0 1 1 1.038-2.028c.558.282.78.972.498 1.53Zm-.294-2.214h-.03a1.12 1.12 0 0 1-.798-.354 1.142 1.142 0 0 1 .822-1.932h.024a1.14 1.14 0 0 1 1.116 1.164 1.138 1.138 0 0 1-1.134 1.122Z"/>
</svg>
